<svg xmlns="http://www.w3.org/2000/svg" viewBox="0 0 308.9 301.3"><defs><style>.cls-1{fill:#fff;}.cls-2{fill:#1e88e5;}</style></defs><title>Ресурс 1</title><g id="Слой_2" data-name="Слой 2"><g id="Layer_1" data-name="Layer 1"><path class="cls-1" d="M172,18.8a9.8,9.8,0,1,1,19.6,0V82.1H172V18.8Z"/><path class="cls-1" d="M251.3,18.8a9.8,9.8,0,1,1,19.6,0V82.1H251.3V18.8Z"/><path class="cls-2" d="M41.2,137.4a46.43,46.43,0,0,1,46.4,46.4v65.9A17.41,17.41,0,0,0,105,267.1h86.5a17.41,17.41,0,0,0,17.4-17.4V220.3a4.69,4.69,0,0,0-3.9-4.5,54,54,0,0,1-46.4-53.3V125.2H284.3v37.3a54,54,0,0,1-46.2,53.3H219.5a4.5,4.5,0,0,0,0,9H234v24.9a42.53,42.53,0,0,1-42.5,42.5H105a42.53,42.53,0,0,1-42.5-42.5V183.8a21.32,21.32,0,0,0-21.3-21.3H9V137.4Z"/><path class="cls-1" d="M146.2,116.3a3.33,3.33,0,0,1-3.3-3.3V94.5a3.33,3.33,0,0,1,3.3-3.3H296.6a3.33,3.33,0,0,1,3.3,3.3V113a3.33,3.33,0,0,1-3.3,3.3H146.2Z"/><path class="cls-1" d="M208.9,175.7a12.6,12.6,0,1,1,12.6,12.6,12.61,12.61,0,0,1-12.6-12.6Zm12.5,21.6a21.6,21.6,0,1,0-21.6-21.6,21.64,21.64,0,0,0,21.6,21.6Z"/><path class="cls-1" d="M208.9,175.7a12.6,12.6,0,1,1,12.6,12.6,12.61,12.61,0,0,1-12.6-12.6Z"/><path class="cls-2" d="M41.2,162.5H9V137.4H41.2a46.43,46.43,0,0,1,46.4,46.4v65.9A17.41,17.41,0,0,0,105,267.1h86.5a17.41,17.41,0,0,0,17.4-17.4V220.3a4.69,4.69,0,0,0-3.9-4.5,54,54,0,0,1-46.4-53.3V125.2H284.3v37.3a54,54,0,0,1-46.2,53.3H219.5a4.5,4.5,0,0,0,0,9H234v24.9a42.53,42.53,0,0,1-42.5,42.5H105a42.53,42.53,0,0,1-42.5-42.5V183.8a21.38,21.38,0,0,0-21.3-21.3Zm247.6-46.2H146.3A3.33,3.33,0,0,1,143,113V94.5a3.33,3.33,0,0,1,3.3-3.3H296.7a3.33,3.33,0,0,1,3.3,3.3V113a3.33,3.33,0,0,1-3.3,3.3ZM270.9,82.1H251.3V18.8a9.8,9.8,0,1,1,19.6,0V82.1Zm-79.3,0H172V18.8a9.8,9.8,0,1,1,19.6,0V82.1ZM0,132.9v34.5H0a4.57,4.57,0,0,0,4.5,4.2H41.2a12.29,12.29,0,0,1,12.3,12.3v65.9A51.55,51.55,0,0,0,105,301.3h86.5A51.55,51.55,0,0,0,243,249.8V224.2a63.17,63.17,0,0,0,50.3-61.6V125.3h3.3A12.29,12.29,0,0,0,308.9,113V94.5a12.29,12.29,0,0,0-12.3-12.3H279.9V18.8a18.8,18.8,0,1,0-37.6,0V82.1H200.5V18.8a18.75,18.75,0,1,0-37.5,0V82.1H146.3A12.29,12.29,0,0,0,134,94.4v18.5a12.29,12.29,0,0,0,12.3,12.3h3.3v37.3a63.17,63.17,0,0,0,50.3,61.6v25.6a8.45,8.45,0,0,1-8.4,8.4H105a8.45,8.45,0,0,1-8.4-8.4V183.8a55.46,55.46,0,0,0-55.4-55.4H4.5A4.48,4.48,0,0,0,0,132.9Z"/></g></g></svg>