<svg xmlns="http://www.w3.org/2000/svg" viewBox="0 0 309 309"><defs><style>.cls-1{fill:#1e88e5;}.cls-2{fill:#fff;}</style></defs><title>Ресурс 10</title><g id="Слой_2" data-name="Слой 2"><g id="Layer_1" data-name="Layer 1"><path class="cls-1" d="M203.5,100l12.3-15.4a92.9,92.9,0,1,1-65.7-22.9V81.4A73.37,73.37,0,1,0,203.5,100Zm-9.8-2.1a4.55,4.55,0,0,0,.7,6.3,64.26,64.26,0,1,1-40-14,4.48,4.48,0,0,0,4.5-4.5V57.1a4.48,4.48,0,0,0-4.5-4.5,101.82,101.82,0,0,0-72,174A101.91,101.91,0,1,0,217.9,74.8a4.29,4.29,0,0,0-3.3-.9,4,4,0,0,0-3,1.7L193.7,97.9Z"/><path class="cls-1" d="M203.5,100l12.3-15.4a92.9,92.9,0,1,1-65.7-22.9V81.4A73.37,73.37,0,1,0,203.5,100Z"/><path class="cls-1" d="M198.6,154.5a44.1,44.1,0,1,1-44.1-44.1,44.17,44.17,0,0,1,44.1,44.1Zm9,0a53.1,53.1,0,1,0-53.1,53.1,53.13,53.13,0,0,0,53.1-53.1Z"/><path class="cls-1" d="M198.6,154.5a44.1,44.1,0,1,1-44.1-44.1,44.17,44.17,0,0,1,44.1,44.1Z"/><path class="cls-2" d="M184.7,139.9a14.5,14.5,0,1,0-14.5,14.5,14.51,14.51,0,0,0,14.5-14.5Z"/><path class="cls-1" d="M28.6,0H81.8a4.5,4.5,0,0,1,0,9H28.6A19.63,19.63,0,0,0,9,28.6V81.8a4.5,4.5,0,0,1-9,0V28.6A28.59,28.59,0,0,1,28.6,0Z"/><path class="cls-1" d="M304.5,86.3a4.48,4.48,0,0,1-4.5-4.5V28.6A19.63,19.63,0,0,0,280.4,9H227.2a4.5,4.5,0,0,1,0-9h53.2A28.59,28.59,0,0,1,309,28.6V81.8a4.48,4.48,0,0,1-4.5,4.5Z"/><path class="cls-1" d="M280.4,309H227.2a4.5,4.5,0,0,1,0-9h53.2A19.63,19.63,0,0,0,300,280.4V227.2a4.5,4.5,0,0,1,9,0v53.2A28.59,28.59,0,0,1,280.4,309Z"/><path class="cls-1" d="M4.5,222.7A4.48,4.48,0,0,1,9,227.2v53.2A19.63,19.63,0,0,0,28.6,300H81.8a4.5,4.5,0,1,1,0,9H28.6A28.59,28.59,0,0,1,0,280.4V227.2a4.48,4.48,0,0,1,4.5-4.5Z"/></g></g></svg>