<svg xmlns="http://www.w3.org/2000/svg" viewBox="0 0 309.1 283.2"><defs><style>.cls-1{fill:#1e88e5;}.cls-2{fill:#fff;}</style></defs><title>Ресурс 11</title><g id="Слой_2" data-name="Слой 2"><g id="Layer_1" data-name="Layer 1"><path class="cls-1" d="M9,188.9a30.28,30.28,0,0,1,48.1-24.5c.2.2.5.3.7.5s.4.3.6.5.5.4.7.6a2.34,2.34,0,0,1,.7.7l.9.9.5.5.7.7c.1.2.3.3.4.5s.5.6.7.9c.1.1.2.3.3.4a29.61,29.61,0,0,1,2.8,4.4h0a27.93,27.93,0,0,1,2.9,8.4v.2a7.84,7.84,0,0,1,.2,1.4.6.6,0,0,0,.1.4,5.7,5.7,0,0,1,.1,1.3v2.2h0a30.2,30.2,0,1,1-60.4,0Zm83.3-14.3L78,182v-.1a35.28,35.28,0,0,0-1.4-5.6h0a35.38,35.38,0,0,0-2.3-5.3c0-.1-.1-.1-.1-.2-.4-.8-.9-1.7-1.4-2.5a.1.1,0,0,0-.1-.1c-.4-.7-.9-1.4-1.4-2.1-.1-.2-.2-.3-.3-.5-.5-.7-1-1.3-1.5-1.9-.2-.2-.3-.4-.5-.6-.4-.5-.8-.9-1.2-1.4l-.4-.4,14.9-7.7c.2.7.4,1.5.6,2.2,0,.1.1.2.1.3a60.74,60.74,0,0,0,9.3,18.5Zm-1.4-23.5c0-.1-.1-.2-.1-.3-.2-.7-.3-1.4-.5-2.2a.37.37,0,0,0-.1-.3,52.18,52.18,0,0,1-1.1-10.6,52.9,52.9,0,0,1,105.7-3.1v.8c0,.8.1,1.5.1,2.3,0,1,0,2.1-.1,3.1a2.2,2.2,0,0,1-.1.8c-.1.8-.1,1.6-.2,2.4,0,.3-.1.5-.1.8a21.66,21.66,0,0,1-.4,2.5c0,.2-.1.4-.1.6q-.6,3-1.5,6l-.3.9a13.36,13.36,0,0,1-.7,1.8c-.2.4-.3.8-.5,1.2s-.4.9-.6,1.4a53.39,53.39,0,0,1-32.5,29c-.1,0-.2.1-.3.1-.7.2-1.3.4-2,.6-.2,0-.3.1-.5.1a15.54,15.54,0,0,1-2.3.5c-.2,0-.3.1-.5.1l-1.8.3c-.2,0-.5.1-.7.1l-2.3.3h-.3c-.7.1-1.4.1-2.1.2h-.7c-.8,0-1.6.1-2.4.1a52.87,52.87,0,0,1-51-39.5Zm56.6,98a24.93,24.93,0,0,1,6.5-16.8h0a23.52,23.52,0,0,1,3.3-3c.1-.1.2-.2.3-.2s.4-.3.6-.4a1.76,1.76,0,0,0,.5-.4,2.19,2.19,0,0,1,.5-.3,4.35,4.35,0,0,1,.7-.4c.1-.1.2-.1.4-.2a3,3,0,0,1,.8-.4c.1,0,.2-.1.3-.1a9.29,9.29,0,0,1,1-.5c.1,0,.1-.1.2-.1.4-.2.7-.3,1.1-.5h.1a5.64,5.64,0,0,1,1.2-.4h0a27.1,27.1,0,0,1,5.1-1.1h.1c.4,0,.8-.1,1.2-.1h1.5a9.15,9.15,0,0,1,1.7.1h.4a9.85,9.85,0,0,1,1.7.2h.1l1.6.3c.1,0,.3.1.4.1.5.1,1.1.3,1.6.4a25.09,25.09,0,0,1-7.6,49,25.37,25.37,0,0,1-25.3-25.2Zm27.5-34a20.08,20.08,0,0,0-2.5-.1,19.27,19.27,0,0,0-2.4.1h-.5a26.38,26.38,0,0,0-4.9.8h-.2a28.07,28.07,0,0,0-4.9,1.6h-.1c-.8.3-1.5.7-2.3,1-.1,0-.1.1-.2.1a19.83,19.83,0,0,0-2,1.1.35.35,0,0,0-.2.1c-.6.4-1.3.8-1.9,1.2-.1.1-.2.1-.3.2l-6-21.8c.2,0,.5-.1.7-.1a7.72,7.72,0,0,0,1.5-.2c.5-.1,1-.1,1.5-.2s1-.1,1.5-.2l1.5-.3,1.5-.3a8.33,8.33,0,0,0,1.5-.4l1.4-.3a10.93,10.93,0,0,0,1.7-.5c.4-.1.8-.2,1.1-.3a15.87,15.87,0,0,0,2-.7c.3-.1.5-.2.8-.3a24.43,24.43,0,0,0,2.4-1c.1,0,.2-.1.3-.1,1.1-.5,2.1-.9,3.2-1.4l6,21.8c0,.2-.1.2-.2.2Zm24-53.2c.1-.2.1-.3.2-.5.3-.7.6-1.4.9-2.2.1-.4.3-.8.4-1.2a8.8,8.8,0,0,0,.5-1.5c.2-.5.3-1.1.5-1.6l.3-1.2c.2-.6.3-1.2.5-1.8a3.55,3.55,0,0,0,.2-1c.1-.6.3-1.2.4-1.9.1-.4.1-.7.2-1.1l.3-1.8c.1-.4.1-.8.2-1.3s.1-1.1.2-1.6.1-1,.1-1.5.1-1,.1-1.5v-.6l22.1,5a37.27,37.27,0,0,0-1.6,3.5v.1a42.85,42.85,0,0,0-2.4,7.7c-.1.2-.1.5-.2.7-.1.5-.2.9-.3,1.4s-.1.7-.2,1.1-.1.8-.2,1.2a7.57,7.57,0,0,0-.1,1.5c0,.3-.1.6-.1.9,0,.8-.1,1.7-.1,2.5v2.1l-22.1-5c.1-.1.1-.3.2-.4Zm31.4,9.4c0-.2-.1-.5-.1-.7s-.1-.5-.1-.8-.1-.6-.1-1a2.2,2.2,0,0,0-.1-.8c0-.3-.1-.7-.1-1v-1.8a20.9,20.9,0,0,1,.1-2.5v-.6c.1-.8.2-1.5.3-2.3,0-.2.1-.5.1-.7.1-.5.2-1.1.3-1.6.1-.3.1-.6.2-.9.2-.6.3-1.2.5-1.9.1-.4.3-.8.4-1.2a4.18,4.18,0,0,1,.4-1c.2-.6.5-1.2.8-1.9.1-.3.3-.6.4-.9l.6-1.2c.3-.5.6-1,.9-1.6a3.59,3.59,0,0,1,.7-1,6.07,6.07,0,0,1,.7-1,35,35,0,1,1-5.9,26.4ZM204.7,75.4,188.3,96.7a60.59,60.59,0,0,0-18.4-14.2l16.4-21.3a2.65,2.65,0,0,0,.5.6c.2.3.5.6.7.9.5.7,1.1,1.3,1.6,1.9.1.2.3.3.4.5l1.2,1.2.1.1c.8.8,1.6,1.5,2.4,2.2.1.1.3.2.4.3a36.92,36.92,0,0,0,4,2.9,4.05,4.05,0,0,0,.9.5,8.26,8.26,0,0,0,1.3.7l1.8.9c.3.1.6.3.9.4a16.67,16.67,0,0,0,2,.8c0,.2.1.3.2.3Zm13.4-6.6a43.79,43.79,0,0,1-5.1-.4c-.5-.1-1-.2-1.6-.3a.37.37,0,0,1-.3-.1,7.37,7.37,0,0,1-1.4-.4c-.1,0-.2-.1-.3-.1-.5-.2-1.1-.3-1.6-.5a1.42,1.42,0,0,0-.6-.2l-.9-.3c-.3-.1-.6-.3-.9-.4s-.3-.1-.5-.2a5.36,5.36,0,0,0-1.1-.5c-.1,0-.1-.1-.2-.1a30,30,0,0,1-9.5-8.2c-.1-.1-.1-.1-.1-.2a8.65,8.65,0,0,1-.7-1c-.1-.1-.2-.3-.3-.4l-.6-.9a5.39,5.39,0,0,1-.7-1.3c-.1-.2-.2-.3-.3-.5a3.7,3.7,0,0,1-.5-1.1,29.44,29.44,0,0,1-2.8-12.6,30,30,0,1,1,30,29.7ZM109.4,85.1a62.37,62.37,0,0,0-17.1,15.7l-20.2-22c.9-.4,1.8-.8,2.7-1.3h0c.4-.2.7-.4,1.1-.6.1-.1.2-.1.3-.2a8.79,8.79,0,0,1,1-.6.52.52,0,0,1,.4-.2l.9-.6c.1-.1.3-.2.4-.3.3-.2.5-.4.8-.6a.78.78,0,0,0,.4-.4c.3-.2.5-.4.8-.6s.3-.3.5-.4.5-.4.7-.6l.6-.6a4.62,4.62,0,0,0,.7-.7,6.47,6.47,0,0,0,.8-.9c.1-.1.2-.3.4-.4.2-.3.5-.5.7-.8.1-.1.2-.3.4-.4.2-.3.4-.5.6-.8.1-.1.2-.3.3-.4l.6-.9c.1-.1.2-.3.3-.4l.6-.9c.1-.1.2-.3.3-.4.2-.3.4-.7.6-1,.1-.1.1-.2.2-.4a.35.35,0,0,1,.1-.2l20.1,21.9ZM84.2,47a26.11,26.11,0,0,1-.9,6.9c-.1.4-.3.9-.4,1.3,0,.1-.1.3-.1.4-.2.5-.4,1-.6,1.4-.1.1-.1.2-.2.4-.2.4-.3.7-.5,1.1-.1.2-.2.3-.3.5-.2.4-.5.8-.7,1.3-.1.1-.1.2-.2.3a8.65,8.65,0,0,1-.7,1c-.1.1-.2.3-.3.4-.3.4-.5.7-.8,1.1-.1.1-.1.1-.1.2-.3.4-.7.8-1,1.2l-.3.3a9.43,9.43,0,0,1-1,1c-.1,0-.1.1-.2.1-.4.4-.8.7-1.2,1.1-.1.1-.2.1-.2.2l-1.2.9-.1.1c-.5.3-.9.6-1.4.9a.1.1,0,0,0-.1.1c-.5.3-.9.5-1.4.8a.1.1,0,0,0-.1.1A17.88,17.88,0,0,1,67,71.4h-.1a20,20,0,0,1-3.5.9,22.82,22.82,0,0,1-4.5.4A25.6,25.6,0,1,1,84.2,47ZM0,188.9a39.31,39.31,0,0,0,78.5,3l19.9-10.3a61.48,61.48,0,0,0,39.2,17.9l7.9,28.9a33.77,33.77,0,0,0-7,20.7,34.1,34.1,0,1,0,46.8-31.6l-7.9-28.9a63.37,63.37,0,0,0,17.1-17.9l28.1,6.3a44.11,44.11,0,1,0,9.1-40.2l-28.1-6.3a61.7,61.7,0,0,0-9.5-26.3l20.4-26.5c1.2.1,2.5.2,3.8.2a39,39,0,1,0-39.1-39,40.93,40.93,0,0,0,2.4,13.6L161.2,79a61.31,61.31,0,0,0-43.5,1.9L92.6,53.5A34.55,34.55,0,1,0,58.7,81.6c1.2,0,2.4-.1,3.6-.2l25.1,27.3a61.66,61.66,0,0,0-7.2,29,49.22,49.22,0,0,0,.4,6.7L59.7,155.2a38.92,38.92,0,0,0-20.3-5.6A39.33,39.33,0,0,0,0,188.9Z"/><path class="cls-1" d="M230.1,162.1c.1-.8.2-1.5.3-2.3,0-.2.1-.5.1-.7.1-.5.2-1.1.3-1.6.1-.3.1-.6.2-.9.2-.6.3-1.2.5-1.9.1-.4.3-.8.4-1.2a4.18,4.18,0,0,1,.4-1c.2-.6.5-1.2.8-1.9.1-.3.3-.6.4-.9l.6-1.2c.3-.5.6-1,.9-1.6a3.59,3.59,0,0,1,.7-1,6.07,6.07,0,0,1,.7-1,35,35,0,1,1-5.9,26.2c0-.2-.1-.5-.1-.7s-.1-.5-.1-.8-.1-.6-.1-1a2.2,2.2,0,0,0-.1-.8c0-.3-.1-.7-.1-1V165a20.9,20.9,0,0,1,.1-2.5c-.1,0-.1-.2,0-.4Z"/><path class="cls-1" d="M218.1,68.8a43.79,43.79,0,0,1-5.1-.4c-.5-.1-1-.2-1.6-.3a.37.37,0,0,1-.3-.1,7.37,7.37,0,0,1-1.4-.4c-.1,0-.2-.1-.3-.1-.5-.2-1.1-.3-1.6-.5a1.42,1.42,0,0,0-.6-.2l-.9-.3c-.3-.1-.6-.3-.9-.4s-.3-.1-.5-.2a5.36,5.36,0,0,0-1.1-.5c-.1,0-.1-.1-.2-.1a30,30,0,0,1-9.5-8.2c-.1-.1-.1-.1-.1-.2a8.65,8.65,0,0,1-.7-1c-.1-.1-.2-.3-.3-.4l-.6-.9a5.39,5.39,0,0,1-.7-1.3c-.1-.2-.2-.3-.3-.5a3.7,3.7,0,0,1-.5-1.1,29.44,29.44,0,0,1-2.8-12.6,30,30,0,1,1,30,29.7Z"/><path class="cls-2" d="M92.3,100.9l-20.2-22c.9-.4,1.8-.8,2.7-1.3h0c.4-.2.7-.4,1.1-.6.1-.1.2-.1.3-.2a8.79,8.79,0,0,1,1-.6.52.52,0,0,1,.4-.2l.9-.6c.1-.1.3-.2.4-.3.3-.2.5-.4.8-.6a.78.78,0,0,0,.4-.4c.3-.2.5-.4.8-.6s.3-.3.5-.4.5-.4.7-.6l.6-.6a4.62,4.62,0,0,0,.7-.7,6.47,6.47,0,0,0,.8-.9c.1-.1.2-.3.4-.4.2-.3.5-.5.7-.8.1-.1.2-.3.4-.4.2-.3.4-.5.6-.8.1-.1.2-.3.3-.4l.6-.9c.1-.1.2-.3.3-.4l.6-.9c.1-.1.2-.3.3-.4.2-.3.4-.7.6-1,.1-.1.1-.2.2-.4a.35.35,0,0,1,.1-.2l20.2,22a58.17,58.17,0,0,0-17.2,15.6Z"/><path class="cls-2" d="M189.4,65.1l1.2,1.2.1.1c.8.8,1.6,1.5,2.4,2.2.1.1.3.2.4.3a36.92,36.92,0,0,0,4,2.9,4.05,4.05,0,0,0,.9.5,8.26,8.26,0,0,0,1.3.7l1.8.9c.3.1.6.3.9.4a16.67,16.67,0,0,0,2,.8.35.35,0,0,1,.2.1L188.2,96.5a60.59,60.59,0,0,0-18.4-14.2L186.2,61a2.65,2.65,0,0,0,.5.6c.2.3.5.6.7.9.5.7,1.1,1.3,1.6,1.9a3.22,3.22,0,0,0,.4.7Z"/><path class="cls-1" d="M82.9,55.2c0,.1-.1.3-.1.4-.2.5-.4,1-.6,1.4-.1.1-.1.2-.2.4-.2.4-.3.7-.5,1.1-.1.2-.2.3-.3.5-.2.4-.5.8-.7,1.3-.1.1-.1.2-.2.3a8.65,8.65,0,0,1-.7,1c-.1.1-.2.3-.3.4-.3.4-.5.7-.8,1.1-.1.1-.1.1-.1.2-.3.4-.7.8-1,1.2l-.3.3a9.43,9.43,0,0,1-1,1c-.1,0-.1.1-.2.1-.4.4-.8.7-1.2,1.1-.1.1-.2.1-.2.2l-1.2.9-.1.1c-.5.3-.9.6-1.4.9a.1.1,0,0,0-.1.1c-.5.3-.9.5-1.4.8a.1.1,0,0,0-.1.1A17.88,17.88,0,0,1,67,71.4h-.1a20,20,0,0,1-3.5.9,22.82,22.82,0,0,1-4.5.4A25.6,25.6,0,1,1,84.5,47.1a26.11,26.11,0,0,1-.9,6.9,2.92,2.92,0,0,0-.7,1.2Z"/><path class="cls-2" d="M149.1,199.2c.5-.1,1-.1,1.5-.2s1-.1,1.5-.2l1.5-.3,1.5-.3a8.33,8.33,0,0,0,1.5-.4l1.4-.3a10.93,10.93,0,0,0,1.7-.5c.4-.1.8-.2,1.1-.3a15.87,15.87,0,0,0,2-.7c.3-.1.5-.2.8-.3a24.43,24.43,0,0,0,2.4-1c.1,0,.2-.1.3-.1,1.1-.5,2.1-.9,3.2-1.4l6,21.8h-.3a20.08,20.08,0,0,0-2.5-.1,19.27,19.27,0,0,0-2.4.1h-.5a26.38,26.38,0,0,0-4.9.8h-.2a28.07,28.07,0,0,0-4.9,1.6h-.1c-.8.3-1.5.7-2.3,1-.1,0-.1.1-.2.1a19.83,19.83,0,0,0-2,1.1.35.35,0,0,0-.2.1c-.6.4-1.3.8-1.9,1.2-.1.1-.2.1-.3.2l-6-21.8c.2,0,.5-.1.7-.1a4.29,4.29,0,0,0,1.6,0Z"/><path class="cls-2" d="M69,163.1c-.4-.5-.8-.9-1.2-1.4l-.4-.4,14.9-7.7c.2.7.4,1.5.6,2.2,0,.1.1.2.1.3a61.64,61.64,0,0,0,9.4,18.4L78,182v-.1a35.28,35.28,0,0,0-1.4-5.6h0a35.38,35.38,0,0,0-2.3-5.3c0-.1-.1-.1-.1-.2-.4-.8-.9-1.7-1.4-2.5a.1.1,0,0,0-.1-.1c-.4-.7-.9-1.4-1.4-2.1-.1-.2-.2-.3-.3-.5-.5-.7-1-1.3-1.5-1.9-.2-.2-.3-.4-.5-.6Z"/><path class="cls-2" d="M199.2,161.4c.3-.7.6-1.4.9-2.2.1-.4.3-.8.4-1.2a8.8,8.8,0,0,0,.5-1.5c.2-.5.3-1.1.5-1.6l.3-1.2c.2-.6.3-1.2.5-1.8a3.55,3.55,0,0,0,.2-1c.1-.6.3-1.2.4-1.9.1-.4.1-.7.2-1.1l.3-1.8c.1-.4.1-.8.2-1.3s.1-1.1.2-1.6.1-1,.1-1.5.1-1,.1-1.5v-.6l22.1,5a37.27,37.27,0,0,0-1.6,3.5v.1a42.85,42.85,0,0,0-2.4,7.7c-.1.2-.1.5-.2.7-.1.5-.2.9-.3,1.4s-.1.7-.2,1.1-.1.8-.2,1.2a7.57,7.57,0,0,0-.1,1.5c0,.3-.1.6-.1.9,0,.8-.1,1.7-.1,2.5v2.1l-22.1-5c.1-.2.1-.3.2-.5s.1-.2.2-.4Z"/><path class="cls-1" d="M39.3,158.6a30.54,30.54,0,0,1,17.8,5.8c.2.2.5.3.7.5s.4.3.6.5.5.4.7.6a2.34,2.34,0,0,1,.7.7l.9.9.5.5.7.7c.1.2.3.3.4.5s.5.6.7.9c.1.1.2.3.3.4a29.61,29.61,0,0,1,2.8,4.4h0a27.93,27.93,0,0,1,2.9,8.4v.2a7.84,7.84,0,0,1,.2,1.4.6.6,0,0,0,.1.4,5.7,5.7,0,0,1,.1,1.3v2.2h0a30.2,30.2,0,1,1-30.1-30.3Z"/><path class="cls-1" d="M90.8,150.8c-.2-.7-.3-1.4-.5-2.2a.37.37,0,0,0-.1-.3,52.18,52.18,0,0,1-1.1-10.6,52.9,52.9,0,0,1,105.7-3.1v.8c0,.8.1,1.5.1,2.3,0,1,0,2.1-.1,3.1a2.2,2.2,0,0,1-.1.8c-.1.8-.1,1.6-.2,2.4,0,.3-.1.5-.1.8a21.66,21.66,0,0,1-.4,2.5c0,.2-.1.4-.1.6q-.6,3-1.5,6l-.3.9a13.36,13.36,0,0,1-.7,1.8c-.2.4-.3.8-.5,1.2s-.4.9-.6,1.4a53.39,53.39,0,0,1-32.5,29c-.1,0-.2.1-.3.1-.7.2-1.3.4-2,.6-.2,0-.3.1-.5.1a15.54,15.54,0,0,1-2.3.5c-.2,0-.3.1-.5.1l-1.8.3c-.2,0-.5.1-.7.1l-2.3.3h-.3c-.7.1-1.4.1-2.1.2h-.7c-.8,0-1.6.1-2.4.1a53.1,53.1,0,0,1-51.2-39.5.37.37,0,0,0,.1-.3Z"/><path class="cls-1" d="M154,232.2a23.52,23.52,0,0,1,3.3-3c.1-.1.2-.2.3-.2s.4-.3.6-.4a1.76,1.76,0,0,0,.5-.4,2.19,2.19,0,0,1,.5-.3,4.35,4.35,0,0,1,.7-.4c.1-.1.2-.1.4-.2a3,3,0,0,1,.8-.4c.1,0,.2-.1.3-.1a9.29,9.29,0,0,1,1-.5c.1,0,.1-.1.2-.1.4-.2.7-.3,1.1-.5h.1a5.64,5.64,0,0,1,1.2-.4h0a27.1,27.1,0,0,1,5.1-1.1h.1c.4,0,.8-.1,1.2-.1h1.5a9.15,9.15,0,0,1,1.7.1h.4a9.85,9.85,0,0,1,1.7.2h.1l1.6.3c.1,0,.3.1.4.1.5.1,1.1.3,1.6.4a25.09,25.09,0,1,1-32.7,23.9,23.82,23.82,0,0,1,6.3-16.9Z"/></g></g></svg>