<svg xmlns="http://www.w3.org/2000/svg" viewBox="0 0 309 309"><defs><style>.cls-1{fill:#1e88e5;}.cls-2{fill:#fff;}</style></defs><title>Ресурс 2</title><g id="Слой_2" data-name="Слой 2"><g id="Layer_1" data-name="Layer 1"><path class="cls-1" d="M132.7,157.6l-104,71.7A137.46,137.46,0,0,1,37.8,74.2l94.9,83.4Zm11.8.7a4.42,4.42,0,0,0-1.5-3.6L40.2,64.3a4.43,4.43,0,0,0-3.3-1.1,4.7,4.7,0,0,0-3.1,1.6A146.45,146.45,0,0,0,23.6,238.1a5,5,0,0,0,2.9,2,2.77,2.77,0,0,0,.9.1,5,5,0,0,0,2.6-.8l112.7-77.7a4.3,4.3,0,0,0,1.8-3.4Z"/><path class="cls-1" d="M141.2,127.7l-89-78.2a136.41,136.41,0,0,1,89-40.3V127.7Zm1.6,13.3a4.62,4.62,0,0,0,3,1.1,4.33,4.33,0,0,0,1.9-.4,4.41,4.41,0,0,0,2.6-4.1V4.5a4.31,4.31,0,0,0-1.4-3.2A4.87,4.87,0,0,0,145.6,0,145.63,145.63,0,0,0,42.4,46.7,4.51,4.51,0,0,0,41.2,50a4.82,4.82,0,0,0,1.5,3.2L142.8,141Z"/><path class="cls-1" d="M132.7,157.6l-104,71.7A137.46,137.46,0,0,1,37.8,74.2l94.9,83.4Z"/><path class="cls-2" d="M141.2,127.7l-89-78.2a136.41,136.41,0,0,1,89-40.3V127.7Z"/><path class="cls-1" d="M300,162.4c0,75.8-61.7,137.5-137.5,137.5A138.28,138.28,0,0,1,54.3,247.3l17.1-11.8a116,116,0,0,0,90.3,42.7A117,117,0,0,0,171,44.6V25.2C243.7,29.5,300,89,300,162.4Zm-129,0V53.6A108,108,0,1,1,78.8,230.4l88.5-61h0l.3-.3a5,5,0,0,0,.8-.7l.3-.3a9.38,9.38,0,0,0,.9-1.2c.1-.1.1-.2.2-.3a4.67,4.67,0,0,0,.5-1c.1-.1.1-.3.2-.4.1-.3.2-.7.3-1,0-.1.1-.2.1-.4,0-.5.1-.9.1-1.4Zm138,0A146.54,146.54,0,0,0,166.6,16a4.6,4.6,0,0,0-3.3,1.3,4.31,4.31,0,0,0-1.4,3.2V162.2L69.6,225.8h0L45.2,242.6a4.63,4.63,0,0,0-1.9,3,4.58,4.58,0,0,0,.8,3.4,147,147,0,0,0,118.3,60c80.9-.1,146.6-65.8,146.6-146.6Z"/><path class="cls-1" d="M171,53.6A108,108,0,1,1,78.8,230.4l88.5-61h0l.3-.3a5,5,0,0,0,.8-.7l.3-.3a9.38,9.38,0,0,0,.9-1.2c.1-.1.1-.2.2-.3a4.67,4.67,0,0,0,.5-1c.1-.1.1-.3.2-.4.1-.3.2-.7.3-1,0-.1.1-.2.1-.4a6.6,6.6,0,0,0,.1-1.4V53.6Z"/><path class="cls-2" d="M71.3,235.6a116,116,0,0,0,90.3,42.7,117,117,0,0,0,9.3-233.6V25.2c72.7,4.4,129,63.8,129,137.3,0,75.8-61.7,137.5-137.5,137.5A138.28,138.28,0,0,1,54.2,247.4l17.1-11.8Z"/></g></g></svg>