<svg xmlns="http://www.w3.org/2000/svg" viewBox="0 0 308.6 308.6"><defs><style>.cls-1{fill:#1e88e5;}</style></defs><title>Ресурс 3</title><g id="Слой_2" data-name="Слой 2"><g id="Layer_1" data-name="Layer 1"><path class="cls-1" d="M212.5,64.2l-.4.2c-2.3,1.3-8.3,7.1-15,17-7.8,11.6-9.5,18.3-9.3,20.3v.3l.2.2c1,1.3,2,2.6,3.1,3.9,6.3,7.7,14.8,18.3,5.6,31-8.4,11.5-26.2,29.4-28.2,31.4-.8.8-19.7,19.7-31.4,28.2a19.07,19.07,0,0,1-11.4,4c-7.7,0-14-5.1-19.5-9.6q-2-1.65-3.9-3l-.2-.2h-.5c-3.3,0-11.2,3.1-21.3,10.2-9.2,6.4-14.5,11.9-15.8,14.1l-.2.4.2.4c.9,2.5,4.9,8.6,12.2,14.7,5,4.2,15.2,11.2,26.7,11.2a25.32,25.32,0,0,0,8.3-1.3c26.6-8.9,43.4-22.8,73.3-52.7s43.8-46.7,52.7-73.3c3.6-10.7-.7-21.1-4.9-28-6.8-11.1-16.3-18.1-19.7-19.2l-.6-.2ZM72.3,285.1c-10.8-6.7-17.1-15.4-18.4-25-1.2-9.4,2.4-19.3,10.6-29.5l.6-.7-1.3-1.3c-3.6-3.9-9.5-11.2-9.1-16.9.4-4.9,7-12.2,18.7-20.6,5.4-3.8,18.9-12.8,28-12.8a9.72,9.72,0,0,1,6,1.8c1.5,1.1,3,2.3,4.6,3.6,4.6,3.7,9.3,7.5,13.6,7.5a9.59,9.59,0,0,0,5.8-2.2c11.2-8.2,30.1-27.1,30.3-27.3.8-.8,19.2-19.2,27.3-30.3,4.7-6.5,1.3-11.4-5.3-19.5-1.2-1.5-2.4-3-3.5-4.5-2.8-3.8-2.3-9.7,1.6-18.1,5.4-11.8,20.9-33.9,30-34.6h.6c7.1,0,18.6,10,25.5,19.6,9.7,13.5,12.8,27.7,8.6,40.2-9.5,28.4-24,46-55,77s-48.6,45.5-77,55a35.65,35.65,0,0,1-11.3,1.8c-12.5,0-23.3-6.2-30.2-11.5l-.8-.6-.6.8c-6.4,7.9-9.2,15.3-8.3,21.9,1.1,8.5,8.3,14.6,14.1,18.2a144.28,144.28,0,0,0,77,22.1c79.9,0,144.9-65,144.9-144.9S234.3,9.4,154.4,9.4s-145,65-145,144.9a144.44,144.44,0,0,0,13.3,60.8,4.72,4.72,0,0,1-2.3,6.3,4.48,4.48,0,0,1-2,.4h0a4.91,4.91,0,0,1-4.3-2.7A155.21,155.21,0,0,1,0,154.3,154.29,154.29,0,0,1,263.4,45.2,154.35,154.35,0,0,1,72.3,285.1Z"/><path class="cls-1" d="M212.5,64.2l-.4.2c-2.3,1.3-8.3,7.1-15,17-7.8,11.6-9.5,18.3-9.3,20.3v.3l.2.2c1,1.3,2,2.6,3.1,3.9,6.3,7.7,14.8,18.3,5.6,31-8.4,11.5-26.2,29.4-28.2,31.4-.8.8-19.7,19.7-31.4,28.2a19.07,19.07,0,0,1-11.4,4c-7.7,0-14-5.1-19.5-9.6q-2-1.65-3.9-3l-.2-.2h-.5c-3.3,0-11.2,3.1-21.3,10.2-9.2,6.4-14.5,11.9-15.8,14.1l-.2.4.2.4c.9,2.5,4.9,8.6,12.2,14.7,5,4.2,15.2,11.2,26.7,11.2a25.32,25.32,0,0,0,8.3-1.3c26.6-8.9,43.4-22.8,73.3-52.7s43.8-46.7,52.7-73.3c3.6-10.7-.7-21.1-4.9-28-6.8-11.1-16.3-18.1-19.7-19.2l-.6-.2Z"/></g></g></svg>