<svg xmlns="http://www.w3.org/2000/svg" viewBox="0 0 309 309"><defs><style>.cls-1{fill:#fff;}.cls-2{fill:#1e88e5;}</style></defs><title>Ресурс 4</title><g id="Слой_2" data-name="Слой 2"><g id="Layer_1" data-name="Layer 1"><path class="cls-1" d="M300,31.9V150H159V9H277.1A23,23,0,0,1,300,31.9Z"/><path class="cls-2" d="M300,277.1A23,23,0,0,1,277.1,300H159V159H300V277.1Z"/><path class="cls-1" d="M150,300H31.9A23,23,0,0,1,9,277.1V159H150V300Z"/><path class="cls-2" d="M31.9,9H150V150H9V31.9A23,23,0,0,1,31.9,9Z"/><path class="cls-1" d="M195.3,79.5a34.2,34.2,0,1,1,34.2,34.2,34.18,34.18,0,0,1-34.2-34.2Zm-9,0a43.2,43.2,0,1,0,43.2-43.2,43.28,43.28,0,0,0-43.2,43.2Z"/><path class="cls-2" d="M38.9,79.5a40.6,40.6,0,1,1,40.6,40.6A40.63,40.63,0,0,1,38.9,79.5Zm-9,0A49.6,49.6,0,1,0,79.5,29.9,49.66,49.66,0,0,0,29.9,79.5Z"/><path class="cls-2" d="M9,31.9A23,23,0,0,1,31.9,9H150V150H9V31.9ZM9,159H150V300H31.9A23,23,0,0,1,9,277.1V159ZM277.1,300H159V159H300V277.1A23,23,0,0,1,277.1,300ZM300,150H159V9H277.1A23,23,0,0,1,300,31.9V150ZM0,31.9V277.1A31.92,31.92,0,0,0,31.9,309H277.1A31.92,31.92,0,0,0,309,277.1V31.9A31.92,31.92,0,0,0,277.1,0H31.9A31.92,31.92,0,0,0,0,31.9Z"/><path class="cls-1" d="M113.7,229.5a34.2,34.2,0,1,1-34.2-34.2,34.25,34.25,0,0,1,34.2,34.2Zm9,0a43.2,43.2,0,1,0-43.2,43.2,43.28,43.28,0,0,0,43.2-43.2Z"/><path class="cls-1" d="M206.6,229.5a22.9,22.9,0,1,1,22.9,22.9,23,23,0,0,1-22.9-22.9Zm-9,0a31.9,31.9,0,1,0,31.9-31.9,31.92,31.92,0,0,0-31.9,31.9Z"/><path class="cls-2" d="M195.3,79.5a34.2,34.2,0,1,1,34.2,34.2,34.18,34.18,0,0,1-34.2-34.2Z"/><path class="cls-1" d="M45.3,79.5a34.2,34.2,0,1,1,34.2,34.2A34.22,34.22,0,0,1,45.3,79.5Z"/><path class="cls-2" d="M113.7,229.5a34.2,34.2,0,1,1-34.2-34.2,34.25,34.25,0,0,1,34.2,34.2Z"/><path class="cls-1" d="M206.6,229.5a22.9,22.9,0,1,1,22.9,22.9,23,23,0,0,1-22.9-22.9Z"/></g></g></svg>