<svg xmlns="http://www.w3.org/2000/svg" viewBox="0 0 309 309"><defs><style>.cls-1{fill:#1e88e5;}.cls-2{fill:#fff;}</style></defs><title>Ресурс 5</title><g id="Слой_2" data-name="Слой 2"><g id="Layer_1" data-name="Layer 1"><path class="cls-1" d="M300,280.4A19.63,19.63,0,0,1,280.4,300H28.6A19.63,19.63,0,0,1,9,280.4V28.6A19.63,19.63,0,0,1,28.6,9H280.3a19.63,19.63,0,0,1,19.6,19.6V280.4Zm9,0V28.6A28.59,28.59,0,0,0,280.4,0H28.6A28.59,28.59,0,0,0,0,28.6V280.3A28.62,28.62,0,0,0,28.6,309H280.3A28.62,28.62,0,0,0,309,280.4Z"/><path class="cls-2" d="M300,280.4A19.63,19.63,0,0,1,280.4,300H28.6A19.63,19.63,0,0,1,9,280.4V28.6A19.63,19.63,0,0,1,28.6,9H280.3a19.63,19.63,0,0,1,19.6,19.6V280.4Z"/><path class="cls-1" d="M225.5,154a34.92,34.92,0,0,0-9.9,7c-5.8,5.8-7,13.9-7,18.7a42.49,42.49,0,0,0-18.2,10.6A44.9,44.9,0,0,0,180,207.8a12.1,12.1,0,0,0-1.9-.1c-4.5,0-10.7,1.6-17,7.9a40.43,40.43,0,0,0-7.4,9.5L66.2,137.6a17.32,17.32,0,0,1,0-24.4l4.7-4.7,85.8,85.8a4.59,4.59,0,0,0,6.4,0,4.47,4.47,0,0,0,0-6.4L77.3,102.1l24.6-24.6,85.8,85.8a4.59,4.59,0,0,0,6.4,0,4.47,4.47,0,0,0,0-6.4L108.3,71.1l5.2-5.2a17.32,17.32,0,0,1,24.4,0L225.5,154ZM211,242.4,242.4,211l4.8,36.2L211,242.4ZM240.7,200,200,240.7l-39-10.2c.8-1.8,2.5-4.6,6.4-8.5,7.4-7.4,13.3-5,13.9-4.7a4.67,4.67,0,0,0,4,0,4.78,4.78,0,0,0,2.4-3.3,35.2,35.2,0,0,1,9-17.2,34.6,34.6,0,0,1,17.2-9,4.54,4.54,0,0,0,3.8-5c0-.1-1.1-9.8,4.3-15.3a27,27,0,0,1,8.6-5.8L240.7,200Zm14.9,55.6a4.49,4.49,0,0,0,1.3-3.8l-6.7-51c0-.2-.1-.3-.1-.4v-.1l-11.9-45.4c0-.1-.1-.1-.1-.2s-.1-.3-.2-.5-.1-.2-.1-.3a2.09,2.09,0,0,0-.4-.6l-.1-.1a1.38,1.38,0,0,1-.3-.4l-93-93a26.32,26.32,0,0,0-37.1,0L59.7,107a26.32,26.32,0,0,0,0,37.1l93,93,.2.2a1.38,1.38,0,0,0,.4.3.52.52,0,0,0,.4.2c.1.1.3.1.4.2s.3.1.4.2.2.1.3.1l45.4,11.9c.1,0,.3.1.4.1h.1l51,6.7h.6a5.5,5.5,0,0,0,3.3-1.4Z"/><polygon class="cls-1" points="247.2 247.2 211 242.4 242.4 211 247.2 247.2"/><path class="cls-1" d="M66.1,113.3l4.7-4.7,85.8,85.8a4.59,4.59,0,0,0,6.4,0,4.47,4.47,0,0,0,0-6.4L77.2,102.2l24.6-24.6,85.8,85.8a4.59,4.59,0,0,0,6.4,0,4.47,4.47,0,0,0,0-6.4L108.2,71.2l5.2-5.2a17.32,17.32,0,0,1,24.4,0l87.9,87.9a34.92,34.92,0,0,0-9.9,7c-5.8,5.8-7,13.9-7,18.7a42.49,42.49,0,0,0-18.2,10.6,44.9,44.9,0,0,0-10.4,17.5,12.1,12.1,0,0,0-1.9-.1c-4.5,0-10.7,1.6-17,7.9a40.43,40.43,0,0,0-7.4,9.5L66.4,137.5a16.82,16.82,0,0,1-.3-24.2Z"/><path class="cls-2" d="M181.3,217.3a4.67,4.67,0,0,0,4,0,4.78,4.78,0,0,0,2.4-3.3,35.2,35.2,0,0,1,9-17.2,34.6,34.6,0,0,1,17.2-9,4.54,4.54,0,0,0,3.8-5c0-.1-1.1-9.8,4.3-15.3a27,27,0,0,1,8.6-5.8l10,38.4L200,240.7l-39-10.2c.8-1.8,2.5-4.6,6.4-8.5,7.4-7.3,13.3-5,13.9-4.7Z"/></g></g></svg>