<svg xmlns="http://www.w3.org/2000/svg" viewBox="0 0 266.4 279.1"><defs><style>.cls-1{fill:#1e88e5;}.cls-2{fill:#fff;}</style></defs><title>Ресурс 6</title><g id="Слой_2" data-name="Слой 2"><g id="Layer_1" data-name="Layer 1"><path class="cls-1" d="M151.7,25.3c-7.9-6.2-14.2-11.2-17.9-14.1l-.6-.5-.6.5c-3.7,2.9-10,7.9-17.9,14.1l-2.2,1.8h41.4l-2.2-1.8Z"/><path class="cls-1" d="M254.1,109.3c-4.1-3.9-13.8-12.4-36.5-31L216,77v63.4l39-30.3-.9-.8Z"/><path class="cls-2" d="M136.1,214.5a1.61,1.61,0,0,1-.7.4,4.33,4.33,0,0,1-4.4,0c-.2-.1-.5-.3-.7-.4L9.4,120.5v136a13.14,13.14,0,0,0,13.1,13.1H243.8a13.14,13.14,0,0,0,13.1-13.1v-136l-120.8,94Z"/><path class="cls-1" d="M50.5,77l-1.6,1.3c-22.7,18.6-32.4,27.1-36.5,31l-.9.8,39,30.3V77Z"/><polygon class="cls-2" points="206.6 147.8 206.6 36.6 59.9 36.6 59.9 147.8 133.2 204.8 206.6 147.8"/><polygon class="cls-1" points="180.3 93 91.5 93 91.5 73.5 180.3 73.5 180.3 93"/><polygon class="cls-1" points="180.3 139.5 91.5 139.5 91.5 120 180.3 120 180.3 139.5"/><path class="cls-1" d="M132.6,11.2c-3.7,2.9-10,7.9-17.9,14.1l-2.2,1.8h41.4l-2.2-1.8c-7.9-6.2-14.2-11.2-17.9-14.1l-.6-.5-.6.5ZM48.8,78.4c-22.7,18.6-32.4,27.1-36.5,31l-.9.8,39,30.3V77l-1.6,1.4ZM216,140.5l39-30.3-.9-.8c-4.1-3.9-13.8-12.4-36.5-31L216,77v63.5ZM59.9,147.8l73.3,57.1,73.3-57.1V36.6H59.9V147.8ZM9.4,256.5a13.14,13.14,0,0,0,13.1,13.1H243.8a13.14,13.14,0,0,0,13.1-13.1v-136L136,214.5a1.61,1.61,0,0,1-.7.4,4.33,4.33,0,0,1-4.4,0c-.2-.1-.5-.3-.7-.4L9.3,120.5v136Zm13.2,22.6A22.64,22.64,0,0,1,0,256.5v-146c.2-2.2,1.8-4.1,5.6-7.7,2.6-2.4,6.3-5.8,11.2-10C24.8,86,36,76.7,50.1,65.1l.4-.3v-33a4.69,4.69,0,0,1,4.7-4.7H97.4l.3-.2c16-12.8,28.9-22.9,32.4-25.7l.2-.2a5.08,5.08,0,0,1,2.9-1,4.84,4.84,0,0,1,2.9,1l.2.2c4.6,3.6,16.9,13.3,32.4,25.7l.3.2h42.2a4.69,4.69,0,0,1,4.7,4.7v33l.4.3c14.1,11.5,25.3,20.8,33.3,27.7,4.9,4.2,8.6,7.5,11.2,10,3.8,3.6,5.4,5.5,5.6,7.7v146a22.64,22.64,0,0,1-22.6,22.6Z"/></g></g></svg>