<svg xmlns="http://www.w3.org/2000/svg" viewBox="0 0 263.9 266.6"><defs><style>.cls-1{fill:#1e88e5;}.cls-2{fill:#fff;}</style></defs><title>Ресурс 7</title><g id="Слой_2" data-name="Слой 2"><g id="Layer_1" data-name="Layer 1"><path class="cls-1" d="M21.1,61.8H45v77.9a17.78,17.78,0,0,0,17.8,17.8h91.1L199.6,194a16.35,16.35,0,0,1-14.3,8.3H101.5L27,261.9l13.6-59.6H21.1A16.41,16.41,0,0,1,4.7,185.9V78.2A16.41,16.41,0,0,1,21.1,61.8Z"/><path class="cls-2" d="M227.3,210.1l-70.4-56.3a4.45,4.45,0,0,0-2.9-1H62.8a13.14,13.14,0,0,1-13.1-13.1V22.6A13.14,13.14,0,0,1,62.8,9.5H241.3a13.14,13.14,0,0,1,13.1,13.1V139.7a13.14,13.14,0,0,1-13.1,13.1H220a4.59,4.59,0,0,0-3.7,1.8,4.76,4.76,0,0,0-.9,4l11.9,51.5Z"/><path class="cls-1" d="M204.9,60.6a4.7,4.7,0,0,0,0-9.4H96.9a4.7,4.7,0,0,0,0,9.4Z"/><path class="cls-1" d="M204.9,109.6a4.7,4.7,0,0,0,0-9.4H96.9a4.7,4.7,0,0,0,0,9.4Z"/><path class="cls-1" d="M62.8,9.4A13.14,13.14,0,0,0,49.7,22.5V139.6a13.14,13.14,0,0,0,13.1,13.1h91.1a4.84,4.84,0,0,1,2.9,1L227.2,210l-11.8-51.6a4.74,4.74,0,0,1,4.6-5.8h21.3a13.14,13.14,0,0,0,13.1-13.1V22.6A13.14,13.14,0,0,0,241.3,9.5H62.8Zm89.5,152.8H62.8a22.64,22.64,0,0,1-22.6-22.6V66.5H21.1A11.71,11.71,0,0,0,9.4,78.2V185.9a11.71,11.71,0,0,0,11.7,11.7H40.7a4.59,4.59,0,0,1,3.7,1.8,4.76,4.76,0,0,1,.9,4L34.7,249.8l64-51.1a4.45,4.45,0,0,1,2.9-1h83.8a11.91,11.91,0,0,0,6.6-2l1.1-.8-40.8-32.7ZM27,266.6a4.69,4.69,0,0,1-4.7-4.7,8.87,8.87,0,0,1,.2-1.5L34.7,207H21.1A21,21,0,0,1,0,185.9V78.2A21.1,21.1,0,0,1,21.1,57.1H40.2V22.6A22.71,22.71,0,0,1,62.8,0H241.3a22.64,22.64,0,0,1,22.6,22.6V139.7a22.64,22.64,0,0,1-22.6,22.6H226l13.5,59a4.72,4.72,0,0,1-2.1,5,4.51,4.51,0,0,1-2.5.7,4.84,4.84,0,0,1-2.9-1l-31.5-25.2-.6.6a21.2,21.2,0,0,1-14.5,5.7H103.3L30,265.6a5.14,5.14,0,0,1-3,1Z"/></g></g></svg>