<svg xmlns="http://www.w3.org/2000/svg" viewBox="0 0 233.46 242.72"><defs><style>.cls-1{fill:#1e88e5;}</style></defs><title>Ресурс 8</title><g id="Слой_2" data-name="Слой 2"><g id="Layer_1" data-name="Layer 1"><path class="cls-1" d="M223.83,217.62c-.7,1.5-7.6,6.4-31.2,10.7a384.35,384.35,0,0,1-61.4,5.4c-.5-36.7-.9-47-1.3-50.3a114,114,0,0,1,4.6-10.6c1-2.2,1.8-3.9,2.3-5,1.6-4-1.3-7.8-4.9-12.7-1.7-2.3-4.1-5.4-4.7-7.3,2.4-3.7,17.3-11.4,21.6-12.2,1.2.5,3.5,3.3,4.6,4.7.9,1.1,1.7,2.1,2.6,3,1.7,1.7,4.7,2.5,18.9,5.8,10.7,2.4,32.9,7.5,36.1,10.9,5.8,6.5,16.4,49.5,12.8,57.6Zm-122.2-62.4c-3.6,4.9-6.5,8.7-4.9,12.7.4,1.1,1.2,2.8,2.3,5,1.3,2.9,4.1,8.7,4.6,10.6-.4,3.3-.8,13.5-1.3,50.3a384.35,384.35,0,0,1-61.4-5.4c-23.6-4.3-30.5-9.2-31.2-10.7-3.6-8.1,7.1-51.1,12.8-57.4,3.1-3.4,25.4-8.5,36.1-10.9,14.2-3.2,17.2-4,18.9-5.8.8-.8,1.7-1.9,2.6-3,1.1-1.4,3.5-4.3,4.7-4.7,4.3.7,19.3,8.5,21.6,12.2a42.27,42.27,0,0,1-4.8,7.1Zm2,28c0-.2.1-.5.1-.8,0,.2-.1.4-.1.8Zm26.2-.8a2.49,2.49,0,0,1,.1.8,1.72,1.72,0,0,0-.1-.8Zm102.3,38.8c5.4-12.4-6.9-58.8-14.4-67.1-4.7-5.1-19.8-8.9-40.7-13.7-5.8-1.3-12.9-2.9-14.9-3.7-.5-.5-1-1.2-1.6-1.9-2.9-3.6-6.6-8.1-11.6-8.1s-22.7,8.5-28.3,15.1c-2,2.3-2.8,4.7-2.4,7,.7,3.9,3.6,7.9,6.5,11.8a49.27,49.27,0,0,1,3.4,4.9c-.4.9-1,2.2-1.7,3.6-4.8,10.1-6,13.2-5.3,15.7.4,3.7.9,30.2,1.1,49h-11c.3-18.8.7-45.3,1.1-49,.7-2.5-.5-5.6-5.3-15.7-.6-1.3-1.2-2.6-1.7-3.6a36.69,36.69,0,0,1,3.4-4.9c2.9-3.9,5.9-7.8,6.5-11.8.4-2.3-.4-4.7-2.4-7-5.6-6.6-23.3-15.1-28.3-15.1s-8.7,4.5-11.6,8.1c-.6.7-1.1,1.4-1.6,1.9-2,.8-9.1,2.4-14.9,3.7-20.9,4.8-36.1,8.5-40.7,13.7-7.5,8.3-19.8,54.7-14.4,67.1,1.1,2.4,4.3,9.8,37.9,15.9a402.89,402.89,0,0,0,67.4,5.6h20.1c23.3,0,47.8-2,67.4-5.6,33.7-6,36.9-13.5,38-15.9Z"/><path class="cls-1" d="M157.73,63.62l-.1,1.2a28.46,28.46,0,0,1-2.5,10.3c-3.1,1.6-3.5,5.8-3.7,10.8-.2,7.1-15.8,35.2-34.7,35.2S82.23,93,82,85.92c-.2-5-.5-9.3-3.7-10.8a33.5,33.5,0,0,1-2.5-10.3l-.1-1.2c-.8-9.3-2.3-26.7,3-37.7,4.2-8.6,16.6-18.1,37.7-16.8h.6c21.1-1.3,33.5,8.2,37.7,16.8,5.3,10.9,3.8,28.3,3,37.7Zm9,.7c.9-10.2,2.5-29.2-3.9-42.4-5.4-11-20.6-23.3-46-21.8-25.4-1.5-40.7,10.8-46.1,21.8h0c-6.4,13.2-4.8,32.2-3.9,42.4l.1,1.2c.9,10.7,4.6,16,5.1,16.5a6.47,6.47,0,0,0,.8.9,23.82,23.82,0,0,1,.2,3.3c.3,11,18.4,43.9,43.7,43.9s43.4-33,43.7-43.9a25,25,0,0,1,.2-3.3,2.36,2.36,0,0,0,.8-.9c.4-.6,4.1-5.8,5.1-16.5l.2-1.2Z"/><path class="cls-1" d="M129.83,182.42a2.49,2.49,0,0,1,.1.8,1.72,1.72,0,0,0-.1-.8Z"/><path class="cls-1" d="M148.83,135.72c1.2.5,3.5,3.3,4.6,4.7.9,1.1,1.7,2.1,2.6,3,1.7,1.7,4.7,2.5,18.9,5.8,10.7,2.4,32.9,7.5,36.1,10.9,5.8,6.3,16.4,49.3,12.8,57.4-.7,1.5-7.6,6.4-31.2,10.7a384.35,384.35,0,0,1-61.4,5.4c-.5-36.7-.9-47-1.3-50.3a114,114,0,0,1,4.6-10.6c1-2.2,1.8-3.9,2.3-5,1.6-4-1.3-7.8-4.9-12.7-1.7-2.3-4.1-5.4-4.7-7.3,2.3-3.5,17.3-11.2,21.6-12Z"/><path class="cls-1" d="M22.53,160.22c3.1-3.4,25.4-8.5,36.1-10.9,14.2-3.2,17.2-4,18.9-5.8.8-.8,1.7-1.9,2.6-3,1.1-1.4,3.5-4.3,4.7-4.7,4.3.7,19.3,8.5,21.6,12.2-.7,1.9-3,5-4.7,7.3-3.6,4.9-6.5,8.7-4.9,12.7.4,1.1,1.2,2.8,2.3,5,1.3,2.9,4.1,8.7,4.6,10.6-.4,3.3-.8,13.5-1.3,50.3a384.35,384.35,0,0,1-61.4-5.4c-23.6-4.3-30.5-9.2-31.2-10.7-3.7-8.3,6.9-51.3,12.7-57.6Z"/><path class="cls-1" d="M103.63,183.22c0-.2.1-.5.1-.8,0,.2-.1.4-.1.8Z"/><path class="cls-1" d="M157.73,63.62l-.1,1.2a28.46,28.46,0,0,1-2.5,10.3c-3.1,1.6-3.5,5.8-3.7,10.8-.2,7.1-15.8,35.2-34.7,35.2S82.23,93,82,85.92c-.2-5-.5-9.3-3.7-10.8a33.5,33.5,0,0,1-2.5-10.3l-.1-1.2c-.8-9.3-2.3-26.7,3-37.7,4.2-8.6,16.6-18.1,37.7-16.8h.6c21.1-1.3,33.5,8.2,37.7,16.8,5.3,10.9,3.8,28.3,3,37.7Z"/></g></g></svg>