<svg xmlns="http://www.w3.org/2000/svg" viewBox="0 0 364.1 364.1"><defs><style>.cls-1{fill:#1e88e5;}</style></defs><title>Ресурс 9</title><g id="Слой_2" data-name="Слой 2"><g id="Layer_1" data-name="Layer 1"><path class="cls-1" d="M207.9,207.6c-62.1,60.9-75.1,47.9-81.4,44.4-6.6-3.8-18-26.6-17-34.9s29.7-22.6,38.3-16.5c6,4.3,9.9,13,18.4,8.5s14.9-10,24-19.2,14.6-15.5,19.2-24-4.2-12.4-8.5-18.4c-6-8.6,8.3-37.3,16.5-38.3s31.1,10.4,34.9,17c3.5,6.3,16.5,19.4-44.4,81.4Z"/><path class="cls-1" d="M218.2,113.9H218l-.2.1c-2.8,1.2-9,9.7-12.2,19.8-2.1,6.7-1.5,10.2-.9,11a25.57,25.57,0,0,0,3.6,3.9c4,4,10.1,10.1,5.3,19.4s-10.8,15.9-20,25.1-15.9,15.1-25.2,20a14.35,14.35,0,0,1-6.7,1.8c-5.7,0-9.6-3.9-12.7-7.1a24.61,24.61,0,0,0-3.9-3.5,5.62,5.62,0,0,0-3-.6c-9.7,0-26,9.3-27.9,13.7l-.1.1v.2c-.5,6.8,10.1,27.3,14.7,30a10.91,10.91,0,0,0,1.1.6,13.24,13.24,0,0,0,7.4,2.3c9,0,28-8.1,67.3-46.6C229,179.2,244,159.7,249.2,146c3.7-9.8,1.4-13.7-.3-16.5-.2-.4-.4-.7-.6-1.1-2.7-4.6-22.2-14.7-29.7-14.7-.2.2-.3.2-.4.2ZM137.3,260.4a21.87,21.87,0,0,1-12.2-3.7,4.05,4.05,0,0,0-.9-.5l-.1-.1c-8.4-4.9-20.5-29.6-19.3-39.6,1.3-10.7,25.2-22.1,37.3-22.1a14.94,14.94,0,0,1,8.5,2.3,58.74,58.74,0,0,1,5.2,4.6c2.2,2.2,4.3,4.3,6,4.3a5.64,5.64,0,0,0,2.3-.7c8.2-4.3,14.3-9.8,22.9-18.3s14-14.7,18.3-22.9c1.4-2.7.9-3.9-3.6-8.4a46,46,0,0,1-4.6-5.1c-5-7.1-.8-19.3,2.1-25.9,1.9-4.4,9-18.7,17.7-19.8a8.08,8.08,0,0,1,1.6-.1c9.9,0,33,11,38,19.5.2.3.3.6.5.9,2.2,3.7,6.4,10.7,1.1,24.7-5.8,15.1-21.1,35.2-46.8,61.5-33.9,33.2-58.1,49.4-74,49.4Z"/><path class="cls-1" d="M182.1,307.3a125.92,125.92,0,0,0,39.1-6.2,4.29,4.29,0,0,0,2.7-2.4,4.52,4.52,0,0,0,.3-3.6,4.66,4.66,0,0,0-4.5-3.2,7.72,7.72,0,0,0-1.5.2A115.8,115.8,0,1,1,182,66.3c63.8,0,115.8,52,115.8,115.8a114.81,114.81,0,0,1-16.6,59.7,4.83,4.83,0,0,0,1.6,6.5,5.13,5.13,0,0,0,2.4.7,4.58,4.58,0,0,0,4-2.3A125.35,125.35,0,0,0,181.8,56.8c-69.1,0-125,56.2-125,125.3S113,307.3,182.1,307.3Z"/><path class="cls-1" d="M182.1,364.1a182,182,0,0,0,182-182A182.16,182.16,0,0,0,119.6,11a4.69,4.69,0,0,0,1.6,9.1,4.15,4.15,0,0,0,1.6-.3A172.42,172.42,0,0,1,182,9.4c95.2,0,172.6,77.4,172.6,172.6S277.2,354.6,182,354.6A171.72,171.72,0,0,1,114.8,341a5.84,5.84,0,0,0-1.8-.4,4.55,4.55,0,0,0-4.3,2.9,4.74,4.74,0,0,0,2.5,6.2,179,179,0,0,0,70.9,14.4Z"/><path class="cls-1" d="M24.6,268.5a5.45,5.45,0,0,0,2.2-.5,4.92,4.92,0,0,0,2.3-2.8,4.52,4.52,0,0,0-.3-3.6A172.59,172.59,0,0,1,52.5,68a5.23,5.23,0,0,0,1.2-3.4,4.34,4.34,0,0,0-1.6-3.2,4.62,4.62,0,0,0-6.6.4A181.17,181.17,0,0,0,0,182.1,183.31,183.31,0,0,0,20.4,266a5,5,0,0,0,4.2,2.5Z"/></g></g></svg>