<?xml version="1.0" encoding="utf-8"?>
<!-- Generator: Adobe Illustrator 23.1.0, SVG Export Plug-In . SVG Version: 6.00 Build 0)  -->
<svg version="1.1" id="Bold" xmlns="http://www.w3.org/2000/svg" xmlns:xlink="http://www.w3.org/1999/xlink" x="0px" y="0px"
	 viewBox="0 0 512.1 291.2" style="enable-background:new 0 0 512.1 291.2;" xml:space="preserve">
<style type="text/css">
	.st0{fill:#4196F1;}
</style>
<path class="st0" d="M407.3,282.2l83.6-83.6c28.2-29.6,28.2-76,0-105.6L407.3,9.4c-12.5-12.5-32.8-12.5-45.3,0s-12.5,32.8,0,45.3
	l0,0l59.3,59.3L32,114.4c-17.7,0-32,14.3-32,32l0,0c0,17.7,14.3,32,32,32l388.9-0.5l-58.9,59c-12.3,12.7-11.9,33,0.8,45.2
	C375.2,294.2,394.9,294.2,407.3,282.2L407.3,282.2z"/>
</svg>
