<svg xmlns="http://www.w3.org/2000/svg" width="218" height="217" viewBox="0 0 218 217">
  <defs>
    <style>
      .cls-1 {
        fill: #00b9ee;
      }

      .cls-2 {
        fill: #dee4e9;
      }
    </style>
  </defs>
  <path id="Прямоугольник_5" data-name="Прямоугольник 5" class="cls-1" d="M5,0H38a5,5,0,0,1,5,5V217a0,0,0,0,1,0,0H0a0,0,0,0,1,0,0V5A5,5,0,0,1,5,0Z"/>
  <path id="Прямоугольник_5-2" data-name="Прямоугольник 5" class="cls-2" d="M63,117H96a5,5,0,0,1,5,5v95a0,0,0,0,1,0,0H58a0,0,0,0,1,0,0V122A5,5,0,0,1,63,117Z"/>
  <path id="Прямоугольник_5-3" data-name="Прямоугольник 5" class="cls-2" d="M122,117h33a5,5,0,0,1,5,5v95a0,0,0,0,1,0,0H117a0,0,0,0,1,0,0V122A5,5,0,0,1,122,117Z"/>
  <path id="Прямоугольник_5-4" data-name="Прямоугольник 5" class="cls-2" d="M180,117h33a5,5,0,0,1,5,5v95a0,0,0,0,1,0,0H175a0,0,0,0,1,0,0V122A5,5,0,0,1,180,117Z"/>
</svg>
