<svg width="496" height="496" viewBox="0 0 496 496" fill="none" xmlns="http://www.w3.org/2000/svg">
<path fill-rule="evenodd" clip-rule="evenodd" d="M2.455 2.455L0 4.909V32V59.091L2.455 61.545C4.718 63.809 5.653 64 14.455 64H24V192V320H14.455C5.653 320 4.718 320.191 2.455 322.455L0 324.909V352V379.091L2.455 381.545L4.909 384H50.455H96V408V432H82.455C69.406 432 68.819 432.09 66.455 434.455L64 436.909V464V491.091L66.455 493.545L68.909 496H248H427.091L429.545 493.545L432 491.091V464V436.909L429.545 434.455C427.181 432.09 426.594 432 413.545 432H400V408V384H445.545H491.091L493.545 381.545L496 379.091V352V324.909L493.545 322.455C491.282 320.191 490.347 320 481.545 320H472V192V64H481.545C490.347 64 491.282 63.809 493.545 61.545L496 59.091V32V4.909L493.545 2.455L491.091 0H248H4.909L2.455 2.455ZM480 32V48H248H16V32V16H248H480V32ZM456 192V320H428H400V258.455V196.909L397.545 194.455L395.091 192H368H340.909L338.455 194.455L336 196.909V258.455V320H328H320V282.455V244.909L317.545 242.455L315.091 240H288H260.909L258.455 242.455L256 244.909V282.455V320H248H240V298.455C240 276.912 240 276.909 237.545 274.455L235.091 272H208H180.909L178.455 274.455C176 276.909 176 276.912 176 298.455V320H168H160V314.455C160 309.9 159.561 308.47 157.545 306.455L155.091 304H128H100.909L98.455 306.455C96.439 308.47 96 309.9 96 314.455V320H68H40V192V64H248H456V192ZM133 80.652C89.746 87.218 58.792 120.671 56.339 163.5C53.958 205.084 81.246 242.114 122.5 253.279C133.191 256.172 154.097 256.325 164.416 253.586C215.75 239.958 243.713 188.903 227.031 139.261C218.945 115.198 197.669 93.603 173.894 85.326C161.201 80.907 144.155 78.958 133 80.652ZM368 88V96H378.247H388.493L370.275 114.218L352.057 132.436L341.674 122.218C332.648 113.336 330.849 112 327.92 112C324.816 112 321.318 115.229 283.526 152.989L242.501 193.979L248.253 199.731L254.006 205.484L290.975 168.525L327.945 131.566L338.327 141.783C347.32 150.632 349.158 152 352.054 152C355.077 152 357.541 149.865 377.699 129.779L400 107.559V117.779V128H408H416V106.455C416 77.674 418.326 80 389.545 80H368V88ZM136 130.758V164.516L111.944 188.508L87.889 212.5L85.403 209.5C82.162 205.589 76.631 194.082 74.347 186.5C72.984 181.976 72.556 177.303 72.603 167.5C72.658 156.379 73.033 153.392 75.201 146.833C83.036 123.125 101.969 104.791 125 98.608C128.025 97.796 131.738 97.102 133.25 97.066L136 97V130.758ZM168.158 100.42C172.014 101.761 177.71 104.353 180.816 106.179C188.077 110.449 201.551 123.923 205.821 131.184C209.699 137.779 213.752 148.915 214.645 155.427L215.272 160H183.636H152V128.364V96.728L156.573 97.355C159.089 97.7 164.302 99.079 168.158 100.42ZM214.587 181.056C213.58 188.65 209.252 199.368 203.965 207.364C186.856 233.239 155.317 245.344 125.5 237.48C118.37 235.599 106.7 230.077 102.5 226.597L99.5 224.111L123.492 200.056L147.484 176H181.371H215.258L214.587 181.056ZM384 320V432H368H352V320V208H368H384V320ZM304 344V432H288H272V344V256H288H304V344ZM224 360V432H208H192V360V288H208H224V360ZM144 376V432H128H112V376V320H128H144V376ZM96 352V368H56H16V352V336H56H96V352ZM176 352V368H168H160V352V336H168H176V352ZM256 352V368H248H240V352V336H248H256V352ZM336 352V368H328H320V352V336H328H336V352ZM480 352V368H440H400V352V336H440H480V352ZM176 408V432H168H160V408V384H168H176V408ZM256 408V432H248H240V408V384H248H256V408ZM336 408V432H328H320V408V384H328H336V408ZM416 464V480H248H80V464V448H248H416V464Z" fill="url(#paint0_linear_114_81)"/>
<defs>
<linearGradient id="paint0_linear_114_81" x1="0" y1="495.839" x2="496.501" y2="495.839" gradientUnits="userSpaceOnUse">
<stop stop-color="#3652E2"/>
<stop offset="1" stop-color="#B5289B"/>
</linearGradient>
</defs>
</svg>
