<svg width="496" height="464" viewBox="0 0 496 464" fill="none" xmlns="http://www.w3.org/2000/svg">
<path fill-rule="evenodd" clip-rule="evenodd" d="M2.455 2.455L0 4.909V232V459.091L2.455 461.545L4.909 464H248H491.091L493.545 461.545L496 459.091V232V4.909L493.545 2.455L491.091 0H248H4.909L2.455 2.455ZM480 40V64H248H16V40V16H248H480V40ZM32 40V48H40H48V40V32H40H32V40ZM64 40V48H72H80V40V32H72H64V40ZM96 40V48H104H112V40V32H104H96V40ZM160 40V48H296H432V40V32H296H160V40ZM448 40V48H456H464V40V32H456H448V40ZM480 264V448H248H16V264V80H248H480V264ZM235.5 113.01C220.981 115.662 208.449 122.375 197.412 133.412C188.382 142.443 183.12 150.95 179.216 162.833C176.964 169.686 176.648 172.588 176.233 190.176L175.769 209.853L172.85 211.062C168.831 212.727 162.596 220.068 161.176 224.807C160.349 227.567 160 242.282 160 274.366V320H122.455H84.909L82.455 322.455L80 324.909V368V411.091L82.455 413.545L84.909 416H248H411.091L413.545 413.545L416 411.091V368V324.909L413.545 322.455L411.091 320H373.545H336V274.366C336 242.282 335.651 227.567 334.824 224.807C333.404 220.068 327.169 212.727 323.15 211.062L320.231 209.853L319.767 190.176C319.352 172.588 319.036 169.686 316.784 162.833C312.88 150.95 307.618 142.443 298.588 133.412C284.844 119.669 270.043 113.156 251 112.473C245.225 112.266 238.25 112.507 235.5 113.01ZM266.12 131.243C275.418 134.634 280.795 138.012 287.391 144.609C293.929 151.146 297.29 156.465 300.835 165.88C303.059 171.787 303.376 174.413 303.775 190.25L304.223 208H296.212H288.202L287.846 191.25C287.497 174.87 287.42 174.352 284.33 167.82C279.935 158.527 274.265 152.734 265.16 148.235C258.02 144.706 257.075 144.5 248 144.5C238.925 144.5 237.98 144.706 230.84 148.235C221.735 152.734 216.065 158.527 211.67 167.82C208.58 174.352 208.503 174.87 208.154 191.25L207.798 208H199.899H192V193.684C192 175.915 193.094 169.675 198.003 159.446C203.271 148.467 212.083 139.646 223.298 134.126C227.809 131.905 233.75 129.639 236.5 129.089C244.628 127.466 258.533 128.477 266.12 131.243ZM255.384 161.216C260.877 162.839 269.161 171.123 270.784 176.616C271.478 178.965 272 186.584 272 194.366V208H248H224V194.366C224 177.402 224.947 173.988 231.466 167.455C238.481 160.425 246.037 158.454 255.384 161.216ZM317.545 226.455L320 228.909V274.455V320H248H176V274.455V228.909L178.455 226.455L180.909 224H248H315.091L317.545 226.455ZM240 241.307C238.075 241.914 234.235 244.681 231.466 247.455C224.443 254.493 222.439 262.058 225.176 271.193C226.612 275.986 232.846 283.279 236.966 284.986L240 286.243V295.121V304H248H256V295.121V286.243L259.034 284.986C263.154 283.279 269.388 275.986 270.824 271.193C273.562 262.054 271.556 254.489 264.534 247.466C257.497 240.43 249.307 238.374 240 241.307ZM253.545 258.455C255.093 260.002 256 262.052 256 264C256 265.948 255.093 267.998 253.545 269.545C248.585 274.506 240 270.991 240 264C240 259.889 243.889 256 248 256C249.948 256 251.998 256.907 253.545 258.455ZM400 368V400H248H96V368V336H248H400V368ZM119.712 351.784C117.121 354.416 115 356.988 115 357.5C115 358.012 117.121 360.584 119.712 363.216L124.425 368L119.712 372.784C117.121 375.416 115.049 378.003 115.108 378.534C115.167 379.065 117.657 381.719 120.64 384.431L126.064 389.362L131.032 384.469L136 379.575L140.968 384.469L145.936 389.362L151.36 384.431C154.343 381.719 156.833 379.065 156.892 378.534C156.951 378.003 154.879 375.416 152.288 372.784L147.575 368L152.288 363.216C154.879 360.584 157 357.98 157 357.428C157 356.172 147.765 347 146.5 347C145.988 347 143.416 349.121 140.784 351.712L136 356.425L131.216 351.712C128.584 349.121 125.98 347 125.428 347C124.876 347 122.304 349.153 119.712 351.784ZM175.712 351.784C173.121 354.416 171 356.988 171 357.5C171 358.012 173.121 360.584 175.712 363.216L180.425 368L175.712 372.784C173.121 375.416 171.049 378.003 171.108 378.534C171.167 379.065 173.657 381.719 176.64 384.431L182.064 389.362L187.032 384.469L192 379.575L196.968 384.469L201.936 389.362L207.36 384.431C210.343 381.719 212.833 379.065 212.892 378.534C212.951 378.003 210.879 375.416 208.288 372.784L203.575 368L208.288 363.216C210.879 360.584 213 357.98 213 357.428C213 356.172 203.765 347 202.5 347C201.988 347 199.416 349.121 196.784 351.712L192 356.425L187.216 351.712C184.584 349.121 181.98 347 181.428 347C180.876 347 178.304 349.153 175.712 351.784ZM231.712 351.784C229.121 354.416 227 356.988 227 357.5C227 358.012 229.121 360.584 231.712 363.216L236.425 368L231.712 372.784C229.121 375.416 227.049 378.003 227.108 378.534C227.167 379.065 229.657 381.719 232.64 384.431L238.064 389.362L243.032 384.469L248 379.575L252.968 384.469L257.936 389.362L263.36 384.431C266.343 381.719 268.833 379.065 268.892 378.534C268.951 378.003 266.879 375.416 264.288 372.784L259.575 368L264.288 363.216C266.879 360.584 269 357.98 269 357.428C269 356.172 259.765 347 258.5 347C257.988 347 255.416 349.121 252.784 351.712L248 356.425L243.216 351.712C240.584 349.121 237.98 347 237.428 347C236.876 347 234.304 349.153 231.712 351.784ZM287.712 351.784C285.121 354.416 283 356.988 283 357.5C283 358.012 285.121 360.584 287.712 363.216L292.425 368L287.712 372.784C285.121 375.416 283.049 378.003 283.108 378.534C283.167 379.065 285.657 381.719 288.64 384.431L294.064 389.362L299.032 384.469L304 379.575L308.968 384.469L313.936 389.362L319.36 384.431C322.343 381.719 324.833 379.065 324.892 378.534C324.951 378.003 322.879 375.416 320.288 372.784L315.575 368L320.288 363.216C322.879 360.584 325 357.98 325 357.428C325 356.172 315.765 347 314.5 347C313.988 347 311.416 349.121 308.784 351.712L304 356.425L299.216 351.712C296.584 349.121 293.98 347 293.428 347C292.876 347 290.304 349.153 287.712 351.784ZM343.712 351.784C341.121 354.416 339 356.988 339 357.5C339 358.012 341.121 360.584 343.712 363.216L348.425 368L343.712 372.784C341.121 375.416 339.049 378.003 339.108 378.534C339.167 379.065 341.657 381.719 344.64 384.431L350.064 389.362L355.032 384.469L360 379.575L364.968 384.469L369.936 389.362L375.36 384.431C378.343 381.719 380.833 379.065 380.892 378.534C380.951 378.003 378.879 375.416 376.288 372.784L371.575 368L376.288 363.216C378.879 360.584 381 357.98 381 357.428C381 356.172 371.765 347 370.5 347C369.988 347 367.416 349.121 364.784 351.712L360 356.425L355.216 351.712C352.584 349.121 349.98 347 349.428 347C348.876 347 346.304 349.153 343.712 351.784Z" fill="#00B9EE"/>
</svg>
