<svg width="496" height="496" viewBox="0 0 496 496" fill="none" xmlns="http://www.w3.org/2000/svg">
<path fill-rule="evenodd" clip-rule="evenodd" d="M233.414 0.375138C201.784 5.18914 179.179 16.3331 157.785 37.6591C143.594 51.8061 133.919 66.7671 127.657 84.2541C125.515 90.2341 124.337 94.9441 121.339 109.504C120.904 111.617 120.375 111.754 112.645 111.76C78.1918 111.785 45.8557 127.263 24.4857 153.96C12.8317 168.519 4.41175 187.572 1.38475 206.231C-5.44925 248.368 13.4177 292.037 49.0137 316.472C55.6597 321.034 68.9628 327.462 77.6578 330.313C90.4098 334.495 101.995 335.742 128.164 335.748L151.914 335.754V356.181V376.607L146.664 379.043C139.979 382.146 134.306 387.819 131.203 394.504L128.767 399.754H68.3408H7.91375V407.754V415.754H68.3408H128.767L131.211 421.09C134.337 427.919 139.766 433.322 146.828 436.634C151.456 438.805 153.786 439.243 160.414 439.19C173.172 439.087 181.921 433.81 187.952 422.579C190.99 416.922 191.352 415.41 191.381 408.254C191.408 401.668 190.951 399.267 188.794 394.668C185.482 387.606 180.079 382.177 173.25 379.051L167.914 376.607V356.181V335.754H195.914H223.914V395.754V455.754H163.487H103.061L100.617 450.418C97.6118 443.853 92.4968 438.608 85.6308 435.052C81.1958 432.755 79.1397 432.343 71.9137 432.302C61.7887 432.245 56.0577 434.558 49.1097 441.505C42.5637 448.051 40.4337 453.515 40.4337 463.754C40.4337 473.984 42.5647 479.459 49.0837 485.974C55.8087 492.695 61.8277 495.189 71.4137 495.223C77.9947 495.247 80.4047 494.788 84.9997 492.633C92.0617 489.323 97.4908 483.92 100.617 477.09L103.061 471.754H169.033H235.005L237.459 469.299L239.914 466.845V401.299V335.754H247.914H255.914V401.299V466.845L258.369 469.299L260.823 471.754H326.795H392.767L395.211 477.09C398.337 483.92 403.766 489.323 410.828 492.633C418.597 496.276 430.102 496.325 437.414 492.748C443.793 489.627 450.47 482.96 453.234 476.95C456.289 470.31 456.289 457.198 453.234 450.558C450.471 444.55 443.127 437.204 437.11 434.427C429.914 431.106 417.248 431.4 410.197 435.052C403.331 438.608 398.216 443.853 395.211 450.418L392.767 455.754H332.341H271.914V395.754V335.754H299.914H327.914V356.181V376.607L322.578 379.051C315.749 382.177 310.346 387.606 307.034 394.668C303.304 402.621 303.359 414.004 307.163 421.361C311.055 428.89 314.091 432.034 321.113 435.805C326.744 438.829 328.264 439.192 335.414 439.221C342 439.248 344.401 438.791 349 436.634C356.062 433.322 361.491 427.919 364.617 421.09L367.061 415.754H427.487H487.914V407.754V399.754H427.487H367.061L364.628 394.504C361.477 387.703 355.885 382.088 349.231 379.041L343.914 376.607V356.181V335.754L367.664 335.748C402.884 335.739 415.523 333.3 436.143 322.53C468.117 305.829 489.668 274.908 494.879 238.254C500.648 197.678 481.423 154.793 446.814 131.036C429.507 119.156 405.144 111.776 383.183 111.76C375.453 111.754 374.924 111.617 374.489 109.504C371.491 94.9441 370.313 90.2341 368.171 84.2541C361.909 66.7671 352.234 51.8061 338.043 37.6591C319.488 19.1631 300.201 8.46014 274.914 2.62514C266.608 0.708138 240.518 -0.706862 233.414 0.375138ZM265.83 17.2891C315.013 25.2651 352.792 64.8421 358.86 114.746C360.571 128.823 360.84 129.018 377.379 128.183C387.273 127.683 392.619 127.91 399.564 129.122C437.467 135.739 466.749 162.72 477.147 200.608C480.168 211.614 480.168 235.894 477.147 246.9C468.797 277.327 447.684 301.535 419.777 312.68C402.087 319.745 414.893 319.254 248.414 319.254C106.842 319.254 97.9927 319.152 90.9137 317.436C55.0858 308.752 28.0017 282.266 18.7867 246.9C15.9337 235.953 15.2937 219.468 17.2797 208.104C23.9057 170.195 50.7827 141.018 88.7677 130.502C95.1617 128.732 99.3017 128.375 114.058 128.32C135.92 128.238 135.174 128.675 136.9 114.962C141.619 77.4661 163.152 45.9711 195.685 28.9781C218.222 17.2071 241.453 13.3361 265.83 17.2891ZM229.103 81.3511C201.59 85.9661 175.63 101.731 158.83 124.027C126.687 166.683 128.711 224.772 163.757 265.492C179.02 283.225 202.253 296.518 227.414 301.913C235.176 303.577 260.652 303.577 268.414 301.913C304.234 294.233 332.573 272.677 348.161 241.254C355.4 226.662 358.788 213.172 359.589 195.754C362.821 125.468 299.11 69.6101 229.103 81.3511ZM256.474 98.6751C262.39 102.068 268.189 109.236 273.305 119.479C275.29 123.453 276.914 126.94 276.914 127.229C276.914 127.518 263.864 127.754 247.914 127.754C231.964 127.754 218.914 127.488 218.914 127.163C218.914 124.861 228.781 108.207 232.355 104.477C241.027 95.4261 247.92 93.7681 256.474 98.6751ZM212.914 103.177C212.914 103.41 211.167 106.897 209.031 110.927C206.895 114.957 204.359 120.391 203.395 123.004L201.642 127.754H189.091H176.54L179.477 124.662C184.864 118.991 194.577 111.827 203.04 107.283C210.999 103.01 212.914 102.214 212.914 103.177ZM292.914 106.977C300.889 111.358 309.759 117.896 314.872 123.162L319.33 127.754H306.806H294.282L291.972 122.004C290.701 118.842 288.143 113.426 286.288 109.97C284.432 106.513 282.914 103.445 282.914 103.152C282.914 102.21 287.265 103.874 292.914 106.977ZM196.582 146.504C195.547 151.536 192.967 170.16 192.357 177.004L191.755 183.754H171.986H152.217L153.111 178.004C154.637 168.188 156.927 160.576 160.931 152.004L164.784 143.754H180.966H197.147L196.582 146.504ZM282.356 144.66C283.227 146.07 286.619 167.378 287.345 176.004L287.997 183.754H247.914H207.831L208.483 176.004C209.209 167.378 212.601 146.07 213.472 144.66C214.21 143.466 281.618 143.466 282.356 144.66ZM332.922 147.004C334.011 148.791 336.202 153.854 337.791 158.254C340.384 165.431 341.535 170.073 343.311 180.504L343.864 183.754H323.969H304.073L303.442 177.004C302.764 169.744 300.19 151.003 299.253 146.504L298.681 143.754H314.812H330.943L332.922 147.004ZM192.357 206.504C192.967 213.348 195.547 231.972 196.582 237.004L197.147 239.754H180.966H164.784L160.931 231.504C156.927 222.932 154.637 215.32 153.111 205.504L152.217 199.754H171.986H191.755L192.357 206.504ZM287.345 207.004C286.678 215.306 283.208 237.468 282.362 238.838C281.618 240.042 214.216 240.051 213.472 238.848C212.601 237.438 209.209 216.13 208.483 207.504L207.831 199.754H247.879H287.928L287.345 207.004ZM342.717 205.504C341.191 215.32 338.901 222.932 334.897 231.504L331.044 239.754H314.862H298.681L299.253 237.004C300.19 232.505 302.764 213.764 303.442 206.504L304.073 199.754H323.842H343.611L342.717 205.504ZM203.856 261.504C205.127 264.667 207.706 270.12 209.587 273.624C211.469 277.127 212.796 280.205 212.537 280.464C212.278 280.723 208.335 278.993 203.774 276.62C195.706 272.423 183.894 263.737 178.99 258.395L176.565 255.754H189.056H201.546L203.856 261.504ZM276.914 256.279C276.914 257.968 269.064 272.081 265.616 276.592C260.967 282.673 253.035 287.731 248.124 287.745C239.954 287.768 230.455 279.282 223.433 265.686C220.948 260.874 218.914 256.67 218.914 256.345C218.914 256.02 231.964 255.754 247.914 255.754C263.864 255.754 276.914 255.99 276.914 256.279ZM316.838 258.395C311.934 263.737 300.122 272.423 292.054 276.62C287.493 278.993 283.55 280.723 283.291 280.464C283.032 280.205 284.359 277.127 286.241 273.624C288.122 270.12 290.701 264.667 291.972 261.504L294.282 255.754H306.772H319.263L316.838 258.395ZM166.243 393.118C176.517 397.411 179.022 410.881 171.032 418.872C164.545 425.358 155.283 425.358 148.796 418.872C136.43 406.505 150.075 386.363 166.243 393.118ZM342.243 393.118C352.517 397.411 355.022 410.881 347.032 418.872C335.797 430.107 317.386 420.044 320.342 404.283C322.109 394.869 333.065 389.283 342.243 393.118ZM78.2428 449.118C88.5168 453.411 91.0217 466.881 83.0317 474.872C71.7967 486.107 53.3857 476.044 56.3417 460.283C58.1087 450.869 69.0648 445.283 78.2428 449.118ZM430.243 449.118C440.596 453.444 443.005 466.663 434.914 474.754C428.299 481.369 419.342 481.417 412.796 474.872C400.43 462.505 414.075 442.363 430.243 449.118Z" fill="url(#paint0_linear_107_11)"/>
<defs>
<linearGradient id="paint0_linear_107_11" x1="0" y1="495.238" x2="496.393" y2="495.238" gradientUnits="userSpaceOnUse">
<stop stop-color="#3652E2"/>
<stop offset="1" stop-color="#B5289B"/>
</linearGradient>
</defs>
</svg>
