<svg width="495" height="496" viewBox="0 0 495 496" fill="none" xmlns="http://www.w3.org/2000/svg">
<path fill-rule="evenodd" clip-rule="evenodd" d="M30.118 0.778052C23.905 2.24505 14.83 7.58905 10.412 12.3821C8.167 14.8181 4.905 19.8181 3.165 23.4911L0 30.1711V187.723V345.275L3.735 352.831C8.233 361.933 14.023 367.602 23.32 372.006L30 375.171L109.725 375.45L189.449 375.728L191.97 380.03C197.126 388.828 198.796 395.369 198.897 407.171C198.975 416.218 198.583 419.355 196.692 424.838L194.392 431.506L172.196 431.838L150 432.171L143.32 435.336C134.03 439.737 128.232 445.41 123.744 454.492C120.054 461.958 120.015 462.167 119.65 476.287C119.283 490.475 119.293 490.555 121.845 493.107L124.409 495.671H247.5H370.591L373.155 493.107C375.707 490.555 375.717 490.475 375.35 476.287C374.985 462.167 374.946 461.958 371.256 454.492C366.768 445.41 360.97 439.737 351.68 435.336L345 432.171L322.804 431.838L300.608 431.506L298.308 424.838C296.417 419.355 296.025 416.218 296.103 407.171C296.204 395.369 297.874 388.828 303.03 380.03L305.551 375.728L385.328 375.45L465.106 375.171L472.661 371.436C481.762 366.938 487.431 361.147 491.835 351.851L495 345.171V187.671V30.1711L491.835 23.4911C487.431 14.1951 481.762 8.40405 472.661 3.90605L465.104 0.171052L249.552 0.0160522C121.729 -0.0759478 32.42 0.234052 30.118 0.778052ZM462.884 16.8871C468.377 18.51 476.661 26.7941 478.284 32.2871C479.207 35.4131 479.5 63.7411 479.5 150.037V263.671H471.513H463.526L463.263 152.744C463.002 42.473 462.988 41.801 460.938 39.056C459.804 37.537 457.634 35.3671 456.115 34.2331L453.353 32.1711H247.5H41.647L38.885 34.2331C37.366 35.3671 35.196 37.537 34.062 39.056C32.012 41.801 31.998 42.473 31.737 152.744L31.474 263.671H23.487H15.5V150.037C15.5 63.7411 15.793 35.4131 16.716 32.2871C18.221 27.1931 26.592 18.5251 31.5 16.9781C36.794 15.3101 457.244 15.2211 462.884 16.8871ZM447.5 87.6711V127.671H416.748H385.997L383.709 123.359C378.086 112.76 366.186 102.984 353.5 98.5411C344.199 95.2841 328.723 95.264 319.31 98.497C307.736 102.471 296.951 110.846 290.134 121.153C287.017 125.865 286.787 129.567 289.409 132.81C291.194 135.018 292.162 135.203 304.338 135.671C318.423 136.212 320.342 136.9 324.938 143.056C327.829 146.928 327.829 156.414 324.938 160.286C320.342 166.442 318.423 167.13 304.338 167.671C292.162 168.139 291.194 168.324 289.409 170.532C286.787 173.775 287.017 177.477 290.134 182.189C296.946 192.488 307.719 200.858 319.31 204.855C324.79 206.746 327.989 207.15 337 207.094C346.453 207.035 348.967 206.649 354.877 204.345C367.162 199.557 379.488 188.908 384.303 178.921L385.87 175.671H416.685H447.5V219.671V263.671H247.5H47.5V155.671V47.6711H247.5H447.5V87.6711ZM161.955 66.1261C159.815 68.2651 159.5 69.48 159.5 75.6001C159.5 82.437 159.419 82.6611 156.404 84.2211L153.307 85.8221L146.01 78.747C135.244 68.307 135.508 68.2391 117.788 85.9591C100.068 103.679 100.136 103.415 110.576 114.181L117.651 121.478L116.05 124.575C114.49 127.59 114.266 127.671 107.429 127.671C101.309 127.671 100.094 127.986 97.955 130.126C95.52 132.56 95.5 132.735 95.5 151.671C95.5 170.607 95.52 170.782 97.955 173.216C100.094 175.356 101.309 175.671 107.429 175.671C114.266 175.671 114.49 175.752 116.05 178.767L117.651 181.864L110.576 189.161C100.136 199.927 100.068 199.663 117.788 217.383C135.508 235.103 135.244 235.035 146.01 224.595L153.307 217.52L156.404 219.121C159.419 220.681 159.5 220.905 159.5 227.742C159.5 233.862 159.815 235.077 161.955 237.216C164.389 239.651 164.564 239.671 183.5 239.671C202.436 239.671 202.611 239.651 205.045 237.216C207.185 235.077 207.5 233.862 207.5 227.742C207.5 220.905 207.581 220.681 210.596 219.121L213.693 217.52L220.99 224.595C231.756 235.035 231.492 235.103 249.212 217.383C266.932 199.663 266.864 199.927 256.424 189.161L249.349 181.864L250.95 178.767C252.51 175.752 252.734 175.671 259.571 175.671C265.691 175.671 266.906 175.356 269.045 173.216C271.48 170.782 271.5 170.607 271.5 151.671C271.5 132.735 271.48 132.56 269.045 130.126C266.906 127.986 265.691 127.671 259.571 127.671C252.734 127.671 252.51 127.59 250.95 124.575L249.349 121.478L256.424 114.181C266.864 103.415 266.932 103.679 249.212 85.9591C231.492 68.2391 231.756 68.307 220.99 78.747L213.693 85.8221L210.596 84.2211C207.581 82.6611 207.5 82.437 207.5 75.6001C207.5 69.48 207.185 68.2651 205.045 66.1261C202.611 63.6911 202.436 63.6711 183.5 63.6711C164.564 63.6711 164.389 63.6911 161.955 66.1261ZM191.5 84.7371C191.5 87.5231 191.969 90.6781 192.541 91.7481C193.848 94.1901 212.557 103.671 216.068 103.671C217.9 103.671 220.588 101.832 225.128 97.4731L231.583 91.274L237.74 97.4311L243.897 103.588L237.698 110.043C233.339 114.583 231.5 117.271 231.5 119.103C231.5 122.614 240.981 141.323 243.423 142.63C244.493 143.202 247.648 143.671 250.434 143.671H255.5V151.671V159.671H250.434C247.648 159.671 244.493 160.14 243.423 160.712C240.981 162.019 231.5 180.728 231.5 184.239C231.5 186.071 233.339 188.759 237.698 193.299L243.897 199.754L237.74 205.911L231.583 212.068L225.128 205.869C220.588 201.51 217.9 199.671 216.068 199.671C212.557 199.671 193.848 209.152 192.541 211.594C191.969 212.664 191.5 215.819 191.5 218.605V223.671H183.5H175.5V218.605C175.5 215.819 175.031 212.664 174.459 211.594C173.152 209.152 154.443 199.671 150.932 199.671C149.1 199.671 146.412 201.51 141.872 205.869L135.417 212.068L129.26 205.911L123.103 199.754L129.302 193.299C133.661 188.759 135.5 186.071 135.5 184.239C135.5 180.728 126.019 162.019 123.577 160.712C122.507 160.14 119.352 159.671 116.566 159.671H111.5V151.671V143.671H116.566C119.352 143.671 122.507 143.202 123.577 142.63C126.019 141.323 135.5 122.614 135.5 119.103C135.5 117.271 133.661 114.583 129.302 110.043L123.103 103.588L129.26 97.4311L135.417 91.274L141.872 97.4731C146.412 101.832 149.1 103.671 150.932 103.671C154.443 103.671 173.152 94.1901 174.459 91.7481C175.031 90.6781 175.5 87.5231 175.5 84.7371V79.6711H183.5H191.5V84.7371ZM174.118 112.719C167.79 114.309 158.784 119.639 154.412 124.382C152.167 126.818 148.905 131.818 147.165 135.491C144.299 141.54 144 143.073 144 151.723C144 160.738 144.21 161.699 147.735 168.831C152.233 177.933 158.023 183.602 167.32 188.006C173.361 190.868 174.909 191.171 183.5 191.171C192.091 191.171 193.639 190.868 199.68 188.006C208.977 183.602 214.767 177.933 219.265 168.831C222.794 161.691 223 160.746 223 151.671C223 142.596 222.794 141.651 219.265 134.511C212.508 120.838 200.503 112.815 185.749 112.113C181.487 111.91 176.253 112.183 174.118 112.719ZM350.747 114.616C358.864 117.718 366.414 124.943 371.148 134.138C373.411 138.534 375.914 141.994 377.282 142.618C378.756 143.289 391.896 143.671 413.547 143.671H447.5V151.671V159.671L412.75 159.703C387.004 159.726 377.592 160.05 376.425 160.953C375.559 161.623 373.127 165.459 371.021 169.478C366.416 178.267 358.592 185.684 350.545 188.89C346.302 190.58 342.882 191.107 335.979 191.135C327.671 191.168 326.405 190.898 319.979 187.721L313 184.271L316.5 183.415C322.429 181.964 332.378 176.605 335.061 173.417C336.463 171.75 338.805 168.088 340.265 165.278C342.528 160.923 342.919 158.92 342.919 151.671C342.919 144.422 342.528 142.419 340.265 138.064C338.805 135.254 336.498 131.634 335.138 130.018C332.151 126.467 323.857 121.81 317.746 120.251L313.276 119.111L318.249 116.404C320.984 114.915 324.972 113.26 327.111 112.726C333.052 111.242 344.264 112.139 350.747 114.616ZM190.884 128.887C199.478 131.426 207.5 142.426 207.5 151.671C207.5 164.062 195.891 175.671 183.5 175.671C171.109 175.671 159.5 164.062 159.5 151.671C159.5 145.386 161.788 140.315 166.966 135.126C173.981 128.096 181.537 126.125 190.884 128.887ZM479.5 309.305C479.5 329.649 479.119 340.229 478.284 343.055C476.661 348.548 468.377 356.832 462.884 358.455C456.899 360.223 38.101 360.223 32.116 358.455C26.623 356.832 18.339 348.548 16.716 343.055C15.881 340.229 15.5 329.649 15.5 309.305V279.671H247.5H479.5V309.305ZM239.5 296.978C234.592 298.525 226.221 307.193 224.716 312.287C221.946 321.663 223.899 329.138 230.966 336.205C236.145 341.384 241.21 343.671 247.5 343.671C253.79 343.671 258.855 341.384 264.034 336.205C273.806 326.433 274.098 314.002 264.799 303.659C258.327 296.461 248.977 293.991 239.5 296.978ZM253.045 314.126C254.593 315.673 255.5 317.723 255.5 319.671C255.5 321.619 254.593 323.669 253.045 325.216C248.085 330.177 239.5 326.662 239.5 319.671C239.5 315.56 243.389 311.671 247.5 311.671C249.448 311.671 251.498 312.578 253.045 314.126ZM286.5 376.134C286.5 376.389 285.559 378.976 284.41 381.884C281.649 388.867 279.496 400.364 279.517 408.009C279.533 413.412 281.293 424.292 283.044 429.811C283.613 431.601 282.272 431.671 247.5 431.671C212.728 431.671 211.387 431.601 211.956 429.811C213.707 424.292 215.467 413.412 215.483 408.009C215.504 400.364 213.351 388.867 210.59 381.884C209.441 378.976 208.5 376.389 208.5 376.134C208.5 375.879 226.05 375.671 247.5 375.671C268.95 375.671 286.5 375.879 286.5 376.134ZM342.884 448.887C348.377 450.51 356.661 458.794 358.284 464.287C358.953 466.551 359.5 470.938 359.5 474.037V479.671H247.5H135.5V474.037C135.5 470.938 136.047 466.551 136.716 464.287C138.221 459.193 146.592 450.525 151.5 448.978C156.751 447.323 337.3 447.237 342.884 448.887Z" fill="url(#paint0_linear_106_27)"/>
<defs>
<linearGradient id="paint0_linear_106_27" x1="0" y1="495.51" x2="495.5" y2="495.51" gradientUnits="userSpaceOnUse">
<stop stop-color="#3652E2"/>
<stop offset="1" stop-color="#B5289B"/>
</linearGradient>
</defs>
</svg>
