<svg width="383" height="496" viewBox="0 0 383 496" fill="none" xmlns="http://www.w3.org/2000/svg">
<path fill-rule="evenodd" clip-rule="evenodd" d="M24 0.594106C15.009 2.79311 6.753 9.53511 2.476 18.1721L0 23.1721V231.672V440.172L2.257 444.703C3.498 447.195 5.827 450.826 7.432 452.773C11.054 457.168 20.477 462.271 26.651 463.183C31.279 463.866 31.306 463.892 31.994 468.478C33.515 478.621 39.265 486.641 48.675 491.743L55 495.172H207.5H360L366.301 491.755C373.3 487.96 376.314 484.846 380.305 477.279L383 472.172V263.672V55.1721L379.571 48.8471C374.469 39.4371 366.449 33.6871 356.306 32.1661C351.72 31.4781 351.694 31.4511 351.011 26.8231C350.099 20.6491 344.996 11.2261 340.601 7.60411C338.654 5.99911 335.023 3.67011 332.531 2.42911L328 0.172106L177.5 0.0161062C94.725 -0.0688938 25.65 0.191106 24 0.594106ZM328.115 18.2341C329.634 19.3681 331.804 21.5381 332.938 23.0571L335 25.8191V231.672V437.525L332.938 440.287C331.804 441.806 329.634 443.976 328.115 445.11C325.354 447.171 325.291 447.172 175.5 447.172C25.709 447.172 25.646 447.171 22.885 445.11C21.366 443.976 19.196 441.806 18.062 440.287L16 437.525L15.715 234.349C15.558 122.602 15.688 29.7231 16.004 27.9511C16.72 23.9441 20.922 18.8351 24.95 17.0731C27.454 15.9781 54.598 15.7781 176.677 15.9561C325.112 16.1721 325.358 16.1751 328.115 18.2341ZM33.955 34.1271C31.52 36.5611 31.5 36.7361 31.5 55.6721C31.5 74.6081 31.52 74.7831 33.955 77.2171L36.409 79.6721H63.5H90.591L93.045 77.2171C95.48 74.7831 95.5 74.6081 95.5 55.6721C95.5 36.7361 95.48 36.5611 93.045 34.1271L90.591 31.6721H63.5H36.409L33.955 34.1271ZM111.5 39.6721V47.6721H179.5H247.5V39.6721V31.6721H179.5H111.5V39.6721ZM79.5 55.6721V63.6721H63.5H47.5V55.6721V47.6721H63.5H79.5V55.6721ZM360.438 50.4951C361.779 51.4851 363.804 53.5381 364.938 55.0571L367 57.8191V263.672V469.525L364.938 472.287C363.804 473.806 361.634 475.976 360.115 477.11C357.354 479.171 357.291 479.172 207.5 479.172C57.709 479.172 57.646 479.171 54.885 477.11C51.043 474.242 48.634 470.739 47.89 466.939L47.257 463.706L187.628 463.439L328 463.172L334.301 459.755C341.3 455.96 344.314 452.846 348.305 445.279L351 440.172L351.262 243.799L351.525 47.4271L354.762 48.0611C356.543 48.4101 359.097 49.5051 360.438 50.4951ZM111.5 71.6721V79.6721H199.5H287.5V71.6721V63.6721H199.5H111.5V71.6721ZM303.5 71.6721V79.6721H311.5H319.5V71.6721V63.6721H311.5H303.5V71.6721ZM33.955 114.127C31.52 116.561 31.5 116.736 31.5 135.672C31.5 154.608 31.52 154.783 33.955 157.217L36.409 159.672H63.5H90.591L93.045 157.217C95.48 154.783 95.5 154.608 95.5 135.672C95.5 116.736 95.48 116.561 93.045 114.127L90.591 111.672H63.5H36.409L33.955 114.127ZM111.5 119.672V127.672H179.5H247.5V119.672V111.672H179.5H111.5V119.672ZM79.5 135.672V143.672H63.5H47.5V135.672V127.672H63.5H79.5V135.672ZM111.5 151.672V159.672H199.5H287.5V151.672V143.672H199.5H111.5V151.672ZM303.5 151.672V159.672H311.5H319.5V151.672V143.672H311.5H303.5V151.672ZM157.5 193.149C132.309 197.423 107.477 211.188 91.527 229.72C52.444 275.13 54.582 340.729 96.512 382.66C138.691 424.838 204.623 426.68 250.241 386.954C263.403 375.492 276.187 355.914 281.849 338.548C298.742 286.733 275.741 229.933 227.729 204.907C205.681 193.413 180.647 189.222 157.5 193.149ZM198.997 210.699C217.11 215.523 229.418 222.652 242.974 236.172C256.569 249.731 263.552 261.835 268.674 280.719C271.87 292.502 271.89 314.261 268.717 326.432C264.091 344.175 255.929 358.476 243.117 371.289C230.304 384.101 216.003 392.263 198.26 396.889C186.089 400.062 164.33 400.042 152.547 396.846C133.663 391.724 121.559 384.741 108 371.146C94.373 357.483 87.364 345.316 82.353 326.625C79.405 315.632 79.125 293.002 81.804 282.309C86.309 264.328 94.59 249.557 107.464 236.542C122.225 221.617 138.342 213.003 158.842 209.081C168.938 207.149 188.648 207.943 198.997 210.699ZM205.5 257.393C201.867 258.655 197.015 262.904 180.306 279.457L159.611 299.957L154.55 295.407C146.629 288.285 137 285.976 128.248 289.099C115.352 293.701 108.672 307.609 113.03 320.785C114.557 325.403 116.721 328.114 128.196 339.785C144.728 356.599 148.882 359.172 159.5 359.172C171.157 359.172 172.918 357.854 206.742 323.828C232.686 297.728 236.417 293.581 237.86 289.244C241.093 279.527 238.988 270.107 232.026 263.146C225.077 256.196 215.146 254.042 205.5 257.393ZM220.577 274.595C222.63 276.648 223.5 278.503 223.5 280.826C223.5 283.829 220.802 286.828 194.25 313.343C175.104 332.462 164.05 342.783 162.25 343.22C156.938 344.512 154.213 342.749 140.75 329.313C129.121 317.708 127.5 315.688 127.5 312.804C127.5 308.369 132.127 303.672 136.496 303.672C139.071 303.672 141.172 305.133 148 311.672C160.418 323.565 157.926 324.587 187 295.672C208.612 274.178 211.472 271.672 214.393 271.672C216.664 271.672 218.541 272.559 220.577 274.595Z" fill="#00B9EE"/>
</svg>
