<svg width="496" height="496" viewBox="0 0 496 496" fill="none" xmlns="http://www.w3.org/2000/svg">
<path fill-rule="evenodd" clip-rule="evenodd" d="M329.893 1.04293C270.061 9.61993 223.676 47.8889 210.818 99.2809C208.988 106.596 208.624 110.799 208.67 124.088C208.718 138.086 209.054 141.325 211.356 149.976C214.8 162.921 223.136 180.002 231.128 190.494C234.65 195.117 237.943 199.446 238.446 200.115C239.372 201.347 237.476 215.251 236.072 217.523C235.576 218.326 233.088 217.457 227.944 214.683C219.204 209.969 209.238 206.084 199.532 203.606L192.532 201.819L192.032 182.613C191.383 157.694 193.37 159.588 167.876 159.588C142.403 159.588 144.032 157.983 144.032 183.074C144.032 197.085 143.725 201.735 142.782 201.995C122.658 207.536 111.01 212.185 100.741 218.775L95.9054 221.878L80.6464 206.733C68.0444 194.225 64.8844 191.588 62.4994 191.588C60.1214 191.588 57.1744 194.025 45.8214 205.377C34.4694 216.73 32.0324 219.677 32.0324 222.055C32.0324 224.44 34.6724 227.602 47.1954 240.22L62.3584 255.497L59.8014 259.36C53.6324 268.683 47.2434 283.579 44.0504 296.088L42.2634 303.088L23.0574 303.588C-1.84861 304.236 0.0323916 302.275 0.0323916 327.588C0.0323916 352.901 -1.84861 350.94 23.0574 351.588L42.2634 352.088L44.0504 359.088C47.2434 371.597 53.6324 386.493 59.8014 395.816L62.3584 399.679L47.1954 414.956C34.6724 427.574 32.0324 430.736 32.0324 433.121C32.0324 435.499 34.4694 438.446 45.8214 449.799C57.1744 461.151 60.1214 463.588 62.4994 463.588C64.8844 463.588 68.0444 460.951 80.6464 448.443L95.9054 433.298L100.741 436.401C111.01 442.991 122.658 447.64 142.782 453.181C143.725 453.441 144.032 458.091 144.032 472.102C144.032 497.207 142.377 495.588 168.032 495.588C193.687 495.588 192.032 497.207 192.032 472.102C192.032 458.085 192.339 453.443 193.282 453.192C212.077 448.18 220.396 444.973 232.515 438.066L240.458 433.54L254.675 447.73C266.938 459.972 269.324 461.921 272.04 461.921C274.751 461.921 277.08 460.031 288.777 448.333C300.475 436.636 302.365 434.307 302.365 431.596C302.365 428.878 300.402 426.48 288.024 414.08L273.683 399.714L276.251 395.833C282.432 386.493 288.818 371.607 292.014 359.088L293.801 352.088L313.007 351.588C337.913 350.94 336.032 352.901 336.032 327.588C336.032 302.275 337.913 304.236 313.007 303.588L293.801 303.088L291.985 295.93C289.766 287.183 285.939 277.319 281.268 268.31C279.336 264.582 277.93 261.392 278.143 261.221C278.357 261.05 285.507 256.734 294.032 251.63L309.532 242.35L318.054 243.987C338.127 247.842 355.27 248.516 373.054 246.148C407.478 241.565 437.074 227.619 459.843 205.252C477.095 188.305 487.707 170.079 493.238 147.895C496.385 135.276 496.385 111.9 493.238 99.2809C487.558 76.5009 476.875 58.4369 458.663 40.8179C438.376 21.1929 410.53 7.36493 380.532 2.02093C368.122 -0.189074 342.006 -0.694074 329.893 1.04293ZM381.068 18.4669C430.324 28.4249 467.128 60.7389 477.745 103.351C480.045 112.579 480.045 134.597 477.745 143.825C473.068 162.599 463.369 179.434 449.08 193.588C431.172 211.326 409.207 222.664 381.032 228.713C365.884 231.966 338.008 231.973 323.532 228.728C305.55 224.697 310.419 223.137 275.649 244.066C258.663 254.29 244.533 262.422 244.249 262.138C243.964 261.854 246.499 247.776 249.882 230.855C253.265 213.933 256.033 199.139 256.032 197.978C256.032 196.818 253.07 192.318 249.449 187.978C231.187 166.091 223.004 143.44 224.377 118.578C225.717 94.3139 236.092 72.2809 254.978 53.5879C276.112 32.6699 300.916 21.4299 337.532 16.1769C344.534 15.1729 371.891 16.6109 381.068 18.4669ZM272.032 127.588V135.588H292.032H312.032V127.588V119.588H292.032H272.032V127.588ZM328.032 127.588V135.588H348.032H368.032V127.588V119.588H348.032H328.032V127.588ZM384.032 127.588V135.588H404.032H424.032V127.588V119.588H404.032H384.032V127.588ZM176.032 193.477C176.032 215.532 175.737 214.966 188.625 217.609C193.596 218.629 200.559 220.448 204.098 221.651C211.102 224.033 226.043 231.457 230.017 234.529L232.501 236.451L228.227 258.269C225.876 270.27 223.97 280.671 223.992 281.383C224.063 283.68 228.849 287.588 231.591 287.588C233.153 287.588 240.329 283.924 249.057 278.671L263.872 269.754L267.343 276.421C272.023 285.409 275.796 296.235 278.021 307.061C280.654 319.874 280.104 319.588 302.143 319.588H320.032V327.588V335.588H302.143C280.072 335.588 280.657 335.281 277.995 348.259C274.635 364.638 269.428 377.143 260.243 390.888C253.264 401.331 253.241 401.266 269.603 417.659L283.508 431.591L277.771 437.327L272.035 443.064L258.103 429.159C241.753 412.84 241.885 412.886 231.417 419.806C217.431 429.051 205.032 434.201 188.703 437.551C175.725 440.213 176.032 439.628 176.032 461.699V479.588H168.032H160.032V461.699C160.032 439.628 160.339 440.213 147.361 437.551C130.982 434.191 118.477 428.984 104.732 419.799C94.2694 412.807 94.3844 412.766 77.6994 429.421C69.8934 437.213 63.0784 443.588 62.5544 443.588C61.2604 443.588 52.0324 434.423 52.0324 433.138C52.0324 432.574 58.4074 425.727 66.1994 417.921C82.8114 401.279 82.7464 401.46 75.8144 390.973C66.5694 376.987 61.4194 364.588 58.0694 348.259C55.4074 335.281 55.9924 335.588 33.9214 335.588H16.0324V327.588V319.588H33.9214C55.9924 319.588 55.4074 319.895 58.0694 306.917C61.4194 290.588 66.5694 278.189 75.8144 264.203C82.7464 253.716 82.8114 253.897 66.1994 237.255C58.4074 229.449 52.0324 222.634 52.0324 222.11C52.0324 220.816 61.1974 211.588 62.4824 211.588C63.0464 211.588 69.8934 217.963 77.6994 225.755C94.3874 242.413 94.1424 242.327 104.827 235.224C118.381 226.214 136.469 218.994 150.469 217.006C153.604 216.561 156.25 215.46 157.719 213.992C159.965 211.745 160.032 211.159 160.032 193.633V175.588H168.032H176.032V193.477ZM154.136 265.134C143.098 267.529 131.561 273.985 123.01 282.552C97.9914 307.619 97.7854 347.502 122.549 372.088C134.778 384.229 148.172 390.365 164.44 391.277C193.626 392.913 220.394 374.267 229.311 346.088C231.064 340.55 231.526 336.687 231.526 327.588C231.526 318.489 231.064 314.626 229.311 309.088C219.237 277.253 186.503 258.113 154.136 265.134ZM179.49 281.119C205.1 287.79 221.017 314.028 214.54 338.895C210.023 356.236 196.738 369.564 179.49 374.057C154.508 380.564 128.242 364.689 121.563 339.046C112.658 304.856 145.3 272.214 179.49 281.119Z" fill="#00B9EE"/>
</svg>
