<svg width="512" height="513" viewBox="0 0 512 513" fill="none" xmlns="http://www.w3.org/2000/svg">
<path fill-rule="evenodd" clip-rule="evenodd" d="M90.3501 2.35727C84.9601 4.86727 80.4261 9.49127 78.2391 14.7083C77.1271 17.3623 76.8911 45.7973 76.8911 176.958V335.99H46.3911H15.8911V208.555C15.8911 129.832 16.2571 80.1583 16.8481 78.6033C18.6081 73.9743 22.3661 72.9903 38.2861 72.9903C52.0431 72.9903 52.9181 72.8713 55.5021 70.6483C59.2791 67.4003 59.2391 62.5463 55.4091 59.2513C52.6291 56.8613 52.3731 56.8343 35.4921 57.1663C20.2641 57.4663 17.9531 57.7393 14.3911 59.6593C9.67912 62.1983 4.85512 67.1003 2.25312 71.9903C0.462122 75.3573 0.381122 81.7633 0.129122 240.447C-0.158878 421.883 -0.531878 410.382 5.89712 418.181C7.54212 420.177 11.2271 422.975 14.0861 424.4L19.2841 426.99H97.0871H174.891V441.331V455.672L169.486 456.881C154.696 460.191 146.86 471.673 146.913 489.958C146.945 500.982 150.785 508.112 158.206 510.923C162.127 512.409 349.636 512.414 353.576 510.929C358.052 509.241 362.576 504.188 363.925 499.368C365.679 493.103 364.714 478.619 362.164 472.944C358.426 464.626 350.015 458.183 340.641 456.458L336.891 455.767V441.379V426.99H414.695H492.498L497.673 424.411C500.519 422.993 504.227 420.091 505.912 417.963C512.322 409.871 511.94 421.665 511.653 240.481C511.401 81.7643 511.32 75.3573 509.529 71.9903C506.928 67.1013 502.104 62.1993 497.391 59.6573C493.804 57.7223 491.547 57.4643 475.538 57.1623C465.718 56.9773 456.614 57.0943 455.306 57.4223C452.148 58.2153 449.575 63.2773 450.407 67.0623C451.582 72.4113 453.65 72.9903 471.566 72.9903C482.02 72.9903 488.73 73.4153 490.419 74.1853C496.176 76.8083 495.891 69.8063 495.891 208.44V335.99H465.391H434.891V307.49C434.891 280.323 434.797 278.896 432.891 276.99C430.729 274.828 425.944 274.356 422.869 276.002C419.577 277.764 418.902 283.579 418.897 310.24L418.891 335.99H255.891H92.8911V178.029V20.0683L95.0801 18.0293C97.2571 16.0003 97.8811 15.9903 218.018 15.9903H338.768L339.08 41.7403C339.387 67.1943 339.421 67.5553 342.039 73.1383C345.411 80.3303 351.551 86.4703 358.743 89.8423C364.354 92.4733 364.571 92.4923 391.641 92.8123L418.891 93.1333V108.412C418.891 125.893 419.746 129.605 424.205 131.48C427.807 132.994 432.387 131.801 433.912 128.951C434.48 127.89 434.891 116.027 434.891 100.713C434.891 75.2443 434.811 74.1543 432.641 70.0813C431.159 67.2993 418.972 55.1263 396.916 34.3963C367.214 6.48027 362.882 2.76827 358.484 1.46227C354.232 0.199273 335.198 -0.0087271 224.459 0.000272897L95.3911 0.0102729L90.3501 2.35727ZM387.518 47.4903L418.275 76.4903L394.833 76.7903C370.263 77.1043 366.241 76.6263 361.401 72.8193C355.634 68.2833 354.937 64.7763 354.913 40.1573C354.9 26.7173 355.263 17.9563 355.826 18.1573C356.341 18.3403 370.602 31.5403 387.518 47.4903ZM133.206 49.9973C128.514 51.8883 127.371 59.2133 131.205 62.8163L133.52 64.9903H200.751H267.982L270.436 62.5353C273.739 59.2333 273.575 55.5203 269.968 51.9133L267.045 48.9903L201.218 49.0533C165.013 49.0883 134.408 49.5133 133.206 49.9973ZM139.575 98.4013C137.476 99.1703 134.842 100.629 133.722 101.643C129.023 105.895 128.891 106.985 128.891 141.49C128.891 177.816 128.903 177.887 135.634 182.461L139.355 184.99H172.475C205.181 184.99 205.637 184.962 208.939 182.737C213.655 179.559 215.851 175.227 216.552 167.719C217.683 155.608 215.097 149.99 208.391 149.99C202.61 149.99 200.891 152.626 200.891 161.49V168.99H172.891H144.891V140.99V112.99H158.318C171.633 112.99 171.763 112.968 173.818 110.355C176.544 106.891 176.438 103.738 173.48 100.296C171.077 97.4993 171.026 97.4893 157.23 97.2463C147.333 97.0723 142.304 97.4013 139.575 98.4013ZM200.114 111.661C199.189 112.033 184.542 130.276 178.318 138.809C178.19 138.985 175.292 137.073 171.878 134.559C165.001 129.496 161.492 128.85 158.092 132.018C155.026 134.873 154.337 138.496 156.292 141.479C158.397 144.692 174.533 156.862 177.762 157.673C181.884 158.707 184.793 156.142 196.707 140.965C213.424 119.669 213.859 118.762 209.818 113.625C207.808 111.069 203.67 110.232 200.114 111.661ZM246.248 115.982C243.519 117.083 240.891 120.809 240.891 123.578C240.891 124.756 241.824 126.906 242.964 128.355L245.036 130.99H292.529C321.596 130.99 340.732 130.61 341.852 130.011C342.858 129.473 344.141 127.713 344.703 126.1C346.033 122.285 343.472 116.841 339.891 115.868C336.196 114.865 248.754 114.97 246.248 115.982ZM374.575 144.427C367.616 146.93 363.891 151.976 363.891 158.9C363.891 164.645 379.53 237.576 381.453 240.797C383.763 244.667 387.473 247.124 391.906 247.719C399.044 248.676 402.261 247.348 409.875 240.299L417.041 233.664L432.216 248.778C440.562 257.091 448.672 264.37 450.238 264.953C455.949 267.082 459.524 264.971 472.581 251.76C485.575 238.614 487.225 235.628 484.888 229.483C484.264 227.84 477.034 219.726 468.821 211.452L453.89 196.408L458.416 191.965C460.906 189.522 464.108 185.841 465.532 183.786C470.326 176.869 468.305 166.112 461.356 161.559C459.476 160.327 398.948 146.745 380.891 143.503C379.516 143.257 376.674 143.672 374.575 144.427ZM247.161 151.666C244.35 152.243 240.891 156.559 240.891 159.49C240.891 160.717 241.824 162.906 242.964 164.355L245.036 166.99H276.353C305.461 166.99 307.832 166.858 309.98 165.119C313.104 162.589 313.147 156.802 310.065 153.718C307.871 151.523 307.41 151.488 278.615 151.349C262.542 151.271 248.387 151.414 247.161 151.666ZM415.866 167.061C434.305 170.95 450.038 174.343 450.829 174.602C451.798 174.918 449.365 177.988 443.379 184.002C430.486 196.956 430.205 195.776 451.19 216.789L467.889 233.509L460.65 240.749L453.41 247.988L436.69 231.289C415.681 210.307 416.853 210.588 403.923 223.458C395.585 231.757 394.976 232.171 394.427 229.908C393.215 224.907 379.891 161.554 379.891 160.789C379.891 159.505 380.749 159.654 415.866 167.061ZM138.391 220.407C136.741 221.144 134.041 223.181 132.391 224.934L129.391 228.121V262.99V297.859L132.391 301.047C137.844 306.844 138.841 306.99 172.899 306.99C201.834 306.99 204.236 306.855 207.83 305.021C209.953 303.938 212.747 301.351 214.04 299.271C216.382 295.504 216.391 295.368 216.391 262.99C216.391 230.866 216.365 230.447 214.103 226.811C212.76 224.651 210.049 222.277 207.538 221.061C203.487 219.1 201.613 218.992 172.325 219.029C148.71 219.059 140.681 219.385 138.391 220.407ZM200.891 262.99V290.99H172.891H144.891V262.99V234.99H172.891H200.891V262.99ZM245.391 238.198C240.33 241.1 239.417 246.607 243.346 250.535L245.8 252.99H292.79H339.779L342.502 250.648C344.447 248.975 345.224 247.36 345.224 244.99C345.224 242.62 344.447 241.005 342.502 239.332L339.779 236.99L293.585 237.02C260.722 237.042 246.814 237.382 245.391 238.198ZM243.346 275.445C241.798 276.992 240.891 279.042 240.891 280.99C240.891 282.938 241.798 284.988 243.346 286.535L245.8 288.99H276.757H307.713L310.302 285.913C313.651 281.934 313.57 279.515 309.968 275.913L307.045 272.99H276.422H245.8L243.346 275.445ZM495.891 378.567V405.144L492.968 408.067L490.045 410.99H255.891H21.7371L18.8141 408.067L15.8911 405.144V378.567V351.99H255.891H495.891V378.567ZM250.346 376.445C245.436 381.354 248.961 389.323 256.041 389.323C259.814 389.323 263.891 385.202 263.891 381.389C263.891 377.878 259.687 373.99 255.891 373.99C253.943 373.99 251.893 374.897 250.346 376.445ZM320.891 441.99V455.99H255.891H190.891V441.99V427.99H255.891H320.891V441.99ZM341.891 473.742C346.744 476.166 348.888 480.913 348.889 489.24L348.891 495.99H255.891H162.891L162.893 489.24C162.894 480.913 165.038 476.166 169.891 473.742C173.138 472.119 179.349 471.993 255.891 471.993C332.433 471.993 338.644 472.119 341.891 473.742Z" fill="url(#paint0_linear_107_26)"/>
<defs>
<linearGradient id="paint0_linear_107_26" x1="0" y1="511.874" x2="512.299" y2="511.874" gradientUnits="userSpaceOnUse">
<stop stop-color="#3652E2"/>
<stop offset="1" stop-color="#B5289B"/>
</linearGradient>
</defs>
</svg>
