<svg width="432" height="496" viewBox="0 0 432 496" fill="none" xmlns="http://www.w3.org/2000/svg">
<path fill-rule="evenodd" clip-rule="evenodd" d="M165.711 1.41795C159.552 3.54895 152.553 9.73395 149.515 15.73C143.4 27.796 142.563 48.443 147.335 69.517L149.657 79.7739L145.983 80.7639C130.045 85.0549 123.351 104.875 133.389 118.052C138.36 124.578 143.815 127.086 154.109 127.579L162.753 127.992L163.865 131.702C165.546 137.314 172.374 147.257 178.517 153.039C183.644 157.865 184 158.505 184 162.877V167.553L167.75 167.954C153.048 168.317 151.024 168.586 146.5 170.783C140.14 173.872 134.134 179.868 131 186.259C128.765 190.817 128.516 192.694 128.188 207.509L127.828 223.759H90.369H52.909L50.455 226.214L48 228.668V255.759V282.85L50.455 285.304C52.641 287.491 53.761 287.759 60.708 287.759H68.507L122.253 341.512L176 395.266V426.578C176 446.458 176.382 458.604 177.046 459.845C178.357 462.294 244.975 495.759 248.54 495.759C249.943 495.759 252.195 494.654 253.545 493.304L256 490.85V443.051V395.252L309.753 341.506L363.507 287.759H371.299C378.239 287.759 379.359 287.491 381.545 285.304L384 282.85V255.759V228.668L381.545 226.214L379.091 223.759H341.648H304.206L303.837 207.509L303.468 191.259L300.055 184.934C296.353 178.075 292.108 174.015 285.031 170.564C281.063 168.63 278.481 168.305 264.25 167.954L248 167.553V162.998C248 158.689 248.377 158.068 254.979 151.505C261.495 145.027 269 133.048 269 129.125C269 128.094 270.808 127.759 276.374 127.759C285.752 127.759 291.399 125.756 296.715 120.543C310.355 107.17 304.218 86.501 284.793 80.392C283.227 79.899 283.289 79.2599 285.543 72.632C290.003 59.519 288.519 41.674 281.875 28.511C277.763 20.3659 267.389 9.99395 259.238 5.87895C241.991 -2.82705 220.946 -1.77005 205.621 8.57295C203.024 10.325 200.639 11.759 200.321 11.759C200.003 11.759 197.943 10.1329 195.744 8.14595C187.612 0.79995 175.402 -1.93605 165.711 1.41795ZM180.316 16.89C181.517 17.512 185.715 21.112 189.643 24.89C198.793 33.688 200.659 33.86 208.634 26.6369C217.272 18.8149 223.528 16.311 234.5 16.282C242.549 16.261 244.203 16.5919 250.151 19.41C263.59 25.777 271.077 37.3419 271.82 52.881C272.128 59.326 271.786 62.9079 270.482 66.8989C269.519 69.8469 268.603 72.409 268.448 72.5919C268.293 72.7759 258.853 65.463 247.469 56.3419C224.957 38.3049 223.213 37.455 218.455 42.214C216.826 43.8419 216 45.7949 216 48.0169C216 49.8589 214.831 53.7109 213.403 56.577C209.318 64.7759 206.049 66.1809 183.304 69.5109L164.209 72.3059L162.552 64.783C159.01 48.709 159.535 31.131 163.802 22.909C166.844 17.047 174.928 14.101 180.316 16.89ZM243.036 73.0089L256.018 83.2589L255.759 102.314L255.5 121.37L251.765 128.923C247.267 138.021 241.474 143.691 232.18 148.094C226.139 150.956 224.591 151.259 216 151.259C207.409 151.259 205.861 150.956 199.82 148.094C190.526 143.691 184.733 138.021 180.235 128.922L176.5 121.368L176.153 104.164L175.806 86.961L178.653 86.396C180.219 86.086 186.653 85.1009 192.95 84.2069C199.248 83.313 206.764 81.697 209.652 80.616C215.695 78.3549 223.702 71.585 226.519 66.354C227.584 64.377 228.815 62.7589 229.255 62.7589C229.695 62.7589 235.896 67.3709 243.036 73.0089ZM26.455 82.214L24 84.6679V114.214V143.759H14.455C5.653 143.759 4.718 143.95 2.455 146.214C0.848002 147.82 0 149.799 0 151.943C0 154.892 2.607 157.824 26.271 181.488C50.503 205.72 52.81 207.759 56 207.759C59.19 207.759 61.497 205.72 85.729 181.488C109.393 157.824 112 154.892 112 151.943C112 149.799 111.152 147.82 109.545 146.214C107.282 143.95 106.347 143.759 97.545 143.759H88V114.214V84.6679L85.545 82.214L83.091 79.7589H56H28.909L26.455 82.214ZM346.455 82.214L344 84.6679V114.214V143.759H334.455C325.653 143.759 324.718 143.95 322.455 146.214C320.848 147.82 320 149.799 320 151.943C320 154.892 322.607 157.824 346.271 181.488C370.503 205.72 372.81 207.759 376 207.759C379.19 207.759 381.497 205.72 405.729 181.488C429.393 157.824 432 154.892 432 151.943C432 149.799 431.152 147.82 429.545 146.214C427.282 143.95 426.347 143.759 417.545 143.759H408V114.214V84.6679L405.545 82.214L403.091 79.7589H376H348.909L346.455 82.214ZM72 125.148C72 158.628 71.985 158.562 79.862 159.671L84.044 160.259L70.022 174.246L56 188.232L41.978 174.246L27.956 160.259L32.138 159.671C40.015 158.562 40 158.628 40 125.148V95.7589H56H72V125.148ZM160 103.759V111.759H154.455C147.782 111.759 144 108.865 144 103.759C144 98.6529 147.782 95.7589 154.455 95.7589H160V103.759ZM285.545 98.214C287.093 99.7609 288 101.811 288 103.759C288 108.865 284.218 111.759 277.545 111.759H272V103.759V95.7589H277.545C282.1 95.7589 283.53 96.198 285.545 98.214ZM392 125.148C392 158.628 391.985 158.562 399.862 159.671L404.044 160.259L390.022 174.246L376 188.232L361.978 174.246L347.956 160.259L352.138 159.671C360.015 158.562 360 158.628 360 125.148V95.7589H376H392V125.148ZM216 167.259C220.125 167.259 225.461 166.908 227.857 166.48L232.214 165.701L231.853 173.663C231.465 182.204 230.122 185.085 224.615 189.197C220.743 192.088 211.257 192.088 207.385 189.197C201.878 185.085 200.535 182.204 200.147 173.663L199.786 165.701L204.143 166.48C206.539 166.908 211.875 167.259 216 167.259ZM187.297 189.095C190.3 195.656 195.412 200.9 202.283 204.469C206.743 206.785 208.734 207.181 216 207.2C223.782 207.22 225.032 206.935 230.796 203.827C237.642 200.135 241.897 195.507 245.098 188.269L247.155 183.62L262.508 183.94C276.163 184.224 278.166 184.487 280.619 186.321C286.994 191.087 287.472 192.581 287.822 208.828L288.144 223.759H216.072H144V210.324C144 196.282 144.696 192.824 148.317 188.882C152.257 184.591 155.562 183.84 170.677 183.798L184.853 183.759L187.297 189.095ZM368 255.759V271.759H216H64V255.759V239.759H216H368V255.759ZM290.237 338.032L240 388.305V431.536V474.767L216 462.759L192 450.751V419.528V388.305L141.763 338.032L91.527 287.759H216H340.473L290.237 338.032Z" fill="url(#paint0_linear_114_76)"/>
<defs>
<linearGradient id="paint0_linear_114_76" x1="0" y1="495.598" x2="432.436" y2="495.598" gradientUnits="userSpaceOnUse">
<stop stop-color="#3652E2"/>
<stop offset="1" stop-color="#B5289B"/>
</linearGradient>
</defs>
</svg>
