<svg width="496" height="496" viewBox="0 0 496 496" fill="none" xmlns="http://www.w3.org/2000/svg">
<path fill-rule="evenodd" clip-rule="evenodd" d="M282.455 2.455C280.874 4.035 280 6.045 280 8.1C280 10.801 281.566 12.881 290.219 21.674L300.437 32.058L274.24 58.255L248.042 84.453L233.694 70.226C220.862 57.504 218.984 56 215.931 56C212.747 56 208.06 60.457 146.258 122.258C84.102 184.415 80 188.731 80 191.978C80 195.134 81.614 197.054 98.28 213.72C114.912 230.352 116.871 232 120.005 232C123.215 232 126.609 228.843 169.71 185.78L215.97 139.559L230.312 153.78C243.11 166.469 245.021 168 248.052 168C251.199 168 254.859 164.593 297.702 121.787L343.954 75.575L354.332 85.787C363.12 94.435 365.199 96 367.9 96C369.955 96 371.965 95.126 373.545 93.545L376 91.091V48V4.909L373.545 2.455L371.091 0H328H284.909L282.455 2.455ZM360 42.159V68.317L353.587 62.159C342.978 51.971 347.933 48.623 294.29 102.22L248.03 148.441L233.688 134.22C220.89 121.531 218.979 120 215.948 120C212.801 120 209.139 123.408 166.271 166.24L119.992 212.479L109.749 202.237L99.507 191.995L157.732 133.77L215.956 75.546L230.306 89.773C243.125 102.483 245.018 104 248.061 104C251.203 104 254.125 101.343 285.734 69.734C325.797 29.67 323.891 32.879 313.841 22.413L307.683 16H333.841H360V42.159ZM385.798 129.529C360.825 132.935 342.841 141.537 337.886 152.444C336.131 156.309 336.044 161.932 336.044 272C336.044 402.311 335.4 391.907 343.91 399.191C369.79 421.343 446.124 421.45 471.886 399.371C480.633 391.874 479.956 402.554 479.956 272C479.956 141.446 480.633 152.126 471.886 144.629C456.562 131.495 419.303 124.96 385.798 129.529ZM426.5 145.109C442.559 147.077 460.608 153.53 463.106 158.197C465.34 162.372 458.357 167.167 443.978 171.333C417.228 179.082 377.99 176.739 358.702 166.241C350.297 161.667 350.306 158.328 358.737 153.74C364.761 150.461 379.162 146.294 388.5 145.127C398.712 143.852 416.174 143.843 426.5 145.109ZM363.5 185.098C376.39 189.54 385.482 191.074 402.5 191.679C414.687 192.112 421.198 191.85 429.821 190.579C439.274 189.186 455.11 184.788 462.25 181.574C463.812 180.871 464 181.443 464 186.893C464 193.77 462.872 195.494 456.114 198.942C432.92 210.774 383.08 210.774 359.886 198.942C353.128 195.494 352 193.77 352 186.893C352 181.447 352.189 180.87 353.75 181.564C354.712 181.991 359.1 183.582 363.5 185.098ZM225.798 193.529C200.825 196.935 182.841 205.537 177.886 216.444C176.144 220.281 176.044 225.019 176.044 304C176.044 398.227 175.531 392.019 183.91 399.191C209.79 421.343 286.124 421.45 311.886 399.371C320.501 391.987 319.956 398.426 319.956 304C319.956 209.574 320.501 216.013 311.886 208.629C296.562 195.495 259.303 188.96 225.798 193.529ZM266.5 209.109C282.559 211.077 300.608 217.53 303.106 222.197C305.34 226.372 298.357 231.167 283.978 235.333C257.228 243.082 217.99 240.739 198.702 230.241C190.297 225.667 190.306 222.328 198.737 217.74C204.761 214.461 219.162 210.294 228.5 209.127C238.712 207.852 256.174 207.843 266.5 209.109ZM363.5 217.098C376.39 221.54 385.482 223.074 402.5 223.679C414.687 224.112 421.198 223.85 429.821 222.579C439.274 221.186 455.11 216.788 462.25 213.574C463.812 212.871 464 213.443 464 218.893C464 225.77 462.872 227.494 456.114 230.942C432.92 242.774 383.08 242.774 359.886 230.942C353.128 227.494 352 225.77 352 218.893C352 213.447 352.189 212.87 353.75 213.564C354.712 213.991 359.1 215.582 363.5 217.098ZM203.5 249.098C216.39 253.54 225.482 255.074 242.5 255.679C254.687 256.112 261.198 255.85 269.821 254.579C279.274 253.186 295.11 248.788 302.25 245.574C303.812 244.871 304 245.443 304 250.893C304 255.624 303.559 257.441 302.041 258.959C294.839 266.161 270.656 271.994 248 271.994C225.344 271.994 201.161 266.161 193.959 258.959C192.441 257.441 192 255.624 192 250.893C192 245.447 192.189 244.87 193.75 245.564C194.713 245.991 199.1 247.582 203.5 249.098ZM363.5 249.098C376.39 253.54 385.482 255.074 402.5 255.679C414.687 256.112 421.198 255.85 429.821 254.579C439.274 253.186 455.11 248.788 462.25 245.574C463.812 244.871 464 245.443 464 250.893C464 255.624 463.559 257.441 462.041 258.959C454.839 266.161 430.656 271.994 408 271.994C385.344 271.994 361.161 266.161 353.959 258.959C352.441 257.441 352 255.624 352 250.893C352 245.447 352.189 244.87 353.75 245.564C354.712 245.991 359.1 247.582 363.5 249.098ZM65.798 257.529C40.825 260.935 22.841 269.537 17.886 280.444C16.173 284.216 16.044 288.105 16.044 336C16.044 394.194 15.802 392.251 23.91 399.191C49.79 421.343 126.124 421.45 151.886 399.371C160.227 392.222 159.956 394.348 159.956 336C159.956 277.652 160.227 279.778 151.886 272.629C136.562 259.495 99.303 252.96 65.798 257.529ZM106.5 273.109C122.559 275.077 140.608 281.53 143.106 286.197C145.34 290.372 138.357 295.167 123.978 299.333C97.228 307.082 57.99 304.739 38.702 294.241C30.297 289.667 30.306 286.328 38.737 281.74C44.761 278.461 59.162 274.294 68.5 273.127C78.712 271.852 96.174 271.843 106.5 273.109ZM203.5 281.098C216.39 285.54 225.482 287.074 242.5 287.679C254.687 288.112 261.198 287.85 269.821 286.579C279.274 285.186 295.11 280.788 302.25 277.574C303.812 276.871 304 277.443 304 282.893C304 289.77 302.872 291.494 296.114 294.942C272.92 306.774 223.08 306.774 199.886 294.942C193.128 291.494 192 289.77 192 282.893C192 277.447 192.189 276.87 193.75 277.564C194.713 277.991 199.1 279.582 203.5 281.098ZM363.5 281.098C376.39 285.54 385.482 287.074 402.5 287.679C414.687 288.112 421.198 287.85 429.821 286.579C439.274 285.186 455.11 280.788 462.25 277.574C463.812 276.871 464 277.443 464 282.893C464 289.77 462.872 291.494 456.114 294.942C432.92 306.774 383.08 306.774 359.886 294.942C353.128 291.494 352 289.77 352 282.893C352 277.447 352.189 276.87 353.75 277.564C354.712 277.991 359.1 279.582 363.5 281.098ZM43.5 313.098C56.39 317.54 65.482 319.074 82.5 319.679C94.687 320.112 101.198 319.85 109.821 318.579C119.274 317.186 135.11 312.788 142.25 309.574C143.812 308.871 144 309.443 144 314.893C144 319.624 143.559 321.441 142.041 322.959C134.839 330.161 110.656 335.994 88 335.994C65.344 335.994 41.161 330.161 33.959 322.959C32.441 321.441 32 319.624 32 314.893C32 309.447 32.189 308.87 33.75 309.564C34.712 309.991 39.1 311.582 43.5 313.098ZM203.5 313.098C216.39 317.54 225.482 319.074 242.5 319.679C254.687 320.112 261.198 319.85 269.821 318.579C279.274 317.186 295.11 312.788 302.25 309.574C303.812 308.871 304 309.443 304 314.893C304 321.77 302.872 323.494 296.114 326.942C272.92 338.774 223.08 338.774 199.886 326.942C193.128 323.494 192 321.77 192 314.893C192 309.447 192.189 308.87 193.75 309.564C194.713 309.991 199.1 311.582 203.5 313.098ZM363.5 313.098C376.39 317.54 385.482 319.074 402.5 319.679C414.687 320.112 421.198 319.85 429.821 318.579C439.274 317.186 455.11 312.788 462.25 309.574C463.812 308.871 464 309.443 464 314.893C464 321.77 462.872 323.494 456.114 326.942C432.92 338.774 383.08 338.774 359.886 326.942C353.128 323.494 352 321.77 352 314.893C352 309.447 352.189 308.87 353.75 309.564C354.712 309.991 359.1 311.582 363.5 313.098ZM43.5 345.098C56.39 349.54 65.482 351.074 82.5 351.679C94.687 352.112 101.198 351.85 109.821 350.579C119.274 349.186 135.11 344.788 142.25 341.574C143.812 340.871 144 341.443 144 346.893C144 351.624 143.559 353.441 142.041 354.959C134.839 362.161 110.656 367.994 88 367.994C65.344 367.994 41.161 362.161 33.959 354.959C32.441 353.441 32 351.624 32 346.893C32 341.447 32.189 340.87 33.75 341.564C34.712 341.991 39.1 343.582 43.5 345.098ZM203.5 345.098C216.39 349.54 225.482 351.074 242.5 351.679C254.687 352.112 261.198 351.85 269.821 350.579C279.274 349.186 295.11 344.788 302.25 341.574C303.812 340.871 304 341.443 304 346.893C304 353.77 302.872 355.494 296.114 358.942C272.92 370.774 223.08 370.774 199.886 358.942C193.128 355.494 192 353.77 192 346.893C192 341.447 192.189 340.87 193.75 341.564C194.713 341.991 199.1 343.582 203.5 345.098ZM363.5 345.098C376.39 349.54 385.482 351.074 402.5 351.679C414.687 352.112 421.198 351.85 429.821 350.579C439.274 349.186 455.11 344.788 462.25 341.574C463.812 340.871 464 341.443 464 346.893C464 353.77 462.872 355.494 456.114 358.942C432.92 370.774 383.08 370.774 359.886 358.942C353.128 355.494 352 353.77 352 346.893C352 341.447 352.189 340.87 353.75 341.564C354.712 341.991 359.1 343.582 363.5 345.098ZM43.5 377.098C56.39 381.54 65.482 383.074 82.5 383.679C94.687 384.112 101.198 383.85 109.821 382.579C119.274 381.186 135.11 376.788 142.25 373.574C143.812 372.871 144 373.443 144 378.893C144 383.624 143.559 385.441 142.041 386.959C134.839 394.161 110.656 399.994 88 399.994C65.344 399.994 41.161 394.161 33.959 386.959C32.441 385.441 32 383.624 32 378.893C32 373.447 32.189 372.87 33.75 373.564C34.712 373.991 39.1 375.582 43.5 377.098ZM203.5 377.098C216.39 381.54 225.482 383.074 242.5 383.679C254.687 384.112 261.198 383.85 269.821 382.579C279.274 381.186 295.11 376.788 302.25 373.574C303.812 372.871 304 373.443 304 378.893C304 385.77 302.872 387.494 296.114 390.942C272.92 402.774 223.08 402.774 199.886 390.942C193.128 387.494 192 385.77 192 378.893C192 373.447 192.189 372.87 193.75 373.564C194.713 373.991 199.1 375.582 203.5 377.098ZM363.5 377.098C376.39 381.54 385.482 383.074 402.5 383.679C414.687 384.112 421.198 383.85 429.821 382.579C439.274 381.186 455.11 376.788 462.25 373.574C463.812 372.871 464 373.443 464 378.893C464 385.77 462.872 387.494 456.114 390.942C432.92 402.774 383.08 402.774 359.886 390.942C353.128 387.494 352 385.77 352 378.893C352 373.447 352.189 372.87 353.75 373.564C354.712 373.991 359.1 375.582 363.5 377.098ZM2.455 434.455L0 436.909V464V491.091L2.455 493.545L4.909 496H248H491.091L493.545 493.545L496 491.091V464V436.909L493.545 434.455L491.091 432H248H4.909L2.455 434.455ZM480 464V480H248H16V464V448H248H480V464Z" fill="#00B9EE"/>
</svg>
