<?xml version="1.0" encoding="utf-8"?>
<!-- Generator: Adobe Illustrator 23.1.0, SVG Export Plug-In . SVG Version: 6.00 Build 0)  -->
<svg version="1.1" id="Layer_1" xmlns="http://www.w3.org/2000/svg" xmlns:xlink="http://www.w3.org/1999/xlink" x="0px" y="0px"
	 viewBox="0 0 353 353" style="enable-background:new 0 0 353 353;" xml:space="preserve">
<style type="text/css">
	.st0{fill:#F5F6F6;}
	.st1{fill:url(#SVGID_1_);}
	.st2{fill:url(#SVGID_2_);}
	.st3{fill:url(#SVGID_3_);}
	.st4{fill:#373737;}
	.st5{fill:url(#SVGID_4_);}
	.st6{fill:url(#SVGID_5_);}
	.st7{fill:url(#SVGID_6_);}
	.st8{fill:url(#SVGID_7_);}
	.st9{fill:url(#SVGID_8_);}
	.st10{fill:url(#SVGID_9_);}
	.st11{fill:url(#SVGID_10_);}
	.st12{fill:url(#SVGID_11_);}
	.st13{fill:url(#SVGID_12_);}
	.st14{fill:url(#SVGID_13_);}
	.st15{fill:url(#SVGID_14_);}
	.st16{fill:url(#SVGID_15_);}
	.st17{fill:url(#SVGID_16_);}
	.st18{fill:url(#SVGID_17_);}
	.st19{fill:url(#SVGID_18_);}
	.st20{fill:url(#SVGID_19_);}
	.st21{fill:url(#SVGID_20_);}
	.st22{fill:url(#SVGID_21_);}
	.st23{fill:url(#SVGID_22_);}
	.st24{fill:url(#SVGID_23_);}
	.st25{fill:url(#SVGID_24_);}
	.st26{fill:#F0C999;}
	.st27{fill:url(#SVGID_25_);}
	.st28{fill:url(#SVGID_26_);}
	.st29{fill:#F7D9AB;}
	.st30{fill:url(#SVGID_27_);}
	.st31{fill:url(#SVGID_28_);}
	.st32{fill:url(#SVGID_29_);}
	.st33{fill:url(#SVGID_30_);}
	.st34{fill:url(#SVGID_31_);}
	.st35{fill:url(#SVGID_32_);}
	.st36{fill:url(#SVGID_33_);}
	.st37{fill:url(#SVGID_34_);}
	.st38{fill:url(#SVGID_35_);}
	.st39{fill:url(#SVGID_36_);}
	.st40{fill:url(#SVGID_37_);}
	.st41{fill:#E1B58C;}
	.st42{fill:url(#SVGID_38_);}
	.st43{fill:url(#SVGID_39_);}
	.st44{fill:#96282D;}
	.st45{fill:#FDDDB3;}
	.st46{fill:url(#SVGID_40_);}
	.st47{fill:url(#SVGID_41_);}
	.st48{fill:url(#SVGID_42_);}
	.st49{fill:#F3ECEB;}
	.st50{fill:url(#SVGID_43_);}
	.st51{fill:url(#SVGID_44_);}
	.st52{fill:url(#SVGID_45_);}
	.st53{fill:url(#SVGID_46_);}
	.st54{fill:url(#SVGID_47_);}
	.st55{fill:url(#SVGID_48_);}
	.st56{fill:url(#SVGID_49_);}
	.st57{fill:url(#SVGID_50_);}
	.st58{fill:url(#SVGID_51_);}
	.st59{fill:#DDDDDD;}
	.st60{fill:url(#SVGID_52_);}
	.st61{fill:url(#SVGID_53_);}
	.st62{fill:url(#SVGID_54_);}
	.st63{fill:#FFFFFF;}
	.st64{fill:#3B3B3B;}
	.st65{fill:url(#SVGID_55_);}
	.st66{fill:url(#SVGID_56_);}
	.st67{fill:url(#SVGID_57_);}
	.st68{fill:url(#SVGID_58_);}
	.st69{fill:url(#SVGID_59_);}
	.st70{fill:url(#SVGID_60_);}
	.st71{fill:url(#SVGID_61_);}
	.st72{fill:url(#SVGID_62_);}
	.st73{fill:url(#SVGID_63_);}
	.st74{fill:url(#SVGID_64_);}
</style>
<g>
	
		<ellipse transform="matrix(0.7071 -0.7071 0.7071 0.7071 -73.1179 176.5222)" class="st0" cx="176.5" cy="176.5" rx="176.5" ry="176.5"/>
	<g>
		<linearGradient id="SVGID_1_" gradientUnits="userSpaceOnUse" x1="182.0912" y1="251.6435" x2="191.9205" y2="331.3698">
			<stop  offset="0" style="stop-color:#F1F0F5"/>
			<stop  offset="0.6433" style="stop-color:#F9F8FA"/>
			<stop  offset="1" style="stop-color:#FFFFFF"/>
		</linearGradient>
		<path class="st1" d="M181.9,252.6c-7-0.1-16.5,2.2-20.8,5.3c-4.2,3.1-16.9,27.7-16.9,27.7s34.3,44,46.8,40
			c12.6-4,38.2-50.6,35.1-56.6C223.1,263.1,188.9,252.6,181.9,252.6z"/>
		<linearGradient id="SVGID_2_" gradientUnits="userSpaceOnUse" x1="179.3233" y1="222.3437" x2="185.5908" y2="335.7627">
			<stop  offset="0" style="stop-color:#E1E1E5"/>
			<stop  offset="1" style="stop-color:#F1F0F5"/>
		</linearGradient>
		<path class="st2" d="M182.9,308.5c0,0-17.4-16.1-27.9-26.6l-7.6,8.7c0,0,24.3,24.7,34.2,26.9c0,0,26.4-15.4,37.1-30.9l-6.1-7.3
			C212.5,279.4,190.6,305.1,182.9,308.5z"/>
		<linearGradient id="SVGID_3_" gradientUnits="userSpaceOnUse" x1="180.3725" y1="223.6576" x2="185.9708" y2="324.9678">
			<stop  offset="0" style="stop-color:#E1E1E5"/>
			<stop  offset="1" style="stop-color:#F1F0F5"/>
		</linearGradient>
		<path class="st3" d="M215.3,269.8c-10.1-9.6-19.1-17-19.1-17s-22.7-0.4-26.3,1.2c-1.7,0.7-6.7,7.4-11.7,14.3l-28.1-40.9
			c0,0-5,17.1-0.4,27.4c4.6,10.3,20.6,39,20.6,39s22.7-28,24.3-28.5c1.5-0.6,15.4-4.1,19.1,0.5c2.5,3.1,29.1,31.3,29.1,31.3
			s11.4-33.8,12.4-42.2c1.5-13.2-2.6-24.5-2.6-24.5L215.3,269.8z"/>
		<g>
			<path class="st4" d="M182.8,252.8c-5.9-0.8-12.2,6.8-12.2,6.8s3,19.7,6.4,22c3.5,2.3,14,2.3,16.1-1c2.1-3.3,4.5-21.3,4.2-22.5
				C197,256.9,187.6,253.5,182.8,252.8z"/>
			<linearGradient id="SVGID_4_" gradientUnits="userSpaceOnUse" x1="170.1898" y1="258.8214" x2="182.91" y2="258.8214">
				<stop  offset="0" style="stop-color:#2D2D2D"/>
				<stop  offset="1" style="stop-color:#373737"/>
			</linearGradient>
			<path class="st5" d="M171.5,264.8c1.1-3.1,11.4-12.1,11.4-12.1c-6.7,0.5-12.7,5.1-12.7,5.1L171.5,264.8z"/>
			<path class="st4" d="M206.7,338.4c-0.4-14.4-12.3-46.4-12.6-47.5c-0.3-1.1-1.9-13-1.9-13l-12.6,0.2c0,0-2.7,4.9-4.3,15.9
				c-1.6,11-8.3,50.2-8.3,50.2l-0.3,8.5c3.3,0.2,6.6,0.3,9.9,0.3c10.3,0,20.3-0.9,30.1-2.6C206.7,345,206.8,340.8,206.7,338.4z"/>
			<linearGradient id="SVGID_5_" gradientUnits="userSpaceOnUse" x1="188.0929" y1="278.5888" x2="186.343" y2="318.4863">
				<stop  offset="0" style="stop-color:#2D2D2D"/>
				<stop  offset="1" style="stop-color:#373737"/>
			</linearGradient>
			<path class="st6" d="M177,281.6l-4.5,30c0.9-3.5,16.9-21.2,16.9-21.2l11.4,20.9l-7.7-30.6C189.4,283.8,177,281.6,177,281.6z"/>
			<linearGradient id="SVGID_6_" gradientUnits="userSpaceOnUse" x1="182.91" y1="258.2351" x2="197.8671" y2="258.2351">
				<stop  offset="0" style="stop-color:#2D2D2D"/>
				<stop  offset="1" style="stop-color:#373737"/>
			</linearGradient>
			<path class="st7" d="M196.8,263.7l1.1-6.8c0,0-6.4-2.6-15-4.1C182.9,252.8,193,257.3,196.8,263.7z"/>
			<linearGradient id="SVGID_7_" gradientUnits="userSpaceOnUse" x1="184.8961" y1="288.8799" x2="184.4054" y2="269.7384">
				<stop  offset="0" style="stop-color:#2D2D2D"/>
				<stop  offset="1" style="stop-color:#373737"/>
			</linearGradient>
			<path class="st8" d="M183.2,281.6c-5.7-1-9.8-8-9.8-8s0.6,3.8,2.6,7c2,3.2,6.5,3.2,8,3.4c1.6,0.1,5.9,0.1,8.6-2.7
				c2.2-2.2,2.8-9.4,2.8-9.4C193.2,275.9,188.9,282.6,183.2,281.6z"/>
		</g>
		<linearGradient id="SVGID_8_" gradientUnits="userSpaceOnUse" x1="221.072" y1="219.1747" x2="112.7575" y2="211.3694">
			<stop  offset="0" style="stop-color:#F7D9AB"/>
			<stop  offset="0.1454" style="stop-color:#F4D3A4"/>
			<stop  offset="0.483" style="stop-color:#F1CB9C"/>
			<stop  offset="1" style="stop-color:#F0C999"/>
		</linearGradient>
		<path class="st9" d="M140.8,188.2c0,0,0,20.2,0.3,34.2c13,14.2,31.6,28.6,40.8,27.8c11.2-1,28.6-16.5,38.3-26.6
			c0,0-2-35.4-2.4-38.6C217.8,185,189.8,205.2,140.8,188.2z"/>
		<linearGradient id="SVGID_9_" gradientUnits="userSpaceOnUse" x1="198.991" y1="303.5265" x2="182.3257" y2="224.6277">
			<stop  offset="0" style="stop-color:#F7D9AB"/>
			<stop  offset="0.5245" style="stop-color:#F2CD9E"/>
			<stop  offset="1" style="stop-color:#F0C999"/>
		</linearGradient>
		<path class="st10" d="M206.7,234c-8.7,6.1-20.2,11.8-23.5,12.3c-3.3,0.5-24.6-9.5-28.9-12.8c-4.4-3.3-11-14.8-13.3-19.7
			c0,0-0.2,6.4,1.2,9.5c1.1,2.5,4.4,12.5,14.6,18.4c10.2,5.9,21.6,10.8,25.2,10.9c3.5,0.1,19.9-5,22.7-7c2.8-2,14.3-12.5,14.6-16.6
			c0.3-4.1,1-10.3,0.2-18.4C219.4,210.5,215.3,227.9,206.7,234z"/>
		<linearGradient id="SVGID_10_" gradientUnits="userSpaceOnUse" x1="219.2214" y1="241.59" x2="221.8001" y2="287.0847">
			<stop  offset="0" style="stop-color:#F1F0F5"/>
			<stop  offset="0.6433" style="stop-color:#F9F8FA"/>
			<stop  offset="1" style="stop-color:#FFFFFF"/>
		</linearGradient>
		<path class="st11" d="M220,275c-3.7-0.6-11.3-4.5-11.3-4.5l13.4,15.1l9.9-30.8C232.1,254.8,223.7,275.6,220,275z"/>
		<linearGradient id="SVGID_11_" gradientUnits="userSpaceOnUse" x1="147.8086" y1="245.6375" x2="150.3873" y2="291.1324">
			<stop  offset="0" style="stop-color:#F1F0F5"/>
			<stop  offset="0.6433" style="stop-color:#F9F8FA"/>
			<stop  offset="1" style="stop-color:#FFFFFF"/>
		</linearGradient>
		<path class="st12" d="M134.7,258.2l15,27.4l13.3-17.8C162.9,267.8,148.2,283.1,134.7,258.2z"/>
		<linearGradient id="SVGID_12_" gradientUnits="userSpaceOnUse" x1="208.0472" y1="223.0314" x2="207.3105" y2="326.3615">
			<stop  offset="0" style="stop-color:#F1F0F5"/>
			<stop  offset="0.6433" style="stop-color:#F9F8FA"/>
			<stop  offset="1" style="stop-color:#FFFFFF"/>
		</linearGradient>
		<path class="st13" d="M219.5,211.3c0,0,0.8,4.4-2,14.8c-3.5,13.1-35.7,26.5-35.7,26.5c7.3,1.2,12.5,4.3,15.3,6
			c2.8,1.6,25,27.1,25,27.1s11.7-31.7,11.7-40.6c0-8.9,1-13.8-6.3-23.4C224.1,217,219.5,211.3,219.5,211.3z"/>
		<linearGradient id="SVGID_13_" gradientUnits="userSpaceOnUse" x1="154.309" y1="225.8642" x2="153.5735" y2="329.0136">
			<stop  offset="0" style="stop-color:#F1F0F5"/>
			<stop  offset="0.6433" style="stop-color:#F9F8FA"/>
			<stop  offset="1" style="stop-color:#FFFFFF"/>
		</linearGradient>
		<path class="st14" d="M143.4,225.6c-2.7-9.1-2.5-11.8-2.5-11.8s-8.2,9-12,14.2c-7.6,10.3,4.5,28.1,4.5,28.1l16.2,29.5
			c0,0,16.9-23,20.7-27.3c3.8-4.2,11.5-5.8,11.5-5.8S146.5,235.8,143.4,225.6z"/>
		<linearGradient id="SVGID_14_" gradientUnits="userSpaceOnUse" x1="190.3749" y1="231.9453" x2="231.2328" y2="231.9453">
			<stop  offset="0" style="stop-color:#FFFFFF"/>
			<stop  offset="0.3567" style="stop-color:#F9F8FA"/>
			<stop  offset="1" style="stop-color:#F1F0F5"/>
		</linearGradient>
		<path class="st15" d="M219.5,211.3c0,0,0.2,4.6-0.7,8.6c-2.7,11.3-8.8,15.9-13.6,19.3c-9.6,6.8-23.3,13.3-23.3,13.3
			c19.8-2.9,33.1-13.1,38.5-24.5C226.1,216.3,219.5,211.3,219.5,211.3z"/>
		<linearGradient id="SVGID_15_" gradientUnits="userSpaceOnUse" x1="131.2301" y1="250.3566" x2="209.6935" y2="205.7276">
			<stop  offset="0" style="stop-color:#FFFFFF"/>
			<stop  offset="0.3567" style="stop-color:#F9F8FA"/>
			<stop  offset="1" style="stop-color:#F1F0F5"/>
		</linearGradient>
		<path class="st16" d="M145.6,228.3c-3.6-5.8-4.7-14.5-4.7-14.5s-2.9,3.2,0.7,12.7c2.1,5.6,6.6,9.5,10.5,12.3
			c18.2,13.2,29.8,13.8,29.8,13.8C167.9,245.6,150.3,235.7,145.6,228.3z"/>
		<linearGradient id="SVGID_16_" gradientUnits="userSpaceOnUse" x1="176.9948" y1="245.8856" x2="184.9205" y2="553.5385">
			<stop  offset="0" style="stop-color:#15B287"/>
			<stop  offset="5.747032e-02" style="stop-color:#14B085"/>
			<stop  offset="1" style="stop-color:#00946A"/>
		</linearGradient>
		<path class="st17" d="M301.6,301c1.1-18.6,1.7-33,1.7-33c-9.2-6.5-71.6-32.2-71.6-32.2s-2.8,72.2-49,91.1c0.1,0.5,0.1,1,0.2,1.5
			c-37.9-25.8-54-90.6-54-90.6c-76.1,31.6-77,34.3-77,34.3c0.7,1.4,3.1,16.6,5.8,35.1c31.4,28.5,73,45.9,118.7,45.9
			C225.4,353,269.7,333.2,301.6,301z"/>
		<linearGradient id="SVGID_17_" gradientUnits="userSpaceOnUse" x1="287.4345" y1="314.8281" x2="252.8505" y2="203.511">
			<stop  offset="0" style="stop-color:#2BBD96"/>
			<stop  offset="1" style="stop-color:#15B287"/>
		</linearGradient>
		<path class="st18" d="M232.5,235.9c23.1,24.9,53.5,29.6,70.7,32.2C282,253.2,232.5,235.9,232.5,235.9z"/>
		<linearGradient id="SVGID_18_" gradientUnits="userSpaceOnUse" x1="51.9517" y1="254.0226" x2="128.2229" y2="254.0226">
			<stop  offset="0" style="stop-color:#2BBD96"/>
			<stop  offset="1" style="stop-color:#15B287"/>
		</linearGradient>
		<path class="st19" d="M128.2,235.9c0,0-60,24.4-76.3,36.2C86.6,273.8,128.2,235.9,128.2,235.9z"/>
		<linearGradient id="SVGID_19_" gradientUnits="userSpaceOnUse" x1="179.9682" y1="229.5758" x2="185.1919" y2="348.9982">
			<stop  offset="0" style="stop-color:#2BBD96"/>
			<stop  offset="1" style="stop-color:#15B287"/>
		</linearGradient>
		<path class="st20" d="M216.5,305.6c-8.3,10.9-23.5,21.5-35.5,21.5c-14.3-0.9-16.4-6.9-27.8-17.7c-21.4-0.7-34.3,0.4-54.3,11.8
			c-4.2,2.4-6.4,5.9-7.1,10.2c25.1,13.8,54,21.6,84.7,21.6c37.1,0,71.6-11.5,100-31.1c-0.6-1.2-1.4-2.3-2.3-3.1
			C262.6,307.5,243.1,304.5,216.5,305.6z"/>
		<linearGradient id="SVGID_20_" gradientUnits="userSpaceOnUse" x1="298.4999" y1="266.8433" x2="306.0499" y2="338.0757">
			<stop  offset="0" style="stop-color:#15B287"/>
			<stop  offset="0.1673" style="stop-color:#10AA80"/>
			<stop  offset="0.6404" style="stop-color:#049A70"/>
			<stop  offset="1" style="stop-color:#00946A"/>
		</linearGradient>
		<path class="st21" d="M316.2,284.5c-3.7-6.8-8-8.8-13-12.9c-9.6,13-14,33.1-15.5,42.1C298.2,305.1,307.8,295.3,316.2,284.5z"/>
		<linearGradient id="SVGID_21_" gradientUnits="userSpaceOnUse" x1="50.5495" y1="268.8754" x2="58.8352" y2="347.0493">
			<stop  offset="0" style="stop-color:#15B287"/>
			<stop  offset="0.1673" style="stop-color:#10AA80"/>
			<stop  offset="0.6404" style="stop-color:#049A70"/>
			<stop  offset="1" style="stop-color:#00946A"/>
		</linearGradient>
		<path class="st22" d="M52.3,272c-5,4.9-9.4,10-13,15.6c8.7,10.7,18.6,20.4,29.5,28.8c-0.5-2.6-1-4.8-1.4-6.6
			C63.6,294.3,57.2,279.2,52.3,272z"/>
		<linearGradient id="SVGID_22_" gradientUnits="userSpaceOnUse" x1="307.3529" y1="261.9587" x2="310.2014" y2="519.0406">
			<stop  offset="0" style="stop-color:#15B287"/>
			<stop  offset="5.747032e-02" style="stop-color:#14B085"/>
			<stop  offset="1" style="stop-color:#00946A"/>
		</linearGradient>
		<path class="st23" d="M317,283.4c-3.7-5.9-8.1-10.9-13.8-15.3c-5.1,10.1-5.9,22.4-4.3,35.5C305.5,297.3,311.6,290.6,317,283.4z"/>
		<linearGradient id="SVGID_23_" gradientUnits="userSpaceOnUse" x1="50.0141" y1="264.3224" x2="52.8959" y2="524.4224">
			<stop  offset="0" style="stop-color:#15B287"/>
			<stop  offset="5.747032e-02" style="stop-color:#14B085"/>
			<stop  offset="1" style="stop-color:#00946A"/>
		</linearGradient>
		<path class="st24" d="M52,271.8c-3.1,2.1-8.8,6.8-13.7,14.5c7.2,9,15.3,17.4,24.1,24.8c0-3-0.2-5.8-0.4-8.2
			C60.2,287,56,276.9,52,271.8z"/>
		<linearGradient id="SVGID_24_" gradientUnits="userSpaceOnUse" x1="180.3758" y1="207.4937" x2="178.1721" y2="358.0794">
			<stop  offset="0" style="stop-color:#15B287"/>
			<stop  offset="0.1673" style="stop-color:#10AA80"/>
			<stop  offset="0.6404" style="stop-color:#049A70"/>
			<stop  offset="1" style="stop-color:#00946A"/>
		</linearGradient>
		<path class="st25" d="M231.6,228c0.3,10.3-2,26.3-13.6,51.7c-9.8,21.5-34.1,31.6-34.1,31.6s-18.8-6.4-36.6-33.4
			C128.7,249.7,129,228,129,228c-3.3,3.5-8,8.9-10,11.7c-3.2,4.6-4,32.9,33.2,73.6c8.4,9.2,31.2,20.7,31.2,20.7s31.4-14.1,44.5-36.2
			c17.8-30,14.2-57.5,13.2-58.8C237.6,234.6,231.6,228,231.6,228z"/>
		<g>
			<g>
				<path class="st26" d="M108.6,129.7c-7.2,1.3-5.6,6.2-2.5,14.8c3,22.7,8.9,27.3,11.4,25.9C122,167.8,117.3,128.1,108.6,129.7z"/>
				<linearGradient id="SVGID_25_" gradientUnits="userSpaceOnUse" x1="105.8393" y1="133.5212" x2="118.6513" y2="164.6025">
					<stop  offset="0" style="stop-color:#DBA779"/>
					<stop  offset="0.4797" style="stop-color:#E4B586"/>
					<stop  offset="1" style="stop-color:#F0C999"/>
				</linearGradient>
				<path class="st27" d="M112.4,149.8c3.2-18.8-8.4-20.7-6.2-7.6c0,0,1.8-6,3.2-4.1c1.7,2.3-2,3.4-0.5,13.3
					c0.8,5.1,5.4,10.7,5.4,10.7S111,157.8,112.4,149.8z"/>
			</g>
			<g>
				<path class="st26" d="M243.7,129.5c-8.8-1.2-11.3,38.7-6.6,41c2.6,1.3,8.1-3.5,9.9-26.4C249.7,135.4,251,130.5,243.7,129.5z"/>
				<linearGradient id="SVGID_26_" gradientUnits="userSpaceOnUse" x1="237.3766" y1="135.1195" x2="248.5837" y2="162.3071">
					<stop  offset="0" style="stop-color:#DBA779"/>
					<stop  offset="0.4797" style="stop-color:#E4B586"/>
					<stop  offset="1" style="stop-color:#F0C999"/>
				</linearGradient>
				<path class="st28" d="M241.1,149.8c1.8,7.9-1.3,12.3-1.3,12.3s4.3-5.8,4.8-11c1-9.9-2.8-10.8-1.2-13.2c1.3-2,3.4,4,3.4,4
					C248.3,128.7,236.8,131.1,241.1,149.8z"/>
			</g>
			<path class="st29" d="M216.7,69.2c-9.5-11.1-22-21.1-47.6-20.5c0,0-33.3,1.2-41.6,19.4c-8.9,19.5-12.3,43.4-11.7,68.6
				c0.8,30.5,2.4,45,5,51.4c1.2,3,3.3,7.2,9.2,11.9c9.5,7.5,19.5,22.4,27.1,31c2.6,3,38.6,1.5,43.1-1c7.9-4.3,16.8-18.6,27.2-29
				c4.6-4.6,7.6-12.1,7.6-15.8c0-4.3,2.6-26.9,2.4-30.1c-0.8-17.2-0.1-12.7,0.5-27.6C240.2,73.9,221.3,74.6,216.7,69.2z"/>
			<linearGradient id="SVGID_27_" gradientUnits="userSpaceOnUse" x1="208.7549" y1="150.2906" x2="206.8275" y2="127.6456">
				<stop  offset="0" style="stop-color:#F7D9AB"/>
				<stop  offset="0.517" style="stop-color:#F6D7A8"/>
				<stop  offset="0.8546" style="stop-color:#F3CFA0"/>
				<stop  offset="1" style="stop-color:#F0C999"/>
			</linearGradient>
			<path class="st30" d="M188.3,120.6c-0.8,5.5-4,17.9-1.1,20.2c21.9,18,41.4,0.9,41.4,0.9C233.6,96,188.3,120.6,188.3,120.6z"/>
			<linearGradient id="SVGID_28_" gradientUnits="userSpaceOnUse" x1="187.863" y1="118.5996" x2="226.7011" y2="118.5996">
				<stop  offset="0" style="stop-color:#767676"/>
				<stop  offset="0.3376" style="stop-color:#727272"/>
				<stop  offset="0.6946" style="stop-color:#656565"/>
				<stop  offset="1" style="stop-color:#545454"/>
			</linearGradient>
			<path class="st31" d="M219.1,115.7c-12.5-2.1-22.1-2.1-29.8,1.3c-2.9,1.3-0.9,6.1,2.6,6c6.6-0.2,15.8-2.1,22-2.2
				c9.1-0.2,12.8,1.6,12.8,1.6S225,116.6,219.1,115.7z"/>
			<linearGradient id="SVGID_29_" gradientUnits="userSpaceOnUse" x1="147.4594" y1="150.5162" x2="145.6096" y2="128.7847">
				<stop  offset="0" style="stop-color:#F7D9AB"/>
				<stop  offset="0.517" style="stop-color:#F6D7A8"/>
				<stop  offset="0.8546" style="stop-color:#F3CFA0"/>
				<stop  offset="1" style="stop-color:#F0C999"/>
			</linearGradient>
			<path class="st32" d="M125,142.2c0,0,19.6,17.1,41.4-1c2.9-2.4,0.5-15-0.3-20.4C166.1,120.8,123.2,101.1,125,142.2z"/>
			<linearGradient id="SVGID_30_" gradientUnits="userSpaceOnUse" x1="177.0364" y1="196.5714" x2="182.1139" y2="230.5513">
				<stop  offset="0" style="stop-color:#FFDEB3"/>
				<stop  offset="1" style="stop-color:#F7D9AB"/>
			</linearGradient>
			<path class="st33" d="M180.8,210.9c-5.5,0-19.3,3.8-18.9,5.8c1.2,6.1,14,7.1,19.5,7.1c5.5,0,16.7-1.4,16.9-6.6
				C198.4,215.1,186.3,210.9,180.8,210.9z"/>
			<linearGradient id="SVGID_31_" gradientUnits="userSpaceOnUse" x1="215.1241" y1="170.0182" x2="146.6792" y2="76.5163">
				<stop  offset="0" style="stop-color:#F7D9AB"/>
				<stop  offset="0.4753" style="stop-color:#F5D5A6"/>
				<stop  offset="1" style="stop-color:#F0C999"/>
			</linearGradient>
			<path class="st34" d="M218.7,66.8c-1.4-0.4-2.9-0.7-4.6-1.1C202,63,182.8,54.1,165.4,54.1c-10.7,0-20.7,2.2-28.1,4.1
				c-3.5,0.9-6.3,2-8.4,3.5c-6.6,4.5-10.4,21.8-12.7,42c-0.7,6.6,1.2,43.8,0.9,48.6c1.7-5.4,4.2-13,8.7-18.2c3.2-26-2.1-45,8.9-52.9
				c7.6-5.4,28.1,3.7,42.8,4.3c29.5,1.2,35.7-7.2,38.8-3.7c12.3,14.2,5,31,21.2,64.4c0,0-0.9-40.9-2-52.4
				C234.2,78.8,230.2,70,218.7,66.8z"/>
			<linearGradient id="SVGID_32_" gradientUnits="userSpaceOnUse" x1="173.791" y1="40.2186" x2="176.4086" y2="121.368">
				<stop  offset="0" style="stop-color:#909090"/>
				<stop  offset="0.231" style="stop-color:#858585"/>
				<stop  offset="0.6262" style="stop-color:#787878"/>
				<stop  offset="1" style="stop-color:#747474"/>
			</linearGradient>
			<path class="st35" d="M220.9,53.3c0,0-19.7-17.6-52.2-15.4c-26.2,1.8-37.8,10.6-44.3,21.8c-1.8,3.1-24.8,11.2-15.7,44.3
				c0.4,7.9-1.9,11.7,0.5,25.6c0,0,2.6,0.7,4.4,5.9c1.3,3.8,2.3,12.5,2.9,16.2c1.2-11,3.6-13.6,4-19.5c0.5-7.1,0.9-11.1,2.2-26
				c1.4-16.5,2.3-26.8,7.7-33.9c0,0,12.7-11.2,36.9,0c25,4.9,41,1.3,49-1.9c0,0,11.5,1.4,14.3,33.9c1.1,12.3,1.2,19.3,2.7,27.9
				c1,5.9,3.4,13.7,4.2,19.5c0,0-0.1-21.4,5.9-22.3c0.9-6.8,0.7-9.6-1.3-29.1C248.5,85.5,239.9,58.7,220.9,53.3z"/>
			<linearGradient id="SVGID_33_" gradientUnits="userSpaceOnUse" x1="228.2086" y1="144.834" x2="197.1323" y2="164.1703">
				<stop  offset="0" style="stop-color:#FFDEB3"/>
				<stop  offset="0.2826" style="stop-color:#FBDCAF"/>
				<stop  offset="1" style="stop-color:#F7D9AB"/>
			</linearGradient>
			<path class="st36" d="M230,144.3c-1.9-1.1-3.3,0.5-7.3,1.8c-3.9,1.3-14.4,3.3-9.5,6c5.5,3,13.2-1.1,14.1-1.9
				C228.3,149.4,232.4,145.7,230,144.3z"/>
			<linearGradient id="SVGID_34_" gradientUnits="userSpaceOnUse" x1="155.0354" y1="160.3097" x2="124.6498" y2="146.498">
				<stop  offset="0" style="stop-color:#F7D9AB"/>
				<stop  offset="0.7174" style="stop-color:#FBDCAF"/>
				<stop  offset="1" style="stop-color:#FFDEB3"/>
			</linearGradient>
			<path class="st37" d="M129.9,146.6c-4-1.1-5.5-2.6-7.3-1.4c-2.3,1.4,2,5,2.9,5.7c1,0.7,8.8,4.4,14.2,1.1
				C144.5,149.1,133.8,147.6,129.9,146.6z"/>
			<linearGradient id="SVGID_35_" gradientUnits="userSpaceOnUse" x1="119.1438" y1="92.287" x2="216.6717" y2="92.287">
				<stop  offset="0" style="stop-color:#767676"/>
				<stop  offset="0.3376" style="stop-color:#727272"/>
				<stop  offset="0.6946" style="stop-color:#656565"/>
				<stop  offset="1" style="stop-color:#545454"/>
			</linearGradient>
			<path class="st38" d="M174.1,70.5c-18.1-4.6-27.5-10.3-37.9-7c-7.1,2.2-13.6,7.7-15.7,17.8c-3.5,17,0.8,40.7,0.8,40.7
				s1.8-20,2.9-31.7c1.2-12.3,5.5-14.8,12-16.5c8-2.1,21.3,0.8,31.9,3c39.3,8,48.6-7.6,48.6-7.6C200.9,74.4,183.8,73,174.1,70.5z"/>
			<g>
				<g>
					<linearGradient id="SVGID_36_" gradientUnits="userSpaceOnUse" x1="205.2045" y1="192.9304" x2="205.1617" y2="190.3311">
						<stop  offset="0" style="stop-color:#F7D9AB"/>
						<stop  offset="0.5273" style="stop-color:#F6D7A8"/>
						<stop  offset="0.8717" style="stop-color:#F3CFA0"/>
						<stop  offset="1" style="stop-color:#F1CA9A"/>
					</linearGradient>
					<path class="st39" d="M205.8,190.4c-0.4,0.4-0.8,0.7-1.2,1C204.6,191.4,205.1,191,205.8,190.4z"/>
					<linearGradient id="SVGID_37_" gradientUnits="userSpaceOnUse" x1="209.6808" y1="221.4052" x2="208.8124" y2="168.6503">
						<stop  offset="0" style="stop-color:#F7D9AB"/>
						<stop  offset="0.5273" style="stop-color:#F6D7A8"/>
						<stop  offset="0.8717" style="stop-color:#F3CFA0"/>
						<stop  offset="1" style="stop-color:#F1CA9A"/>
					</linearGradient>
					<path class="st40" d="M200.8,169.7c13,10.5,7.7,18,5,20.7c5-4.2,11.7-8.8,11.3-10.7C215.4,173,200.8,169.7,200.8,169.7z"/>
					<path class="st41" d="M204.4,182.5c0,0,6.7-1.5,7.2-2c0.6-0.5,1.1-2.2,1.1-2.2l-4.2,1.3L204.4,182.5z"/>
					<linearGradient id="SVGID_38_" gradientUnits="userSpaceOnUse" x1="148.4782" y1="223.7648" x2="147.5897" y2="169.7905">
						<stop  offset="0" style="stop-color:#F7D9AB"/>
						<stop  offset="0.5273" style="stop-color:#F6D7A8"/>
						<stop  offset="0.8717" style="stop-color:#F3CFA0"/>
						<stop  offset="1" style="stop-color:#F1CA9A"/>
					</linearGradient>
					<path class="st42" d="M140.8,180.7c0.3,2,6.1,7.1,9.9,11c0,0-10.1-10.9,4-20.7C154.6,171,139.8,173.8,140.8,180.7z"/>
					<path class="st41" d="M144.2,178.7c0,0,0.5,1.7,1.1,2.2c0.6,0.5,7.2,2,7.2,2l-4.1-2.9L144.2,178.7z"/>
					<linearGradient id="SVGID_39_" gradientUnits="userSpaceOnUse" x1="180.7433" y1="234.7128" x2="179.4731" y2="198.0366">
						<stop  offset="0" style="stop-color:#F7D9AB"/>
						<stop  offset="0.5273" style="stop-color:#F6D7A8"/>
						<stop  offset="0.8717" style="stop-color:#F3CFA0"/>
						<stop  offset="1" style="stop-color:#F1CA9A"/>
					</linearGradient>
					<path class="st43" d="M165,207.7c17.6-2,29.5,0.2,29.5,0.2C181.2,199.6,165,207.7,165,207.7z"/>
					<path class="st44" d="M145.8,179.5c0.4,0.4,0.6,0.9,1.1,1.1c8.5,3.7,8.6,7.3,12.2,9.3c12.9,6.9,27.9,5.2,38-0.3
						c5.8-3.2,6.6-6.9,13.5-9.6c0.9-0.4,1.1-1.1,1.1-1.1C174.6,187.9,145.8,179.5,145.8,179.5z"/>
					<path class="st45" d="M179.1,197.2c-5,0-10-1-10,0c0,1,4.4,3.2,9.4,3.2c5,0,10-2.2,10-3.2C188.5,196.2,184.1,197.2,179.1,197.2
						z"/>
					<linearGradient id="SVGID_40_" gradientUnits="userSpaceOnUse" x1="156.6063" y1="190.4467" x2="202.5617" y2="191.231">
						<stop  offset="0" style="stop-color:#E8D9D7"/>
						<stop  offset="0.1366" style="stop-color:#F0E6E4"/>
						<stop  offset="0.3932" style="stop-color:#FBF8F8"/>
						<stop  offset="0.5685" style="stop-color:#FFFFFF"/>
						<stop  offset="1" style="stop-color:#E8D3D1"/>
					</linearGradient>
					<path class="st46" d="M193.5,187.3c-3.4,0.7-9.8,2-15.7,2c-6.5,0-13.1-1.2-16.6-1.8c-1.6-0.3-2.2,2.5-2.2,2.5
						c4.7,3.4,10.4,4.7,19.5,4.8c12.1,0.1,18.8-5.2,18.8-5.2S195.5,186.9,193.5,187.3z"/>
					<linearGradient id="SVGID_41_" gradientUnits="userSpaceOnUse" x1="180.7562" y1="233.9449" x2="179.5229" y2="198.3328">
						<stop  offset="0" style="stop-color:#F7D9AB"/>
						<stop  offset="0.5273" style="stop-color:#F6D7A8"/>
						<stop  offset="0.8717" style="stop-color:#F3CFA0"/>
						<stop  offset="1" style="stop-color:#F1CA9A"/>
					</linearGradient>
					<path class="st47" d="M160.6,198.5c19.3,15.4,37.8-1.1,37.8-1.1C178.9,207.8,160.6,198.5,160.6,198.5z"/>
					<linearGradient id="SVGID_42_" gradientUnits="userSpaceOnUse" x1="177.9211" y1="173.0544" x2="178.6579" y2="190.2458">
						<stop  offset="0" style="stop-color:#E8D9D7"/>
						<stop  offset="0.3971" style="stop-color:#EFE5E4"/>
						<stop  offset="1" style="stop-color:#FFFFFF"/>
					</linearGradient>
					<path class="st48" d="M154.2,181.3c0,0,0.1,3.2,3.4,4.6c1.9,0.8,6.1,4,22.4,3.5c16.3-0.5,19.6-4.4,20.3-5.1
						c1.4-1.3,2-3.5,2-3.5S177.7,185.6,154.2,181.3z"/>
					<path class="st49" d="M154.2,181c0,0,0.1,1.4,0.6,2.3c0.4,0.7,13.5,2.6,23.4,2.7c9.9,0.1,22.7-2.5,23.2-3
						c0.7-0.9,1.1-2.5,1.1-2.5S191.3,184.2,154.2,181z"/>
					<linearGradient id="SVGID_43_" gradientUnits="userSpaceOnUse" x1="179.7783" y1="240.7639" x2="178.5637" y2="166.9834">
						<stop  offset="0" style="stop-color:#F7D9AB"/>
						<stop  offset="0.5273" style="stop-color:#F6D7A8"/>
						<stop  offset="0.8717" style="stop-color:#F3CFA0"/>
						<stop  offset="1" style="stop-color:#F1CA9A"/>
					</linearGradient>
					<path class="st50" d="M143.8,178.5c0,0,1.5,0.8,2,1c0,0,28.7,8.4,65.9-0.7l2-1C193.5,181.2,143.8,178.5,143.8,178.5z"/>
				</g>
				<g>
					<linearGradient id="SVGID_44_" gradientUnits="userSpaceOnUse" x1="177.2998" y1="121.0038" x2="178.5809" y2="174.6022">
						<stop  offset="0" style="stop-color:#FFDEB3"/>
						<stop  offset="0.1957" style="stop-color:#FDDDB1"/>
						<stop  offset="1" style="stop-color:#F7D9AB"/>
					</linearGradient>
					<path class="st51" d="M183,148.1c0.6-11.8-3.5-13.5-6.6-13.4c-3,0.1-4.6,4.2-4,13.2c0.6,8.9-1.2,12.4-0.8,16.6
						c0.2,1.9,1.1,3.2,5.9,3.2c5.3,0,7.2-1.2,7.4-3C185.6,159.8,182.6,156.6,183,148.1z"/>
					<linearGradient id="SVGID_45_" gradientUnits="userSpaceOnUse" x1="178.3111" y1="182.3104" x2="178.1892" y2="168.7892">
						<stop  offset="0" style="stop-color:#F7D9AB"/>
						<stop  offset="0.517" style="stop-color:#F6D7A8"/>
						<stop  offset="0.8546" style="stop-color:#F3CFA0"/>
						<stop  offset="1" style="stop-color:#F0C999"/>
					</linearGradient>
					<path class="st52" d="M163.3,169.1c0,0,13.3,9.7,16.2,9.1c2.9-0.6,13.6-9.1,13.6-9.1s-12.1,1.5-14.9,1.5
						C175.5,170.6,163.3,169.1,163.3,169.1z"/>
					<path class="st41" d="M183.6,171c7.2-1.8,10-0.7,10-0.7C189.4,166.7,183.6,171,183.6,171z"/>
					<path class="st41" d="M163.2,169.8c0,0,3.7-0.6,9.4,1.3C172.6,171.1,167.1,166.9,163.2,169.8z"/>
					<linearGradient id="SVGID_46_" gradientUnits="userSpaceOnUse" x1="176.6384" y1="128.2811" x2="178.3648" y2="173.428">
						<stop  offset="0" style="stop-color:#F7D9AB"/>
						<stop  offset="0.5273" style="stop-color:#F6D7A8"/>
						<stop  offset="0.8717" style="stop-color:#F3CFA0"/>
						<stop  offset="1" style="stop-color:#F1CA9A"/>
					</linearGradient>
					<path class="st53" d="M189.1,159.1c0,2.9,0.6,4.9-0.3,6.6c-2,3.7-7.2,5.2-10.6,4.9c-2.6,0.3-8.8-1-11.3-4.9
						c-1-1.6-0.4-3-0.9-6.2c0,0-7.1,8.6-2.8,10.2c0,0,1.2-0.9,4.7-0.6c3.4,0.3,2.7,4.1,10.6,4.2c6.9,0.1,4.7-3.2,9.1-3.9
						c4.4-0.6,4.9,0.5,5.9,0.9C195.7,170.4,194.1,163.2,189.1,159.1z"/>
					<linearGradient id="SVGID_47_" gradientUnits="userSpaceOnUse" x1="177.0121" y1="168.8858" x2="178.8252" y2="155.5161">
						<stop  offset="0" style="stop-color:#FFDEB3"/>
						<stop  offset="0.2826" style="stop-color:#FBDCAF"/>
						<stop  offset="1" style="stop-color:#F7D9AB"/>
					</linearGradient>
					<path class="st54" d="M170.9,164.1c-0.3,1.9,2.4,4,7.2,4c5.3,0,6.5-2.1,6.1-3.8C181.6,153.9,172,157,170.9,164.1z"/>
				</g>
			</g>
			<linearGradient id="SVGID_48_" gradientUnits="userSpaceOnUse" x1="214.106" y1="93.1938" x2="232.9765" y2="93.1938">
				<stop  offset="0" style="stop-color:#545454"/>
				<stop  offset="0.3054" style="stop-color:#656565"/>
				<stop  offset="0.6624" style="stop-color:#727272"/>
				<stop  offset="1" style="stop-color:#767676"/>
			</linearGradient>
			<path class="st55" d="M216.7,69.2c0,0-1.2,1.3-2.6,2.7c12.4,5.3,13.5,17,17.4,45.3c0,0,3.2-18,0.2-28.1
				C229.2,80.6,224.4,71.9,216.7,69.2z"/>
			<linearGradient id="SVGID_49_" gradientUnits="userSpaceOnUse" x1="177.1783" y1="33.199" x2="177.8" y2="71.1456">
				<stop  offset="0" style="stop-color:#939393"/>
				<stop  offset="0.8836" style="stop-color:#A6A6A6"/>
				<stop  offset="1" style="stop-color:#A9A9A9"/>
			</linearGradient>
			<path class="st56" d="M134.1,48.6c11.6-3,36.2,11.7,49.7,13.9c25.4,4.1,33.9,1.4,33.9,1.4c-3.9-6.1-11.4-16.7-34.5-20
				c6.6,0,30,7.1,37.7,9.3C182.3,23.2,137.8,43,134.1,48.6z"/>
			<g>
				<linearGradient id="SVGID_50_" gradientUnits="userSpaceOnUse" x1="190.9169" y1="131.2046" x2="225.7051" y2="140.9986">
					<stop  offset="0" style="stop-color:#DBA779"/>
					<stop  offset="0.4797" style="stop-color:#E4B586"/>
					<stop  offset="1" style="stop-color:#F0C999"/>
				</linearGradient>
				<path class="st57" d="M219.7,128.9c-1.6-1.2-7-2.6-11.3-2.4c-12.1,0.4-16.5,2.4-17.2,5.6c-0.2,1.1-1.8,7.2-1.2,8.4
					c1.9,3.5,14,4.3,21,3.8c7.3-0.5,14.2-4.7,14.2-6.4C225.3,136.2,222.9,131.3,219.7,128.9z"/>
				<linearGradient id="SVGID_51_" gradientUnits="userSpaceOnUse" x1="220.7012" y1="137.2776" x2="187.6105" y2="134.3782">
					<stop  offset="0" style="stop-color:#FFFFFF"/>
					<stop  offset="0.4667" style="stop-color:#FDFCFC"/>
					<stop  offset="0.7734" style="stop-color:#F6F4F4"/>
					<stop  offset="1" style="stop-color:#ECE7E7"/>
				</linearGradient>
				<path class="st58" d="M201.2,129.4c-7.2,0.5-9.7,10.7-9.7,10.7c-0.2,0.2,1.2,1,3.3,1.4c8.3,1.7,12.1,2.1,20.1,0.3
					c4.5-1,6.9-4.2,6.9-4.2C215.8,130.6,218.7,128.2,201.2,129.4z"/>
				<path class="st59" d="M213.2,130.2c-5.6,0.5-18.4,1.4-18.4,1.4s-2.4,6.1-3.4,8.5c0,0,5.1-2.8,12.1-3.8c0.8-0.1,11.5,0,16.9,2.7
					c0.8-0.7,0.9-0.9,1.3-1.3C221.8,137.6,218.8,129.7,213.2,130.2z"/>
				<linearGradient id="SVGID_52_" gradientUnits="userSpaceOnUse" x1="217.4138" y1="143.8449" x2="193.1865" y2="130.9445">
					<stop  offset="0" style="stop-color:#DDDDDA"/>
					<stop  offset="1" style="stop-color:#A4A59D"/>
				</linearGradient>
				<path class="st60" d="M206.3,130.8c-4.8-0.3-9.3,2.2-9.1,7.3c0.1,1.9,1.2,4.1,1.4,4.3c0.8,0.3,5.3,0.9,7.6,0.9
					c2.5,0.1,5.9-0.8,7-1.1c1.2-1.4,1.4-2.5,1.6-3.5C215.5,133.8,211.2,131.1,206.3,130.8z"/>
				<linearGradient id="SVGID_53_" gradientUnits="userSpaceOnUse" x1="213.0947" y1="140.051" x2="195.6112" y2="129.973">
					<stop  offset="0" style="stop-color:#C5C6C0"/>
					<stop  offset="1" style="stop-color:#94958D"/>
				</linearGradient>
				<path class="st61" d="M208.8,131.9c-6.1,0.1-12,0.2-11.6,5.9c0,0,7.9-3,17.7-0.5C214.9,137.3,214.8,131.8,208.8,131.9z"/>
				<radialGradient id="SVGID_54_" cx="211.3527" cy="140.9961" r="15.4261" gradientUnits="userSpaceOnUse">
					<stop  offset="0" style="stop-color:#2A3A3B"/>
					<stop  offset="1" style="stop-color:#1C2727"/>
				</radialGradient>
				<path class="st62" d="M206.7,132.6c-3-0.1-5.4,2.2-5.5,5.1c-0.1,2.9,2.3,5.3,5.2,5.4c3,0.1,5.4-2.2,5.5-5.1
					C212,135.1,209.7,132.7,206.7,132.6z"/>
				<path class="st63" d="M210,136.7c-1.2,0.1-2.1,1.3-2,2.5c0.1,1.2,1.2,2.1,2.5,2c1.2-0.1,2.1-1.3,2-2.5
					C212.4,137.4,211.3,136.6,210,136.7z"/>
				<path class="st63" d="M205.2,134.8c-1,0.1-1.7,1-1.6,2c0.1,1,1,1.7,2,1.6c1-0.1,1.7-1,1.5-2C207,135.4,206.1,134.7,205.2,134.8z
					"/>
				<path class="st64" d="M216.6,130c-5.6-1.9-16.3-2.5-21.2,1.1c-3.9,2.9-4,9-4,9s2.7-4.5,6.1-5.5c2.8-0.8,9.6-1.8,18.1-0.6
					c4.3,0.6,6.1,3.6,6.1,3.6S221.2,131.6,216.6,130z"/>
				<linearGradient id="SVGID_55_" gradientUnits="userSpaceOnUse" x1="131.1271" y1="130.6037" x2="165.6725" y2="140.3293">
					<stop  offset="0" style="stop-color:#F0C999"/>
					<stop  offset="0.5203" style="stop-color:#E4B586"/>
					<stop  offset="1" style="stop-color:#DBA779"/>
				</linearGradient>
				<path class="st65" d="M147.2,126.1c-3.2-0.2-10.2,0.6-12.3,2.6c-2.6,2.3-5.1,7.8-5.2,8.9c0,1.1,4.9,6,14.1,6.7
					c6.9,0.5,17.6-0.8,20.3-3.7c1.3-1.4-0.5-7-0.9-9C162.6,127.9,157,126.7,147.2,126.1z"/>
				<linearGradient id="SVGID_56_" gradientUnits="userSpaceOnUse" x1="162.69" y1="139.2108" x2="138.1363" y2="133.2842">
					<stop  offset="0" style="stop-color:#FFFFFF"/>
					<stop  offset="0.4667" style="stop-color:#FDFCFC"/>
					<stop  offset="0.7734" style="stop-color:#F6F4F4"/>
					<stop  offset="1" style="stop-color:#ECE7E7"/>
				</linearGradient>
				<path class="st66" d="M154,129.2c-17.3-1.5-15.3,1.2-21.3,8.1c0,0,3.5,3.5,6.7,4.3c10.8,2.8,17.9,0.5,20,0
					c2.1-0.5,2.9-1.1,3.3-1.4C162.6,140.2,161.2,129.8,154,129.2z"/>
				<path class="st59" d="M141.2,130.1c-5.6-0.6-8.5,7.2-8.5,7.2c0.3,0.5,1.1,1,2,1.7c2.8-1.7,7.7-3.3,12.2-3.3
					c10.4,0.1,15.8,4.5,15.8,4.5c-0.9-2.3-3.3-7.5-3.3-7.5S146.8,130.7,141.2,130.1z"/>
				<linearGradient id="SVGID_57_" gradientUnits="userSpaceOnUse" x1="157.5053" y1="136.7352" x2="133.8027" y2="137.6833">
					<stop  offset="0" style="stop-color:#DDDDDA"/>
					<stop  offset="1" style="stop-color:#A4A59D"/>
				</linearGradient>
				<path class="st67" d="M148.6,131.1c-4.7,0.2-8.9,2.6-8.3,7.4c0.1,1,0.3,2.3,1.4,3.7c0.9,0.3,4.3,1,6.8,1c2.3,0,6.8-0.5,7.6-0.8
					c0.2-0.2,1.2-2.4,1.3-4.2C157.7,133.2,153.3,130.8,148.6,131.1z"/>
				<linearGradient id="SVGID_58_" gradientUnits="userSpaceOnUse" x1="157.9106" y1="136.0838" x2="142.6351" y2="133.2782">
					<stop  offset="0" style="stop-color:#C5C6C0"/>
					<stop  offset="1" style="stop-color:#94958D"/>
				</linearGradient>
				<path class="st68" d="M146.9,130.7c-6,0.2-6.6,5.9-6.6,5.9c7.4-1.4,17.2,0.9,17.2,0.9C157.5,132.6,152.9,130.6,146.9,130.7z"/>
				<radialGradient id="SVGID_59_" cx="153.3205" cy="140.7349" r="15.0376" gradientUnits="userSpaceOnUse">
					<stop  offset="0" style="stop-color:#2A3A3B"/>
					<stop  offset="1" style="stop-color:#1C2727"/>
				</radialGradient>
				<path class="st69" d="M148.6,132.5c-2.9,0-5.2,2.4-5.2,5.2c0,2.8,2.4,5.1,5.3,5c2.9-0.1,5.2-2.4,5.2-5.2
					C153.9,134.7,151.5,132.4,148.6,132.5z"/>
				<path class="st63" d="M151.2,137.2c-1.1,0.6-1.6,1.9-1.1,2.9c0.5,1,1.9,1.4,3,0.9c1.1-0.6,1.6-1.9,1.1-2.9
					C153.6,137,152.3,136.6,151.2,137.2z"/>
				<path class="st63" d="M146.5,134.8c-0.9,0.4-1.3,1.5-0.9,2.3c0.4,0.8,1.5,1.1,2.4,0.7c0.9-0.4,1.3-1.5,0.9-2.3
					C148.4,134.7,147.4,134.4,146.5,134.8z"/>
				<path class="st64" d="M158.1,130.7c-4.8-3.6-15.2-2.6-20.5-0.6c-3.3,1.2-4.9,7.2-4.9,7.2s2.3-2.7,5.8-3.3
					c10.1-1.6,14.9-0.6,17.6,0.2c3.3,1,6.5,6,6.5,6S161.9,133.6,158.1,130.7z"/>
			</g>
			<linearGradient id="SVGID_60_" gradientUnits="userSpaceOnUse" x1="128.4438" y1="118.8361" x2="166.4296" y2="118.8361">
				<stop  offset="0" style="stop-color:#545454"/>
				<stop  offset="0.3054" style="stop-color:#656565"/>
				<stop  offset="0.6624" style="stop-color:#727272"/>
				<stop  offset="1" style="stop-color:#767676"/>
			</linearGradient>
			<path class="st70" d="M165.1,117.5c-7.5-3.3-17.2-3.7-29.4-1.6c-5.7,1-7.3,7.1-7.3,7.1s3.6-1.7,12.5-1.8c7.6-0.1,15,1.6,21.4,1.8
				C165.7,123,168,118.8,165.1,117.5z"/>
			<linearGradient id="SVGID_61_" gradientUnits="userSpaceOnUse" x1="275.2352" y1="222.4795" x2="145.054" y2="228.7701">
				<stop  offset="0" style="stop-color:#DBA779"/>
				<stop  offset="0.4797" style="stop-color:#E4B586"/>
				<stop  offset="1" style="stop-color:#F0C999"/>
			</linearGradient>
			<path class="st71" d="M161.8,230.2c-4.6-1-11.6-7.9-11.6-7.9s7.4,9.9,9,10.6c1.6,0.7,37.5,1,41.2-1.6c3.6-2.6,7.1-7.1,7.1-7.1
				s-7.1,5.2-10,5.8C194.4,230.5,166.4,231.2,161.8,230.2z"/>
			<linearGradient id="SVGID_62_" gradientUnits="userSpaceOnUse" x1="147.8263" y1="229.6842" x2="114.836" y2="166.5402">
				<stop  offset="0" style="stop-color:#F7D9AB"/>
				<stop  offset="1" style="stop-color:#F0C999"/>
			</linearGradient>
			<path class="st72" d="M116.5,155.5c0.4,11.7,1.2,30.3,3.7,35.5c1,2.2,12.7,14.2,15,16.1c2.3,2,14.1,14,14.1,14
				c-1.8-2.6-16.9-23.6-19.6-27.6C119.3,178,116.5,155.5,116.5,155.5z"/>
			<linearGradient id="SVGID_63_" gradientUnits="userSpaceOnUse" x1="209.2221" y1="229.7262" x2="239.7186" y2="166.9994">
				<stop  offset="0" style="stop-color:#FFDEB3"/>
				<stop  offset="1" style="stop-color:#F7D9AB"/>
			</linearGradient>
			<path class="st73" d="M209.1,222.2c1.3-2.3,25-26.6,26.3-31.2c1.3-4.6,2.1-34.9,2.1-34.9c-1.2,10.6-6.2,27.1-9.6,33.3
				C225.6,193.5,209.1,222.2,209.1,222.2z"/>
		</g>
		<linearGradient id="SVGID_64_" gradientUnits="userSpaceOnUse" x1="175.8685" y1="150.0762" x2="177.7721" y2="122.7902">
			<stop  offset="0" style="stop-color:#555557"/>
			<stop  offset="1" style="stop-color:#2B2A2D"/>
		</linearGradient>
		<path class="st74" d="M213.7,123c-10.2,0.2-20.4,1.5-25.8,2.6c-1.2,0.2-3,2.2-3.6,2.3c-5.5-0.8-7.8-0.6-13.6,0
			c-0.6-0.1-2.6-2.1-4-2.4c-5.5-1.1-15.5-2.4-25.5-2.5c-11.2-0.2-21.2,2.7-21.4,2.7c-0.4,0.1,0.4,8.7,0.9,9.1
			c0.3,0.3,1.4,1.1,2.2,1.7c2,5.5,3.7,11.1,6.4,11.7c9.1,2,31.8,1.7,34.3,0.3c2.5-1.5,5.8-12.9,7.7-15.9c0.8-1.2,11.5-1.5,12.3,0
			c1.6,3.2,5.7,13.9,8.2,15.4c2.5,1.5,24.8,2.3,33.8,0.3c2.7-0.6,4.5-6.2,6.4-11.7c0.8-0.6,1.9-1.4,2.2-1.7c0.4-0.4,1.3-9,0.9-9.1
			C234.9,125.7,224.9,122.8,213.7,123z M161.6,146.9c-2.5,1.5-26.9,1.2-30,0c-2.4-0.9-7-16.1-3.1-17.5c14.8-5.3,38.6-1.1,38.7,1.6
			C167.2,134.3,164,145.4,161.6,146.9z M223.4,147c-3.2,1.1-26.9,1.1-29.4-0.4c-2.5-1.5-6.3-12.3-6.2-15.5c0-2.7,23.9-6.9,38.7-1.6
			C230.5,130.9,225.9,146.1,223.4,147z"/>
	</g>
</g>
</svg>
