<?xml version="1.0" encoding="utf-8"?>
<!-- Generator: Adobe Illustrator 23.1.0, SVG Export Plug-In . SVG Version: 6.00 Build 0)  -->
<svg version="1.1" id="Layer_1" xmlns="http://www.w3.org/2000/svg" xmlns:xlink="http://www.w3.org/1999/xlink" x="0px" y="0px"
	 viewBox="0 0 485.6 491.7" style="enable-background:new 0 0 485.6 491.7;" xml:space="preserve">
<style type="text/css">
	.st0{fill:#F5F6F6;}
	.st1{fill:url(#SVGID_1_);}
	.st2{fill:#2D5481;}
	.st3{fill:url(#SVGID_2_);}
	.st4{fill:#F7D4AB;}
	.st5{fill:#F1F0F4;}
	.st6{fill:url(#SVGID_3_);}
	.st7{fill:url(#SVGID_4_);}
	.st8{fill:url(#SVGID_5_);}
	.st9{fill:url(#SVGID_6_);}
	.st10{fill:#2D4B81;}
	.st11{fill:url(#SVGID_7_);}
	.st12{fill:url(#SVGID_8_);}
	.st13{fill:url(#SVGID_9_);}
	.st14{fill:url(#SVGID_10_);}
	.st15{fill:url(#SVGID_11_);}
	.st16{fill:url(#SVGID_12_);}
	.st17{fill:url(#SVGID_13_);}
	.st18{fill:url(#SVGID_14_);}
	.st19{fill:url(#SVGID_15_);}
	.st20{fill:url(#SVGID_16_);}
	.st21{fill:url(#SVGID_17_);}
	.st22{fill:url(#SVGID_18_);}
	.st23{fill:url(#SVGID_19_);}
	.st24{fill:url(#SVGID_20_);}
	.st25{fill:url(#SVGID_21_);}
	.st26{fill:url(#SVGID_22_);}
	.st27{fill:#3E1C15;}
	.st28{fill:#F0C499;}
	.st29{fill:url(#SVGID_23_);}
	.st30{fill:url(#SVGID_24_);}
	.st31{fill:url(#SVGID_25_);}
	.st32{fill:url(#SVGID_26_);}
	.st33{fill:url(#SVGID_27_);}
	.st34{fill:url(#SVGID_28_);}
	.st35{fill:url(#SVGID_29_);}
	.st36{fill:url(#SVGID_30_);}
	.st37{fill:url(#SVGID_31_);}
	.st38{fill:url(#SVGID_32_);}
	.st39{fill:url(#SVGID_33_);}
	.st40{fill:url(#SVGID_34_);}
	.st41{fill:#DDDDDD;}
	.st42{fill:url(#SVGID_35_);}
	.st43{fill:url(#SVGID_36_);}
	.st44{fill:url(#SVGID_37_);}
	.st45{fill:#FFFFFF;}
	.st46{fill:url(#SVGID_38_);}
	.st47{fill:url(#SVGID_39_);}
	.st48{fill:url(#SVGID_40_);}
	.st49{fill:url(#SVGID_41_);}
	.st50{fill:url(#SVGID_42_);}
	.st51{fill:url(#SVGID_43_);}
	.st52{fill:url(#SVGID_44_);}
	.st53{fill:url(#SVGID_45_);}
	.st54{fill:url(#SVGID_46_);}
	.st55{fill:url(#SVGID_47_);}
	.st56{fill:url(#SVGID_48_);}
	.st57{fill:url(#SVGID_49_);}
	.st58{fill:url(#SVGID_50_);}
	.st59{fill:url(#SVGID_51_);}
	.st60{fill:url(#SVGID_52_);}
	.st61{fill:#711E22;}
	.st62{fill:#FDD8B3;}
	.st63{fill:url(#SVGID_53_);}
	.st64{fill:url(#SVGID_54_);}
	.st65{fill:url(#SVGID_55_);}
	.st66{fill:#F3ECEB;}
	.st67{fill:url(#SVGID_56_);}
	.st68{fill:url(#SVGID_57_);}
	.st69{fill:url(#SVGID_58_);}
	.st70{fill:url(#SVGID_59_);}
	.st71{fill:url(#SVGID_60_);}
	.st72{fill:url(#SVGID_61_);}
	.st73{fill:url(#SVGID_62_);}
	.st74{fill:url(#SVGID_63_);}
	.st75{fill:url(#SVGID_64_);}
	.st76{fill:url(#SVGID_65_);}
	.st77{fill:url(#SVGID_66_);}
	.st78{fill:url(#SVGID_67_);}
	.st79{fill:url(#SVGID_68_);}
	.st80{fill:url(#SVGID_69_);}
	.st81{fill:url(#SVGID_70_);}
	.st82{fill:url(#SVGID_71_);}
	.st83{fill:url(#SVGID_72_);}
	.st84{fill:url(#SVGID_73_);}
	.st85{fill:url(#SVGID_74_);}
	.st86{fill:url(#SVGID_75_);}
</style>
<g>
	<ellipse class="st0" cx="242.8" cy="245.9" rx="242.8" ry="245.9"/>
	<g>
		<linearGradient id="SVGID_1_" gradientUnits="userSpaceOnUse" x1="240.4718" y1="417.5583" x2="241.1416" y2="313.08">
			<stop  offset="0" style="stop-color:#2D4B81"/>
			<stop  offset="0.2911" style="stop-color:#2A477C"/>
			<stop  offset="0.6119" style="stop-color:#233C6F"/>
			<stop  offset="0.9457" style="stop-color:#162A59"/>
			<stop  offset="1" style="stop-color:#142655"/>
		</linearGradient>
		<polygon class="st1" points="172.6,307.4 159.5,324.8 155.5,339.8 326.5,339.7 311.3,307.9 		"/>
		<path class="st2" d="M48.1,392.8c4.3,5.8,8.8,11.4,13.6,16.8c-1.9-15.9-3.6-27.2-4.9-31.1C55.9,375.8,52.6,382,48.1,392.8z"/>
		<linearGradient id="SVGID_2_" gradientUnits="userSpaceOnUse" x1="199.45" y1="321.4881" x2="325.8905" y2="346.8188">
			<stop  offset="0" style="stop-color:#F0C499"/>
			<stop  offset="1" style="stop-color:#F7D4AB"/>
		</linearGradient>
		<path class="st3" d="M298.9,322.3c-0.9-4.2-4.2-47.6-4.2-47.6l-107.1-4.6l-0.2,51.7c-10,7.2-31.9,14.3-31.9,14.3
			c-1.5,16.8,36.9,59.1,83.9,56.9c60.7-2.9,89.2-56.9,89.2-56.9S299.8,326.5,298.9,322.3z"/>
		<path class="st4" d="M266.2,351.6c-0.6,0.6-38.4,5.1-52-0.3c-6.9-2.7-24.1-21.7-24.1-21.7c-7.4,7.1-21.6,9.9-21.6,9.9
			c41.3,42.4,86.6,35.9,104.1,29.6c17.5-6.3,45.9-30.2,45.9-30.2s-11.8-2.5-23-11.6C284.6,341.4,266.9,351,266.2,351.6z"/>
		<path class="st4" d="M50.5,396c5.6,7.3,11.5,14.3,17.9,20.9c-5.5-18.8-9.8-33.3-9.8-33.3C56.1,387,53.4,391.2,50.5,396z"/>
		<path class="st5" d="M242.8,491.7c68.9,0,131.1-29.1,175.3-75.8c0.3-25.4,0.2-46.3,0.2-46.3c-30.4-14.1-93.4-35.4-93.4-35.4
			s-17.7,51.7-82.5,55.4c-64.9,3.6-85.9-55.4-85.9-55.4c-76.9,26.4-97.1,40.7-97.1,40.7c0.7,1.5,3.4,17.8,6.8,39.7
			C110.5,462.1,173.2,491.7,242.8,491.7z"/>
		<path class="st4" d="M427,382.9c0,0-4.4,15-10.1,34.3c6.5-6.8,12.7-14,18.4-21.5C432.4,390.7,429.6,386.4,427,382.9z"/>
		<linearGradient id="SVGID_3_" gradientUnits="userSpaceOnUse" x1="239.3735" y1="496.4121" x2="244.0595" y2="389.0597">
			<stop  offset="0" style="stop-color:#F1F0F4"/>
			<stop  offset="0.6433" style="stop-color:#F9F8FA"/>
			<stop  offset="1" style="stop-color:#FFFFFF"/>
		</linearGradient>
		<path class="st6" d="M243.8,418.5c-62.5-1.8-85.6-9.2-125.7,14.7c-5.9,3.5-10.2,8.8-12.9,15.3c39.1,27.3,86.5,43.3,137.6,43.3
			c49.9,0,96.2-15.2,134.8-41.3c-1.4-8.5-4.5-15.5-8.8-19.9C346.4,407.8,306.3,420.3,243.8,418.5z"/>
		<linearGradient id="SVGID_4_" gradientUnits="userSpaceOnUse" x1="290.6046" y1="346.6118" x2="281.6689" y2="490.5246">
			<stop  offset="0" style="stop-color:#F0F0F4"/>
			<stop  offset="1" style="stop-color:#E0E0E4"/>
		</linearGradient>
		<path class="st7" d="M282.4,388.3l-14.4,37l-4.7,65.6c12.7-1.1,25.2-3.1,37.2-6.1l-0.8-111.4L282.4,388.3z"/>
		<linearGradient id="SVGID_5_" gradientUnits="userSpaceOnUse" x1="208.696" y1="349.6237" x2="200.1019" y2="488.0347">
			<stop  offset="0" style="stop-color:#F0F0F4"/>
			<stop  offset="1" style="stop-color:#E0E0E4"/>
		</linearGradient>
		<path class="st8" d="M202.6,388.3l-17.3-14.9l-0.6,111.3c12,3,24.4,5.1,37.1,6.2l-4.7-65.6L202.6,388.3z"/>
		<linearGradient id="SVGID_6_" gradientUnits="userSpaceOnUse" x1="236.6914" y1="313.7373" x2="249.0741" y2="419.7648">
			<stop  offset="0" style="stop-color:#F1F0F5"/>
			<stop  offset="1" style="stop-color:#E1E1E5"/>
		</linearGradient>
		<path class="st9" d="M238.2,379.2c-56.3-0.7-81.6-45-81.6-45l-21.2,7.3c0,0,30.8,59.2,99.1,59.2c78.8,0,110-60.5,110-60.5l-19.4-6
			C321.3,342.2,288.1,379.8,238.2,379.2z"/>
		<path class="st10" d="M428.1,404.8c1.6-15,2.3-24.9,1.7-25.6c-27.4-29.3-86.2-36.3-99.8-53.2c-13.6-16.9-20.3-19.5-20.3-19.5
			s1.6,1.9,5.4,14.3c12.7,41.2-24.1,83.7-32.4,96.7c-6.4,9.9-9.7,50.2-11.4,72.5C334,482.6,389.3,451.1,428.1,404.8z"/>
		<linearGradient id="SVGID_7_" gradientUnits="userSpaceOnUse" x1="321.8781" y1="339.2165" x2="332.3609" y2="505.8184">
			<stop  offset="0" style="stop-color:#2D4B81"/>
			<stop  offset="0.8747" style="stop-color:#172B5B"/>
			<stop  offset="1" style="stop-color:#142655"/>
		</linearGradient>
		<path class="st11" d="M316.5,392.1l-38.4,60l-5.5,37.6c1.7-1.5,12.2-22.2,29.1-48c5.5-8.4,43.9-41.1,43.9-41.1l38.7-3.7
			l-21.1-15.3L316.5,392.1z"/>
		<path class="st10" d="M169.9,320.9c3.8-12.4,5.8-15.1,5.8-15.1s-7.1,3.4-20.7,20.3c-13.6,16.9-72.4,23.8-99.8,53.2
			c-0.6,0.6,0.1,10.2,1.7,24.7c38.7,46.6,94.1,78.4,156.8,86c-1.6-22.3-5-62.6-11.4-72.4C194,404.6,157.2,362.1,169.9,320.9z"/>
		<path class="st10" d="M428.8,377.8c-1.3,4-3.1,15.6-5,32c4.9-5.5,9.5-11.2,13.9-17.2C433.1,381.4,429.7,375,428.8,377.8z"/>
		<linearGradient id="SVGID_8_" gradientUnits="userSpaceOnUse" x1="325.2606" y1="464.7929" x2="331.8592" y2="287.6427">
			<stop  offset="0" style="stop-color:#2D4B81"/>
			<stop  offset="0.9135" style="stop-color:#536C98"/>
			<stop  offset="1" style="stop-color:#576F9A"/>
		</linearGradient>
		<path class="st12" d="M296.8,301.8c0.2,1.9,0.4,4.3,0.5,6.1c3.9,1.8,14.4,6,17.1,11.4c18,36.9-36.3,95.2-37.7,100.8
			c-1.4,5.6-4.2,67.1-4.2,67.1c0-3.4,15.6-42.1,20.1-45.9c4.5-3.7,33.9-40.3,33.9-40.3l17.6-10.8l35.6,3c0,0-37.4-50.5-42.2-60.4
			C324.6,306.1,296.8,301.8,296.8,301.8z"/>
		<linearGradient id="SVGID_9_" gradientUnits="userSpaceOnUse" x1="299.4634" y1="426.7185" x2="300.2035" y2="311.2656">
			<stop  offset="0" style="stop-color:#2D4B81"/>
			<stop  offset="0.2911" style="stop-color:#2A477C"/>
			<stop  offset="0.6119" style="stop-color:#233C6F"/>
			<stop  offset="0.9457" style="stop-color:#162A59"/>
			<stop  offset="1" style="stop-color:#142655"/>
		</linearGradient>
		<path class="st13" d="M310.3,326.1c0,0,4.8,19.4,4.5,23.1c-0.3,3.7-39.8,66.9-38.7,72.7c5.8-8.9,37.7-52.2,45.3-66
			c7.6-13.8-7.5-37.7-7.5-37.7L310.3,326.1z"/>
		<linearGradient id="SVGID_10_" gradientUnits="userSpaceOnUse" x1="307.4507" y1="371.5548" x2="308.3461" y2="607.0046">
			<stop  offset="0" style="stop-color:#697FA5"/>
			<stop  offset="0.276" style="stop-color:#657CA3"/>
			<stop  offset="0.5228" style="stop-color:#5B739C"/>
			<stop  offset="0.7583" style="stop-color:#486391"/>
			<stop  offset="0.9859" style="stop-color:#2F4D82"/>
			<stop  offset="1" style="stop-color:#2D4B81"/>
		</linearGradient>
		<path class="st14" d="M296.3,438.9c6.5-9.2,33.7-36.8,33.7-36.8l14.2-11.9C325,377,318,361.9,318,361.9l-42,60
			c0,0-3.1,44.6-4.8,68.2c1.2-0.1,2.4-0.3,3.7-0.5C281.1,472.4,291.8,445.3,296.3,438.9z"/>
		<linearGradient id="SVGID_11_" gradientUnits="userSpaceOnUse" x1="415.9868" y1="379.4787" x2="332.0524" y2="454.0097">
			<stop  offset="0" style="stop-color:#2D4B81"/>
			<stop  offset="0.8747" style="stop-color:#172B5B"/>
			<stop  offset="1" style="stop-color:#142655"/>
		</linearGradient>
		<path class="st15" d="M326.2,419.6l79.8,8.3c0.4-0.3,0.7-0.7,1-1C358.6,411.6,326.2,419.6,326.2,419.6z"/>
		<linearGradient id="SVGID_12_" gradientUnits="userSpaceOnUse" x1="382.7958" y1="379.2348" x2="407.8764" y2="336.4176">
			<stop  offset="0" style="stop-color:#2D4B81"/>
			<stop  offset="0.9135" style="stop-color:#536C98"/>
			<stop  offset="1" style="stop-color:#576F9A"/>
		</linearGradient>
		<path class="st16" d="M432.2,378.4c-16.4-19-87.2-42.2-87.2-42.2s72.5,37.3,77.9,43.3c1.3,1.5,4.9,9.1,9.6,19.9
			c2.5-3.1,4.9-6.3,7.2-9.5C437.2,385.3,434.7,381.4,432.2,378.4z"/>
		<linearGradient id="SVGID_13_" gradientUnits="userSpaceOnUse" x1="294.6698" y1="424.4113" x2="295.2417" y2="509.1462">
			<stop  offset="0" style="stop-color:#142655"/>
			<stop  offset="0.1253" style="stop-color:#172B5B"/>
			<stop  offset="1" style="stop-color:#2D4B81"/>
		</linearGradient>
		<path class="st17" d="M303.7,435.7c0,0-13.4,33.5-17.5,52.2c1.4-0.3,2.9-0.5,4.3-0.8C294.1,463.2,303.7,435.7,303.7,435.7z"/>
		<linearGradient id="SVGID_14_" gradientUnits="userSpaceOnUse" x1="149.454" y1="329.8657" x2="161.1046" y2="515.0248">
			<stop  offset="0" style="stop-color:#2D4B81"/>
			<stop  offset="0.8747" style="stop-color:#172B5B"/>
			<stop  offset="1" style="stop-color:#142655"/>
		</linearGradient>
		<path class="st18" d="M168.5,392.1l-46.7-10.4l-21.1,15.3l38.7,3.7c0,0,38.3,32.7,43.9,41.1c16.9,25.8,27.4,46.5,29.1,48
			l-5.5-37.6L168.5,392.1z"/>
		<linearGradient id="SVGID_15_" gradientUnits="userSpaceOnUse" x1="158.0693" y1="460.8641" x2="164.6515" y2="284.1539">
			<stop  offset="0" style="stop-color:#2D4B81"/>
			<stop  offset="0.9135" style="stop-color:#536C98"/>
			<stop  offset="1" style="stop-color:#576F9A"/>
		</linearGradient>
		<path class="st19" d="M169.9,320.9c2.6-5.4,8.6-10.7,17.5-13.4c0-3.3,0.1-5.4,0-7.1c0,0-23.1,2.2-39.3,33.8
			c-5,9.8-42.9,58.9-42.9,58.9l35.6-3l17.6,10.8c0,0,29.4,36.5,33.9,40.3c4.5,3.7,20.1,42.5,20.1,45.9c0,0-2.8-61.5-4.2-67.1
			C206.9,414.4,151.9,357.8,169.9,320.9z"/>
		<linearGradient id="SVGID_16_" gradientUnits="userSpaceOnUse" x1="184.9613" y1="426.3055" x2="185.6843" y2="313.5268">
			<stop  offset="0" style="stop-color:#2D4B81"/>
			<stop  offset="0.2911" style="stop-color:#2A477C"/>
			<stop  offset="0.6119" style="stop-color:#233C6F"/>
			<stop  offset="0.9457" style="stop-color:#162A59"/>
			<stop  offset="1" style="stop-color:#142655"/>
		</linearGradient>
		<path class="st20" d="M174.8,326.1l-4.5-6c0,0-14.2,22-6.6,35.8c7.6,13.8,39.5,57.1,45.3,66c1-5.7-38.4-69-38.7-72.7
			C169.9,345.5,174.8,326.1,174.8,326.1z"/>
		<linearGradient id="SVGID_17_" gradientUnits="userSpaceOnUse" x1="177.0456" y1="371.4978" x2="177.9431" y2="607.4741">
			<stop  offset="0" style="stop-color:#697FA5"/>
			<stop  offset="0.276" style="stop-color:#657CA3"/>
			<stop  offset="0.5228" style="stop-color:#5B739C"/>
			<stop  offset="0.7583" style="stop-color:#486391"/>
			<stop  offset="0.9859" style="stop-color:#2F4D82"/>
			<stop  offset="1" style="stop-color:#2D4B81"/>
		</linearGradient>
		<path class="st21" d="M167,361.9c0,0-7,15.1-26.1,28.3l14.2,11.9c0,0,27.2,27.6,33.7,36.8c4.5,6.4,15.2,33.4,21.4,50.6
			c1.2,0.2,2.5,0.3,3.7,0.5c-1.7-23.6-4.8-68.1-4.8-68.1L167,361.9z"/>
		<path class="st10" d="M47.6,392.1c4.3,5.8,8.8,11.5,13.6,16.9c-1.9-15.9-3.6-27.3-4.9-31.2C55.3,375.1,52,381.2,47.6,392.1z"/>
		<linearGradient id="SVGID_18_" gradientUnits="userSpaceOnUse" x1="176.3714" y1="372.4035" x2="78.5847" y2="459.2347">
			<stop  offset="0" style="stop-color:#2D4B81"/>
			<stop  offset="0.8747" style="stop-color:#172B5B"/>
			<stop  offset="1" style="stop-color:#142655"/>
		</linearGradient>
		<path class="st22" d="M78.9,427.3c0.2,0.2,0.4,0.4,0.6,0.6l79.3-8.2C158.8,419.6,131.4,413.8,78.9,427.3z"/>
		<linearGradient id="SVGID_19_" gradientUnits="userSpaceOnUse" x1="48.1786" y1="439.0969" x2="169.4644" y2="232.04">
			<stop  offset="0" style="stop-color:#2D4B81"/>
			<stop  offset="0.9135" style="stop-color:#536C98"/>
			<stop  offset="1" style="stop-color:#576F9A"/>
		</linearGradient>
		<path class="st23" d="M140.1,336.3c0,0-70.9,23.2-87.2,42.2c-2.4,2.8-4.8,6.6-7.2,11c2.3,3.3,4.7,6.5,7.2,9.6
			c4.6-10.6,8-18.1,9.3-19.5C67.6,373.6,140.1,336.3,140.1,336.3z"/>
		<linearGradient id="SVGID_20_" gradientUnits="userSpaceOnUse" x1="189.8329" y1="424.2678" x2="190.4061" y2="509.1915">
			<stop  offset="0" style="stop-color:#142655"/>
			<stop  offset="0.1253" style="stop-color:#172B5B"/>
			<stop  offset="1" style="stop-color:#2D4B81"/>
		</linearGradient>
		<path class="st24" d="M194.5,486.9c1.4,0.3,2.9,0.6,4.3,0.8c-4.2-18.7-17.5-52-17.5-52S190.9,463.1,194.5,486.9z"/>
		<linearGradient id="SVGID_21_" gradientUnits="userSpaceOnUse" x1="363.1486" y1="313.4328" x2="361.8167" y2="402.9255">
			<stop  offset="0" style="stop-color:#2D4B81"/>
			<stop  offset="0.9135" style="stop-color:#536C98"/>
			<stop  offset="1" style="stop-color:#576F9A"/>
		</linearGradient>
		<path class="st25" d="M371.5,389c-0.5,2.1-27.3,1.2-27.3,1.2l35.6,3L362.9,370C362.9,370,371.9,386.8,371.5,389z"/>
		<linearGradient id="SVGID_22_" gradientUnits="userSpaceOnUse" x1="124.1299" y1="318.2044" x2="122.8692" y2="402.9212">
			<stop  offset="0" style="stop-color:#2D4B81"/>
			<stop  offset="0.9135" style="stop-color:#536C98"/>
			<stop  offset="1" style="stop-color:#576F9A"/>
		</linearGradient>
		<path class="st26" d="M121.5,371.8l-16.3,21.4l35.6-3c0,0-27.2-0.1-27.3-0.9C113.4,388.4,121.5,371.8,121.5,371.8z"/>
		<path class="st27" d="M310.4,80.2c-7.1-7.1-116.9,2.9-141.8,15.5c2.2-1.1-13.4,31.1-14.5,41.8c-3.6,34.1-3.5,72.8-3.5,72.8
			c10.3-59.2,8.6-58.8,10.3-70.2c1.7-11.6,8.5-30.4,13.6-34.3c5-4,63.5-19.4,128.3-2.6c0,0,9.2-3.5,17.8,43.4
			c8.6,46.9,12.3,62.4,12.3,62.4s-6.5-62.1-7.2-67.3C326.4,146.4,307.6,77.4,310.4,80.2z"/>
		<g>
			<g>
				<path class="st28" d="M140.7,180.3c-11.3,2.1-8.8,9.9-3.9,23.5c4.8,36.2,10.8,43.4,14.7,41.2C158.7,241,154.4,177.7,140.7,180.3
					z"/>
				
					<linearGradient id="SVGID_23_" gradientUnits="userSpaceOnUse" x1="158.9677" y1="685.0159" x2="177.0612" y2="728.9097" gradientTransform="matrix(0.9787 0.1828 -0.1445 1.1336 82.625 -620.3788)">
					<stop  offset="0" style="stop-color:#DBA379"/>
					<stop  offset="0.4916" style="stop-color:#E4B186"/>
					<stop  offset="1" style="stop-color:#F0C499"/>
				</linearGradient>
				<path class="st29" d="M149.8,231.8c0,0-5.3-6.8-3.2-19.5c5-30-13.2-33-9.7-12.2c0,0,2.8-9.6,5-6.6c2.7,3.7-3.2,5.4-0.7,21.1
					C142.6,222.9,149.8,231.8,149.8,231.8z"/>
			</g>
			<g>
				<path class="st28" d="M342,180c11.4,1.6,9.3,9.5,5.2,23.3c-2.7,36.4-11.5,44-15.5,42C324.3,241.6,328.2,178.1,342,180z"/>
				
					<linearGradient id="SVGID_24_" gradientUnits="userSpaceOnUse" x1="-1456.2125" y1="983.1779" x2="-1438.1162" y2="1027.0784" gradientTransform="matrix(-0.967 0.2279 0.2093 1.1254 -1270.2507 -589.618)">
					<stop  offset="0" style="stop-color:#DBA379"/>
					<stop  offset="0.4916" style="stop-color:#E4B186"/>
					<stop  offset="1" style="stop-color:#F0C499"/>
				</linearGradient>
				<path class="st30" d="M335.8,231.9c0,0,4.9-7,2.1-19.6c-6.7-29.7,11.3-33.6,9-12.6c0,0-3.4-9.4-5.4-6.3
					c-2.5,3.8,3.5,5.2,1.9,21.1C342.5,222.6,335.8,231.9,335.8,231.9z"/>
			</g>
			<path class="st4" d="M330.1,165.7c3.4-85.1-26.4-58.5-33.8-67.1c-15-17.7-28.2-36.8-68.4-35.9c0,0-49.2,1.9-62.2,30.9
				c-6.2,13.8-12.2,91-11.8,105.2c1.2,48.5-5.9,59.4-1.8,69.6c1.9,4.7,5.2,11.4,14.5,18.9c14.9,11.9,30.7,35.6,42.6,49.3
				c4.1,4.7,60.6,2.4,67.8-1.6c12.4-6.8,26.5-29.6,42.8-46.1c7.2-7.3,11.9-19.2,11.9-25.2c0-6.8-0.4-51.3-0.7-56.3
				C329.6,179.9,329.1,189.4,330.1,165.7z"/>
			<linearGradient id="SVGID_25_" gradientUnits="userSpaceOnUse" x1="288.6115" y1="216.9237" x2="285.6488" y2="182.1158">
				<stop  offset="0" style="stop-color:#F7D4AB"/>
				<stop  offset="0.517" style="stop-color:#F6D2A8"/>
				<stop  offset="0.8546" style="stop-color:#F3CAA0"/>
				<stop  offset="1" style="stop-color:#F0C499"/>
			</linearGradient>
			<path class="st31" d="M318.1,198.7c0.7-55.6-55.8-32.2-55.8-32.2c-1.3,8.7-9.7,33.4-5.2,37.2
				C291.5,232.4,318.1,198.7,318.1,198.7z"/>
			<linearGradient id="SVGID_26_" gradientUnits="userSpaceOnUse" x1="239.6409" y1="153.3365" x2="306.4893" y2="174.5864">
				<stop  offset="0" style="stop-color:#963614"/>
				<stop  offset="0.1954" style="stop-color:#903313"/>
				<stop  offset="0.4441" style="stop-color:#812B0F"/>
				<stop  offset="0.7214" style="stop-color:#671F08"/>
				<stop  offset="1" style="stop-color:#450E00"/>
			</linearGradient>
			<path class="st32" d="M295.8,160.9c-3.5-0.4-15.1-3.2-31.5,0.4c-4.2,0.9-5,10.2-0.4,10.1c8.5-0.3,20.6-1.7,28.7-1.9
				c11.9-0.2,18,2.5,18,2.5S303.6,161.9,295.8,160.9z"/>
			
				<radialGradient id="SVGID_27_" cx="279.0878" cy="303.6176" r="36.7229" gradientTransform="matrix(1.0666 0 0 1.08 -6.5715 -100.0938)" gradientUnits="userSpaceOnUse">
				<stop  offset="0" style="stop-color:#F8C39C"/>
				<stop  offset="1" style="stop-color:#F7D4AB"/>
			</radialGradient>
			<path class="st33" d="M295.4,261.7c16.5,1.1,30.9,2.9,34.3-31.9c2-19.8,2.3-34-5.9-35.5c-17.4-3.3-40.5,4.4-50.8,9.9
				C251.1,215.7,266.1,259.7,295.4,261.7z"/>
			
				<linearGradient id="SVGID_28_" gradientUnits="userSpaceOnUse" x1="3719.9031" y1="217.1325" x2="3716.7681" y2="180.2988" gradientTransform="matrix(-1 1.500000e-03 1.500000e-03 1 3915.251 -2.8296)">
				<stop  offset="0" style="stop-color:#F7D4AB"/>
				<stop  offset="0.517" style="stop-color:#F6D2A8"/>
				<stop  offset="0.8546" style="stop-color:#F3CAA0"/>
				<stop  offset="1" style="stop-color:#F0C499"/>
			</linearGradient>
			<path class="st34" d="M166.1,202.1c-0.1-63.3,54.9-34.3,54.9-34.3c1.3,8.7,10.9,34.9,6.4,38.6C193,235.2,166.1,202.1,166.1,202.1
				z"/>
			<linearGradient id="SVGID_29_" gradientUnits="userSpaceOnUse" x1="245.7932" y1="301.2249" x2="243.1827" y2="353.4348">
				<stop  offset="0" style="stop-color:#FFD9B3"/>
				<stop  offset="0.2826" style="stop-color:#FBD7AF"/>
				<stop  offset="1" style="stop-color:#F7D4AB"/>
			</linearGradient>
			<path class="st35" d="M246.3,304.8c-9.1,0-31.9,6.3-31.2,9.6c2,10.2,23.1,11.9,32.2,11.9c9.1,0,27.5-2.4,27.9-11.1
				C275.3,311.8,255.4,304.8,246.3,304.8z"/>
			
				<radialGradient id="SVGID_30_" cx="176.2462" cy="304.6656" r="36.4624" gradientTransform="matrix(1.0666 0 0 1.08 -6.5715 -100.0938)" gradientUnits="userSpaceOnUse">
				<stop  offset="0" style="stop-color:#F8C39C"/>
				<stop  offset="1" style="stop-color:#F7D4AB"/>
			</radialGradient>
			<path class="st36" d="M203.9,202.5c-4.7-1.8-36-10.1-46.7-6.9c2.1-0.6-3.9,20.3-3.1,31.1c0.5,6.4-2.1,14.4-0.7,18.4
				c6.9,19.6,31.7,20.4,46.9,15C226.4,250.8,227.9,211.4,203.9,202.5z"/>
			<linearGradient id="SVGID_31_" gradientUnits="userSpaceOnUse" x1="321.0858" y1="208.0017" x2="295.6621" y2="216.7685">
				<stop  offset="0" style="stop-color:#FBD6AF"/>
				<stop  offset="1" style="stop-color:#F7D4AB"/>
			</linearGradient>
			<path class="st37" d="M320.1,204.4c-2.6-1.7-4.5,0.8-9.9,2.8c-5.3,2-19.8,5.2-13,9.5c7.5,4.7,18.1-1.8,19.3-3
				C317.8,212.5,323.3,206.5,320.1,204.4z"/>
			<linearGradient id="SVGID_32_" gradientUnits="userSpaceOnUse" x1="194.1784" y1="215.1289" x2="156.2967" y2="205.8787">
				<stop  offset="0" style="stop-color:#FBD6AF"/>
				<stop  offset="1" style="stop-color:#F7D4AB"/>
			</linearGradient>
			<path class="st38" d="M177.5,206.9c-5.5-1.9-7.6-4.2-10.1-2.5c-3,2.1,2.9,7.8,4.3,8.9c1.4,1.2,12.3,7.2,19.4,2.4
				C197.6,211.4,183,208.7,177.5,206.9z"/>
			<g>
				<linearGradient id="SVGID_33_" gradientUnits="userSpaceOnUse" x1="263.4322" y1="186.5948" x2="311.0742" y2="200.0076">
					<stop  offset="0" style="stop-color:#F0C499"/>
					<stop  offset="0.5084" style="stop-color:#E4B186"/>
					<stop  offset="1" style="stop-color:#DBA379"/>
				</linearGradient>
				<path class="st39" d="M302.6,182c-2.2-1.8-9.6-3.8-15.5-3.5c-16.5,0.7-22.6,5-23.5,9.7c-0.3,1.7-2.5,10.6-1.6,12.3
					c2.6,5.1,19.1,6.3,28.7,5.5c10-0.8,19.4-6.9,19.4-9.4C310.2,194.2,306.9,185.6,302.6,182z"/>
				<linearGradient id="SVGID_34_" gradientUnits="userSpaceOnUse" x1="304.0416" y1="195.6423" x2="260.3317" y2="191.8124">
					<stop  offset="0" style="stop-color:#FFFFFF"/>
					<stop  offset="0.4667" style="stop-color:#FDFCFC"/>
					<stop  offset="0.7734" style="stop-color:#F6F4F4"/>
					<stop  offset="1" style="stop-color:#ECE7E7"/>
				</linearGradient>
				<path class="st40" d="M277.4,184.4c-12.9,1.1-11.8,15.6-11.8,15.6c-0.3,0.3,0.1,1.5,3,2.1c11.3,2.5,16.5,3,27.4,0.4
					c6.1-1.5,9.4-6.2,9.4-6.2C297.3,186,301.2,182.4,277.4,184.4z"/>
				<path class="st41" d="M293.8,185.5c-7.7,0.8-25.1,2.1-25.1,2.1s-0.9,5.3-2.2,8.7c0,0,4.6-0.4,14.2-1.9c1.2-0.2,15.6,0,23.1,3.9
					c1.1-1,1.3-1.2,1.8-1.9C305.4,196.3,301.4,184.7,293.8,185.5z"/>
				<linearGradient id="SVGID_35_" gradientUnits="userSpaceOnUse" x1="271.0333" y1="195.4186" x2="296.5215" y2="195.4186">
					<stop  offset="0" style="stop-color:#715241"/>
					<stop  offset="1" style="stop-color:#B89C8C"/>
				</linearGradient>
				<path class="st42" d="M284.2,186.3c-7-0.4-13.5,3.3-13.1,10.6c0.1,2.8,1.8,5.9,2.1,6.3c1.2,0.4,7.6,1.3,11,1.4
					c3.5,0.1,8.5-1.2,10-1.6c1.7-2,2.1-3.6,2.3-5.2C297.4,190.7,291.2,186.7,284.2,186.3z"/>
				<linearGradient id="SVGID_36_" gradientUnits="userSpaceOnUse" x1="264.2155" y1="106.9601" x2="270.9059" y2="137.3383">
					<stop  offset="0" style="stop-color:#B89C8C"/>
					<stop  offset="1" style="stop-color:#715241"/>
				</linearGradient>
				<path class="st43" d="M287.8,186.4c-8.8,0.2-17.3,1.8-16.7,10.1c0,0,11.4-4.4,25.5-0.8C296.5,195.8,296.4,186.3,287.8,186.4z"/>
				
					<radialGradient id="SVGID_37_" cx="279.6002" cy="277.3227" r="20.8453" gradientTransform="matrix(1.0666 0 0 1.08 -6.5715 -100.0938)" gradientUnits="userSpaceOnUse">
					<stop  offset="0" style="stop-color:#2A3A3B"/>
					<stop  offset="1" style="stop-color:#1C2727"/>
				</radialGradient>
				<path class="st44" d="M285,187.1c-4.3-0.1-7.8,3.2-8,7.4c-0.1,4.2,3.2,7.7,7.5,7.9c4.3,0.1,7.8-3.2,8-7.4
					C292.6,190.8,289.3,187.3,285,187.1z"/>
				<path class="st45" d="M290.9,194.9c-1.8,0.2-3,1.9-2.8,3.7c0.2,1.8,1.8,3.1,3.6,2.9c1.8-0.2,3-1.9,2.8-3.7
					C294.3,196,292.7,194.7,290.9,194.9z"/>
				<path class="st45" d="M283.9,192.2c-1.4,0.2-2.4,1.5-2.2,2.9c0.2,1.4,1.4,2.5,2.8,2.3c1.4-0.2,2.4-1.5,2.2-2.9
					C286.6,193,285.3,192,283.9,192.2z"/>
				<linearGradient id="SVGID_38_" gradientUnits="userSpaceOnUse" x1="265.57" y1="190.509" x2="303.5737" y2="188.6993">
					<stop  offset="0" style="stop-color:#673024"/>
					<stop  offset="0.3355" style="stop-color:#53271C"/>
					<stop  offset="0.677" style="stop-color:#462118"/>
					<stop  offset="1" style="stop-color:#421F16"/>
				</linearGradient>
				<path class="st46" d="M298.4,183.7c-7.6-2.8-24.9-2.8-30.2,3.8c-2.3,2.8-2.1,6.6-2.1,6.6s1.7-2.1,6.4-3.5
					c3.8-1.2,13.1-2.7,24.7-0.9c5.8,0.9,8.4,6.7,8.4,6.7S304.7,185.9,298.4,183.7z"/>
			</g>
			<g>
				<linearGradient id="SVGID_39_" gradientUnits="userSpaceOnUse" x1="178.1255" y1="186.1928" x2="226.3108" y2="199.7585">
					<stop  offset="0" style="stop-color:#F0C499"/>
					<stop  offset="0.5084" style="stop-color:#E4B186"/>
					<stop  offset="1" style="stop-color:#DBA379"/>
				</linearGradient>
				<path class="st47" d="M199.1,178.5c-5.9-0.2-13.3,1.7-15.5,3.5c-4.3,3.5-7.6,12.1-7.5,14.6c0.1,2.5,9.4,8.6,19.4,9.4
					c9.6,0.8,26.1-0.5,28.7-5.5c0.9-1.7-1.3-10.6-1.6-12.3C221.7,183.5,215.6,179.2,199.1,178.5z"/>
				<linearGradient id="SVGID_40_" gradientUnits="userSpaceOnUse" x1="219.6951" y1="195.5757" x2="175.3784" y2="191.6927">
					<stop  offset="0" style="stop-color:#FFFFFF"/>
					<stop  offset="0.4667" style="stop-color:#FDFCFC"/>
					<stop  offset="0.7734" style="stop-color:#F6F4F4"/>
					<stop  offset="1" style="stop-color:#ECE7E7"/>
				</linearGradient>
				<path class="st48" d="M208.9,184.4c-23.9-2-19.9,1.7-28.1,12c0,0,3.3,4.7,9.4,6.2c11,2.6,16.1,2.1,27.4-0.4
					c2.9-0.6,3.3-1.9,3-2.1C220.7,200,221.8,185.4,208.9,184.4z"/>
				<path class="st41" d="M192.5,185.5c-7.7-0.8-11.7,10.9-11.7,10.9c0.5,0.7,0.7,1,1.8,1.9c7.4-3.9,21.9-4.1,23.1-3.9
					c9.6,1.5,14.2,1.9,14.2,1.9c-1.3-3.4-2.2-8.7-2.2-8.7S200.1,186.2,192.5,185.5z"/>
				<linearGradient id="SVGID_41_" gradientUnits="userSpaceOnUse" x1="189.7161" y1="195.4186" x2="215.2044" y2="195.4186">
					<stop  offset="0" style="stop-color:#B89C8C"/>
					<stop  offset="1" style="stop-color:#715241"/>
				</linearGradient>
				<path class="st49" d="M202.1,186.3c-7,0.4-13.2,4.4-12.2,11.5c0.2,1.5,0.5,3.2,2.3,5.2c1.5,0.4,6.5,1.7,10,1.6
					c3.4-0.1,9.8-1,11-1.4c0.3-0.3,1.9-3.4,2.1-6.3C215.5,189.6,209,185.9,202.1,186.3z"/>
				<linearGradient id="SVGID_42_" gradientUnits="userSpaceOnUse" x1="180.1082" y1="93.6857" x2="187.8231" y2="128.7154">
					<stop  offset="0" style="stop-color:#B89C8C"/>
					<stop  offset="1" style="stop-color:#715241"/>
				</linearGradient>
				<path class="st50" d="M198.5,186.4c-8.6-0.2-8.7,9.3-8.7,9.3c14-3.6,25.5,0.8,25.5,0.8C215.7,188.3,207.3,186.6,198.5,186.4z"/>
				
					<radialGradient id="SVGID_43_" cx="201.5155" cy="277.3227" r="20.8453" gradientTransform="matrix(1.0666 0 0 1.08 -6.5715 -100.0938)" gradientUnits="userSpaceOnUse">
					<stop  offset="0" style="stop-color:#2A3A3B"/>
					<stop  offset="1" style="stop-color:#1C2727"/>
				</radialGradient>
				<path class="st51" d="M201.3,187.1c-4.3,0.1-7.6,3.7-7.5,7.9c0.1,4.2,3.7,7.5,8,7.4c4.3-0.1,7.6-3.7,7.5-7.9
					C209.1,190.3,205.5,187,201.3,187.1z"/>
				<path class="st45" d="M208.2,194.9c-1.8,0.2-3,1.9-2.8,3.7c0.2,1.8,1.8,3.1,3.6,2.9c1.8-0.2,3-1.9,2.8-3.7
					C211.6,196,210,194.7,208.2,194.9z"/>
				<path class="st45" d="M201.2,192.2c-1.4,0.2-2.4,1.5-2.2,2.9c0.2,1.4,1.4,2.5,2.8,2.3c1.4-0.2,2.4-1.5,2.2-2.9
					C203.9,193,202.6,192,201.2,192.2z"/>
				<linearGradient id="SVGID_44_" gradientUnits="userSpaceOnUse" x1="180.1689" y1="189.5546" x2="218.4001" y2="187.7341">
					<stop  offset="0" style="stop-color:#673024"/>
					<stop  offset="0.3355" style="stop-color:#53271C"/>
					<stop  offset="0.677" style="stop-color:#462118"/>
					<stop  offset="1" style="stop-color:#421F16"/>
				</linearGradient>
				<path class="st52" d="M187.8,183.7c-6.2,2.3-7,12.7-7,12.7s2.5-5.8,8.4-6.7c11.6-1.8,20.9-0.3,24.7,0.9c4.6,1.5,6.4,3.5,6.4,3.5
					s0.2-3.8-2.1-6.6C212.7,180.8,195.4,180.9,187.8,183.7z"/>
			</g>
			<linearGradient id="SVGID_45_" gradientUnits="userSpaceOnUse" x1="200.3085" y1="331.9817" x2="145.9979" y2="228.03">
				<stop  offset="0" style="stop-color:#F7D4AB"/>
				<stop  offset="1" style="stop-color:#F0C499"/>
			</linearGradient>
			<path class="st53" d="M153.7,207.3c-0.6,22.3-6.5,57.5-2.6,65.8c1.6,3.4,19.9,22.5,23.5,25.7c3.6,3.1,22.1,22.3,22.1,22.3
				c-2.8-4.2-26.5-37.5-30.8-44C155.5,261,153.7,207.3,153.7,207.3z"/>
			<linearGradient id="SVGID_46_" gradientUnits="userSpaceOnUse" x1="286.3373" y1="333.2305" x2="337.9671" y2="227.0358">
				<stop  offset="0" style="stop-color:#FFD9B3"/>
				<stop  offset="1" style="stop-color:#F7D4AB"/>
			</linearGradient>
			<path class="st54" d="M320.2,270.6c-3.6,6.4-29.5,52.1-29.5,52.1c2.1-3.7,39.3-42.3,41.4-49.6c2.1-7.3-1.2-66-1.2-66
				C329.2,224,325.7,260.8,320.2,270.6z"/>
			<g>
				<linearGradient id="SVGID_47_" gradientUnits="userSpaceOnUse" x1="287.3592" y1="311.4008" x2="286.1527" y2="238.1115">
					<stop  offset="0" style="stop-color:#F7D4AB"/>
					<stop  offset="0.5273" style="stop-color:#F6D2A8"/>
					<stop  offset="0.8717" style="stop-color:#F3CAA0"/>
					<stop  offset="1" style="stop-color:#F1C59A"/>
				</linearGradient>
				<path class="st55" d="M275.1,239.6c17.8,14.6,10.6,25,6.9,28.7c6.8-5.8,16.1-12.3,15.5-14.8
					C295.3,244.2,275.1,239.6,275.1,239.6z"/>
				<linearGradient id="SVGID_48_" gradientUnits="userSpaceOnUse" x1="281.2053" y1="271.8438" x2="281.1458" y2="268.2303">
					<stop  offset="0" style="stop-color:#F7D4AB"/>
					<stop  offset="0.5273" style="stop-color:#F6D2A8"/>
					<stop  offset="0.8717" style="stop-color:#F3CAA0"/>
					<stop  offset="1" style="stop-color:#F1C59A"/>
				</linearGradient>
				<path class="st56" d="M282,268.3c-0.6,0.5-1.1,1-1.7,1.4C280.3,269.7,281,269.2,282,268.3z"/>
				<linearGradient id="SVGID_49_" gradientUnits="userSpaceOnUse" x1="280.1565" y1="254.4191" x2="291.6257" y2="254.4191">
					<stop  offset="0" style="stop-color:#F7D4AB"/>
					<stop  offset="0.5273" style="stop-color:#F6D2A8"/>
					<stop  offset="0.8717" style="stop-color:#F3CAA0"/>
					<stop  offset="1" style="stop-color:#F1C59A"/>
				</linearGradient>
				<path class="st57" d="M280.2,257.3c0,0,9.1-2.1,9.9-2.8c0.8-0.7,1.5-3,1.5-3l-5.8,1.8L280.2,257.3z"/>
				<linearGradient id="SVGID_50_" gradientUnits="userSpaceOnUse" x1="203.3877" y1="314.6824" x2="202.1532" y2="239.6913">
					<stop  offset="0" style="stop-color:#F7D4AB"/>
					<stop  offset="0.5273" style="stop-color:#F6D2A8"/>
					<stop  offset="0.8717" style="stop-color:#F3CAA0"/>
					<stop  offset="1" style="stop-color:#F1C59A"/>
				</linearGradient>
				<path class="st58" d="M192.8,254.8c0.4,2.8,8.4,9.9,13.6,15.3c0,0-13.9-15.2,5.4-28.8C211.8,241.4,191.4,245.3,192.8,254.8z"/>
				<linearGradient id="SVGID_51_" gradientUnits="userSpaceOnUse" x1="197.5614" y1="255.0105" x2="209.0306" y2="255.0105">
					<stop  offset="0" style="stop-color:#F7D4AB"/>
					<stop  offset="0.5273" style="stop-color:#F6D2A8"/>
					<stop  offset="0.8717" style="stop-color:#F3CAA0"/>
					<stop  offset="1" style="stop-color:#F1C59A"/>
				</linearGradient>
				<path class="st59" d="M197.6,252.1c0,0,0.7,2.4,1.5,3c0.8,0.7,9.9,2.8,9.9,2.8l-5.7-4L197.6,252.1z"/>
				<linearGradient id="SVGID_52_" gradientUnits="userSpaceOnUse" x1="247.6564" y1="329.828" x2="245.8944" y2="278.9498">
					<stop  offset="0" style="stop-color:#F7D4AB"/>
					<stop  offset="0.5273" style="stop-color:#F6D2A8"/>
					<stop  offset="0.8717" style="stop-color:#F3CAA0"/>
					<stop  offset="1" style="stop-color:#F1C59A"/>
				</linearGradient>
				<path class="st60" d="M226.1,292.4c24.2-2.7,40.5,0.3,40.5,0.3C248.3,281.1,226.1,292.4,226.1,292.4z"/>
				<path class="st61" d="M199.7,253.2c0.5,0.5,0.8,1.2,1.5,1.5c11.6,5.2,11.8,10.2,16.7,12.9c17.6,9.6,38.2,7.3,52.1-0.4
					c8-4.5,9-9.6,18.5-13.4c1.3-0.5,1.5-1.5,1.5-1.5C239.1,264.9,199.7,253.2,199.7,253.2z"/>
				<path class="st62" d="M245.4,277.8c-6.9,0-13.7-1.4-13.7,0c0,1.4,6,4.4,12.8,4.4c6.9,0,13.7-3,13.7-4.4
					C258.2,276.4,252.2,277.8,245.4,277.8z"/>
				<linearGradient id="SVGID_53_" gradientUnits="userSpaceOnUse" x1="214.5256" y1="268.4004" x2="277.5777" y2="269.4764">
					<stop  offset="0" style="stop-color:#E8D9D7"/>
					<stop  offset="0.1366" style="stop-color:#F0E6E4"/>
					<stop  offset="0.3932" style="stop-color:#FBF8F8"/>
					<stop  offset="0.5685" style="stop-color:#FFFFFF"/>
					<stop  offset="1" style="stop-color:#E8D3D1"/>
				</linearGradient>
				<path class="st63" d="M265.2,264c-4.7,1-13.5,2.7-21.5,2.7c-8.9,0-17.9-1.6-22.8-2.6c-2.1-0.4-3.1,3.4-3.1,3.4
					c6.5,4.8,14.3,6.6,26.7,6.7c16.6,0.1,25.8-7.2,25.8-7.2S267.9,263.4,265.2,264z"/>
				<linearGradient id="SVGID_54_" gradientUnits="userSpaceOnUse" x1="247.6802" y1="328.7808" x2="245.9686" y2="279.359">
					<stop  offset="0" style="stop-color:#F7D4AB"/>
					<stop  offset="0.5273" style="stop-color:#F6D2A8"/>
					<stop  offset="0.8717" style="stop-color:#F3CAA0"/>
					<stop  offset="1" style="stop-color:#F1C59A"/>
				</linearGradient>
				<path class="st64" d="M220,279.6c26.5,21.4,51.9-1.5,51.9-1.5C245.1,292.6,220,279.6,220,279.6z"/>
				<linearGradient id="SVGID_55_" gradientUnits="userSpaceOnUse" x1="243.7657" y1="244.2615" x2="244.7878" y2="268.1089">
					<stop  offset="0" style="stop-color:#E8D9D7"/>
					<stop  offset="0.3971" style="stop-color:#EFE5E4"/>
					<stop  offset="1" style="stop-color:#FFFFFF"/>
				</linearGradient>
				<path class="st65" d="M211.2,255.7c0,0,0.2,4.4,4.6,6.4c2.6,1.1,8.3,5.6,30.8,4.9c22.4-0.7,26.8-6.2,27.9-7.1
					c1.9-1.8,2.8-4.8,2.8-4.8S243.5,261.7,211.2,255.7z"/>
				<path class="st66" d="M211.2,255.3c0,0,0.1,2,0.9,3.2c0.6,1,18.5,3.6,32,3.7c13.5,0.1,31.2-3.4,31.8-4.2c1-1.2,1.5-3.4,1.5-3.4
					S262.2,259.7,211.2,255.3z"/>
				<linearGradient id="SVGID_56_" gradientUnits="userSpaceOnUse" x1="246.3348" y1="338.1872" x2="244.6497" y2="235.8245">
					<stop  offset="0" style="stop-color:#F7D4AB"/>
					<stop  offset="0.5273" style="stop-color:#F6D2A8"/>
					<stop  offset="0.8717" style="stop-color:#F3CAA0"/>
					<stop  offset="1" style="stop-color:#F1C59A"/>
				</linearGradient>
				<path class="st67" d="M197,251.9c0,0,2.1,1.2,2.8,1.4c0,0,39.4,11.7,90.4-1l2.8-1.4C265.2,255.6,197,251.9,197,251.9z"/>
			</g>
			<linearGradient id="SVGID_57_" gradientUnits="userSpaceOnUse" x1="153.699" y1="206.3862" x2="153.7508" y2="208.106">
				<stop  offset="0" style="stop-color:#F7D4AB"/>
				<stop  offset="0.49" style="stop-color:#F2CA9F"/>
				<stop  offset="1" style="stop-color:#F0C499"/>
			</linearGradient>
			<path class="st68" d="M153.8,206.9c-0.1,0.2-0.1,0.4-0.1,0.4C153.6,208.5,153.7,208.2,153.8,206.9z"/>
			<linearGradient id="SVGID_58_" gradientUnits="userSpaceOnUse" x1="236.8193" y1="21.3611" x2="242.6809" y2="215.9166">
				<stop  offset="0" style="stop-color:#F7D4AB"/>
				<stop  offset="0.49" style="stop-color:#F2CA9F"/>
				<stop  offset="1" style="stop-color:#F0C499"/>
			</linearGradient>
			<path class="st69" d="M163.4,95.7c0.3-0.1-8.3,99.5-9.6,111.2c1.4-3.8,13.1-35.5,15.7-42.1c8.4-20.9,16.9-47.3,18.1-48.9
				s7.9-5.3,7.9-5.3s24.1,13,46.9,11.3c22.8-1.6,43.3-6.3,50-10.4c0,0,8,2.3,14.9,24.8c3.5,11.4,23.8,70.9,23.8,70.9
				c0.2-10.9-7.5-93-21.1-126.3C313.6,90,172.1,92.9,163.4,95.7z"/>
			<linearGradient id="SVGID_59_" gradientUnits="userSpaceOnUse" x1="219.249" y1="-38.8314" x2="245.9508" y2="170.3326">
				<stop  offset="0" style="stop-color:#963614"/>
				<stop  offset="0.1954" style="stop-color:#903313"/>
				<stop  offset="0.4441" style="stop-color:#812B0F"/>
				<stop  offset="0.7214" style="stop-color:#671F08"/>
				<stop  offset="1" style="stop-color:#450E00"/>
			</linearGradient>
			<path class="st70" d="M309.2,75.5c0,0-37.3-19.5-59.2-25.2c-75.8-19.8-81.4,37.9-81.4,37.9s-41.9,2.4-25.5,92.4
				c4.2,1.5,10.5,26.7,10.5,26.7s12.6-45.9,13.5-56.4c0.9-10.5,4.8-26.3,7.2-36.2c1.1-4.4,20.2-14.3,20.2-14.3
				c43.1,15.8,80.5,12.8,103.2-1.1c0,0,15.1-11.1,18.7,38.6c1.6,21.9,9.5,41.2,14.6,69.4c0,0,1.9-27.3,10.5-27.3
				C355.3,113.9,332.9,79,309.2,75.5z"/>
			<linearGradient id="SVGID_60_" gradientUnits="userSpaceOnUse" x1="216.07" y1="-178.6761" x2="238.6156" y2="145.4157">
				<stop  offset="0" style="stop-color:#963614"/>
				<stop  offset="0.1954" style="stop-color:#903313"/>
				<stop  offset="0.4441" style="stop-color:#812B0F"/>
				<stop  offset="0.7214" style="stop-color:#671F08"/>
				<stop  offset="1" style="stop-color:#450E00"/>
			</linearGradient>
			<path class="st71" d="M300.1,93.4c0,0-39.6,27-113.1,1.6c0,0-9.3,5.6-13.1,10.1c-7.8,9.3-10.6,28.4-12.4,43
				c-0.8,6.5-7.8,59.3-7.8,59.3s22.3-82.7,25.4-94.2c0,0,0.3-4.4,14.6-10.2c0,0,55.4,23.3,104.6,1c0,0,4.7-0.4,9.9,15.2
				c5.5,16.5,23.4,81.1,23.4,81.1s-7.4-61.1-7.7-63.3C322.2,121,315,103.1,300.1,93.4z"/>
			<linearGradient id="SVGID_61_" gradientUnits="userSpaceOnUse" x1="246.611" y1="156.6025" x2="166.058" y2="172.9786">
				<stop  offset="0" style="stop-color:#963614"/>
				<stop  offset="0.1954" style="stop-color:#903313"/>
				<stop  offset="0.4441" style="stop-color:#812B0F"/>
				<stop  offset="0.7214" style="stop-color:#671F08"/>
				<stop  offset="1" style="stop-color:#450E00"/>
			</linearGradient>
			<path class="st72" d="M220.1,160.3c-16.4-3.5-28-0.8-31.5-0.4c-7.8,1-14.8,11.1-14.8,11.1s6.2-2.7,18-2.5
				c8.1,0.2,20.2,1.6,28.7,1.9C225.1,170.5,224.3,161.2,220.1,160.3z"/>
			<linearGradient id="SVGID_62_" gradientUnits="userSpaceOnUse" x1="256.7698" y1="103.6943" x2="256.7977" y2="104.0737">
				<stop  offset="0" style="stop-color:#963614"/>
				<stop  offset="0.1954" style="stop-color:#903313"/>
				<stop  offset="0.4441" style="stop-color:#812B0F"/>
				<stop  offset="0.7214" style="stop-color:#671F08"/>
				<stop  offset="1" style="stop-color:#450E00"/>
			</linearGradient>
			<path class="st73" d="M257.1,103.9c0,0-0.1,0-0.1,0C256.3,103.9,256.2,103.9,257.1,103.9z"/>
			<linearGradient id="SVGID_63_" gradientUnits="userSpaceOnUse" x1="249.3993" y1="-38.9138" x2="264.2663" y2="163.647">
				<stop  offset="0" style="stop-color:#963614"/>
				<stop  offset="0.1954" style="stop-color:#903313"/>
				<stop  offset="0.4441" style="stop-color:#812B0F"/>
				<stop  offset="0.7214" style="stop-color:#671F08"/>
				<stop  offset="1" style="stop-color:#450E00"/>
			</linearGradient>
			<path class="st74" d="M259.5,53.3c0,0-73.2,17.9-71.7,19.8c1.5,1.8,66.8,29.8,69.2,30.9c6.3,0,65.6-0.5,69.5-44.3
				C326.5,59.6,309.5,67.8,259.5,53.3z"/>
			<linearGradient id="SVGID_64_" gradientUnits="userSpaceOnUse" x1="326.4013" y1="78.4149" x2="18.6316" y2="57.2298">
				<stop  offset="0" style="stop-color:#963614"/>
				<stop  offset="0.1954" style="stop-color:#903313"/>
				<stop  offset="0.4441" style="stop-color:#812B0F"/>
				<stop  offset="0.7214" style="stop-color:#671F08"/>
				<stop  offset="1" style="stop-color:#450E00"/>
			</linearGradient>
			<path class="st75" d="M234.3,50c-37.2-8.1-58.2,28.6-58.2,28.6c33.6-13.1,79.7-0.7,79.7-0.7c-25.2,6.8-46.5,7.6-46.5,7.6
				c62.3,7.1,82.4-0.9,82.4-0.9c-14.1,7.6-40.3,11.1-40.3,11.1c72.7,8.3,75.2-36.1,75.2-36.1C292.9,70.6,271.5,58.1,234.3,50z"/>
			<linearGradient id="SVGID_65_" gradientUnits="userSpaceOnUse" x1="336.6957" y1="58.4846" x2="324.9878" y2="134.8079">
				<stop  offset="0" style="stop-color:#963614"/>
				<stop  offset="0.1954" style="stop-color:#903313"/>
				<stop  offset="0.4441" style="stop-color:#812B0F"/>
				<stop  offset="0.7214" style="stop-color:#671F08"/>
				<stop  offset="1" style="stop-color:#450E00"/>
			</linearGradient>
			<path class="st76" d="M319.7,79.2l-3.4,4.3c11.1,3,27.5,36.5,27.5,36.5C340.3,89.9,319.7,79.2,319.7,79.2z"/>
			<linearGradient id="SVGID_66_" gradientUnits="userSpaceOnUse" x1="164.2082" y1="58.7492" x2="149.776" y2="152.8328">
				<stop  offset="0" style="stop-color:#963614"/>
				<stop  offset="0.1954" style="stop-color:#903313"/>
				<stop  offset="0.4441" style="stop-color:#812B0F"/>
				<stop  offset="0.7214" style="stop-color:#671F08"/>
				<stop  offset="1" style="stop-color:#450E00"/>
			</linearGradient>
			<path class="st77" d="M140.1,129.5c9.9-30.4,32.8-39.4,32.8-39.4c-2.1-0.6-4.2-1.9-4.2-1.9C141.4,91.7,140.1,129.5,140.1,129.5z"
				/>
			<linearGradient id="SVGID_67_" gradientUnits="userSpaceOnUse" x1="243.096" y1="187.2064" x2="247.2938" y2="448.5292">
				<stop  offset="0" style="stop-color:#450E00"/>
				<stop  offset="0.2786" style="stop-color:#671F08"/>
				<stop  offset="0.5559" style="stop-color:#812B0F"/>
				<stop  offset="0.8046" style="stop-color:#903313"/>
				<stop  offset="1" style="stop-color:#963614"/>
			</linearGradient>
			<path class="st78" d="M271.8,237l-5.2-2.8l-8.5,1.7l-13.6,4.7l-10.2-3.6l-12.6-2.6l-6.5,2.8c-14.4,9.4-37.4,5.3-37.4,5.3
				c25.5,26.5,68.1,7.7,68.1,7.7s37,20.6,64.2-9.5C310.1,240.6,291.4,245.4,271.8,237z"/>
			<linearGradient id="SVGID_68_" gradientUnits="userSpaceOnUse" x1="277.7581" y1="192.4779" x2="278.3881" y2="311.8881">
				<stop  offset="0" style="stop-color:#963614"/>
				<stop  offset="0.1954" style="stop-color:#903313"/>
				<stop  offset="0.4441" style="stop-color:#812B0F"/>
				<stop  offset="0.7214" style="stop-color:#671F08"/>
				<stop  offset="1" style="stop-color:#450E00"/>
			</linearGradient>
			<path class="st79" d="M246,250.2c0,0,39.1,22.7,64.2-9.5C310.1,240.6,283.8,262.7,246,250.2z"/>
			<linearGradient id="SVGID_69_" gradientUnits="userSpaceOnUse" x1="211.6426" y1="200.9038" x2="212.1817" y2="303.0793">
				<stop  offset="0" style="stop-color:#963614"/>
				<stop  offset="0.1954" style="stop-color:#903313"/>
				<stop  offset="0.4441" style="stop-color:#812B0F"/>
				<stop  offset="0.7214" style="stop-color:#671F08"/>
				<stop  offset="1" style="stop-color:#450E00"/>
			</linearGradient>
			<path class="st80" d="M177.8,242.4c0,0,19.6,26.5,68.1,7.7C246,250.2,202.4,259.5,177.8,242.4z"/>
			<g>
				<linearGradient id="SVGID_70_" gradientUnits="userSpaceOnUse" x1="242.3967" y1="134.5999" x2="244.7124" y2="231.4762">
					<stop  offset="0" style="stop-color:#FFD9B3"/>
					<stop  offset="0.1957" style="stop-color:#FDD8B1"/>
					<stop  offset="1" style="stop-color:#F7D4AB"/>
				</linearGradient>
				<path class="st81" d="M252.9,196.9c1.1-21.3-6.3-24.3-11.7-24.1c-5.3,0.2-8.2,7.6-7.2,23.8c1.1,16.2-2.1,22.4-1.3,29.9
					c0.3,3.5,1.9,5.7,10.5,5.8c9.5,0.1,12.8-2.2,13.2-5.4C257.5,218,252.1,212.2,252.9,196.9z"/>
				<linearGradient id="SVGID_71_" gradientUnits="userSpaceOnUse" x1="264.2853" y1="274.5909" x2="263.0681" y2="242.9444">
					<stop  offset="0" style="stop-color:#F0C499"/>
					<stop  offset="0.5084" style="stop-color:#E4B186"/>
					<stop  offset="1" style="stop-color:#DBA379"/>
				</linearGradient>
				<path class="st82" d="M253.9,238.3c12.8-3.2,17.9-1.3,17.9-1.3C264.3,230.4,253.9,238.3,253.9,238.3z"/>
				<linearGradient id="SVGID_72_" gradientUnits="userSpaceOnUse" x1="227.4693" y1="275.9184" x2="226.2553" y2="244.3556">
					<stop  offset="0" style="stop-color:#F0C499"/>
					<stop  offset="0.5084" style="stop-color:#E4B186"/>
					<stop  offset="1" style="stop-color:#DBA379"/>
				</linearGradient>
				<path class="st83" d="M217.6,236c0,0,6.6-1.1,16.7,2.4C234.3,238.4,224.5,230.9,217.6,236z"/>
				<linearGradient id="SVGID_73_" gradientUnits="userSpaceOnUse" x1="242.9139" y1="187.8171" x2="244.5604" y2="242.4254">
					<stop  offset="0" style="stop-color:#F7D4AB"/>
					<stop  offset="0.5119" style="stop-color:#F5CFA5"/>
					<stop  offset="1" style="stop-color:#F1C59A"/>
				</linearGradient>
				<path class="st84" d="M263.8,216.7c-0.1,5.3,1.1,8.9-0.5,11.9c-3.6,6.8-12.8,9.4-19,8.9c-4.7,0.6-15.6-1.8-20.2-8.9
					c-1.9-2.9-0.7-5.5-1.5-11.1c0,0-12.7,15.5-5.1,18.5c0,0,2.2-1.7,8.4-1.1c6.1,0.6,4.9,7.4,18.9,7.5c12.3,0.1,8.4-5.8,16.2-7
					c7.8-1.1,8.8,0.9,10.6,1.7C275.6,237.1,272.8,224,263.8,216.7z"/>
				<linearGradient id="SVGID_74_" gradientUnits="userSpaceOnUse" x1="242.2101" y1="234.3772" x2="245.486" y2="210.2202">
					<stop  offset="0" style="stop-color:#FFD9B3"/>
					<stop  offset="0.2826" style="stop-color:#FBD7AF"/>
					<stop  offset="1" style="stop-color:#F7D4AB"/>
				</linearGradient>
				<path class="st85" d="M231.3,225.8c-0.5,3.5,4.3,7.2,12.9,7.3c9.5,0.1,11.6-3.7,10.8-6.9C250.4,207.3,233.3,212.9,231.3,225.8z"
					/>
			</g>
			<linearGradient id="SVGID_75_" gradientUnits="userSpaceOnUse" x1="430.6397" y1="315.3748" x2="177.2599" y2="327.6187">
				<stop  offset="0" style="stop-color:#F0C499"/>
				<stop  offset="0.5084" style="stop-color:#E4B186"/>
				<stop  offset="1" style="stop-color:#DBA379"/>
			</linearGradient>
			<path class="st86" d="M216.4,335.4c-7.2-1.6-29.4-24.4-29.4-24.4s22.7,27.5,25.3,28.6c2.6,1,59,1.6,64.7-2.6
				c5.7-4.2,21.4-23.2,21.4-23.2s-21.4,20.1-26.1,21.1C267.6,336,223.6,337,216.4,335.4z"/>
		</g>
	</g>
</g>
</svg>
