<?xml version="1.0" encoding="utf-8"?>
<!-- Generator: Adobe Illustrator 23.1.0, SVG Export Plug-In . SVG Version: 6.00 Build 0)  -->
<svg version="1.1" id="Layer_1" xmlns="http://www.w3.org/2000/svg" xmlns:xlink="http://www.w3.org/1999/xlink" x="0px" y="0px"
	 viewBox="0 0 353 353" style="enable-background:new 0 0 353 353;" xml:space="preserve">
<style type="text/css">
	.st0{fill:#F6ECE6;}
	.st1{fill:#F5F6F6;}
	.st2{fill:url(#SVGID_1_);}
	.st3{fill:url(#SVGID_2_);}
	.st4{fill:url(#SVGID_3_);}
	.st5{fill:#F0EFF3;}
	.st6{fill:#38373B;}
	.st7{fill:url(#SVGID_4_);}
	.st8{fill:url(#SVGID_5_);}
	.st9{fill:url(#SVGID_6_);}
	.st10{fill:url(#SVGID_7_);}
	.st11{fill:url(#SVGID_8_);}
	.st12{fill:url(#SVGID_9_);}
	.st13{fill:url(#SVGID_10_);}
	.st14{fill:url(#SVGID_11_);}
	.st15{fill:url(#SVGID_12_);}
	.st16{fill:url(#SVGID_13_);}
	.st17{fill:#9C1C20;}
	.st18{fill:url(#SVGID_14_);}
	.st19{fill:url(#SVGID_15_);}
	.st20{fill:url(#SVGID_16_);}
	.st21{fill:url(#SVGID_17_);}
	.st22{fill:url(#SVGID_18_);}
	.st23{fill:url(#SVGID_19_);}
	.st24{fill:url(#SVGID_20_);}
	.st25{fill:url(#SVGID_21_);}
	.st26{fill:url(#SVGID_22_);}
	.st27{fill:url(#SVGID_23_);}
	.st28{fill:#F0C999;}
	.st29{fill:url(#SVGID_24_);}
	.st30{fill:url(#SVGID_25_);}
	.st31{fill:#F7D9AB;}
	.st32{fill:url(#SVGID_26_);}
	.st33{fill:url(#SVGID_27_);}
	.st34{fill:url(#SVGID_28_);}
	.st35{fill:url(#SVGID_29_);}
	.st36{fill:url(#SVGID_30_);}
	.st37{fill:#E1B58C;}
	.st38{fill:url(#SVGID_31_);}
	.st39{fill:url(#SVGID_32_);}
	.st40{fill:#96282D;}
	.st41{fill:#FDDDB3;}
	.st42{fill:url(#SVGID_33_);}
	.st43{fill:url(#SVGID_34_);}
	.st44{fill:url(#SVGID_35_);}
	.st45{fill:#F3ECEB;}
	.st46{fill:url(#SVGID_36_);}
	.st47{fill:url(#SVGID_37_);}
	.st48{fill:url(#SVGID_38_);}
	.st49{fill:url(#SVGID_39_);}
	.st50{fill:url(#SVGID_40_);}
	.st51{fill:url(#SVGID_41_);}
	.st52{fill:#DDDDDD;}
	.st53{fill:url(#SVGID_42_);}
	.st54{fill:url(#SVGID_43_);}
	.st55{fill:url(#SVGID_44_);}
	.st56{fill:url(#SVGID_45_);}
	.st57{fill:#FFFFFF;}
	.st58{fill:url(#SVGID_46_);}
	.st59{fill:url(#SVGID_47_);}
	.st60{fill:url(#SVGID_48_);}
	.st61{fill:url(#SVGID_49_);}
	.st62{fill:url(#SVGID_50_);}
	.st63{fill:url(#SVGID_51_);}
	.st64{fill:url(#SVGID_52_);}
	.st65{fill:url(#SVGID_53_);}
	.st66{fill:url(#SVGID_54_);}
	.st67{fill:url(#SVGID_55_);}
	.st68{fill:url(#SVGID_56_);}
	.st69{fill:url(#SVGID_57_);}
	.st70{fill:url(#SVGID_58_);}
	.st71{fill:url(#SVGID_59_);}
	.st72{fill:url(#SVGID_60_);}
	.st73{fill:url(#SVGID_61_);}
	.st74{fill:url(#SVGID_62_);}
	.st75{fill:url(#SVGID_63_);}
	.st76{fill:url(#SVGID_64_);}
	.st77{fill:url(#SVGID_65_);}
	.st78{fill:url(#SVGID_66_);}
	.st79{fill:url(#SVGID_67_);}
	.st80{fill:url(#SVGID_68_);}
	.st81{fill:url(#SVGID_69_);}
	.st82{fill:url(#SVGID_70_);}
	.st83{fill:url(#SVGID_71_);}
	.st84{fill:url(#SVGID_72_);}
	.st85{fill:url(#SVGID_73_);}
</style>
<g>
	<g>
		
			<ellipse transform="matrix(0.7071 -0.7071 0.7071 0.7071 -73.1179 176.5222)" class="st0" cx="176.5" cy="176.5" rx="176.5" ry="176.5"/>
	</g>
	
		<ellipse transform="matrix(0.7071 -0.7071 0.7071 0.7071 -73.1179 176.5222)" class="st1" cx="176.5" cy="176.5" rx="176.5" ry="176.5"/>
	<linearGradient id="SVGID_1_" gradientUnits="userSpaceOnUse" x1="199.0916" y1="283.6265" x2="187.0225" y2="234.195">
		<stop  offset="0" style="stop-color:#DAA679"/>
		<stop  offset="0.4684" style="stop-color:#E3B485"/>
		<stop  offset="1" style="stop-color:#F0C998"/>
	</linearGradient>
	<path class="st2" d="M144,235.9c0,0,23.3,25.8,28.8,27.3c5.5,1.5,46.6-26.9,47.6-41.4l0.9-25.6l-78.9,13.5L144,235.9z"/>
	<linearGradient id="SVGID_2_" gradientUnits="userSpaceOnUse" x1="183.8228" y1="256.8806" x2="182.7779" y2="238.1772">
		<stop  offset="0" style="stop-color:#DAA679"/>
		<stop  offset="0.4684" style="stop-color:#E3B485"/>
		<stop  offset="1" style="stop-color:#F0C998"/>
	</linearGradient>
	<path class="st3" d="M182.9,249.8c-3.1,0.6-14.6-0.5-15.7-0.4c-1.1,0.1-18.4-13.6-18.5-14.5c-0.1-0.9-5.3-14.8-5.3-14.8
		s-0.3,13.4,1.3,16.5c1.6,3.1,20.7,16.6,20.7,16.6l14.5,2c0,0,21.4-6.7,26.6-12c4.9-5,13-30.1,13.7-32.3c-0.4,1.1-2.6,7.7-8.7,16
		C207.5,232.2,183.4,249.7,182.9,249.8z"/>
	<linearGradient id="SVGID_3_" gradientUnits="userSpaceOnUse" x1="220.0843" y1="211.0014" x2="220.08" y2="210.923">
		<stop  offset="0" style="stop-color:#DAA679"/>
		<stop  offset="0.4684" style="stop-color:#E3B485"/>
		<stop  offset="1" style="stop-color:#F0C998"/>
	</linearGradient>
	<path class="st4" d="M220.1,211c0-0.1,0.1-0.2,0.1-0.2S220.1,210.9,220.1,211z"/>
	<path class="st5" d="M195.9,260.1l-38.9-2c0,0-51.4,10.1-51.6,12.2l-9.8,63.1c24.2,12.5,51.7,19.6,80.9,19.6
		c24.2,0,47.2-4.9,68.2-13.7l-3-101.3L195.9,260.1z"/>
	<path class="st6" d="M59.1,267.3c-0.1-1.1,0.5-2.2,0.7-3.1c-3.8-1.5-10.2,12.6-11.1,34.1c4.1,4.3,8.4,8.4,13,12.3
		C59.7,284.4,57.4,271.2,59.1,267.3z"/>
	<linearGradient id="SVGID_4_" gradientUnits="userSpaceOnUse" x1="60.3068" y1="312.0681" x2="57.2109" y2="204.8142">
		<stop  offset="5.494510e-03" style="stop-color:#2B2A2D"/>
		<stop  offset="1" style="stop-color:#333236"/>
	</linearGradient>
	<path class="st7" d="M59.8,264.2c-3.1,6.4-3.3,23-2.4,42.7c1.8,1.7,3.7,3.3,5.6,4.9C59.2,282.3,59.8,264.2,59.8,264.2z"/>
	<linearGradient id="SVGID_5_" gradientUnits="userSpaceOnUse" x1="150.9751" y1="236.5996" x2="161.0692" y2="328.8885">
		<stop  offset="0" style="stop-color:#FFFFFF"/>
		<stop  offset="0.3857" style="stop-color:#F8F7F9"/>
		<stop  offset="1" style="stop-color:#F0EFF3"/>
	</linearGradient>
	<path class="st8" d="M231.8,299.6c-17.5-28.2-111.1-24.4-124.9-14.8c-9.2,6.4-21.2,22.4-28.2,38.7c28,18.7,61.6,29.6,97.8,29.6
		c23.7,0,46.4-4.7,67.1-13.2C243.8,326.6,239.1,311.4,231.8,299.6z"/>
	<linearGradient id="SVGID_6_" gradientUnits="userSpaceOnUse" x1="113.9193" y1="285.5553" x2="129.3158" y2="290.8262">
		<stop  offset="0" style="stop-color:#F0EFF3"/>
		<stop  offset="1" style="stop-color:#E0E0E4"/>
	</linearGradient>
	<path class="st9" d="M137.8,253.6l-2.2-16.7l-29,70.9l-3,29.6c3.9,1.8,8,3.4,12,4.9c1.3-10,2.3-17.2,2.6-19
		C125.9,274.5,137.8,253.6,137.8,253.6z"/>
	<linearGradient id="SVGID_7_" gradientUnits="userSpaceOnUse" x1="164.5487" y1="306.7306" x2="188.6845" y2="306.7306">
		<stop  offset="0" style="stop-color:#E0E0E4"/>
		<stop  offset="1" style="stop-color:#F0EFF3"/>
	</linearGradient>
	<path class="st10" d="M177.4,286.5c0.1-0.6,3.6-2.5,6.6-7.2c3-4.7,4.7-12.3,4.7-12.3l-3.2-6.5c-19.7,19.7-13.1,39.8-13.3,49
		l-7.7,43.2c3.1,0.2,6.2,0.3,9.3,0.4c0.2-2.1,0.3-3.9,0.5-5C175.6,338.3,176.5,291.4,177.4,286.5z"/>
	<linearGradient id="SVGID_8_" gradientUnits="userSpaceOnUse" x1="207.8615" y1="291.5435" x2="238.0387" y2="291.5435">
		<stop  offset="0" style="stop-color:#E0E0E4"/>
		<stop  offset="1" style="stop-color:#F0EFF3"/>
	</linearGradient>
	<path class="st11" d="M222.2,232.8c0,0-7,73-8.5,76.5c-0.6,1.3-3.1,18.9-5.8,41c10.4-1.9,20.5-4.6,30.2-8.2l-3.3-106.1L222.2,232.8
		z"/>
	<path class="st6" d="M310,292l1.3-31.8c0,0-52.4-13.1-58.2-17.2c-5.7-4-31-14.5-31-14.5s5.8,12.9,6.1,20.9
		c0.3,7.1-4.8,71.2-7.7,98.1C255.9,338.4,286.9,318.7,310,292z"/>
	<linearGradient id="SVGID_9_" gradientUnits="userSpaceOnUse" x1="180.2209" y1="296.5643" x2="182.7064" y2="205.8466">
		<stop  offset="0" style="stop-color:#E0E0E4"/>
		<stop  offset="1" style="stop-color:#F0EFF3"/>
	</linearGradient>
	<path class="st12" d="M171.9,256.9l-29.6-15.4l-11.1,5.4c0.7,27,3.3,38,3.3,38c1.2-0.5,31.4-25.7,31.4-25.7l9.4,1.1
		c0,0,17.5,23.9,23.2,31.7c9.8-9.4,33.6-49.4,33.6-49.4l-47.1,16.2L171.9,256.9z"/>
	<path class="st6" d="M121.9,274.3c5.5-14.5,2.5-34.6,2.5-34.6c-32.3,13.3-52.9,20.5-64.5,24.6c-1.6,15.8-1,29.2,0.8,45.5
		c13,11.4,27.8,20.8,43.8,28c0.7-5,1.1-8.1,1.2-8.8C106.1,324.3,118.7,282.5,121.9,274.3z"/>
	<linearGradient id="SVGID_10_" gradientUnits="userSpaceOnUse" x1="94.3814" y1="153.2549" x2="114.4753" y2="314.0062">
		<stop  offset="5.494510e-03" style="stop-color:#2B2A2D"/>
		<stop  offset="1" style="stop-color:#333236"/>
	</linearGradient>
	<path class="st13" d="M132.7,235.6l-40.9,19.4l8.3,4.5l-17,2.1c0,0,3.6,34.6,5.2,67.8c4.4,2.6,9,4.9,13.6,7.1
		c3-31.7,6.5-63.9,9.8-69.1C117.9,257.9,132.7,235.6,132.7,235.6z"/>
	<linearGradient id="SVGID_11_" gradientUnits="userSpaceOnUse" x1="112.2103" y1="257.3109" x2="129.3364" y2="370.2774">
		<stop  offset="0.2167" style="stop-color:#3F3E41"/>
		<stop  offset="0.8076" style="stop-color:#37363A"/>
		<stop  offset="1" style="stop-color:#333236"/>
	</linearGradient>
	<path class="st14" d="M138.9,236.6l-0.8-6.2l-42.5,22l16.9,6.9l-22.7,2.8c0,0,3.4,52.4,3.7,70.2c0,0,0,0,0,0
		c5.3,2.8,10.8,5.4,16.4,7.7c0.5-3.1,0.9-5.9,1.2-8.4C123,264.1,138.9,236.6,138.9,236.6z"/>
	<linearGradient id="SVGID_12_" gradientUnits="userSpaceOnUse" x1="237.3668" y1="161.2505" x2="257.2377" y2="320.2176">
		<stop  offset="5.494510e-03" style="stop-color:#2B2A2D"/>
		<stop  offset="1" style="stop-color:#333236"/>
	</linearGradient>
	<path class="st15" d="M278,260.2l-14.6-1.6l6.4-5l-15.8-8.2c0,0-11.6,52.4-22,98.8c6.3-2.1,12.4-4.5,18.4-7.2
		c0.6-1.8,1-2.8,1.2-2.9C253.2,333,278,260.2,278,260.2z"/>
	<linearGradient id="SVGID_13_" gradientUnits="userSpaceOnUse" x1="189.1037" y1="304.4025" x2="160.9508" y2="317.5991">
		<stop  offset="0" style="stop-color:#A31E22"/>
		<stop  offset="1" style="stop-color:#B3272C"/>
	</linearGradient>
	<path class="st16" d="M157.5,280.2c0,0-14.8,47.6-19.9,68.5c10.1,2.3,20.6,3.7,31.3,4.1c1.4-17.3,6.4-73.8,6.4-73.8L157.5,280.2z"
		/>
	<path class="st17" d="M156.6,283c14.3,2.7,17.8,5.7,17.8,5.7l0.9-8.6l-17.5-1.2L156.6,283z"/>
	<linearGradient id="SVGID_14_" gradientUnits="userSpaceOnUse" x1="158.2769" y1="273.5048" x2="185.7423" y2="261.7557">
		<stop  offset="0" style="stop-color:#A31E22"/>
		<stop  offset="1" style="stop-color:#B3272C"/>
	</linearGradient>
	<path class="st18" d="M170.9,254.7c-3.9-0.8-7.1,0-7.1,0c-2.6,2.1-6.8,3.5-6.8,3.5s-4.6,14.2,0.4,22.6c5.4,0.6,11.3,1.8,17.3,2.2
		c9.7-5.2,11.6-18,11.6-18l-7.7-9.2C178.6,255.8,174.8,255.4,170.9,254.7z"/>
	<linearGradient id="SVGID_15_" gradientUnits="userSpaceOnUse" x1="233.0724" y1="225.8752" x2="249.7343" y2="342.5092">
		<stop  offset="0.2167" style="stop-color:#3F3E41"/>
		<stop  offset="0.8076" style="stop-color:#37363A"/>
		<stop  offset="1" style="stop-color:#333236"/>
	</linearGradient>
	<path class="st19" d="M253.7,258.8l13.7-8.7c0,0-25-14.2-38.8-21.6c0,0-4.4,37.8-4.4,41.9c0,2.8-4.1,46.8-7.2,77.9
		c8.8-2.1,17.3-4.8,25.5-8.1c10.3-29.6,29-79.3,29-79.3L253.7,258.8z"/>
	<linearGradient id="SVGID_16_" gradientUnits="userSpaceOnUse" x1="176.1009" y1="257.4371" x2="148.9997" y2="283.1268">
		<stop  offset="0" style="stop-color:#A31E22"/>
		<stop  offset="1" style="stop-color:#B3272C"/>
	</linearGradient>
	<path class="st20" d="M166.1,253.6h-8.2c0,0-2.7,8.3-2.6,13.1c0.5-0.7,12-11.4,12-11.4l8.4,1.1l9.1,14c0,0,1.8-4.8,2.1-7.1
		c-1.7-2.3-7.1-8-7.1-8L166.1,253.6z"/>
	<path class="st5" d="M212,228.7c-4.3,4.8-21,22.7-32.2,26.5c0,0,17.8,25.9,20.1,29.5l16-21.5c0,0,14.2-21.9,14.2-30.5
		c0-9.1-9.3-24-9.3-24S216.3,223.9,212,228.7z"/>
	<path class="st5" d="M143.4,220.2c0,0-7.4,9.6-7.7,16.7c-0.2,6.2-0.4,42.6-0.4,42.6s18.8-23.1,30.8-25.9c0,0-10.8-7.6-15.6-12.6
		C145.6,236,143.4,220.2,143.4,220.2z"/>
	<linearGradient id="SVGID_17_" gradientUnits="userSpaceOnUse" x1="152.248" y1="251.5378" x2="163.5527" y2="193.0424">
		<stop  offset="0" style="stop-color:#E0E0E4"/>
		<stop  offset="1" style="stop-color:#F0EFF3"/>
	</linearGradient>
	<path class="st21" d="M149.5,239.7c-0.8-1.7-5-10.2-5.7-18.2c0,0-2.9,14.2,2.7,20c5.6,5.8,17.6,11.3,19.5,12.1
		C166.1,253.6,150.3,241.4,149.5,239.7z"/>
	<linearGradient id="SVGID_18_" gradientUnits="userSpaceOnUse" x1="199.7277" y1="231.6363" x2="233.2713" y2="254.4566">
		<stop  offset="0" style="stop-color:#E0E0E4"/>
		<stop  offset="1" style="stop-color:#F0EFF3"/>
	</linearGradient>
	<path class="st22" d="M197.2,243.5c-10,9.3-17.4,11.7-17.4,11.7s3,0.8,18.1-8.4c3.5-2.2,15.4-14.1,18-17.1c2.6-3,4.9-20.9,4.9-20.9
		s-5.8,15.1-6.9,17.1C212.9,227.9,204.4,236.8,197.2,243.5z"/>
	<linearGradient id="SVGID_19_" gradientUnits="userSpaceOnUse" x1="190.9183" y1="278.1506" x2="209.9686" y2="252.3405">
		<stop  offset="0" style="stop-color:#F0EFF3"/>
		<stop  offset="0.6143" style="stop-color:#F8F7F9"/>
		<stop  offset="1" style="stop-color:#FFFFFF"/>
	</linearGradient>
	<path class="st23" d="M186.6,265.1l13.4,19.7l12.7-17.1C202.9,272.5,186.6,265.1,186.6,265.1z"/>
	<linearGradient id="SVGID_20_" gradientUnits="userSpaceOnUse" x1="144.9709" y1="277.218" x2="121.7023" y2="238.8332">
		<stop  offset="0" style="stop-color:#F0EFF3"/>
		<stop  offset="0.6143" style="stop-color:#F8F7F9"/>
		<stop  offset="1" style="stop-color:#FFFFFF"/>
	</linearGradient>
	<path class="st24" d="M135.5,249.4l-0.2,30c1.5-1.1,13.5-14.4,13.5-14.4C137.3,261.5,135.5,249.4,135.5,249.4z"/>
	<g id="XMLID_496_">
		<linearGradient id="SVGID_21_" gradientUnits="userSpaceOnUse" x1="297.9512" y1="310.6612" x2="301.0173" y2="239.5822">
			<stop  offset="0" style="stop-color:#272628"/>
			<stop  offset="0.247" style="stop-color:#2B2A2C"/>
			<stop  offset="1" style="stop-color:#333236"/>
		</linearGradient>
		<path class="st25" d="M306.2,296.3l5.2-35.7c-13.5,13.1-17.9,28.5-24.8,54C293.5,309,300.1,302.9,306.2,296.3z"/>
		<linearGradient id="SVGID_22_" gradientUnits="userSpaceOnUse" x1="312.9881" y1="334.3592" x2="299.6474" y2="263.8229">
			<stop  offset="0" style="stop-color:#38373B"/>
			<stop  offset="1" style="stop-color:#353337"/>
		</linearGradient>
		<path class="st26" d="M319.7,279.8c-3.1-11.6-6.4-21.4-8.8-19.4c-8.2,6.7-14.6,28.4-19.4,50.1C302,301.4,311.5,291.1,319.7,279.8z
			"/>
		<linearGradient id="SVGID_23_" gradientUnits="userSpaceOnUse" x1="311.6968" y1="276.9831" x2="320.9292" y2="280.1641">
			<stop  offset="0" style="stop-color:#38373B"/>
			<stop  offset="1" style="stop-color:#333236"/>
		</linearGradient>
		<path class="st27" d="M317.2,271.1c-0.8,3.4-1.5,8.6-2.1,14.9c1.6-2,3.1-4,4.6-6.1C318.1,274.5,317.2,271.1,317.2,271.1z"/>
	</g>
	<g>
		<g>
			<path class="st28" d="M104.9,137.2c-7.5,1.4-5.8,6.5-2.6,15.4c3.2,23.7,9.3,28.5,11.9,27C118.9,177,113.9,135.5,104.9,137.2z"/>
			
				<linearGradient id="SVGID_24_" gradientUnits="userSpaceOnUse" x1="238.6585" y1="738.0349" x2="250.5264" y2="766.8255" gradientTransform="matrix(0.9787 0.1828 -0.1445 1.1336 -23.0058 -739.8387)">
				<stop  offset="0" style="stop-color:#DBA779"/>
				<stop  offset="0.4797" style="stop-color:#E4B586"/>
				<stop  offset="1" style="stop-color:#F0C999"/>
			</linearGradient>
			<path class="st29" d="M110.9,171c0,0-3.5-4.4-2.1-12.8c3.3-19.7-8.8-21.6-6.4-8c0,0,1.9-6.3,3.3-4.3c1.8,2.4-2.1,3.5-0.5,13.8
				C106.1,165.1,110.9,171,110.9,171z"/>
		</g>
		<g>
			<path class="st28" d="M245.8,137c7.5,1,6.2,6.2,3.4,15.3c-1.8,23.8-7.6,28.8-10.3,27.5C234.1,177.4,236.7,135.8,245.8,137z"/>
			
				<linearGradient id="SVGID_25_" gradientUnits="userSpaceOnUse" x1="1452.1829" y1="520.7365" x2="1464.0493" y2="549.5237" gradientTransform="matrix(-0.967 0.2279 0.2093 1.1254 1542.2284 -776.717)">
				<stop  offset="0" style="stop-color:#DBA779"/>
				<stop  offset="0.4797" style="stop-color:#E4B586"/>
				<stop  offset="1" style="stop-color:#F0C999"/>
			</linearGradient>
			<path class="st30" d="M241.7,171c0,0,3.2-4.6,1.4-12.9c-4.4-19.5,7.5-22,6-8.3c0,0-2.2-6.2-3.6-4.1c-1.7,2.5,2.3,3.4,1.3,13.8
				C246.2,165,241.7,171,241.7,171z"/>
		</g>
		<path class="st31" d="M239.9,135.9c2.2-55.8-14.9-63.3-19.8-69c-9.9-11.6-25.5-16.6-52.2-16c0,0-34.7,1.2-43.4,20.2
			c-9.3,20.3-10.9,48.3-10.1,74.5c1,31.8,1,40.3,3.8,46.9c1.3,3.1,2.9,7.3,9.1,12.2c9.9,7.8,22.9,22.5,30.9,28.9
			c3.2,2.6,24.8,8.1,41.8-3.4c8.9-6,18.2-13.7,29-24.5c4.8-4.8,7.9-12.6,7.9-16.5c0-4.5,2.7-21.4,2.5-24.7
			C238.5,146.6,239.3,151.4,239.9,135.9z"/>
		
			<radialGradient id="SVGID_26_" cx="1831.645" cy="54.0324" r="31.7496" gradientTransform="matrix(-0.9986 3.720000e-02 5.230000e-02 0.7111 2046.0909 59.8395)" gradientUnits="userSpaceOnUse">
			<stop  offset="0" style="stop-color:#F8C79C"/>
			<stop  offset="1" style="stop-color:#F7D9AB"/>
		</radialGradient>
		<path class="st32" d="M212.8,188.6c11,0.7,24.3-0.7,26.6-23.4c1.3-13-1.1-19.7-6.5-20.8c-11.5-2.2-28,2.9-34.9,6.5
			C183.4,158.5,193.4,187.3,212.8,188.6z"/>
		
			<radialGradient id="SVGID_27_" cx="90.986" cy="3.7596" r="32.9816" gradientTransform="matrix(0.9958 -6.310000e-02 9.170000e-02 0.6854 43.4456 170.0515)" gradientUnits="userSpaceOnUse">
			<stop  offset="0" style="stop-color:#F8C79C"/>
			<stop  offset="1" style="stop-color:#F7D9AB"/>
		</radialGradient>
		<path class="st33" d="M152.1,149.8c-3.1-1.2-27-6.6-34.1-4.5c-4.1,1.2-5.4,10.4-4.7,19c0.3,4.2,1.3,10.8,2.2,13.4
			c4.6,12.8,24.2,13.4,34.3,9.8C167,181.5,168,155.6,152.1,149.8z"/>
		<linearGradient id="SVGID_28_" gradientUnits="userSpaceOnUse" x1="232.1152" y1="152.7776" x2="213.08" y2="159.3414">
			<stop  offset="0" style="stop-color:#FBDBAF"/>
			<stop  offset="1" style="stop-color:#F7D9AB"/>
		</linearGradient>
		<path class="st34" d="M231.5,150.7c-2-1.1-3.5,0.5-7.6,1.9c-4,1.3-15.1,3.4-9.9,6.2c5.7,3.1,13.7-1.2,14.7-2
			C229.8,156,234,152,231.5,150.7z"/>
		<g>
			<linearGradient id="SVGID_29_" gradientUnits="userSpaceOnUse" x1="200.3727" y1="197.1917" x2="200.3363" y2="194.9801">
				<stop  offset="0" style="stop-color:#F7D9AB"/>
				<stop  offset="0.5273" style="stop-color:#F6D7A8"/>
				<stop  offset="0.8717" style="stop-color:#F3CFA0"/>
				<stop  offset="1" style="stop-color:#F1CA9A"/>
			</linearGradient>
			<path class="st35" d="M200.9,195c-0.4,0.3-0.7,0.6-1,0.9C199.8,195.9,200.3,195.6,200.9,195z"/>
			<linearGradient id="SVGID_30_" gradientUnits="userSpaceOnUse" x1="204.1816" y1="221.422" x2="203.4426" y2="176.5313">
				<stop  offset="0" style="stop-color:#F7D9AB"/>
				<stop  offset="0.5273" style="stop-color:#F6D7A8"/>
				<stop  offset="0.8717" style="stop-color:#F3CFA0"/>
				<stop  offset="1" style="stop-color:#F1CA9A"/>
			</linearGradient>
			<path class="st36" d="M196.6,177.4c11,8.9,6.6,15.3,4.3,17.6c4.2-3.6,10-7.5,9.6-9.1C209.1,180.2,196.6,177.4,196.6,177.4z"/>
			<path class="st37" d="M199.7,188.3c0,0,5.7-1.3,6.2-1.7c0.5-0.4,1-1.8,1-1.8l-3.6,1.1L199.7,188.3z"/>
			<linearGradient id="SVGID_31_" gradientUnits="userSpaceOnUse" x1="152.1026" y1="223.4295" x2="151.3465" y2="177.5016">
				<stop  offset="0" style="stop-color:#F7D9AB"/>
				<stop  offset="0.5273" style="stop-color:#F6D7A8"/>
				<stop  offset="0.8717" style="stop-color:#F3CFA0"/>
				<stop  offset="1" style="stop-color:#F1CA9A"/>
			</linearGradient>
			<path class="st38" d="M145.6,186.8c0.3,1.7,5.2,6,8.4,9.4c0,0-8.6-9.3,3.4-17.7C157.3,178.5,144.7,180.9,145.6,186.8z"/>
			<path class="st37" d="M148.5,185.1c0,0,0.5,1.4,1,1.8c0.5,0.4,6.2,1.7,6.2,1.7l-3.5-2.5L148.5,185.1z"/>
			<linearGradient id="SVGID_32_" gradientUnits="userSpaceOnUse" x1="179.5579" y1="232.7452" x2="178.4771" y2="201.537">
				<stop  offset="0" style="stop-color:#F7D9AB"/>
				<stop  offset="0.5273" style="stop-color:#F6D7A8"/>
				<stop  offset="0.8717" style="stop-color:#F3CFA0"/>
				<stop  offset="1" style="stop-color:#F1CA9A"/>
			</linearGradient>
			<path class="st39" d="M166.2,209.8c15-1.7,25.1,0.2,25.1,0.2C180,202.9,166.2,209.8,166.2,209.8z"/>
			<path class="st40" d="M149.8,185.8c0.3,0.3,0.5,0.8,0.9,0.9c7.2,3.2,7.3,6.2,10.4,7.9c10.9,5.9,23.7,4.5,32.3-0.3
				c4.9-2.7,5.6-5.9,11.5-8.2c0.8-0.3,0.9-0.9,0.9-0.9C174.3,192.9,149.8,185.8,149.8,185.8z"/>
			<path class="st41" d="M178.1,200.8c-4.3,0-8.5-0.8-8.5,0c0,0.8,3.7,2.7,8,2.7c4.3,0,8.5-1.9,8.5-2.7
				C186.1,200,182.4,200.8,178.1,200.8z"/>
			<linearGradient id="SVGID_33_" gradientUnits="userSpaceOnUse" x1="159.019" y1="195.0785" x2="198.1239" y2="195.7458">
				<stop  offset="0" style="stop-color:#E8D9D7"/>
				<stop  offset="0.1366" style="stop-color:#F0E6E4"/>
				<stop  offset="0.3932" style="stop-color:#FBF8F8"/>
				<stop  offset="0.5685" style="stop-color:#FFFFFF"/>
				<stop  offset="1" style="stop-color:#E8D3D1"/>
			</linearGradient>
			<path class="st42" d="M190.4,192.4c-2.9,0.6-8.4,1.7-13.4,1.7c-5.5,0-11.1-1-14.2-1.6c-1.3-0.2-1.9,2.1-1.9,2.1
				c4,2.9,8.8,4,16.6,4.1c10.3,0.1,16-4.4,16-4.4S192.1,192,190.4,192.4z"/>
			<linearGradient id="SVGID_34_" gradientUnits="userSpaceOnUse" x1="179.5687" y1="232.0925" x2="178.5192" y2="201.789">
				<stop  offset="0" style="stop-color:#F7D9AB"/>
				<stop  offset="0.5273" style="stop-color:#F6D7A8"/>
				<stop  offset="0.8717" style="stop-color:#F3CFA0"/>
				<stop  offset="1" style="stop-color:#F1CA9A"/>
			</linearGradient>
			<path class="st43" d="M162.4,201.9c16.5,13.1,32.2-0.9,32.2-0.9C178,209.9,162.4,201.9,162.4,201.9z"/>
			<linearGradient id="SVGID_35_" gradientUnits="userSpaceOnUse" x1="177.1563" y1="180.2789" x2="177.7832" y2="194.9076">
				<stop  offset="0" style="stop-color:#E8D9D7"/>
				<stop  offset="0.3971" style="stop-color:#EFE5E4"/>
				<stop  offset="1" style="stop-color:#FFFFFF"/>
			</linearGradient>
			<path class="st44" d="M157,187.3c0,0,0.1,2.7,2.9,3.9c1.6,0.7,5.2,3.4,19.1,3c13.9-0.4,16.6-3.8,17.3-4.4
				c1.2-1.1,1.7-2.9,1.7-2.9S177,191,157,187.3z"/>
			<path class="st45" d="M156.9,187.1c0,0,0.1,1.2,0.5,2c0.4,0.6,11.5,2.2,19.9,2.3c8.4,0.1,19.3-2.1,19.7-2.6
				c0.6-0.8,0.9-2.1,0.9-2.1S188.6,189.8,156.9,187.1z"/>
			<linearGradient id="SVGID_36_" gradientUnits="userSpaceOnUse" x1="178.7366" y1="237.8947" x2="177.7031" y2="175.1129">
				<stop  offset="0" style="stop-color:#F7D9AB"/>
				<stop  offset="0.5273" style="stop-color:#F6D7A8"/>
				<stop  offset="0.8717" style="stop-color:#F3CFA0"/>
				<stop  offset="1" style="stop-color:#F1CA9A"/>
			</linearGradient>
			<path class="st46" d="M148.1,184.9c0,0,2,1.2,1.7,0.9c0,0,24.5,7.1,56-0.6l1.7-0.9C190.4,187.2,148.1,184.9,148.1,184.9z"/>
		</g>
		<linearGradient id="SVGID_37_" gradientUnits="userSpaceOnUse" x1="139.5027" y1="158.9473" x2="111.2814" y2="152.056">
			<stop  offset="0" style="stop-color:#FBDBAF"/>
			<stop  offset="1" style="stop-color:#F7D9AB"/>
		</linearGradient>
		<path class="st47" d="M127.1,153c-4.2-1.1-5.7-2.7-7.6-1.5c-2.4,1.5,2,5.2,3.1,6c1,0.8,9.2,4.6,14.8,1.2
			C142.4,155.6,131.2,154.1,127.1,153z"/>
		<linearGradient id="SVGID_38_" gradientUnits="userSpaceOnUse" x1="209.2153" y1="155.3596" x2="207.3789" y2="133.7851">
			<stop  offset="0" style="stop-color:#F7D9AB"/>
			<stop  offset="0.517" style="stop-color:#F6D7A8"/>
			<stop  offset="0.8546" style="stop-color:#F3CFA0"/>
			<stop  offset="1" style="stop-color:#F0C999"/>
		</linearGradient>
		<path class="st48" d="M190.3,122.7c-0.8,5.4-5.8,25.4-2.7,27.3c19.9,11.7,41.7-3.1,41.7-3.1C234.9,114.2,190.3,122.7,190.3,122.7z
			"/>
		<linearGradient id="SVGID_39_" gradientUnits="userSpaceOnUse" x1="144.8202" y1="155.2378" x2="143.0317" y2="134.2261">
			<stop  offset="0" style="stop-color:#F7D9AB"/>
			<stop  offset="0.517" style="stop-color:#F6D7A8"/>
			<stop  offset="0.8546" style="stop-color:#F3CFA0"/>
			<stop  offset="1" style="stop-color:#F0C999"/>
		</linearGradient>
		<path class="st49" d="M122.9,147.4c0,0,21.1,14.1,41.5,1c3.1-2-3-19.7-3.9-25.2C160.5,123.2,122.4,112,122.9,147.4z"/>
		<g>
			<g>
				<linearGradient id="SVGID_40_" gradientUnits="userSpaceOnUse" x1="127.9958" y1="137.3023" x2="164.5079" y2="147.5816">
					<stop  offset="0" style="stop-color:#F0C999"/>
					<stop  offset="0.5203" style="stop-color:#E4B586"/>
					<stop  offset="1" style="stop-color:#DBA779"/>
				</linearGradient>
				<path class="st50" d="M145.2,132.5c-3.3-0.2-10.4,0.8-12.8,2.7c-4.2,3.3-5.7,6.3-5.4,10.1c0.1,1.1,4.6,5.4,14.3,6.1
					c7.2,0.6,18.7,0,21.4-3c1.3-1.5-0.4-7.3-0.9-9.3C160.8,135.2,155.3,133.1,145.2,132.5z"/>
				<linearGradient id="SVGID_41_" gradientUnits="userSpaceOnUse" x1="159.8367" y1="146.8256" x2="136.4297" y2="141.1758">
					<stop  offset="0" style="stop-color:#ECE7E7"/>
					<stop  offset="0.2266" style="stop-color:#F6F4F4"/>
					<stop  offset="0.5333" style="stop-color:#FDFCFC"/>
					<stop  offset="1" style="stop-color:#FFFFFF"/>
				</linearGradient>
				<path class="st51" d="M152.2,136.5c-15.5-1.9-14.5,0.4-20.8,7.6c0,0,0.1,1.1,1,2.4c0.9,1.3,3.4,3.1,6.4,3.7
					c9.9,1.9,13.1,0.5,17.3-0.4c1.8-0.4,3.8-2.1,3.8-2.8c0,0,0.3-3.2-1-6C158,138.9,156,137,152.2,136.5z"/>
				<path class="st52" d="M131.4,144.1c0,0.5,0.3,1.5,0.9,2.3c11.1-6.9,23.1-5.3,26.6-5.4c-6.3-4-15.5-3.1-20-3.6
					C133.2,136.8,131.4,144.1,131.4,144.1z"/>
				<linearGradient id="SVGID_42_" gradientUnits="userSpaceOnUse" x1="155.2384" y1="143.9933" x2="130.6247" y2="144.9778">
					<stop  offset="0" style="stop-color:#94958D"/>
					<stop  offset="1" style="stop-color:#C5C6C0"/>
				</linearGradient>
				<path class="st53" d="M146,137.4c-5,0.3-9.2,4.2-8.6,9.1c0.1,1.1,0.3,2.4,1.5,3.8c0.9,0.3,4.6,1,7.3,0.9
					c3.6,0.1,6.9-0.5,7.7-0.8c0.2-0.2,1.3-2.4,1.4-4.3C155.5,141,152,137.1,146,137.4z"/>
				<linearGradient id="SVGID_43_" gradientUnits="userSpaceOnUse" x1="140.2724" y1="138.9409" x2="165.78" y2="151.9375">
					<stop  offset="0" style="stop-color:#94958D"/>
					<stop  offset="1" style="stop-color:#C5C6C0"/>
				</linearGradient>
				<path class="st54" d="M145.6,136.8c-5.4,0.4-7.8,5-8.1,7.1c0,0,6-2.9,16.4-2.9C153.9,141,151,136.3,145.6,136.8z"/>
				<radialGradient id="SVGID_44_" cx="151.0359" cy="147.4504" r="15.6019" gradientUnits="userSpaceOnUse">
					<stop  offset="0" style="stop-color:#2A3A3B"/>
					<stop  offset="1" style="stop-color:#1C2727"/>
				</radialGradient>
				<path class="st55" d="M146.1,138.9c-3,0-5.4,2.5-5.4,5.4c0,2.9,2.5,5.3,5.5,5.2c3-0.1,5.4-2.5,5.4-5.4
					C151.6,141.1,149.1,138.8,146.1,138.9z"/>
				<linearGradient id="SVGID_45_" gradientUnits="userSpaceOnUse" x1="131.018" y1="140.0907" x2="157.7846" y2="138.8161">
					<stop  offset="0" style="stop-color:#673024"/>
					<stop  offset="0.3355" style="stop-color:#53271C"/>
					<stop  offset="0.677" style="stop-color:#462118"/>
					<stop  offset="1" style="stop-color:#421F16"/>
				</linearGradient>
				<path class="st56" d="M155.8,137.4c-5.5-3-14-2.5-19.4-0.3c-5.3,2.2-5,7-5,7s2.8-3.2,11.9-4.4s15.6,1.3,15.6,1.3
					S157.9,138.6,155.8,137.4z"/>
				<g>
					<path class="st57" d="M150.6,144.6c-1.2,0.6-1.7,1.9-1.1,3c0.6,1.1,1.9,1.5,3.1,0.9c1.2-0.6,1.7-1.9,1.1-3
						C153.1,144.4,151.7,144,150.6,144.6z"/>
					<path class="st57" d="M145.7,142.3c-0.9,0.5-1.3,1.5-0.9,2.4c0.4,0.9,1.5,1.2,2.5,0.7c0.9-0.5,1.3-1.5,0.9-2.4
						C147.7,142.2,146.6,141.9,145.7,142.3z"/>
				</g>
			</g>
			<g>
				<linearGradient id="SVGID_46_" gradientUnits="userSpaceOnUse" x1="189.6632" y1="137.8732" x2="225.2806" y2="147.9006">
					<stop  offset="0" style="stop-color:#F0C999"/>
					<stop  offset="0.5203" style="stop-color:#E4B586"/>
					<stop  offset="1" style="stop-color:#DBA779"/>
				</linearGradient>
				<path class="st58" d="M219.3,135.2c-2.4-1.8-9.5-2.9-12.8-2.7c-10.1,0.6-15.6,2.7-16.6,6.5c-0.5,2.1-2.3,7.8-0.9,9.3
					c2.8,3,14.2,3.6,21.4,3c9.6-0.7,14.2-5,14.3-6.1C225,141.5,223.5,138.5,219.3,135.2z"/>
				<linearGradient id="SVGID_47_" gradientUnits="userSpaceOnUse" x1="219.3637" y1="146.9605" x2="196.5502" y2="141.4539">
					<stop  offset="0" style="stop-color:#ECE7E7"/>
					<stop  offset="0.2266" style="stop-color:#F6F4F4"/>
					<stop  offset="0.5333" style="stop-color:#FDFCFC"/>
					<stop  offset="1" style="stop-color:#FFFFFF"/>
				</linearGradient>
				<path class="st59" d="M199.4,136.5c-3.8,0.5-5.7,2.4-6.7,4.5c-1.3,2.8-1,6-1,6c0,0.8,2,2.5,3.8,2.8c4.2,0.9,7.4,2.2,17.3,0.4
					c3.1-0.6,5.6-2.4,6.4-3.7c0.8-1.3,1-2.4,1-2.4C213.9,137,214.8,134.7,199.4,136.5z"/>
				<path class="st52" d="M212.7,137.4c-4.5,0.5-13.7-0.4-20,3.6c3.5,0.1,15.5-1.5,26.6,5.4c0.6-0.9,0.9-1.8,0.9-2.3
					C220.2,144.1,218.4,136.8,212.7,137.4z"/>
				<linearGradient id="SVGID_48_" gradientUnits="userSpaceOnUse" x1="214.3541" y1="143.9563" x2="189.7413" y2="144.9408">
					<stop  offset="0" style="stop-color:#94958D"/>
					<stop  offset="1" style="stop-color:#C5C6C0"/>
				</linearGradient>
				<path class="st60" d="M205.7,137.4c-6-0.3-9.5,3.6-9.2,8.7c0.1,1.9,1.2,4.1,1.4,4.3c0.8,0.3,4.1,0.9,7.7,0.8
					c2.7,0,6.4-0.7,7.3-0.9c1.2-1.4,1.3-2.7,1.5-3.8C214.9,141.6,210.7,137.7,205.7,137.4z"/>
				<linearGradient id="SVGID_49_" gradientUnits="userSpaceOnUse" x1="200.1409" y1="137.599" x2="229.9373" y2="152.7807">
					<stop  offset="0" style="stop-color:#94958D"/>
					<stop  offset="1" style="stop-color:#C5C6C0"/>
				</linearGradient>
				<path class="st61" d="M206,136.8c-5.4-0.4-8.3,4.2-8.3,4.2c10.4,0,16.4,2.9,16.4,2.9C213.8,141.8,211.4,137.2,206,136.8z"/>
				<radialGradient id="SVGID_50_" cx="210.2504" cy="147.4504" r="15.6019" gradientUnits="userSpaceOnUse">
					<stop  offset="0" style="stop-color:#2A3A3B"/>
					<stop  offset="1" style="stop-color:#1C2727"/>
				</radialGradient>
				<path class="st62" d="M205.5,138.9c-3-0.1-5.5,2.3-5.5,5.2c0,2.9,2.4,5.3,5.4,5.4c3,0,5.5-2.3,5.5-5.2
					C210.9,141.3,208.5,138.9,205.5,138.9z"/>
				<linearGradient id="SVGID_51_" gradientUnits="userSpaceOnUse" x1="192.4204" y1="140.6806" x2="218.9227" y2="139.4186">
					<stop  offset="0" style="stop-color:#673024"/>
					<stop  offset="0.3355" style="stop-color:#53271C"/>
					<stop  offset="0.677" style="stop-color:#462118"/>
					<stop  offset="1" style="stop-color:#421F16"/>
				</linearGradient>
				<path class="st63" d="M215.2,137.2c-5.4-2.2-14-2.8-19.4,0.3c-2.1,1.2-3.2,3.6-3.2,3.6s6.4-2.6,15.6-1.3
					c9.1,1.2,11.9,4.4,11.9,4.4S220.6,139.3,215.2,137.2z"/>
				<g>
					<path class="st57" d="M209.9,144.3c-1.3,0.2-2.2,1.3-2.1,2.7c0.1,1.3,1.3,2.2,2.6,2.1c1.3-0.2,2.2-1.3,2.1-2.7
						C212.4,145.1,211.2,144.2,209.9,144.3z"/>
					<path class="st57" d="M204.8,142.1c-1,0.1-1.7,1.1-1.6,2.1c0.1,1,1,1.8,2,1.6c1-0.1,1.7-1.1,1.6-2.1
						C206.8,142.7,205.8,142,204.8,142.1z"/>
				</g>
			</g>
		</g>
		<linearGradient id="SVGID_52_" gradientUnits="userSpaceOnUse" x1="189.9066" y1="123.5505" x2="222.4581" y2="123.5505">
			<stop  offset="0" style="stop-color:#673024"/>
			<stop  offset="0.3355" style="stop-color:#53271C"/>
			<stop  offset="0.677" style="stop-color:#462118"/>
			<stop  offset="1" style="stop-color:#421F16"/>
		</linearGradient>
		<path class="st64" d="M218.1,122.7c-11.9-3.6-17-3.3-26.1-1.8c-3.1,0.5-2.8,5.8,0.7,6.2c6.4,0.7,29.6-2.3,29.6-2.3
			S223.8,124.4,218.1,122.7z"/>
		<linearGradient id="SVGID_53_" gradientUnits="userSpaceOnUse" x1="128.4246" y1="123.5505" x2="160.976" y2="123.5505">
			<stop  offset="0" style="stop-color:#673024"/>
			<stop  offset="0.3355" style="stop-color:#53271C"/>
			<stop  offset="0.677" style="stop-color:#462118"/>
			<stop  offset="1" style="stop-color:#421F16"/>
		</linearGradient>
		<path class="st65" d="M158.8,121c-9.1-1.5-14.2-1.9-26.1,1.8c-5.6,1.7-4.1,2.1-4.1,2.1s23.1,3,29.6,2.3
			C161.6,126.8,162,121.5,158.8,121z"/>
		<linearGradient id="SVGID_54_" gradientUnits="userSpaceOnUse" x1="144.7396" y1="232.3339" x2="112.2886" y2="170.222">
			<stop  offset="0" style="stop-color:#F6D7AA"/>
			<stop  offset="1" style="stop-color:#F0C998"/>
		</linearGradient>
		<path class="st66" d="M112.5,160.1c0.5,12.3,2.4,24.4,4.1,30.2c0.4,1.5,2.1,8.1,7.9,13.5c9.6,9,22.6,19.5,22.6,19.5
			c-1.9-2.8-17.9-21.2-20.8-25.5C115.5,181.7,112.5,160.1,112.5,160.1z"/>
		<linearGradient id="SVGID_55_" gradientUnits="userSpaceOnUse" x1="209.6478" y1="234.4039" x2="240.4586" y2="171.0308">
			<stop  offset="0" style="stop-color:#F6D7AA"/>
			<stop  offset="1" style="stop-color:#FFDDB2"/>
		</linearGradient>
		<path class="st67" d="M206.8,225.4c4.1-3.2,14-11.4,22.5-19.4c4-3.8,6.6-10.6,7.7-15c1.1-4.5,2.7-30.2,2.7-30.2
			c-1.2,11.2-4.5,27.1-10.4,37.7C223.4,209.1,209.1,222.3,206.8,225.4z"/>
		<linearGradient id="SVGID_56_" gradientUnits="userSpaceOnUse" x1="168.5843" y1="12.1389" x2="176.8949" y2="143.0295">
			<stop  offset="0" style="stop-color:#F7D9AB"/>
			<stop  offset="0.4477" style="stop-color:#F3D0A1"/>
			<stop  offset="1" style="stop-color:#F0C999"/>
		</linearGradient>
		<path class="st68" d="M223.3,76.1c-24.4-17.1-89.6-0.3-96.3-0.1c-6.7,0.2-13.4,84.7-13.4,84.7s6.5-17.9,8.9-28.1
			c2.4-10.1,3.4-34.1,12-42.5c24.9-24.4,69-14,79.7-4.2c11.4,10.5,13.5,36.9,15.8,43.1c2.3,6.2,8.9,28.2,8.9,28.2
			S247.6,93.1,223.3,76.1z"/>
		<linearGradient id="SVGID_57_" gradientUnits="userSpaceOnUse" x1="170.0623" y1="26.6271" x2="180.5384" y2="186.0144">
			<stop  offset="0" style="stop-color:#673024"/>
			<stop  offset="0.3355" style="stop-color:#53271C"/>
			<stop  offset="0.677" style="stop-color:#462118"/>
			<stop  offset="1" style="stop-color:#421F16"/>
		</linearGradient>
		<path class="st69" d="M231,64.8c0,0,4.6-13.7-5.8-22.9c0,0,3.5,3.5,0,9.2c0,0-11.2-23.9-45.3-25.1l6.7,7.6c0,0-31.4-12.1-59,4.8
			c0,0,5.2,2.5,8.1,5.8c-17-1.2-25.9,8.9-30.3,19.6c0,0,10.5-5.9,19.8,1.1c0,0-18.8-3.7-25.6,15.9c0,0,11.1-11.3,18.6,0
			c0,0-12.8-1.6-19,20.4c5.2-8.1,9.1-3.5,9.1-3.5s-6.4,12.6-2,39.8c0,0,6,2.1,6.7,18.7c0,0,6.3-64.6,18.2-72.5
			c30.1-19.9,77.1-10.2,83.9-5.3c21.8,15.6,24.3,78.1,24.3,78.1s-0.1-20,6.9-19.3C246.6,137.2,262.5,79.3,231,64.8z"/>
		<linearGradient id="SVGID_58_" gradientUnits="userSpaceOnUse" x1="225.2261" y1="69.1937" x2="250.1209" y2="69.1937">
			<stop  offset="0" style="stop-color:#673024"/>
			<stop  offset="0.7397" style="stop-color:#7A3C31"/>
			<stop  offset="1" style="stop-color:#824137"/>
		</linearGradient>
		<path class="st70" d="M231,64.8c0,0,5.7-13.3-5.8-22.9c0,0,11.3,15.3,1,24.9c0,0,15.3,4.3,23.9,29.8
			C250.1,96.5,249.8,71.8,231,64.8z"/>
		<linearGradient id="SVGID_59_" gradientUnits="userSpaceOnUse" x1="179.9299" y1="38.5425" x2="225.2261" y2="38.5425">
			<stop  offset="0" style="stop-color:#824137"/>
			<stop  offset="0.2603" style="stop-color:#7A3C31"/>
			<stop  offset="1" style="stop-color:#673024"/>
		</linearGradient>
		<path class="st71" d="M179.9,26l6.7,7.6v-3.1c0,0,13.6-3.6,38.6,20.6C225.2,51.1,215.6,27.2,179.9,26z"/>
		<linearGradient id="SVGID_60_" gradientUnits="userSpaceOnUse" x1="127.6651" y1="36.631" x2="198.5028" y2="36.631">
			<stop  offset="0" style="stop-color:#824137"/>
			<stop  offset="0.2603" style="stop-color:#7A3C31"/>
			<stop  offset="1" style="stop-color:#673024"/>
		</linearGradient>
		<path class="st72" d="M127.7,38.4c4.9,2.1,8.1,5.8,8.1,5.8l-0.7-5.6c37.1-16.9,63.4,5.4,63.4,5.4
			C182.7,18.4,128.7,32.3,127.7,38.4z"/>
		<linearGradient id="SVGID_61_" gradientUnits="userSpaceOnUse" x1="105.5106" y1="53.8274" x2="135.7952" y2="53.8274">
			<stop  offset="0" style="stop-color:#824137"/>
			<stop  offset="0.2603" style="stop-color:#7A3C31"/>
			<stop  offset="1" style="stop-color:#673024"/>
		</linearGradient>
		<path class="st73" d="M105.5,63.7c0,0,4.9-2,6.8-2.1c0,0,2.5-16.3,23.5-17.4C135.8,44.2,115.2,40.3,105.5,63.7z"/>
		<linearGradient id="SVGID_62_" gradientUnits="userSpaceOnUse" x1="136.9314" y1="137.5074" x2="134.2857" y2="186.5165">
			<stop  offset="0" style="stop-color:#F7D9AB"/>
			<stop  offset="0.4477" style="stop-color:#F3D0A1"/>
			<stop  offset="1" style="stop-color:#F0C999"/>
		</linearGradient>
		<path class="st74" d="M133.7,184.4c-10.3-2.9-16.2-40.5-16.2-40.5c-5.2,12.8,9.9,53.3,18.5,52.1c8.6-1.3,18.5-19.6,18.5-19.6
			S142.7,186.9,133.7,184.4z"/>
		<linearGradient id="SVGID_63_" gradientUnits="userSpaceOnUse" x1="99.7905" y1="72.5658" x2="125.3422" y2="72.5658">
			<stop  offset="0" style="stop-color:#673024"/>
			<stop  offset="0.7397" style="stop-color:#7A3C31"/>
			<stop  offset="1" style="stop-color:#824137"/>
		</linearGradient>
		<path class="st75" d="M99.8,80.7c0,0,2.8-2.3,4.6-3.3c0,0,4.4-13.8,21-12.6C125.3,64.8,106.3,60.6,99.8,80.7z"/>
		<linearGradient id="SVGID_64_" gradientUnits="userSpaceOnUse" x1="179.1432" y1="169.7074" x2="178.2613" y2="193.5191">
			<stop  offset="0" style="stop-color:#F7D9AB"/>
			<stop  offset="0.4477" style="stop-color:#F3D0A1"/>
			<stop  offset="1" style="stop-color:#F0C999"/>
		</linearGradient>
		<path class="st76" d="M194.6,210c-4,3.3-20.7,7.6-32.2,1.2c-9.3-5.2-13.2-22.8-13.2-22.8c0.1,13.1,3.8,22.7,8.1,28.4
			c4.3,5.7,29.8,5.2,41.5-2.5c11.7-7.6,8-27.6,8-27.6C207,193,201.6,204.2,194.6,210z"/>
		<linearGradient id="SVGID_65_" gradientUnits="userSpaceOnUse" x1="221.2133" y1="128.8701" x2="218.1543" y2="185.5335">
			<stop  offset="0" style="stop-color:#F7D9AB"/>
			<stop  offset="0.4477" style="stop-color:#F3D0A1"/>
			<stop  offset="1" style="stop-color:#F0C999"/>
		</linearGradient>
		<path class="st77" d="M224.2,181.3c-8.7,4.5-21.1-2.8-21.1-2.8s14.1,27.3,24.4,14.6c10.3-12.8,7.2-55,7.2-55
			S232.8,176.8,224.2,181.3z"/>
		<linearGradient id="SVGID_66_" gradientUnits="userSpaceOnUse" x1="99.4112" y1="90.8827" x2="118.3737" y2="90.8827">
			<stop  offset="0" style="stop-color:#673024"/>
			<stop  offset="0.7397" style="stop-color:#7A3C31"/>
			<stop  offset="1" style="stop-color:#824137"/>
		</linearGradient>
		<path class="st78" d="M99.4,101.1c0,0,2.7-4,6.1-4.8c0,0-0.6-11,12.9-15.6C118.4,80.7,104.2,79.1,99.4,101.1z"/>
		<linearGradient id="SVGID_67_" gradientUnits="userSpaceOnUse" x1="175.6159" y1="101.8339" x2="178.1359" y2="302.911">
			<stop  offset="0" style="stop-color:#673024"/>
			<stop  offset="0.3355" style="stop-color:#53271C"/>
			<stop  offset="0.677" style="stop-color:#462118"/>
			<stop  offset="1" style="stop-color:#421F16"/>
		</linearGradient>
		<path class="st79" d="M234.9,138.8c-1.7,38.6-6.1,48.5-17.1,47.1c-11-1.5-11.7-6.3-17.2-9.2c-3.6-1.8-42.6-2.7-45.9-0.5
			c-5.4,3.5-6.1,10.8-19.4,11.3c-7.4,0.3-16.4-11.5-17.7-43.7c-0.4-10.1-3.6,5.4-3.6,5.4c-3.4,33.5,3.3,50.7,10,63.1
			c4.8,8.7,16.3,26.6,31.6,35c6.4,3.5,12.3,3.3,20.9,3.1c8.7-0.2,18.9-0.4,26.7-4.9c15.6-9.2,26.4-27.5,31.4-41.2
			c7.6-20.4,4.4-55.8,4.4-55.8L234.9,138.8z M200.4,207.4c-3.2,5.1-10.1,8-18.7,8.5c-15.6,1-22.2-1.4-26.1-7.6
			c-4.5-7-8-22.5-5.8-23.6c1.7-0.8,30.6,2.1,55.2-0.5C208.6,183.8,207.1,196.9,200.4,207.4z"/>
		<g>
			<linearGradient id="SVGID_68_" gradientUnits="userSpaceOnUse" x1="149.7369" y1="-31.5777" x2="150.4937" y2="68.5706">
				<stop  offset="0" style="stop-color:#673024"/>
				<stop  offset="0.3355" style="stop-color:#53271C"/>
				<stop  offset="0.677" style="stop-color:#462118"/>
				<stop  offset="1" style="stop-color:#421F16"/>
			</linearGradient>
			<path class="st80" d="M150.5,47.8c-0.2,0-0.3-0.1-0.3-0.1C150.3,47.7,150.4,47.8,150.5,47.8z"/>
			<linearGradient id="SVGID_69_" gradientUnits="userSpaceOnUse" x1="168.9664" y1="37.969" x2="172.0254" y2="86.5714">
				<stop  offset="0" style="stop-color:#673024"/>
				<stop  offset="0.3355" style="stop-color:#53271C"/>
				<stop  offset="0.677" style="stop-color:#462118"/>
				<stop  offset="1" style="stop-color:#421F16"/>
			</linearGradient>
			<path class="st81" d="M197.5,47.7c0,0,15,14.4,15.3,25.9c-7.5-4.8-28-5.3-32.1-5.2c-4-5.4-12.7-17.5-30.2-20.6
				c2,0.5,9.5,2.6,19.7,20.1c-7-0.6-19.9,4-22.7,4.6c-1.9-1.4-10.3-5.8-16.1-5.7c0,0,8.9,4.1,9.7,7.8c0,0-9.4,3.9-14.2,12
				c-13.8,23.3-13.8,75.4-13.8,75.4s4.9-18.5,7.4-31.9c2.9-15.5,3.9-33.8,9.3-41.2c13.8-18.6,64.5-22.1,85.6-8.1
				c11.6,7.8,13.6,27.9,16.9,45.3c2.9,15,7.4,36.1,7.4,36.1s0.6-59.2-13.5-79.9C226.2,82.3,217.5,57.3,197.5,47.7z"/>
		</g>
		<g>
			<linearGradient id="SVGID_70_" gradientUnits="userSpaceOnUse" x1="176.1687" y1="112.8775" x2="177.5276" y2="169.7282">
				<stop  offset="0" style="stop-color:#FFDEB3"/>
				<stop  offset="0.1957" style="stop-color:#FDDDB1"/>
				<stop  offset="1" style="stop-color:#F7D9AB"/>
			</linearGradient>
			<path class="st82" d="M182.4,150.6c0.6-12.5-3.7-14.3-7-14.2c-3.1,0.1-4.9,4.4-4.2,14c0.6,9.5-1.2,13.1-0.8,17.6
				c0.2,2,1.1,3.3,6.3,3.4c5.6,0,7.6-1.3,7.8-3.2C185.1,163,182,159.6,182.4,150.6z"/>
			<path class="st37" d="M183,174.9c7.6-1.9,10.6-0.8,10.6-0.8C189.2,170.2,183,174.9,183,174.9z"/>
			<path class="st37" d="M161.5,173.6c0,0,3.9-0.6,9.9,1.4C171.4,175,165.6,170.5,161.5,173.6z"/>
			<linearGradient id="SVGID_71_" gradientUnits="userSpaceOnUse" x1="176.4977" y1="145.2569" x2="177.4643" y2="177.3139">
				<stop  offset="0" style="stop-color:#F7D9AB"/>
				<stop  offset="0.5273" style="stop-color:#F6D7A8"/>
				<stop  offset="0.8717" style="stop-color:#F3CFA0"/>
				<stop  offset="1" style="stop-color:#F1CA9A"/>
			</linearGradient>
			<path class="st83" d="M188.9,162.2c0,3.1,0.7,5.2-0.3,7c-2.1,4-7.6,5.5-11.3,5.2c-2.8,0.3-9.3-1.1-12-5.2
				c-1.1-1.7-0.4-3.2-0.9-6.5c0,0-7.5,9.1-3,10.9c0,0,1.3-1,5-0.7c3.6,0.3,2.9,4.3,11.3,4.4c7.3,0.1,5-3.4,9.6-4.1
				c4.6-0.7,5.2,0.5,6.3,1C195.9,174.2,194.2,166.5,188.9,162.2z"/>
			<linearGradient id="SVGID_72_" gradientUnits="userSpaceOnUse" x1="176.077" y1="172.5931" x2="178" y2="158.4123">
				<stop  offset="0" style="stop-color:#FFDEB3"/>
				<stop  offset="0.2826" style="stop-color:#FBDCAF"/>
				<stop  offset="1" style="stop-color:#F7D9AB"/>
			</linearGradient>
			<path class="st84" d="M169.6,167.6c-0.3,2,2.5,4.2,7.7,4.3c5.6,0,6.9-2.2,6.4-4.1C180.9,156.7,170.8,160,169.6,167.6z"/>
		</g>
	</g>
	<linearGradient id="SVGID_73_" gradientUnits="userSpaceOnUse" x1="187.7881" y1="256.3808" x2="178.9949" y2="167.1931">
		<stop  offset="0" style="stop-color:#555657"/>
		<stop  offset="1" style="stop-color:#2B2A2D"/>
	</linearGradient>
	<path class="st85" d="M184.5,131.7c-5.8,3.4-15.2,1.7-16.8,0.5c-2-1.5-46.6-2-48.9-0.3c-1.4,1-0.1,10.3,0.2,17.6
		c0.3,7.3,0.9,11.7,4.9,14.3c4,2.6,33.5,3.7,38.4,0.3c4.9-3.4,8.3-20,8.3-20s4.6-2.9,10.9,0.1c0.8,2.7,3.6,16.4,8.3,19.4
		c4.7,3,34.5,2.3,38.4-0.3c4-2.6,4.7-7,4.9-14.3c0.3-7.3,1.6-16.6,0.2-17.6C231.2,129.7,186.7,130.5,184.5,131.7z M159.1,161.3
		c-3.5,3.2-29.5,0.1-30.6-0.3c-2.9-1-3.9-2.9-4.2-5.4c-0.2-1.6-2.3-17-0.2-18.9c2.1-1.9,41.6-1,42.5,0.5
		C168.4,140.4,162.7,158.2,159.1,161.3z M228,155.1c-0.4,2.5-1.4,4.4-4.2,5.4c-1.1,0.4-26.2,2.2-30.6,0.3
		c-4.4-1.9-9.3-20.9-7.5-24.1c0.9-1.6,40.4-2.4,42.5-0.5C230.3,138.1,228.2,153.5,228,155.1z"/>
</g>
</svg>
