<?xml version="1.0" encoding="utf-8"?>
<!-- Generator: Adobe Illustrator 23.1.0, SVG Export Plug-In . SVG Version: 6.00 Build 0)  -->
<svg version="1.1" id="Layer_1" xmlns="http://www.w3.org/2000/svg" xmlns:xlink="http://www.w3.org/1999/xlink" x="0px" y="0px"
	 viewBox="0 0 487.7 493.9" style="enable-background:new 0 0 487.7 493.9;" xml:space="preserve">
<style type="text/css">
	.st0{fill:#F5F6F6;}
	.st1{fill:#F7D4AB;}
	.st2{fill:url(#SVGID_1_);}
	.st3{fill:url(#SVGID_2_);}
	.st4{fill:url(#SVGID_3_);}
	.st5{fill:url(#SVGID_4_);}
	.st6{fill:url(#SVGID_5_);}
	.st7{fill:url(#SVGID_6_);}
	.st8{fill:url(#SVGID_7_);}
	.st9{fill:url(#SVGID_8_);}
	.st10{fill:url(#SVGID_9_);}
	.st11{fill:#F0C499;}
	.st12{fill:url(#SVGID_10_);}
	.st13{fill:url(#SVGID_11_);}
	.st14{fill:url(#SVGID_12_);}
	.st15{fill:url(#SVGID_13_);}
	.st16{fill:url(#SVGID_14_);}
	.st17{fill:url(#SVGID_15_);}
	.st18{fill:url(#SVGID_16_);}
	.st19{fill:url(#SVGID_17_);}
	.st20{fill:url(#SVGID_18_);}
	.st21{fill:#961B27;}
	.st22{fill:url(#SVGID_19_);}
	.st23{fill:url(#SVGID_20_);}
	.st24{fill:#F86D78;}
	.st25{fill:url(#SVGID_21_);}
	.st26{fill:#FF9AA2;}
	.st27{fill:url(#SVGID_22_);}
	.st28{fill:url(#SVGID_23_);}
	.st29{fill:url(#SVGID_24_);}
	.st30{fill:url(#SVGID_25_);}
	.st31{fill:url(#SVGID_26_);}
	.st32{fill:url(#SVGID_27_);}
	.st33{fill:url(#SVGID_28_);}
	.st34{fill:url(#SVGID_29_);}
	.st35{fill:url(#SVGID_30_);}
	.st36{fill:url(#SVGID_31_);}
	.st37{fill:url(#SVGID_32_);}
	.st38{fill:url(#SVGID_33_);}
	.st39{fill:url(#SVGID_34_);}
	.st40{fill:url(#SVGID_35_);}
	.st41{fill:url(#SVGID_36_);}
	.st42{fill:url(#SVGID_37_);}
	.st43{fill:url(#SVGID_38_);}
	.st44{fill:#DDDDDD;}
	.st45{fill:url(#SVGID_39_);}
	.st46{fill:url(#SVGID_40_);}
	.st47{fill:url(#SVGID_41_);}
	.st48{fill:url(#SVGID_42_);}
	.st49{fill:#FFFFFF;}
	.st50{fill:url(#SVGID_43_);}
	.st51{fill:url(#SVGID_44_);}
	.st52{fill:#391B13;}
	.st53{fill:url(#SVGID_45_);}
	.st54{fill:url(#SVGID_46_);}
	.st55{fill:url(#SVGID_47_);}
	.st56{fill:url(#SVGID_48_);}
	.st57{fill:url(#SVGID_49_);}
	.st58{fill:url(#SVGID_50_);}
	.st59{fill:url(#SVGID_51_);}
	.st60{fill:url(#SVGID_52_);}
	.st61{fill:url(#SVGID_53_);}
	.st62{fill:url(#SVGID_54_);}
	.st63{fill:url(#SVGID_55_);}
	.st64{fill:url(#SVGID_56_);}
	.st65{fill:url(#SVGID_57_);}
	.st66{fill:url(#SVGID_58_);}
	.st67{fill:url(#SVGID_59_);}
	.st68{fill:#1C1C1C;}
	.st69{fill:url(#SVGID_60_);}
	.st70{fill:url(#SVGID_61_);}
	.st71{fill:url(#SVGID_62_);}
	.st72{fill:url(#SVGID_63_);}
</style>
<g>
	<ellipse class="st0" cx="243.9" cy="247" rx="243.9" ry="247"/>
	<g>
		<g>
			<path class="st1" d="M97.1,388.7c-10.7,6.8-15.5,24.4-17.8,40.4c16.2,15,34.4,27.9,54.2,38c-1.1-18.2-2-32.4-2.2-36.8
				C130.6,416.3,109.8,380.8,97.1,388.7z"/>
			<path class="st1" d="M389.1,378.3c-13-2.5-17.7,58.4-18.9,79.9c16.8-10.3,32.2-22.6,46-36.6C408,380.2,389.1,378.3,389.1,378.3z"
				/>
			<g>
				<linearGradient id="SVGID_1_" gradientUnits="userSpaceOnUse" x1="242.1305" y1="79.4229" x2="236.7079" y2="312.1092">
					<stop  offset="0" style="stop-color:#E0B163"/>
					<stop  offset="1" style="stop-color:#A3753D"/>
				</linearGradient>
				<path class="st2" d="M326.7,91.7c-22.1-20.7-77.4-21-77.4-21C92.6,60,65.9,346.8,172.6,389.5c9,1.4,92.4,53.6,112.9,57.3
					c-8.8-14.8,18.7-54.2,41.1-85.9c19-27,37.5-73,41.3-124.7C371.4,187.9,362.4,125.2,326.7,91.7z"/>
				<linearGradient id="SVGID_2_" gradientUnits="userSpaceOnUse" x1="178.9613" y1="481.4852" x2="179.2362" y2="481.4852">
					<stop  offset="0" style="stop-color:#E0B163"/>
					<stop  offset="1" style="stop-color:#A3753D"/>
				</linearGradient>
				<path class="st3" d="M179.2,481.7l0.2-0.3c-0.1,0-0.3-0.1-0.4-0.1C179.1,481.4,179.2,481.6,179.2,481.7z"/>
				<linearGradient id="SVGID_3_" gradientUnits="userSpaceOnUse" x1="156.6879" y1="404.3029" x2="157.9204" y2="256.1672">
					<stop  offset="0" style="stop-color:#E0B163"/>
					<stop  offset="1" style="stop-color:#A3753D"/>
				</linearGradient>
				<path class="st4" d="M175.9,261.9c14.8-37.9,1.5-62.9,3-106c0,0-138.8,49.7,0.1,325.4c0.1,0,0.3,0.1,0.4,0.1l17.3-27.1
					C196.8,454.3,155.1,315.2,175.9,261.9z"/>
				<linearGradient id="SVGID_4_" gradientUnits="userSpaceOnUse" x1="199.7532" y1="293.5321" x2="326.1527" y2="293.5321">
					<stop  offset="0" style="stop-color:#E0B163"/>
					<stop  offset="1" style="stop-color:#A3753D"/>
				</linearGradient>
				<path class="st5" d="M277.5,107c-17.5,63.4-10.4,106.4,11.9,142.5c30.9,50-26.1,179.4-52.5,233.7c3.6,0,50.5-1,52.1-3
					c85-110.9,91.5-227.1,68.4-268C279.9,75,277.5,107,277.5,107z"/>
			</g>
			<g>
				<path class="st1" d="M352.6,370.8c-12.7-1.2-63.9-5.3-69.2-22.4c-6.6-21.3,1.3-48.6,1.3-48.6l-79-4c8.9,15,8.6,31,8.2,47.2
					c-0.4,17.8-53.6,30.3-71.8,32.4c-10,1.1-45.2,12.9-50.1,30.3c-3.5,12.4-5,20.7-5.5,29.9c13.7,11.8,28.7,22,44.8,30.5l264.3-25.7
					c3.2-2.6,6.3-5.2,9.4-8c-1.5-12.6-3.1-19-13.1-40.2C385.7,379.3,356.2,371.1,352.6,370.8z"/>
				<linearGradient id="SVGID_5_" gradientUnits="userSpaceOnUse" x1="211.4308" y1="324.9291" x2="280.2761" y2="399.875">
					<stop  offset="0" style="stop-color:#F0C499"/>
					<stop  offset="0.517" style="stop-color:#F1C69C"/>
					<stop  offset="0.8546" style="stop-color:#F4CEA4"/>
					<stop  offset="1" style="stop-color:#F7D4AB"/>
				</linearGradient>
				<path class="st6" d="M282.7,334c-0.4-3.9-0.9-13.8-1.1-19c-1.1,1.3-68.5-1.1-71.1-5l-7.8,0.1c0,0,2.3,25.1-1.4,43.1
					c-0.7,3.7-22.6,8.8-36.9,11.9c1,0.8,4.7,3.3,5.5,3.8c12.3,1.2,22.8,2.7,27.8,1.8c6.1-1.1,16-7,23.9-9.3
					c46.2-13.3,53-24.9,53-24.9c1.9,17.4,14.6,29,13.9,28.8c10.2,2.5,22.5,3,33.5,2.7c2.7-1.1,5.4-2.8,8.2-4.5
					c-30.7-4-40-9.3-42.2-10.9C285.8,350.8,283.5,343,282.7,334z"/>
				<linearGradient id="SVGID_6_" gradientUnits="userSpaceOnUse" x1="290.6909" y1="383.143" x2="236.4288" y2="391.1431">
					<stop  offset="0" style="stop-color:#F0C499"/>
					<stop  offset="0.517" style="stop-color:#F1C69C"/>
					<stop  offset="0.8546" style="stop-color:#F4CEA4"/>
					<stop  offset="1" style="stop-color:#F7D4AB"/>
				</linearGradient>
				<path class="st7" d="M239.5,385.9c0,0,14.5,2.6,18.4,7.2C257.8,393.1,253.6,381.4,239.5,385.9z"/>
				<linearGradient id="SVGID_7_" gradientUnits="userSpaceOnUse" x1="248.8415" y1="379.2537" x2="335.1496" y2="365.7814">
					<stop  offset="0" style="stop-color:#F0C499"/>
					<stop  offset="0.517" style="stop-color:#F1C69C"/>
					<stop  offset="0.8546" style="stop-color:#F4CEA4"/>
					<stop  offset="1" style="stop-color:#F7D4AB"/>
				</linearGradient>
				<path class="st8" d="M258.3,383.1c12.6-10,25.2-7.1,41.3-9c16.1-1.9,43.9-8.1,43.9-8.1c-7.3,1.4-69.9,3.6-75.6,5
					C262.4,372.4,258.3,383.1,258.3,383.1z"/>
				<linearGradient id="SVGID_8_" gradientUnits="userSpaceOnUse" x1="243.9992" y1="383.5429" x2="168.2201" y2="363.6455">
					<stop  offset="0" style="stop-color:#F0C499"/>
					<stop  offset="0.517" style="stop-color:#F1C69C"/>
					<stop  offset="0.8546" style="stop-color:#F4CEA4"/>
					<stop  offset="1" style="stop-color:#F7D4AB"/>
				</linearGradient>
				<path class="st9" d="M227.5,372.4c-7-2.4-60.1-5.7-69.7-4.8c0,0,67.1,6.8,80.6,15.3C238.3,383,234.4,374.8,227.5,372.4z"/>
				<linearGradient id="SVGID_9_" gradientUnits="userSpaceOnUse" x1="238.306" y1="301.5406" x2="248.3619" y2="344.141">
					<stop  offset="0" style="stop-color:#DBA379"/>
					<stop  offset="0.4916" style="stop-color:#E4B186"/>
					<stop  offset="1" style="stop-color:#F0C499"/>
				</linearGradient>
				<path class="st10" d="M202.9,341.7c46.4,14.9,78.9-19,78.9-19s0.1-11.3,1.6-20.3c-3.6-0.3-82.8-3.2-82.8-3.2
					C202,306.9,202.9,341.7,202.9,341.7z"/>
			</g>
			<path class="st11" d="M153.8,215.7c-16.5,1.5-13.1,18-6.9,33.3c4.1,10,6.2,21.4,16.7,21.4c0,0-0.9-20.2-4.2-46.8
				C159.5,223.6,156.6,215.4,153.8,215.7z"/>
			<linearGradient id="SVGID_10_" gradientUnits="userSpaceOnUse" x1="150.2085" y1="225.0814" x2="152.3599" y2="300.379">
				<stop  offset="0" style="stop-color:#DBA379"/>
				<stop  offset="0.4916" style="stop-color:#E4B186"/>
				<stop  offset="1" style="stop-color:#F0C499"/>
			</linearGradient>
			<path class="st12" d="M154,244c3.8-27.3-13.4-29.2-9.5-10.6c0,0,2.4-8.8,4.5-6.2c2.7,3.2-2.9,5,0,19.1c1.5,7.3,8.5,15.1,8.5,15.1
				S152.4,255.6,154,244z"/>
			<path class="st1" d="M255.4,103.6c-49.5-9-84.5,38.5-93.9,95.5c-5.2,32-3.6,60.2,12.2,83.8c6.4,9.6,14.4,14.2,23.6,21.7
				c5.9,4.8,15.1,15,21.3,20c5.7,4.5,11.9,8.2,19.6,8.5c23.3,0.9,38.6-17.8,45.4-24.6c23.6-23.8,45.2-32.6,40.5-98.8
				C320.5,157.7,287.8,104.8,255.4,103.6z"/>
			<linearGradient id="SVGID_11_" gradientUnits="userSpaceOnUse" x1="283.6825" y1="246.6756" x2="299.9243" y2="185.8916">
				<stop  offset="0" style="stop-color:#F7D4AB"/>
				<stop  offset="0.517" style="stop-color:#F6D2A8"/>
				<stop  offset="0.8546" style="stop-color:#F3CAA0"/>
				<stop  offset="1" style="stop-color:#F0C499"/>
			</linearGradient>
			<path class="st13" d="M282.6,182.6c-27.6,5.3-26.6,27.8-28.7,54.1c44.6,19.8,70.4-3.4,70.4-3.4s0.5-25.6-5.7-35.6
				C316.3,193.9,308.4,177.6,282.6,182.6z"/>
			
				<radialGradient id="SVGID_12_" cx="351.9113" cy="368.716" r="27.1948" gradientTransform="matrix(1.0666 0 0 1.08 -79.316 -143.8833)" gradientUnits="userSpaceOnUse">
				<stop  offset="0" style="stop-color:#F9B38E"/>
				<stop  offset="0.6086" style="stop-color:#F8C69E"/>
				<stop  offset="1" style="stop-color:#F7D4AB"/>
			</radialGradient>
			<path class="st14" d="M292.6,219.6c-13,2.8-29.4,18.8-26.6,33.8c2.8,15.1,15.5,27.7,27.8,33c16.1,6.9,27.9-15.5,30.7-43.2
				C326.1,228.1,305.6,216.8,292.6,219.6z"/>
			<linearGradient id="SVGID_13_" gradientUnits="userSpaceOnUse" x1="192.2269" y1="202.3307" x2="206.2456" y2="248.5674">
				<stop  offset="0" style="stop-color:#F0C499"/>
				<stop  offset="0.1454" style="stop-color:#F3CAA0"/>
				<stop  offset="0.483" style="stop-color:#F6D2A8"/>
				<stop  offset="1" style="stop-color:#F7D4AB"/>
			</linearGradient>
			<path class="st15" d="M198.3,183.8c-11.4-0.9-20.6,2.5-26.5,7.3c-13.7,11.1-5.7,40.3-5.7,40.3s21.4,27.1,66.5,7.9
				C229.4,218.4,234.8,186.6,198.3,183.8z"/>
			
				<radialGradient id="SVGID_14_" cx="256.088" cy="373.4754" r="31.2947" gradientTransform="matrix(1.0666 0 0 1.08 -79.316 -143.8833)" gradientUnits="userSpaceOnUse">
				<stop  offset="0" style="stop-color:#F9B38E"/>
				<stop  offset="0.6086" style="stop-color:#F8C69E"/>
				<stop  offset="1" style="stop-color:#F7D4AB"/>
			</radialGradient>
			<path class="st16" d="M192,224.4c-11.9-3.3-30.6,6.3-30.4,19.6c0.5,31.4,16.8,48,32.5,50.5c12.1,2,30.7-27.8,30.8-41.1
				C225.1,227.6,203.9,227.7,192,224.4z"/>
			<linearGradient id="SVGID_15_" gradientUnits="userSpaceOnUse" x1="300.3114" y1="238.3516" x2="316.4459" y2="238.3516">
				<stop  offset="0" style="stop-color:#FFD9B3"/>
				<stop  offset="1" style="stop-color:#F7D4AB"/>
			</linearGradient>
			<path class="st17" d="M307.8,233.6c-4.4,1.2-7.5,4.3-6.9,6.9c0.6,2.6,4.7,3.8,9.1,2.6c4.4-1.2,7.5-4.3,6.9-6.9
				C316.3,233.6,312.2,232.4,307.8,233.6z"/>
			<linearGradient id="SVGID_16_" gradientUnits="userSpaceOnUse" x1="167.4673" y1="238.8592" x2="183.577" y2="238.8592">
				<stop  offset="0" style="stop-color:#FFD9B3"/>
				<stop  offset="1" style="stop-color:#F7D4AB"/>
			</linearGradient>
			<path class="st18" d="M175.5,234.1c-4.4-0.9-8.4,0.4-8.8,3.1c-0.5,2.6,2.7,5.5,7.2,6.4c4.4,0.9,8.4-0.4,8.9-3
				C183.1,237.9,179.9,235.1,175.5,234.1z"/>
			<g>
				<linearGradient id="SVGID_17_" gradientUnits="userSpaceOnUse" x1="195.9663" y1="275.7096" x2="207.456" y2="275.7096">
					<stop  offset="0" style="stop-color:#DBA379"/>
					<stop  offset="0.4916" style="stop-color:#E4B186"/>
					<stop  offset="1" style="stop-color:#F0C499"/>
				</linearGradient>
				<path class="st19" d="M199.6,270.8c-0.9,1.7,0.3,3.4,2.5,4.2c2.2,0.7,6.2,2.4,10.9,6C209.5,275.8,200.4,269.3,199.6,270.8z"/>
				<linearGradient id="SVGID_18_" gradientUnits="userSpaceOnUse" x1="270.0701" y1="275.3381" x2="285.2884" y2="275.3381">
					<stop  offset="0" style="stop-color:#F0C499"/>
					<stop  offset="0.5084" style="stop-color:#E4B186"/>
					<stop  offset="1" style="stop-color:#DBA379"/>
				</linearGradient>
				<path class="st20" d="M272.3,281c4.5-3.9,8.4-5.9,10.5-6.7c2.1-0.9,3.2-2.7,2.2-4.3C284.1,268.5,275.5,275.6,272.3,281z"/>
				<path class="st11" d="M221.4,292.1c4.1,8.9,26.6,21.2,43.2-0.2C264.6,291.9,241,302.6,221.4,292.1z"/>
				<path class="st21" d="M240.4,277c-21.2-0.3-33.5-3.5-38.5-4.5l0,0c0.2,0.2,0.2,0.3,0.4,0.5c2.6,1.2,5.7,2,9.6,4.8
					c2.7,2,5.3,15.1,31.6,14.8c14.4-0.2,23.1-5.1,31.5-15.1c2.6-3.1,5.2-4.1,7.3-5.3c0.1-0.2,0.2-0.3,0.2-0.6
					C276.7,273.3,265.2,277.3,240.4,277z"/>
				<linearGradient id="SVGID_19_" gradientUnits="userSpaceOnUse" x1="218.7023" y1="285.9052" x2="266.5205" y2="285.9052">
					<stop  offset="0" style="stop-color:#E8D8D7"/>
					<stop  offset="0.1366" style="stop-color:#F0E5E4"/>
					<stop  offset="0.3932" style="stop-color:#FBF8F8"/>
					<stop  offset="0.5685" style="stop-color:#FFFFFF"/>
					<stop  offset="1" style="stop-color:#E8D2D1"/>
				</linearGradient>
				<path class="st22" d="M264.1,279.3c-14.8,3.4-34.9,3-42.2,1.6c-4.2-1.9-3.8,3.6-3.8,3.6c9.3,9.6,16.7,7.8,24.1,8
					c7.3,0.2,18.3-2.8,24.8-8.7C267.7,282,266.2,278.9,264.1,279.3z"/>
				<linearGradient id="SVGID_20_" gradientUnits="userSpaceOnUse" x1="203.2377" y1="280.3867" x2="278.551" y2="280.3867">
					<stop  offset="0" style="stop-color:#E8D8D7"/>
					<stop  offset="4.096527e-02" style="stop-color:#EBDEDD"/>
					<stop  offset="0.2105" style="stop-color:#F6F0F0"/>
					<stop  offset="0.3845" style="stop-color:#FDFBFB"/>
					<stop  offset="0.5685" style="stop-color:#FFFFFF"/>
					<stop  offset="0.6904" style="stop-color:#FBF8F8"/>
					<stop  offset="0.872" style="stop-color:#F1E4E3"/>
					<stop  offset="1" style="stop-color:#E8D2D1"/>
				</linearGradient>
				<path class="st23" d="M228,277.4c-4.7-0.2-7.6-0.9-13.5-2.3c0,0,1.1,1.4,1.8,3c0.9,2.1,5.4,9.2,26.5,8.9
					c15.9-0.2,24.3-6,25.5-9.4c0.7-2.1,2.2-3,2.3-3.7c0,0-4.8,2.4-16.1,3.6C243.1,278.6,238.3,277.9,228,277.4z"/>
				<path class="st24" d="M244.9,291.7c-32.4,0-21.1-13.4-42.7-18.7c0.1,0,5,2.7,10.6,9.3c6.3,7.3,11.7,18.8,29.8,18.7
					c16.4-0.2,25.4-12.2,30.6-18.9c6-7.6,9-9.9,9.1-9.9C264.8,277.1,270.6,290.9,244.9,291.7z"/>
				<linearGradient id="SVGID_21_" gradientUnits="userSpaceOnUse" x1="216.9559" y1="288.9598" x2="272.0187" y2="288.9598">
					<stop  offset="0" style="stop-color:#F96E7E"/>
					<stop  offset="3.454573e-02" style="stop-color:#FA7080"/>
					<stop  offset="0.2473" style="stop-color:#FE7A86"/>
					<stop  offset="0.5279" style="stop-color:#FF7D88"/>
					<stop  offset="0.764" style="stop-color:#FD7985"/>
					<stop  offset="0.9974" style="stop-color:#F86D7D"/>
					<stop  offset="1" style="stop-color:#F86D7D"/>
				</linearGradient>
				<path class="st25" d="M258.7,288.4c-3.6,1.3-9.7,2.8-16.5,3.1c-4.3,0.2-11.6-0.7-16.4-2.7c-5-2.6-9.4-8.1-10.4-8.8
					c1.2,1.6,8.2,19,26.4,18.6c21.1-0.5,24.9-14.8,28.6-19.1C268.7,281.3,264.2,286.4,258.7,288.4z"/>
				<path class="st26" d="M251,292.3c-2.1,0.7-9.5,1.3-9.2,2c0.3,0.8,4.7,2.3,10.2,0.7c4.3-1.2,6.3-3.7,6-4.5
					C257.8,289.8,253.1,291.5,251,292.3z"/>
				<path class="st21" d="M202.6,274.3c1.3,0.6,2.3-0.4,7.3,1.5c0,0-8.7-4.6-9.2-4.3C200.3,271.7,200.7,273.4,202.6,274.3z"/>
				<path class="st21" d="M275.3,275.3c4.4-2,5.9-1.1,7.1-1.7c1.9-0.9,2.2-2.6,1.8-2.9C283.5,270.2,275.3,275.3,275.3,275.3z"/>
				<linearGradient id="SVGID_22_" gradientUnits="userSpaceOnUse" x1="214.009" y1="279.1576" x2="272.3078" y2="279.1576">
					<stop  offset="0" style="stop-color:#E8D8D7"/>
					<stop  offset="4.664223e-02" style="stop-color:#EBDCDB"/>
					<stop  offset="0.3062" style="stop-color:#F7EFEF"/>
					<stop  offset="0.4835" style="stop-color:#FBF6F6"/>
					<stop  offset="1" style="stop-color:#E8D2D1"/>
				</linearGradient>
				<path class="st27" d="M216.4,278.2c0,0,9.2,5,28,4.9c13.6-0.1,23.9-5.3,23.9-5.3l1.1-2.5l-54.3,0.4L216.4,278.2z"/>
				<path class="st24" d="M254.6,273.7c-6.3-0.5-7,0.5-11.5,0.6c-4.4,0-7.9-1.3-13.4-0.8c-7.1,0.6-15.8,1.2-26.1-1
					c0,0,3.8,2.4,22.8,6.1c5.6,1.1,10.7,2.2,16.5,2.1c6.9,0,12.7-1.4,18.1-2.4c9.1-1.6,19.9-6.2,19.9-6.4
					C276.1,273.4,261.5,274.3,254.6,273.7z"/>
				<linearGradient id="SVGID_23_" gradientUnits="userSpaceOnUse" x1="222.1564" y1="276.4692" x2="263.8777" y2="276.4692">
					<stop  offset="0" style="stop-color:#F96E7E"/>
					<stop  offset="3.454573e-02" style="stop-color:#FA7080"/>
					<stop  offset="0.2473" style="stop-color:#FE7A86"/>
					<stop  offset="0.5279" style="stop-color:#FF7D88"/>
					<stop  offset="0.764" style="stop-color:#FD7985"/>
					<stop  offset="0.9974" style="stop-color:#F86D7D"/>
					<stop  offset="1" style="stop-color:#F86D7D"/>
				</linearGradient>
				<path class="st28" d="M251,274.3c-1.6,0.4-7.2,0.7-9.1,0.7c-1.9,0-7-0.9-8.6-0.9c-1.5,0-11,0.8-11.2,1.5c-0.5,2,21.1,3.4,23,3.2
					c2-0.2,18.6-2.2,18.7-3C264,275,252.5,274,251,274.3z"/>
			</g>
			<linearGradient id="SVGID_24_" gradientUnits="userSpaceOnUse" x1="222.6207" y1="315.529" x2="251.8744" y2="315.529">
				<stop  offset="0" style="stop-color:#FFD9B3"/>
				<stop  offset="0.6815" style="stop-color:#FCD7B0"/>
				<stop  offset="1" style="stop-color:#F7D4AB"/>
			</linearGradient>
			<path class="st29" d="M242.5,311.3c-6.1-0.5-11.4,1-11.6,3.4c-0.3,2.3,4.5,4.6,10.6,5c6.1,0.5,11.3-1.1,11.6-3.4
				C253.3,314,248.6,311.8,242.5,311.3z"/>
			<path class="st11" d="M187.6,294.8c-31.4-24.6-22-68.5-22-68.5c-16.5,44.5,11.8,64.6,17.5,68.7c11.8,8.5,31.3,26,31.3,26
				C206.6,313.3,202.4,306.3,187.6,294.8z"/>
			<linearGradient id="SVGID_25_" gradientUnits="userSpaceOnUse" x1="243.8717" y1="329.4739" x2="250.1191" y2="386.9509">
				<stop  offset="0" style="stop-color:#DBA379"/>
				<stop  offset="0.4916" style="stop-color:#E4B186"/>
				<stop  offset="1" style="stop-color:#F0C499"/>
			</linearGradient>
			<path class="st30" d="M217.6,323.8c0,0,19.3,27.5,51.1-1.2C268.8,322.7,243.2,344.2,217.6,323.8z"/>
			<path class="st11" d="M273.8,107.9c0,0-73.1-21.6-96,36.5c-24.2,61.4-19,93-17.4,107.4c0,0,5.6-35.4,13-46.3
				c0,0,22.2-20.1,38.9-46.6c33.4-53,66.9-44.6,78.2-27.7c18.3,27.4,26.3,65.6,35.4,110.2c0,0-0.4-42.8-8.1-71.4
				C309,137.8,299.5,113.7,273.8,107.9z"/>
			<path class="st11" d="M332.1,216.3c-2.8-0.2-8.2,7.3-8.2,7.3c-3.2,26.6-4.2,46.8-4.2,46.8c10.5,0,12.6-11.4,16.7-21.4
				C342.7,233.6,346.4,217.1,332.1,216.3z"/>
			<linearGradient id="SVGID_26_" gradientUnits="userSpaceOnUse" x1="338.9699" y1="467.2466" x2="341.092" y2="541.5187">
				<stop  offset="0" style="stop-color:#DBA379"/>
				<stop  offset="0.4916" style="stop-color:#E4B186"/>
				<stop  offset="1" style="stop-color:#F0C499"/>
			</linearGradient>
			<path class="st31" d="M329.4,244c1.6,11.6-3.5,17.5-3.5,17.5s7.1-7.7,8.5-15.1c2.8-14.1-2.7-15.9,0-19.1c2.2-2.6,4.5,6.2,4.5,6.2
				C342.7,214.8,325.6,216.7,329.4,244z"/>
			<path class="st1" d="M316.4,186.7c-15.8-10.1-25.9-5.6-25.9-5.6c31.1,4.4,29.3,37.6,29.3,37.6S325.6,192.5,316.4,186.7z"/>
			<linearGradient id="SVGID_27_" gradientUnits="userSpaceOnUse" x1="322.9684" y1="209.6879" x2="308.1033" y2="374.7287">
				<stop  offset="0" style="stop-color:#A3753D"/>
				<stop  offset="1" style="stop-color:#E0B163"/>
			</linearGradient>
			<path class="st32" d="M325.4,233.7l1.6-15.1c0,0-4.1-31.9-6.4-37.2C320.6,181.4,323.3,223.7,325.4,233.7z"/>
			<linearGradient id="SVGID_28_" gradientUnits="userSpaceOnUse" x1="166.197" y1="256.7151" x2="147.1328" y2="111.8281">
				<stop  offset="0" style="stop-color:#A3753D"/>
				<stop  offset="1" style="stop-color:#E0B163"/>
			</linearGradient>
			<path class="st33" d="M158.3,233.7c2.8-11.9,4.1-43.7,4.1-43.7l-6.6,22.3L158.3,233.7z"/>
			<linearGradient id="SVGID_29_" gradientUnits="userSpaceOnUse" x1="183.5553" y1="406.5055" x2="193.4122" y2="82.7011">
				<stop  offset="0" style="stop-color:#A3753D"/>
				<stop  offset="1" style="stop-color:#E0B163"/>
			</linearGradient>
			<path class="st34" d="M123.8,141.6c-7.9,17.1-26,71.7-16.3,130.4c34.3-43.3,46.4-79.7,70-93.9c32-19.3,50.8-96.2,87.3-67
				C281,98,277.6,83.7,275.9,74.2C245.6,44.4,166.3,49.3,123.8,141.6z"/>
			<linearGradient id="SVGID_30_" gradientUnits="userSpaceOnUse" x1="108.8987" y1="234.3112" x2="108.9425" y2="234.3112">
				<stop  offset="0" style="stop-color:#E0B163"/>
				<stop  offset="1" style="stop-color:#F4C381"/>
			</linearGradient>
			<path class="st35" d="M108.9,234.2c0,0.1-0.1,0.2,0,0.3C108.9,234.4,108.9,234.3,108.9,234.2z"/>
			<linearGradient id="SVGID_31_" gradientUnits="userSpaceOnUse" x1="108.9425" y1="156.9658" x2="273.2145" y2="156.9658">
				<stop  offset="0" style="stop-color:#E0B163"/>
				<stop  offset="1" style="stop-color:#F4C381"/>
			</linearGradient>
			<path class="st36" d="M242,80.1c-25-3.3-55,15.6-78,41.9c-47.6,54.7-52.5,91.1-55.1,112.2c1.3-4,32.9-51.5,73.2-96.1
				c20.9-23.3,41.8-42.4,60-45.3c18.5-3.4,30.6,8.2,31.1,8.6c-0.1-0.1-2.6-3.7-6.9-8.5C262.3,88,254.2,81.5,242,80.1z"/>
			<linearGradient id="SVGID_32_" gradientUnits="userSpaceOnUse" x1="238.3221" y1="130.4697" x2="346.9342" y2="130.4697">
				<stop  offset="0" style="stop-color:#E0B163"/>
				<stop  offset="1" style="stop-color:#F4C381"/>
			</linearGradient>
			<path class="st37" d="M288.7,93.8c-11.4,1.2-15.1,7.2-15.5,7.6c0.3-0.3,5.5-4.5,15.5-3.4c10,0.9,22.1,9.2,33.4,21.2
				c23,24.5,35.8,48.5,35.9,48.1c0,0.2-7.5-30.4-31.2-54.9C315.1,100.1,300.1,92.5,288.7,93.8z"/>
			<linearGradient id="SVGID_33_" gradientUnits="userSpaceOnUse" x1="106.3068" y1="133.1992" x2="366.8698" y2="133.1992">
				<stop  offset="0" style="stop-color:#E0B163"/>
				<stop  offset="1" style="stop-color:#F4C381"/>
			</linearGradient>
			<path class="st38" d="M332.3,95.1c-29.5-26.3-57.6-22.5-57.6-22.5S258.3,55.7,229.8,57c-111.9,5.4-123.5,152.4-123.5,152.4
				c14.8-94.4,59.9-130.1,94.9-140.5c41.6-12.4,73.3,6.5,73.3,6.5c11.9-1.7,40.4,9.8,56.2,26.8c28.4,30.5,36.1,83.8,36.1,83.8
				C365.9,148.9,353.1,113.7,332.3,95.1z"/>
			<linearGradient id="SVGID_34_" gradientUnits="userSpaceOnUse" x1="273.7865" y1="269.1658" x2="326.0181" y2="269.1658">
				<stop  offset="0" style="stop-color:#FFD9B3"/>
				<stop  offset="0.6815" style="stop-color:#FCD7B0"/>
				<stop  offset="1" style="stop-color:#F7D4AB"/>
			</linearGradient>
			<path class="st39" d="M314,219.9c17.8,27.5-0.8,57.9-15.2,71.8c-15.9,15.4-22.5,24.2-25,26.8c2.3-2.2,23.5-22.1,29.5-26.7
				c5.6-4.3,27.2-27.3,21.8-56.2C325.2,235.6,321.8,223.7,314,219.9z"/>
			<linearGradient id="SVGID_35_" gradientUnits="userSpaceOnUse" x1="266.0046" y1="185.4391" x2="319.1712" y2="185.4391">
				<stop  offset="0" style="stop-color:#956134"/>
				<stop  offset="0.3355" style="stop-color:#81552C"/>
				<stop  offset="0.677" style="stop-color:#744E27"/>
				<stop  offset="1" style="stop-color:#704B25"/>
			</linearGradient>
			<path class="st40" d="M274,183.2c-6.4,3.1-11,11.6-5.4,9.8c5.6-1.9,26.2-9.8,30.7-9.9c7-0.2,17.3,3.5,20,5.3
				c0,0-12.5-9.8-20.2-10.6C291.3,176.9,277.4,181.6,274,183.2z"/>
			<linearGradient id="SVGID_36_" gradientUnits="userSpaceOnUse" x1="164.3171" y1="185.1709" x2="217.8631" y2="185.1709">
				<stop  offset="0" style="stop-color:#704B25"/>
				<stop  offset="0.323" style="stop-color:#744E27"/>
				<stop  offset="0.6645" style="stop-color:#81552C"/>
				<stop  offset="1" style="stop-color:#956134"/>
			</linearGradient>
			<path class="st41" d="M210.3,183.2c-3.5-1.5-18.7-6.1-26.4-5c-7.6,1.2-19.7,11.7-19.7,11.7c2.6-1.8,13.4-6.6,19.8-6.4
				c4.5,0.1,25.4,7,31.1,8.6C220.8,193.7,216.9,185.9,210.3,183.2z"/>
			<g>
				<linearGradient id="SVGID_37_" gradientUnits="userSpaceOnUse" x1="216.7238" y1="206.4537" x2="174.7032" y2="222.7724">
					<stop  offset="0" style="stop-color:#F0C499"/>
					<stop  offset="0.5084" style="stop-color:#E4B186"/>
					<stop  offset="1" style="stop-color:#DBA379"/>
				</linearGradient>
				<path class="st42" d="M191.4,197.6c-6.2,0.5-19.4,2.8-19.3,14.7c0.2,15,15.6,18.5,22.5,18.6c8.7,0.1,14.8-2.5,20-4.1
					c3.8-1.2,5.9-1.6,7.8-2C221.9,213.2,217.1,197.6,191.4,197.6z"/>
				<linearGradient id="SVGID_38_" gradientUnits="userSpaceOnUse" x1="206.3319" y1="217.1351" x2="220.8952" y2="217.1351">
					<stop  offset="0" style="stop-color:#FFFFFF"/>
					<stop  offset="0.4667" style="stop-color:#FDFCFC"/>
					<stop  offset="0.7734" style="stop-color:#F6F4F4"/>
					<stop  offset="1" style="stop-color:#ECE7E7"/>
				</linearGradient>
				<path class="st43" d="M206.7,206.6c2.6,2.4,5.6,6.9,5.8,10.9c0.2,4.7-1.5,7.2-4.6,10.1c3.9-1.1,7.7-3,13.3-3.8
					C221.2,223.8,215.8,212.1,206.7,206.6z"/>
				<path class="st44" d="M207.4,208.3c2.5,2,4.3,4.8,4.9,7.9c4.5,2.7,7.3,6,9,7.5C221.2,223.8,215.7,212.4,207.4,208.3z"/>
				<linearGradient id="SVGID_39_" gradientUnits="userSpaceOnUse" x1="179.7253" y1="216.7074" x2="191.8432" y2="216.7074">
					<stop  offset="0" style="stop-color:#FFFFFF"/>
					<stop  offset="0.4667" style="stop-color:#FDFCFC"/>
					<stop  offset="0.7734" style="stop-color:#F6F4F4"/>
					<stop  offset="1" style="stop-color:#ECE7E7"/>
				</linearGradient>
				<path class="st45" d="M196,204.3c-6.3,0.6-14,3.9-23.3,11.7c0,0,5.3,11.2,20.3,13.2c-3.5-2.4-6.1-5.4-6.3-10.3
					C186.4,212.1,190.4,206.2,196,204.3z"/>
				<linearGradient id="SVGID_40_" gradientUnits="userSpaceOnUse" x1="220.4205" y1="235.6485" x2="185.4453" y2="210.811">
					<stop  offset="0" style="stop-color:#B89C8C"/>
					<stop  offset="1" style="stop-color:#715241"/>
				</linearGradient>
				<path class="st46" d="M212.3,215.9c-9-6.1-18.6-6.2-25.9-3.6c-1,2.1-1.5,4.4-1.3,6.9c0.3,4.7,2.9,7.6,6.6,9.9
					c5.8,1,15.2-1,16.3-1.5c3.2-2.7,4.9-5.6,4.6-10.1C212.4,216.9,212.4,216.5,212.3,215.9z"/>
				<path class="st44" d="M175.1,216.3l1.8,3.3c0,0,3.5-2.9,8.7-5.1c1-3.1,3.2-5.7,6.1-7.4C185,208.4,178.8,211.6,175.1,216.3z"/>
				<linearGradient id="SVGID_41_" gradientUnits="userSpaceOnUse" x1="246.6041" y1="238.2385" x2="210.3551" y2="218.86">
					<stop  offset="0" style="stop-color:#B89C8C"/>
					<stop  offset="1" style="stop-color:#715241"/>
				</linearGradient>
				<path class="st47" d="M207.4,208.3c-1.1-0.6-2.3-1-3.6-1.2c-3.9-0.8-8.1-0.7-12.1,0.1c-2.9,1.6-5.2,4.2-6.2,7.4
					c3.9-1.6,8.8-3,14-2.5c5.2,0.5,9.5,2.2,12.8,4.2C211.9,213.1,209.9,210.3,207.4,208.3z"/>
				
					<radialGradient id="SVGID_42_" cx="258.666" cy="334.5272" r="9.3288" gradientTransform="matrix(1.0666 0 0 1.08 -79.316 -143.8833)" gradientUnits="userSpaceOnUse">
					<stop  offset="0" style="stop-color:#2A3A3B"/>
					<stop  offset="1" style="stop-color:#1C2727"/>
				</radialGradient>
				<path class="st48" d="M198.4,208c-4.8,0.4-8.3,4.4-8,9.1c0.3,4.7,4.5,8.1,9.3,7.8c4.8-0.4,8.4-4.4,8-9.1
					C207.3,211.1,203.1,207.6,198.4,208z"/>
				<path class="st49" d="M200.8,213.2c-1.2-0.6-2.6-0.1-3.2,1.1c-0.6,1.2-0.1,2.7,1,3.3c1.2,0.6,2.6,0.1,3.2-1.1
					C202.4,215.3,201.9,213.8,200.8,213.2z"/>
				<path class="st49" d="M208.7,216.5c-1.6-0.8-3.6-0.2-4.4,1.4c-0.8,1.6-0.1,3.6,1.5,4.4c1.6,0.8,3.6,0.2,4.4-1.4
					C211,219.3,210.3,217.3,208.7,216.5z"/>
				<linearGradient id="SVGID_43_" gradientUnits="userSpaceOnUse" x1="166.5332" y1="215.4695" x2="220.9117" y2="215.4695">
					<stop  offset="0" style="stop-color:#391B13"/>
					<stop  offset="0.343" style="stop-color:#3D1D15"/>
					<stop  offset="0.7056" style="stop-color:#4A2319"/>
					<stop  offset="1" style="stop-color:#5A2A1F"/>
				</linearGradient>
				<path class="st50" d="M182.2,204.8c-8,4.1-15.1,0.5-15.3,0.5c0.1,0.3-1.1,9.5,5.6,11.8c0,0.1,0.1,0.5,0.2,1
					c-2.9-0.2-3.6,1.4-4.4,2.2c0,0.1,2.7-1.5,8.7,2.9c3.9,2.8,10,6,16.4,6.2c-8.7-3.4-13-5.5-17.5-12.6c7.1-6.1,15.6-8.4,24-8
					c12.1,0.7,21.4,15.1,21.4,15.1C217.3,208.2,205.1,195.4,182.2,204.8z"/>
				<linearGradient id="SVGID_44_" gradientUnits="userSpaceOnUse" x1="195.8878" y1="198.6581" x2="220.6824" y2="233.9215">
					<stop  offset="0" style="stop-color:#DBA379"/>
					<stop  offset="0.4916" style="stop-color:#E4B186"/>
					<stop  offset="1" style="stop-color:#F0C499"/>
				</linearGradient>
				<path class="st51" d="M204.9,198.9c-8.4-2.9-16.8-1.6-23.2,0.7c0,0,13.6-2.6,22.7,0.9c9.1,3.5,12.8,7.4,12.8,7.4
					S213.3,201.8,204.9,198.9z"/>
				<path class="st52" d="M201.5,207.4c-19.8-2-25.7,9.3-25.7,9.3c4.9-3.9,13.8-9,25-7.9c11.2,1.1,20.3,15,20.3,15
					S216.2,209,201.5,207.4z"/>
			</g>
			<g>
				<linearGradient id="SVGID_45_" gradientUnits="userSpaceOnUse" x1="242.1351" y1="270.8401" x2="242.0175" y2="257.7891">
					<stop  offset="0" style="stop-color:#F7D4AB"/>
					<stop  offset="0.517" style="stop-color:#F6D2A8"/>
					<stop  offset="0.8546" style="stop-color:#F3CAA0"/>
					<stop  offset="1" style="stop-color:#F0C499"/>
				</linearGradient>
				<path class="st53" d="M242.5,267c3-0.4,15.7-8.8,15.7-8.8l-32.4,0C225.8,258.1,239.5,267.4,242.5,267z"/>
				<g>
					<linearGradient id="SVGID_46_" gradientUnits="userSpaceOnUse" x1="245.9465" y1="257.8103" x2="234.9358" y2="229.3954">
						<stop  offset="0" style="stop-color:#FFD9B3"/>
						<stop  offset="1" style="stop-color:#F7D4AB"/>
					</linearGradient>
					<path class="st54" d="M242.1,244.5c-8.6,0.2-11,2.4-10.4,4.8c1.5,5.6,5.2,6.7,10.6,6.7c5.7,0,10.1-1.3,10.9-7.4
						C253.4,246.7,250.7,244.2,242.1,244.5z"/>
					<linearGradient id="SVGID_47_" gradientUnits="userSpaceOnUse" x1="258.953" y1="255.4719" x2="248.1426" y2="260.8236">
						<stop  offset="0" style="stop-color:#DBA379"/>
						<stop  offset="0.4916" style="stop-color:#E4B186"/>
						<stop  offset="1" style="stop-color:#F0C499"/>
					</linearGradient>
					<path class="st55" d="M247.8,259.6c0,0,15.8,0.2,10.7-5C256.8,252.8,247.8,259.6,247.8,259.6z"/>
					<linearGradient id="SVGID_48_" gradientUnits="userSpaceOnUse" x1="225.5616" y1="256.0554" x2="237.114" y2="260.7619">
						<stop  offset="0" style="stop-color:#DBA379"/>
						<stop  offset="0.4916" style="stop-color:#E4B186"/>
						<stop  offset="1" style="stop-color:#F0C499"/>
					</linearGradient>
					<path class="st56" d="M225.9,255.3c-5.3,4.5,11.4,4.3,11.4,4.3S227.7,253.7,225.9,255.3z"/>
					<path class="st11" d="M242.2,257.5c-16-0.2-17.8-8.2-20-3.1c-0.9,2.1,0.8,2.7,3.6,3.7c0,0-0.9-2.3,2.7-2.1
						c2.6,0.2,4.7,5.8,13.9,5.5c9.9-0.3,11.2-5.3,13.7-5.4c2.3-0.1,2.1,2.1,2.1,2.1s4.7-2.4,2.9-4.6
						C257.9,249.5,256.9,257.7,242.2,257.5z"/>
				</g>
			</g>
			<g>
				<linearGradient id="SVGID_49_" gradientUnits="userSpaceOnUse" x1="308.9591" y1="205.2826" x2="260.6919" y2="224.0272">
					<stop  offset="0" style="stop-color:#DBA379"/>
					<stop  offset="0.4916" style="stop-color:#E4B186"/>
					<stop  offset="1" style="stop-color:#F0C499"/>
				</linearGradient>
				<path class="st57" d="M291.8,196.7c-25.8,0-30.5,15.6-31,27.1c1.9,0.4,4,0.8,7.8,2c5.2,1.6,11.2,4.2,20,4.1
					c6.9-0.1,22.3-3.6,22.5-18.6C311.3,199.5,298.1,197.2,291.8,196.7z"/>
				<linearGradient id="SVGID_50_" gradientUnits="userSpaceOnUse" x1="261.6794" y1="216.2336" x2="276.2427" y2="216.2336">
					<stop  offset="0" style="stop-color:#FFFFFF"/>
					<stop  offset="0.4667" style="stop-color:#FDFCFC"/>
					<stop  offset="0.7734" style="stop-color:#F6F4F4"/>
					<stop  offset="1" style="stop-color:#ECE7E7"/>
				</linearGradient>
				<path class="st58" d="M262,222.9c5.6,0.8,9.4,2.8,13.3,3.8c-3-2.8-4.8-5.4-4.6-10.1c0.2-4,3.3-8.5,5.8-10.9
					C267.4,211.2,262,222.9,262,222.9z"/>
				<path class="st44" d="M262,222.9c1.6-1.6,4.5-4.8,9-7.5c0.6-3.2,2.3-6,4.9-7.9C267.5,211.5,262,222.9,262,222.9z"/>
				<linearGradient id="SVGID_51_" gradientUnits="userSpaceOnUse" x1="294.2287" y1="215.8058" x2="306.3463" y2="215.8058">
					<stop  offset="0" style="stop-color:#FFFFFF"/>
					<stop  offset="0.4667" style="stop-color:#FDFCFC"/>
					<stop  offset="0.7734" style="stop-color:#F6F4F4"/>
					<stop  offset="1" style="stop-color:#ECE7E7"/>
				</linearGradient>
				<path class="st59" d="M296.5,218c-0.2,4.9-2.8,7.9-6.3,10.3c15-2,20.3-13.2,20.3-13.2c-9.3-7.8-17-11.1-23.3-11.7
					C292.9,205.3,296.8,211.2,296.5,218z"/>
				<linearGradient id="SVGID_52_" gradientUnits="userSpaceOnUse" x1="301.5951" y1="228.7816" x2="267.5085" y2="207.4775">
					<stop  offset="0" style="stop-color:#B89C8C"/>
					<stop  offset="1" style="stop-color:#715241"/>
				</linearGradient>
				<path class="st60" d="M270.9,215c-0.1,0.6-0.2,1-0.2,1.6c-0.3,4.5,1.4,7.4,4.6,10.1c1.1,0.5,10.5,2.5,16.3,1.5
					c3.7-2.3,6.4-5.2,6.6-9.9c0.1-2.5-0.4-4.8-1.3-6.9C289.5,208.8,279.9,208.9,270.9,215z"/>
				<path class="st44" d="M291.5,206.2c2.9,1.6,5.1,4.2,6.1,7.4c5.3,2.2,8.7,5.1,8.7,5.1l1.8-3.3
					C304.4,210.7,298.2,207.5,291.5,206.2z"/>
				<linearGradient id="SVGID_53_" gradientUnits="userSpaceOnUse" x1="329.7634" y1="216.5214" x2="285.5802" y2="211.2832">
					<stop  offset="0" style="stop-color:#B89C8C"/>
					<stop  offset="1" style="stop-color:#715241"/>
				</linearGradient>
				<path class="st61" d="M291.5,206.2c-4-0.8-8.2-0.8-12.1-0.1c-1.2,0.2-2.4,0.7-3.6,1.2c-2.5,2-4.5,4.7-4.9,7.9
					c3.3-2,7.6-3.7,12.8-4.2c5.2-0.5,10.1,0.8,14,2.5C296.8,210.4,294.4,207.9,291.5,206.2z"/>
				
					<radialGradient id="SVGID_54_" cx="338.5741" cy="333.6923" r="9.3286" gradientTransform="matrix(1.0666 0 0 1.08 -79.316 -143.8833)" gradientUnits="userSpaceOnUse">
					<stop  offset="0" style="stop-color:#2A3A3B"/>
					<stop  offset="1" style="stop-color:#1C2727"/>
				</radialGradient>
				<path class="st62" d="M284.8,207.1c-4.8-0.4-8.9,3.1-9.2,7.8c-0.4,4.7,3.2,8.7,8,9.1c4.8,0.4,8.9-3.1,9.3-7.8
					C293.2,211.5,289.6,207.4,284.8,207.1z"/>
				<path class="st49" d="M286.3,212.1c-1.1-0.7-2.6-0.2-3.3,0.9c-0.7,1.2-0.3,2.7,0.8,3.3c1.1,0.7,2.6,0.2,3.3-0.9
					C287.8,214.2,287.5,212.7,286.3,212.1z"/>
				<path class="st49" d="M294.1,215.6c-1.6-0.9-3.5-0.4-4.4,1.1c-0.9,1.6-0.4,3.6,1.2,4.5c1.5,0.9,3.5,0.4,4.4-1.1
					C296.2,218.5,295.6,216.5,294.1,215.6z"/>
				<linearGradient id="SVGID_55_" gradientUnits="userSpaceOnUse" x1="261.6959" y1="214.5678" x2="316.0743" y2="214.5678">
					<stop  offset="0" style="stop-color:#5A2A1F"/>
					<stop  offset="0.2944" style="stop-color:#4A2319"/>
					<stop  offset="0.657" style="stop-color:#3D1D15"/>
					<stop  offset="1" style="stop-color:#391B13"/>
				</linearGradient>
				<path class="st63" d="M316.3,204.3c-0.1,0.1-7.2,3.6-15.3-0.5c-22.9-9.4-35.1,3.4-39.1,19c0,0,9.2-14.4,21.4-15.1
					c8.4-0.5,16.9,1.9,24,8c-4.5,7.1-8.8,9.2-17.5,12.6c6.4-0.2,12.6-3.4,16.4-6.2c5.9-4.4,8.6-2.9,8.7-2.9
					c-0.8-0.8-1.5-2.4-4.4-2.2c0.1-0.5,0.2-0.8,0.2-1C317.4,213.9,316.3,204.7,316.3,204.3z"/>
				<linearGradient id="SVGID_56_" gradientUnits="userSpaceOnUse" x1="286.0834" y1="199.8533" x2="249.7278" y2="246.1241">
					<stop  offset="0" style="stop-color:#DBA379"/>
					<stop  offset="0.4916" style="stop-color:#E4B186"/>
					<stop  offset="1" style="stop-color:#F0C499"/>
				</linearGradient>
				<path class="st64" d="M278.3,198c-8.4,2.9-12.3,9-12.3,9s3.7-3.9,12.8-7.4c9.1-3.5,22.7-0.9,22.7-0.9
					C295.1,196.4,286.7,195.1,278.3,198z"/>
				<path class="st52" d="M281.7,206.5c-14.7,1.5-19.7,16.4-19.7,16.4s9.1-13.9,20.3-15c11.2-1.1,20.1,4,25,7.9
					C307.4,215.8,301.5,204.5,281.7,206.5z"/>
			</g>
			<linearGradient id="SVGID_57_" gradientUnits="userSpaceOnUse" x1="372.2832" y1="450.574" x2="396.5981" y2="357.9966">
				<stop  offset="0" style="stop-color:#F0C499"/>
				<stop  offset="0.517" style="stop-color:#F1C69C"/>
				<stop  offset="0.8546" style="stop-color:#F4CEA4"/>
				<stop  offset="1" style="stop-color:#F7D4AB"/>
			</linearGradient>
			<path class="st65" d="M385.4,377.3c0,0-17.1,71.4-17.3,78.7c0,0.7,0,2,0,3.6c3.3-2,6.5-4,9.6-6.1c2-22.2,6.1-52.4,14.7-74.1
				C388.9,377.7,385.4,377.3,385.4,377.3z"/>
			<linearGradient id="SVGID_58_" gradientUnits="userSpaceOnUse" x1="91.6842" y1="361.9001" x2="92.8217" y2="463.6978">
				<stop  offset="0" style="stop-color:#FFD9B3"/>
				<stop  offset="0.6815" style="stop-color:#FCD7B0"/>
				<stop  offset="1" style="stop-color:#F7D4AB"/>
			</linearGradient>
			<path class="st66" d="M90,396.1c-5.2,8.7-8.4,20.8-10.3,33.4c8.1,7.5,16.7,14.4,25.8,20.7C104.8,413,100.8,378.2,90,396.1z"/>
			<linearGradient id="SVGID_59_" gradientUnits="userSpaceOnUse" x1="124.6876" y1="467.8495" x2="97.6939" y2="357.8581">
				<stop  offset="0" style="stop-color:#F0C499"/>
				<stop  offset="0.517" style="stop-color:#F1C69C"/>
				<stop  offset="0.8546" style="stop-color:#F4CEA4"/>
				<stop  offset="1" style="stop-color:#F7D4AB"/>
			</linearGradient>
			<path class="st67" d="M97.1,388.7c11,17.2,16.9,44,20.1,69.3c4.7,2.9,9.4,5.6,14.3,8.1c-8.3-48.6-24.6-82-24.6-82
				C101.4,385.9,97.1,388.7,97.1,388.7z"/>
			<path class="st68" d="M371.4,457.5c3.4-55,17.9-79.7,17.9-79.7l-63.8-15.9c-97,41.9-156.5,0.9-156.5,0.9l-67.3,22.7
				c11.7,14.2,18.7,46,22.8,76.8c35.3,20.1,76,31.6,119.4,31.6C290.6,493.9,334.3,480.6,371.4,457.5z"/>
			<g>
				<linearGradient id="SVGID_60_" gradientUnits="userSpaceOnUse" x1="294.3757" y1="113.3474" x2="358.4766" y2="450.1165">
					<stop  offset="0" style="stop-color:#A3753D"/>
					<stop  offset="1" style="stop-color:#E0B163"/>
				</linearGradient>
				<path class="st69" d="M366.9,325.1c25.3-115.8-37.1-184.6-49.3-201.2c-13.4-18.3-37.9-34.7-53.1-13.1c0,0,12.6-6.2,28.9,8.1
					c69.6,85.3,59.5,138.3,43.4,204.1c-16,65.5-56.5,78.8-18.8,155.3c-0.2-0.4-0.2-0.4,0,0C304.2,385.9,349.4,404.8,366.9,325.1z"/>
				<linearGradient id="SVGID_61_" gradientUnits="userSpaceOnUse" x1="369.6443" y1="85.0231" x2="337.7433" y2="368.2666">
					<stop  offset="0" style="stop-color:#A3753D"/>
					<stop  offset="1" style="stop-color:#E0B163"/>
				</linearGradient>
				<path class="st70" d="M350.7,308.2c-7.3,47.7-28.5,72.5-28.5,72.5s31.1-24.8,35.8-65.4c4.7-40.8-3.3-83.1-3.3-83.1
					S353.6,289.2,350.7,308.2z"/>
			</g>
			<linearGradient id="SVGID_62_" gradientUnits="userSpaceOnUse" x1="216.211" y1="113.6314" x2="118.5739" y2="351.0234">
				<stop  offset="0" style="stop-color:#A3753D"/>
				<stop  offset="1" style="stop-color:#E0B163"/>
			</linearGradient>
			<path class="st71" d="M252.4,102.4c-30.4-8.3-52.5,38.1-65.8,54c-41.3,49.3-141.2,127.8-46.2,226.9
				C84,278.8,151.7,232.5,197.2,164.9c11.8-17.6,18.5-28.9,28.4-40.5c9.6-11.7,15.3-15.9,24.2-16.6c8.2-0.6,14.7,3,15,3.2
				C264.2,110.7,260.2,104.6,252.4,102.4z"/>
			<linearGradient id="SVGID_63_" gradientUnits="userSpaceOnUse" x1="401.448" y1="356.611" x2="400.8911" y2="469.0356">
				<stop  offset="0" style="stop-color:#FFD9B3"/>
				<stop  offset="0.6815" style="stop-color:#FCD7B0"/>
				<stop  offset="1" style="stop-color:#F7D4AB"/>
			</linearGradient>
			<path class="st72" d="M399.5,385.3c-13-8.2-14.5,25-12.4,61.5c10.2-7.5,19.9-15.8,28.8-24.8C411.8,400.3,405.2,388.9,399.5,385.3
				z"/>
		</g>
	</g>
</g>
</svg>
