<?xml version="1.0" encoding="utf-8"?>
<!-- Generator: Adobe Illustrator 23.1.0, SVG Export Plug-In . SVG Version: 6.00 Build 0)  -->
<svg version="1.1" id="Layer_1" xmlns="http://www.w3.org/2000/svg" xmlns:xlink="http://www.w3.org/1999/xlink" x="0px" y="0px"
	 viewBox="0 0 487.7 493.9" style="enable-background:new 0 0 487.7 493.9;" xml:space="preserve">
<style type="text/css">
	.st0{fill:#F5F6F6;}
	.st1{fill:url(#SVGID_1_);}
	.st2{fill:#F7D4AB;}
	.st3{fill:url(#SVGID_2_);}
	.st4{fill:url(#SVGID_3_);}
	.st5{fill:#78A7C8;}
	.st6{fill:url(#SVGID_4_);}
	.st7{fill:url(#SVGID_5_);}
	.st8{fill:#4C7194;}
	.st9{fill:url(#SVGID_6_);}
	.st10{fill:url(#SVGID_7_);}
	.st11{fill:url(#SVGID_8_);}
	.st12{fill:url(#SVGID_9_);}
	.st13{fill:url(#SVGID_10_);}
	.st14{fill:url(#SVGID_11_);}
	.st15{fill:url(#SVGID_12_);}
	.st16{fill:url(#SVGID_13_);}
	.st17{fill:url(#SVGID_14_);}
	.st18{fill:url(#SVGID_15_);}
	.st19{fill:url(#SVGID_16_);}
	.st20{fill:url(#SVGID_17_);}
	.st21{fill:url(#SVGID_18_);}
	.st22{fill:url(#SVGID_19_);}
	.st23{fill:url(#SVGID_20_);}
	.st24{fill:url(#SVGID_21_);}
	.st25{fill:url(#SVGID_22_);}
	.st26{fill:url(#SVGID_23_);}
	.st27{fill:url(#SVGID_24_);}
	.st28{fill:#F0C499;}
	.st29{fill:url(#SVGID_25_);}
	.st30{fill:url(#SVGID_26_);}
	.st31{fill:url(#SVGID_27_);}
	.st32{fill:url(#SVGID_28_);}
	.st33{fill:url(#SVGID_29_);}
	.st34{fill:url(#SVGID_30_);}
	.st35{fill:url(#SVGID_31_);}
	.st36{fill:url(#SVGID_32_);}
	.st37{fill:url(#SVGID_33_);}
	.st38{fill:#E1B18C;}
	.st39{fill:url(#SVGID_34_);}
	.st40{fill:#711E22;}
	.st41{fill:#FDD8B3;}
	.st42{fill:url(#SVGID_35_);}
	.st43{fill:url(#SVGID_36_);}
	.st44{fill:url(#SVGID_37_);}
	.st45{fill:#F3ECEB;}
	.st46{fill:url(#SVGID_38_);}
	.st47{fill:url(#SVGID_39_);}
	.st48{fill:url(#SVGID_40_);}
	.st49{fill:url(#SVGID_41_);}
	.st50{fill:url(#SVGID_42_);}
	.st51{fill:url(#SVGID_43_);}
	.st52{fill:#DDDDDD;}
	.st53{fill:url(#SVGID_44_);}
	.st54{fill:url(#SVGID_45_);}
	.st55{fill:url(#SVGID_46_);}
	.st56{fill:url(#SVGID_47_);}
	.st57{fill:#FFFFFF;}
	.st58{fill:url(#SVGID_48_);}
	.st59{fill:url(#SVGID_49_);}
	.st60{fill:url(#SVGID_50_);}
	.st61{fill:url(#SVGID_51_);}
	.st62{fill:url(#SVGID_52_);}
	.st63{fill:url(#SVGID_53_);}
	.st64{fill:url(#SVGID_54_);}
	.st65{fill:url(#SVGID_55_);}
	.st66{fill:url(#SVGID_56_);}
	.st67{fill:url(#SVGID_57_);}
	.st68{fill:url(#SVGID_58_);}
	.st69{fill:#A89383;}
	.st70{fill:url(#SVGID_59_);}
	.st71{fill:url(#SVGID_60_);}
	.st72{fill:url(#SVGID_61_);}
	.st73{fill:url(#SVGID_62_);}
	.st74{fill:url(#SVGID_63_);}
	.st75{fill:#DCA57B;}
	.st76{fill:url(#SVGID_64_);}
	.st77{fill:url(#SVGID_65_);}
	.st78{fill:url(#SVGID_66_);}
	.st79{fill:url(#SVGID_67_);}
	.st80{fill:url(#SVGID_68_);}
	.st81{fill:url(#SVGID_69_);}
	.st82{fill:url(#SVGID_70_);}
	.st83{fill:url(#SVGID_71_);}
	.st84{fill:url(#SVGID_72_);}
	.st85{fill:url(#SVGID_73_);}
	.st86{fill:url(#SVGID_74_);}
	.st87{fill:url(#SVGID_75_);}
	.st88{fill:url(#SVGID_76_);}
	.st89{fill:url(#SVGID_77_);}
	.st90{fill:url(#SVGID_78_);}
	.st91{fill:url(#SVGID_79_);}
	.st92{fill:url(#SVGID_80_);}
</style>
<g>
	<ellipse class="st0" cx="243.9" cy="247" rx="243.9" ry="247"/>
	<g>
		<linearGradient id="SVGID_1_" gradientUnits="userSpaceOnUse" x1="201.9965" y1="366.2466" x2="319.7196" y2="389.8309">
			<stop  offset="0" style="stop-color:#F0C499"/>
			<stop  offset="1" style="stop-color:#F7D4AB"/>
		</linearGradient>
		<path class="st1" d="M298.8,345.3c-0.8-4-3.9-45.2-3.9-45.2l-99.7-4.4l-0.2,49.2c-9.3,6.8-29.7,13.6-29.7,13.6
			c-1.4,16,35.3,102.2,79,100.1c56.5-2.8,82.1-100.1,82.1-100.1S299.7,349.4,298.8,345.3z"/>
		<path class="st2" d="M224.8,367.4c-5.8-3.8-15.6-12.2-15.6-12.2c2.7,14.9,14.6,46.1,40,43.7c21.5-2.1,33.4-28.4,36-43.9
			C270.7,373.4,244.3,380.1,224.8,367.4z"/>
		<linearGradient id="SVGID_2_" gradientUnits="userSpaceOnUse" x1="255.8849" y1="402.7625" x2="274.9669" y2="455.7505">
			<stop  offset="0" style="stop-color:#F0C499"/>
			<stop  offset="0.5084" style="stop-color:#E4B186"/>
			<stop  offset="1" style="stop-color:#DBA379"/>
		</linearGradient>
		<path class="st3" d="M218.4,395.5l29.3,43.5l38.6-48.5c0,0-31.3,15.3-35.2,16.6C247.3,408.4,218.4,395.5,218.4,395.5z"/>
		<linearGradient id="SVGID_3_" gradientUnits="userSpaceOnUse" x1="202.4928" y1="254.8525" x2="265.9012" y2="364.5682">
			<stop  offset="0" style="stop-color:#DBA379"/>
			<stop  offset="0.4916" style="stop-color:#E4B186"/>
			<stop  offset="1" style="stop-color:#F0C499"/>
		</linearGradient>
		<path class="st4" d="M298.8,317.1l0.2-1.1l-103-1.8l-1.1-0.8c0,0-2.4,21.7,7.5,47c0,0-2.2-15.2-1.9-28c7.7,11.1,28.7,29.7,51.9,27
			c22.5-2.6,33-17.9,40.2-27.2c0.4,7.5,0.4,17.9-1.2,29.6c0,0,11.3-31.4,8.1-45L298.8,317.1z"/>
		<path class="st5" d="M243.9,493.9c73.8,0,140-33.2,184.7-85.7l2.9-14.1c-2.9-1.2-125.6-47.1-125.6-47.1l-13.6,43.1
			c0,0-32.4,18.3-45.1,50c-11.1-33.7-44.9-50.6-44.9-50.6L187.1,347c-21.3,6.8-127.4,47.1-127.4,47.1l4.1,19.3
			C108.4,462.9,172.6,493.9,243.9,493.9z"/>
		<linearGradient id="SVGID_4_" gradientUnits="userSpaceOnUse" x1="243.0119" y1="489.7001" x2="265.0755" y2="250.742">
			<stop  offset="0" style="stop-color:#78A7C8"/>
			<stop  offset="0.7912" style="stop-color:#9EC4DF"/>
			<stop  offset="1" style="stop-color:#A9CCE6"/>
		</linearGradient>
		<path class="st6" d="M119.2,453.8c-1.6,0.7-3,1.6-4.3,2.7c37.4,23.7,81.6,37.4,129,37.4c49.4,0,95.3-14.9,133.7-40.4
			c-0.8-1.3-1.7-2.5-2.6-3.5C357.7,431.4,146.1,441.8,119.2,453.8z"/>
		<g>
			<linearGradient id="SVGID_5_" gradientUnits="userSpaceOnUse" x1="242.4896" y1="461.2872" x2="251.9241" y2="473.6098">
				<stop  offset="0" style="stop-color:#4C7194"/>
				<stop  offset="0.2774" style="stop-color:#5981A3"/>
				<stop  offset="1" style="stop-color:#78A7C8"/>
			</linearGradient>
			<ellipse class="st7" cx="247.6" cy="468" rx="4.9" ry="4.9"/>
		</g>
		<path class="st8" d="M246.9,463.3c-2.3,0-4.1,1.8-4.1,4.1c0,2.3,1.9,4.1,4.1,4.1c2.3,0,4.1-1.8,4.1-4.1
			C251,465.2,249.2,463.3,246.9,463.3z"/>
		<path class="st5" d="M431.5,394.1l-3.1,14.3c2.8-3.3,5.6-6.7,8.2-10.2C433.6,395.1,431.5,394.1,431.5,394.1z"/>
		<linearGradient id="SVGID_6_" gradientUnits="userSpaceOnUse" x1="232.4492" y1="494.0451" x2="456.2173" y2="325.3429">
			<stop  offset="0" style="stop-color:#B4D1E7"/>
			<stop  offset="0.276" style="stop-color:#B0CFE5"/>
			<stop  offset="0.5228" style="stop-color:#A6C7E0"/>
			<stop  offset="0.7583" style="stop-color:#93BAD6"/>
			<stop  offset="0.9859" style="stop-color:#7AA8C9"/>
			<stop  offset="1" style="stop-color:#78A7C8"/>
		</linearGradient>
		<path class="st9" d="M431.5,394.1c-12.6-6-98.5-37-98.5-37s77,35,96.2,47.1c0.5,0.3,1,0.7,1.5,1.2c2.1-2.6,4.2-5.2,6.2-7.8
			C435.2,396.1,433.3,395,431.5,394.1z"/>
		<linearGradient id="SVGID_7_" gradientUnits="userSpaceOnUse" x1="59.7436" y1="405.9146" x2="67.5591" y2="405.9146">
			<stop  offset="0" style="stop-color:#4C7194"/>
			<stop  offset="0.2774" style="stop-color:#5981A3"/>
			<stop  offset="1" style="stop-color:#78A7C8"/>
		</linearGradient>
		<path class="st10" d="M63.6,413.2c1.3,1.5,2.6,2.9,4,4.3c-4-12-7.8-23.3-7.8-23.3S61.2,401.8,63.6,413.2z"/>
		<path class="st5" d="M52.7,400.2c3.6,4.6,7.4,9.1,11.4,13.5L59.7,394C59.7,394,56.7,395.5,52.7,400.2z"/>
		<linearGradient id="SVGID_8_" gradientUnits="userSpaceOnUse" x1="-186.2905" y1="598.2094" x2="240.0159" y2="276.8104">
			<stop  offset="0" style="stop-color:#B4D1E7"/>
			<stop  offset="0.276" style="stop-color:#B0CFE5"/>
			<stop  offset="0.5228" style="stop-color:#A6C7E0"/>
			<stop  offset="0.7583" style="stop-color:#93BAD6"/>
			<stop  offset="0.9859" style="stop-color:#7AA8C9"/>
			<stop  offset="1" style="stop-color:#78A7C8"/>
		</linearGradient>
		<path class="st11" d="M61.9,404.2c19.3-12.1,97.9-47.5,97.9-47.5S72.3,388,59.7,394c-2.5,1.2-5,2.8-7.6,5.5
			c2.1,2.7,4.2,5.3,6.4,7.9C59.7,406,60.8,404.9,61.9,404.2z"/>
		<linearGradient id="SVGID_9_" gradientUnits="userSpaceOnUse" x1="300.4446" y1="318.675" x2="300.4446" y2="318.675">
			<stop  offset="0" style="stop-color:#71A6C5"/>
			<stop  offset="0.5992" style="stop-color:#97BFD7"/>
			<stop  offset="1" style="stop-color:#B3D2E5"/>
		</linearGradient>
		<path class="st12" d="M300.4,318.7"/>
		<linearGradient id="SVGID_10_" gradientUnits="userSpaceOnUse" x1="282.4579" y1="436.8821" x2="280.6517" y2="385.0181">
			<stop  offset="0" style="stop-color:#78A7C8"/>
			<stop  offset="0.7226" style="stop-color:#5981A3"/>
			<stop  offset="1" style="stop-color:#4C7194"/>
		</linearGradient>
		<path class="st13" d="M260.7,413.9l-15.6,32.9l-5.9,23.2c0,0,5.8-15.2,13.7-25.7c7.9-10.5,13.4-18.3,13.4-18.3l23-6.6l37.3,8.3
			l-6.1-50.6L260.7,413.9z"/>
		<linearGradient id="SVGID_11_" gradientUnits="userSpaceOnUse" x1="206.0838" y1="439.5545" x2="204.2789" y2="387.7277">
			<stop  offset="0" style="stop-color:#78A7C8"/>
			<stop  offset="0.7226" style="stop-color:#5981A3"/>
			<stop  offset="1" style="stop-color:#4C7194"/>
		</linearGradient>
		<polygon class="st14" points="202.3,389.6 167.7,427.8 206.3,418.9 230.7,422.6 244.3,445 238.2,415.2 		"/>
		<linearGradient id="SVGID_12_" gradientUnits="userSpaceOnUse" x1="208.0587" y1="300.509" x2="206.5109" y2="459.9144">
			<stop  offset="0" style="stop-color:#78A7C8"/>
			<stop  offset="0.7912" style="stop-color:#9EC4DF"/>
			<stop  offset="1" style="stop-color:#A9CCE6"/>
		</linearGradient>
		<path class="st15" d="M212.8,390.2c-2.5-5.8-17.3-33.1-16.8-76.7c0,0-7.3,4.4-11.8,11.7c-7.5,12.1-18.8,29-18.8,29v75.5l38.2-30.4
			l33.8,19.9l7.6,27.7c1.2-1.9,2.4-3.9,3.7-5.9c-2.2-7.6-4.1-25.7-5.5-29C241.8,408.4,215.4,396,212.8,390.2z"/>
		<linearGradient id="SVGID_13_" gradientUnits="userSpaceOnUse" x1="285.4752" y1="301.274" x2="283.9276" y2="460.6652">
			<stop  offset="0" style="stop-color:#78A7C8"/>
			<stop  offset="0.7912" style="stop-color:#9EC4DF"/>
			<stop  offset="1" style="stop-color:#A9CCE6"/>
		</linearGradient>
		<path class="st16" d="M296.8,313.4c0.5,43.6-12.7,70.9-15.3,76.7c-2.5,5.8-24.8,19.2-26.4,22.8c-1.5,3.6-8.8,27.5-11.3,33.2
			c-2.5,5.6-4.6,23.8-4.6,23.8l8.1-24.3l15.5-27.8l27.9-18.7l38.2,30.4v-73.1c0,0-14.6-22.8-19.5-29.8
			C304.3,319.5,296.8,313.4,296.8,313.4z"/>
		<linearGradient id="SVGID_14_" gradientUnits="userSpaceOnUse" x1="291.3534" y1="411.66" x2="291.3534" y2="300.2352">
			<stop  offset="0" style="stop-color:#78A7C8"/>
			<stop  offset="0.2605" style="stop-color:#74A2C4"/>
			<stop  offset="0.5476" style="stop-color:#6A95B7"/>
			<stop  offset="0.8463" style="stop-color:#587FA2"/>
			<stop  offset="1" style="stop-color:#4C7194"/>
		</linearGradient>
		<path class="st17" d="M296.8,318.4c-0.6,40.4-14.3,69.5-16.3,73.3c4.1-4.3,12.5-19.1,19-43.9c6.5-24.8-0.5-31.8-0.5-31.8
			L296.8,318.4z"/>
		<linearGradient id="SVGID_15_" gradientUnits="userSpaceOnUse" x1="202.829" y1="411.66" x2="202.829" y2="300.2352">
			<stop  offset="0" style="stop-color:#78A7C8"/>
			<stop  offset="0.2605" style="stop-color:#74A2C4"/>
			<stop  offset="0.5476" style="stop-color:#6A95B7"/>
			<stop  offset="0.8463" style="stop-color:#587FA2"/>
			<stop  offset="1" style="stop-color:#4C7194"/>
		</linearGradient>
		<path class="st18" d="M196,316.1l-2.2-0.4c0,0-2.3,4.2-2.1,11.6c0.6,19.8,6.9,46.6,22.2,64.5C208.8,384,195.3,343.1,196,316.1z"/>
		<linearGradient id="SVGID_16_" gradientUnits="userSpaceOnUse" x1="240.5905" y1="415.4901" x2="234.8481" y2="583.1679">
			<stop  offset="0" style="stop-color:#4C7194"/>
			<stop  offset="0.2774" style="stop-color:#5981A3"/>
			<stop  offset="1" style="stop-color:#78A7C8"/>
		</linearGradient>
		<path class="st19" d="M241.8,453l-5.6,16.4c-0.1,1.3,0.1,10.2,0.3,24.4c1.1,0,2.2,0.1,3.2,0.1l-0.6-23.9L241.8,453z"/>
		<linearGradient id="SVGID_17_" gradientUnits="userSpaceOnUse" x1="320.4452" y1="303.1844" x2="318.3299" y2="445.3243">
			<stop  offset="0" style="stop-color:#78A7C8"/>
			<stop  offset="0.6549" style="stop-color:#9EC2DC"/>
			<stop  offset="1" style="stop-color:#B4D1E7"/>
		</linearGradient>
		<path class="st20" d="M323.8,417.3c-2.5,0.2-15.3-3.9-15.3-3.9l20.4,16.2v-36.4C328.9,393.2,326.4,417.2,323.8,417.3z"/>
		<linearGradient id="SVGID_18_" gradientUnits="userSpaceOnUse" x1="177.207" y1="342.014" x2="175.7372" y2="440.7784">
			<stop  offset="0" style="stop-color:#78A7C8"/>
			<stop  offset="0.6549" style="stop-color:#9EC2DC"/>
			<stop  offset="1" style="stop-color:#B4D1E7"/>
		</linearGradient>
		<path class="st21" d="M170,419c-1.5-0.5-4.6-14.7-4.6-14.7l0.1,25.3l21.6-17.2C187.1,412.4,171.5,419.5,170,419z"/>
		<linearGradient id="SVGID_19_" gradientUnits="userSpaceOnUse" x1="267.967" y1="396.9441" x2="260.8481" y2="604.8181">
			<stop  offset="0" style="stop-color:#4C7194"/>
			<stop  offset="0.2774" style="stop-color:#5981A3"/>
			<stop  offset="1" style="stop-color:#78A7C8"/>
		</linearGradient>
		<path class="st22" d="M264,468c0.7-2.6,8.4-51.1,8.4-51.1s-10.1,47.5-11.8,51.1c-0.3,0.5-0.3,9.9-0.2,25.3
			c1.1-0.1,2.2-0.2,3.3-0.2C263.7,478,263.8,468.8,264,468z"/>
		<linearGradient id="SVGID_20_" gradientUnits="userSpaceOnUse" x1="218.4291" y1="387.4828" x2="220.0539" y2="463.0357">
			<stop  offset="0" style="stop-color:#4C7194"/>
			<stop  offset="0.2774" style="stop-color:#5981A3"/>
			<stop  offset="1" style="stop-color:#78A7C8"/>
		</linearGradient>
		<path class="st23" d="M202.8,412.2c0,0,18.5,12.6,18.9,13.5c0.4,1,14.4,37.5,14.4,37.5s-10-37.5-11.4-38.1
			C223.5,424.6,202.8,412.2,202.8,412.2z"/>
		<linearGradient id="SVGID_21_" gradientUnits="userSpaceOnUse" x1="239.5361" y1="458.7047" x2="240.2863" y2="493.5906">
			<stop  offset="0" style="stop-color:#78A7C8"/>
			<stop  offset="0.6549" style="stop-color:#9EC2DC"/>
			<stop  offset="1" style="stop-color:#B4D1E7"/>
		</linearGradient>
		<path class="st24" d="M239.8,493.8c0.4,0,0.7,0,1.1,0c-0.5-7.8-1.1-15.7-1.7-23.9L239.8,493.8z"/>
		<linearGradient id="SVGID_22_" gradientUnits="userSpaceOnUse" x1="300.9363" y1="297.1285" x2="291.1384" y2="387.6302">
			<stop  offset="0" style="stop-color:#78A7C8"/>
			<stop  offset="0.6549" style="stop-color:#9EC2DC"/>
			<stop  offset="1" style="stop-color:#B4D1E7"/>
		</linearGradient>
		<path class="st25" d="M299.5,316.8c0,0,3.9,9.9,1.7,23.3c-1.5,9.2-11,39.5-20.7,51.6c0,0,13.6-8.8,25.4-51.6
			C311.3,320.5,299.5,316.8,299.5,316.8z"/>
		<linearGradient id="SVGID_23_" gradientUnits="userSpaceOnUse" x1="196.8562" y1="313.3975" x2="196.8417" y2="313.5319">
			<stop  offset="0" style="stop-color:#78A7C8"/>
			<stop  offset="0.6549" style="stop-color:#9EC2DC"/>
			<stop  offset="1" style="stop-color:#B4D1E7"/>
		</linearGradient>
		<path class="st26" d="M196.7,313.5c0.1-0.1,0.2-0.1,0.2-0.1S196.9,313.5,196.7,313.5z"/>
		<linearGradient id="SVGID_24_" gradientUnits="userSpaceOnUse" x1="207.5265" y1="295.0461" x2="197.8118" y2="384.7795">
			<stop  offset="0" style="stop-color:#78A7C8"/>
			<stop  offset="0.6549" style="stop-color:#9EC2DC"/>
			<stop  offset="1" style="stop-color:#B4D1E7"/>
		</linearGradient>
		<path class="st27" d="M196.7,313.5c-1.3,0.6-9.7,5.1-9.6,15.5c0.1,11.6,6.2,47.7,26.8,62.7c0,0-17-19.1-21.1-52.4
			C190.1,318.2,195.6,314.1,196.7,313.5z"/>
		<path class="st5" d="M259.4,414.6c-1.1,1.1-12.1,31-12.1,31l15.5-27.8l27.9-18.7l-4.3-3.2C286.3,396,260.5,413.6,259.4,414.6z"/>
		<path class="st5" d="M208.2,396l-4.5,3.2l33.8,19.9l6.8,24.8c0,0-4.2-28.2-5.1-29.3C238.3,413.6,208.2,396,208.2,396z"/>
		<g>
			<path class="st28" d="M144.6,195.7c-10.7,2-8.4,9.4-3.7,22.3c4.5,34.4,13.3,41.2,17,39.1C164.7,253.3,157.6,193.3,144.6,195.7z"
				/>
			
				<linearGradient id="SVGID_25_" gradientUnits="userSpaceOnUse" x1="98.4932" y1="1036.6742" x2="115.6838" y2="1078.3774" gradientTransform="matrix(0.9787 0.1828 -0.1445 1.1336 196.5949 -992.8104)">
				<stop  offset="0" style="stop-color:#DBA379"/>
				<stop  offset="0.4916" style="stop-color:#E4B186"/>
				<stop  offset="1" style="stop-color:#F0C499"/>
			</linearGradient>
			<path class="st29" d="M153.3,244.6c0,0-5-6.4-3-18.5c4.7-28.5-12.5-31.3-9.2-11.6c0,0,2.7-9.1,4.8-6.2c2.6,3.5-3.1,5.1-0.7,20.1
				C146.4,236.1,153.3,244.6,153.3,244.6z"/>
		</g>
		<g>
			<path class="st28" d="M344.9,195.4c10.8,1.5,8.9,9,4.9,22.1c-2.6,34.5-10.9,41.8-14.8,39.9C328.1,253.9,331.8,193.6,344.9,195.4z
				"/>
			
				<linearGradient id="SVGID_26_" gradientUnits="userSpaceOnUse" x1="1702.3196" y1="749.5919" x2="1719.5128" y2="791.3017" gradientTransform="matrix(-0.967 0.2279 0.2093 1.1254 1835.8026 -1031.4045)">
				<stop  offset="0" style="stop-color:#DBA379"/>
				<stop  offset="0.4916" style="stop-color:#E4B186"/>
				<stop  offset="1" style="stop-color:#F0C499"/>
			</linearGradient>
			<path class="st30" d="M339,244.7c0,0,4.6-6.7,2-18.6c-6.3-28.2,10.7-31.9,8.6-12c0,0-3.2-9-5.1-6c-2.4,3.6,3.3,5,1.8,20
				C345.4,235.9,339,244.7,339,244.7z"/>
		</g>
		<linearGradient id="SVGID_27_" gradientUnits="userSpaceOnUse" x1="248.0043" y1="108.7179" x2="246.178" y2="205.8733">
			<stop  offset="0" style="stop-color:#FFD9B3"/>
			<stop  offset="0.2826" style="stop-color:#FBD7AF"/>
			<stop  offset="1" style="stop-color:#F7D4AB"/>
		</linearGradient>
		<path class="st31" d="M336.5,193.7c3.2-80.9-21.3-91.8-28.3-100c-14.2-16.8-36.5-24.1-74.7-23.2c0,0-49.7,1.8-62.1,29.3
			c-13.3,29.5-15.9,70.1-14.8,108.1c1.4,46.1,0,61.2,12.2,80.7c12.2,19.5,33.5,30.8,50.6,47c4.3,4.1,38.6,15.7,59.8-4.9
			c9.9-9.6,35.9-28.3,44.6-42c8.7-13.8,12-48.4,11.8-53.2C334.4,209.4,335.6,216.2,336.5,193.7z"/>
		
			<radialGradient id="SVGID_28_" cx="385.5396" cy="353.5152" r="36.3685" gradientTransform="matrix(1.0666 0 0 1.08 -115.6173 -143.8833)" gradientUnits="userSpaceOnUse">
			<stop  offset="0" style="stop-color:#F8C39C"/>
			<stop  offset="1" style="stop-color:#F7D4AB"/>
		</radialGradient>
		<path class="st32" d="M297.7,270.2c15.7,1.1,34.8-1,38-34c1.9-18.8-1.6-28.6-9.4-30.1c-16.5-3.1-40.1,4.2-50,9.4
			C255.6,226.5,269.8,268.3,297.7,270.2z"/>
		<linearGradient id="SVGID_29_" gradientUnits="userSpaceOnUse" x1="246.7872" y1="301.5556" x2="248.6131" y2="333.8127">
			<stop  offset="0" style="stop-color:#FFD9B3"/>
			<stop  offset="1" style="stop-color:#F7D4AB"/>
		</linearGradient>
		<path class="st33" d="M248.5,313c-5.5,0-19.1,3.8-18.7,5.8c1.2,6.1,13.9,7.2,19.3,7.1c5.5,0,16.5-1.4,16.7-6.7
			C265.9,317.2,253.9,313,248.5,313z"/>
		
			<radialGradient id="SVGID_30_" cx="283.1368" cy="354.6161" r="36.2662" gradientTransform="matrix(1.0666 0 0 1.08 -115.6173 -143.8833)" gradientUnits="userSpaceOnUse">
			<stop  offset="0" style="stop-color:#F8C39C"/>
			<stop  offset="1" style="stop-color:#F7D4AB"/>
		</radialGradient>
		<path class="st34" d="M210.8,214c-4.5-1.7-38.7-9.6-48.9-6.5c-5.8,1.7-4.9,15-3.9,27.5c0.5,6,0.4,15.7,1.7,19.5
			c6.6,18.6,33.2,19.4,47.6,14.2C232.1,259.8,233.5,222.4,210.8,214z"/>
		<linearGradient id="SVGID_31_" gradientUnits="userSpaceOnUse" x1="217.2211" y1="542.2285" x2="207.5195" y2="264.5086">
			<stop  offset="0" style="stop-color:#DBA379"/>
			<stop  offset="0.4916" style="stop-color:#E4B186"/>
			<stop  offset="1" style="stop-color:#F0C499"/>
		</linearGradient>
		<path class="st35" d="M199.5,263.9c-1.1-5.2-3.8-1.7-3.8-1.7s-2.7,27,0,31.9c2.7,4.9,27.5,22.3,27.5,22.3s-20.2-22-22.3-29.9
			C199.8,282.4,200.5,268.9,199.5,263.9z"/>
		<linearGradient id="SVGID_32_" gradientUnits="userSpaceOnUse" x1="296.0012" y1="534.1541" x2="286.5888" y2="264.7118">
			<stop  offset="0" style="stop-color:#DBA379"/>
			<stop  offset="0.4916" style="stop-color:#E4B186"/>
			<stop  offset="1" style="stop-color:#F0C499"/>
		</linearGradient>
		<path class="st36" d="M296,264c-0.9,4.8-0.1,18.3-1.2,22.3c-2.4,9-23.1,29.6-23.1,29.6s21.8-9.3,29-23.3c7.3-14-1-31.2-1-31.2
			S297.1,258.2,296,264z"/>
		<linearGradient id="SVGID_33_" gradientUnits="userSpaceOnUse" x1="325.3091" y1="218.3292" x2="298.0273" y2="227.7367">
			<stop  offset="0" style="stop-color:#FBD6AF"/>
			<stop  offset="1" style="stop-color:#F7D4AB"/>
		</linearGradient>
		<path class="st37" d="M324.5,215.2c-2.8-1.6-4.9,0.7-10.8,2.7c-5.8,1.9-21.6,4.9-14.1,9c8.2,4.5,19.7-1.7,21-2.8
			C321.9,222.9,328,217.2,324.5,215.2z"/>
		<g>
			<path class="st38" d="M286.7,267.9c0,0,10.1-2.4,11-3.1c0.9-0.7,1.7-3.3,1.7-3.3l-6.4,2L286.7,267.9z"/>
			<path class="st38" d="M195.3,262.1c0,0,0.8,2.6,1.7,3.3c0.9,0.7,11,3.1,11,3.1l-6.3-4.5L195.3,262.1z"/>
			<linearGradient id="SVGID_34_" gradientUnits="userSpaceOnUse" x1="250.7443" y1="348.127" x2="248.7944" y2="291.8243">
				<stop  offset="0" style="stop-color:#DBA379"/>
				<stop  offset="0.4916" style="stop-color:#E4B186"/>
				<stop  offset="1" style="stop-color:#F0C499"/>
			</linearGradient>
			<path class="st39" d="M226.9,306.7c26.8-3,44.8,0.3,44.8,0.3C251.4,294.2,226.9,306.7,226.9,306.7z"/>
			<path class="st40" d="M197.7,263.4c0.5,0.6,0.9,1.4,1.6,1.7c12.8,5.8,13,11.3,18.5,14.3c19.5,10.7,42.3,8.1,57.6-0.5
				c8.8-4.9,9.9-10.7,20.5-14.8c1.4-0.6,1.7-1.7,1.7-1.7C241.3,276.3,197.7,263.4,197.7,263.4z"/>
			<path class="st41" d="M248.2,290.6c-7.6,0-15.1-1.5-15.1,0c0,1.5,6.6,4.9,14.2,4.8c7.6,0,15.1-3.3,15.1-4.9
				C262.4,289.1,255.8,290.6,248.2,290.6z"/>
			<linearGradient id="SVGID_35_" gradientUnits="userSpaceOnUse" x1="214.0807" y1="280.1498" x2="283.8559" y2="281.3405">
				<stop  offset="0" style="stop-color:#E8D9D7"/>
				<stop  offset="0.1366" style="stop-color:#F0E6E4"/>
				<stop  offset="0.3932" style="stop-color:#FBF8F8"/>
				<stop  offset="0.5685" style="stop-color:#FFFFFF"/>
				<stop  offset="1" style="stop-color:#E8D3D1"/>
			</linearGradient>
			<path class="st42" d="M270.2,275.3c-5.2,1.1-14.9,3-23.8,3c-9.8,0-19.8-1.8-25.3-2.8c-2.4-0.4-3.4,3.8-3.4,3.8
				c7.2,5.3,15.8,7.3,29.6,7.4c18.4,0.1,28.5-7.9,28.5-7.9S273.2,274.6,270.2,275.3z"/>
			<linearGradient id="SVGID_36_" gradientUnits="userSpaceOnUse" x1="250.7705" y1="346.9683" x2="248.8764" y2="292.277">
				<stop  offset="0" style="stop-color:#DBA379"/>
				<stop  offset="0.4916" style="stop-color:#E4B186"/>
				<stop  offset="1" style="stop-color:#F0C499"/>
			</linearGradient>
			<path class="st43" d="M220.1,292.5c29.4,23.6,57.4-1.6,57.4-1.6C247.9,306.9,220.1,292.5,220.1,292.5z"/>
			<linearGradient id="SVGID_37_" gradientUnits="userSpaceOnUse" x1="246.4387" y1="253.4375" x2="247.5697" y2="279.8273">
				<stop  offset="0" style="stop-color:#E8D9D7"/>
				<stop  offset="0.3971" style="stop-color:#EFE5E4"/>
				<stop  offset="1" style="stop-color:#FFFFFF"/>
			</linearGradient>
			<path class="st44" d="M210.5,266.1c0,0,0.2,4.9,5.1,7c2.8,1.2,9.2,6.2,34,5.4c24.8-0.8,29.7-6.8,30.8-7.9c2.1-2,3.1-5.3,3.1-5.3
				S246.1,272.7,210.5,266.1z"/>
			<path class="st45" d="M210.4,265.6c0,0,0.2,2.2,1,3.5c0.7,1.1,20.5,4,35.5,4.1c15,0.1,34.5-3.8,35.2-4.7c1.1-1.4,1.7-3.8,1.7-3.8
				S266.8,270.6,210.4,265.6z"/>
			<linearGradient id="SVGID_38_" gradientUnits="userSpaceOnUse" x1="249.2816" y1="357.3794" x2="247.4169" y2="244.1002">
				<stop  offset="0" style="stop-color:#DBA379"/>
				<stop  offset="0.4916" style="stop-color:#E4B186"/>
				<stop  offset="1" style="stop-color:#F0C499"/>
			</linearGradient>
			<path class="st46" d="M194.6,261.8c0,0,3.6,2.1,3.1,1.5c0,0,43.6,12.9,100-1.1l3.1-1.6C270.1,265.9,194.6,261.8,194.6,261.8z"/>
		</g>
		<linearGradient id="SVGID_39_" gradientUnits="userSpaceOnUse" x1="192.7185" y1="227.1483" x2="152.2908" y2="217.2765">
			<stop  offset="0" style="stop-color:#FBD6AF"/>
			<stop  offset="1" style="stop-color:#F7D4AB"/>
		</linearGradient>
		<path class="st47" d="M175,218.6c-6-1.7-8.2-3.9-10.9-2.1c-3.4,2.2,2.9,7.6,4.4,8.7c1.4,1.1,13.2,6.7,21.1,1.7
			C196.8,222.4,180.9,220.2,175,218.6z"/>
		<linearGradient id="SVGID_40_" gradientUnits="userSpaceOnUse" x1="292.0299" y1="222.0613" x2="289.3531" y2="190.6123">
			<stop  offset="0" style="stop-color:#F7D4AB"/>
			<stop  offset="0.517" style="stop-color:#F6D2A8"/>
			<stop  offset="0.8546" style="stop-color:#F3CAA0"/>
			<stop  offset="1" style="stop-color:#F0C499"/>
		</linearGradient>
		<path class="st48" d="M265.5,174.7c-1.2,7.9-8.4,36.8-3.8,39.6c28.5,17,59.7-4.5,59.7-4.5C323.6,160.8,265.5,174.7,265.5,174.7z"
			/>
		<linearGradient id="SVGID_41_" gradientUnits="userSpaceOnUse" x1="200.3368" y1="221.8505" x2="197.7046" y2="190.9257">
			<stop  offset="0" style="stop-color:#F7D4AB"/>
			<stop  offset="0.517" style="stop-color:#F6D2A8"/>
			<stop  offset="0.8546" style="stop-color:#F3CAA0"/>
			<stop  offset="1" style="stop-color:#F0C499"/>
		</linearGradient>
		<path class="st49" d="M168.9,210.4c0,0,30.3,20.5,59.4,1.5c4.5-2.9-4.3-28.6-5.6-36.5C222.7,175.5,166.4,157.2,168.9,210.4z"/>
		<g>
			<g>
				<linearGradient id="SVGID_42_" gradientUnits="userSpaceOnUse" x1="176.235" y1="195.9224" x2="228.5301" y2="210.6451">
					<stop  offset="0" style="stop-color:#DBA379"/>
					<stop  offset="0.4916" style="stop-color:#E4B186"/>
					<stop  offset="1" style="stop-color:#F0C499"/>
				</linearGradient>
				<path class="st50" d="M200.8,188.9c-4.8-0.3-14.9,1.2-18.3,3.9c-6.1,4.8-8.2,9.1-7.7,14.6c0.2,1.6,6.6,7.8,20.4,8.9
					c10.3,0.8,26.7,0,30.7-4.4c1.9-2.1-0.5-10.5-1.3-13.5C223.2,192.8,215.3,189.7,200.8,188.9z"/>
				<linearGradient id="SVGID_43_" gradientUnits="userSpaceOnUse" x1="221.8318" y1="209.583" x2="188.3145" y2="201.4929">
					<stop  offset="0" style="stop-color:#ECE7E7"/>
					<stop  offset="0.2266" style="stop-color:#F6F4F4"/>
					<stop  offset="0.5333" style="stop-color:#FDFCFC"/>
					<stop  offset="1" style="stop-color:#FFFFFF"/>
				</linearGradient>
				<path class="st51" d="M210.9,194.7c-22.1-2.7-20.8,0.6-29.8,11c0,0,0.2,1.6,1.4,3.5c1.2,1.9,4.8,4.6,9.2,5.4
					c14.2,2.7,18.8,0.7,24.8-0.5c2.6-0.5,5.4-3,5.4-4.1c0,0,0.5-4.6-1.4-8.7C219.1,198.1,216.4,195.4,210.9,194.7z"/>
				<path class="st52" d="M181.2,205.8c0,0.7,0.5,2.1,1.3,3.3c15.9-10,33.1-7.7,38.1-7.8c-9-5.8-22.2-4.5-28.6-5.2
					C183.6,195.1,181.2,205.8,181.2,205.8z"/>
				<linearGradient id="SVGID_44_" gradientUnits="userSpaceOnUse" x1="215.2334" y1="205.5403" x2="179.9989" y2="206.9497">
					<stop  offset="0" style="stop-color:#94958D"/>
					<stop  offset="1" style="stop-color:#C5C6C0"/>
				</linearGradient>
				<path class="st53" d="M202,196c-7.2,0.4-13.2,6-12.3,13.2c0.2,1.5,0.4,3.4,2.1,5.5c1.3,0.4,6.6,1.4,10.4,1.4
					c5.1,0.2,9.8-0.7,11-1.1c0.3-0.3,1.8-3.4,2-6.2C215.6,201.2,210.5,195.6,202,196z"/>
				<linearGradient id="SVGID_45_" gradientUnits="userSpaceOnUse" x1="193.8174" y1="198.247" x2="230.32" y2="216.8456">
					<stop  offset="0" style="stop-color:#94958D"/>
					<stop  offset="1" style="stop-color:#C5C6C0"/>
				</linearGradient>
				<path class="st54" d="M201.4,195c-7.8,0.6-11.1,7.3-11.6,10.3c0,0,8.6-4.2,23.5-4.2C213.4,201.2,209.2,194.4,201.4,195z"/>
				
					<radialGradient id="SVGID_46_" cx="304.5524" cy="328.1749" r="20.9402" gradientTransform="matrix(1.0666 0 0 1.08 -115.6173 -143.8833)" gradientUnits="userSpaceOnUse">
					<stop  offset="0" style="stop-color:#2A3A3B"/>
					<stop  offset="1" style="stop-color:#1C2727"/>
				</radialGradient>
				<path class="st55" d="M202.2,198.1c-4.3,0.1-7.7,3.6-7.7,7.8c0.1,4.2,3.6,7.6,7.9,7.6c4.3-0.1,7.7-3.6,7.7-7.8
					C210,201.4,206.5,198,202.2,198.1z"/>
				<linearGradient id="SVGID_47_" gradientUnits="userSpaceOnUse" x1="181.1473" y1="199.3553" x2="220.5563" y2="199.3553">
					<stop  offset="0" style="stop-color:#3C2A25"/>
					<stop  offset="8.267516e-02" style="stop-color:#392823"/>
					<stop  offset="0.5542" style="stop-color:#2C1E1B"/>
					<stop  offset="1" style="stop-color:#281B18"/>
				</linearGradient>
				<path class="st56" d="M216,196c-7.8-4.4-20-3.6-27.8-0.4c-7.6,3.1-7.1,10.1-7.1,10.1s4-4.6,17.1-6.4c13.1-1.8,22.3,1.9,22.3,1.9
					S219.1,197.7,216,196z"/>
				<g>
					<path class="st57" d="M208.6,206.4c-1.7,0.8-2.4,2.8-1.6,4.4c0.8,1.6,2.8,2.2,4.5,1.3c1.7-0.8,2.4-2.8,1.6-4.4
						C212.2,206.1,210.2,205.5,208.6,206.4z"/>
					<path class="st57" d="M201.6,203.1c-1.3,0.7-1.9,2.2-1.3,3.4c0.6,1.2,2.2,1.7,3.5,1c1.3-0.7,1.9-2.2,1.3-3.4
						C204.5,202.9,202.9,202.5,201.6,203.1z"/>
				</g>
			</g>
			<g>
				<linearGradient id="SVGID_48_" gradientUnits="userSpaceOnUse" x1="264.4973" y1="196.7332" x2="315.5142" y2="211.096">
					<stop  offset="0" style="stop-color:#DBA379"/>
					<stop  offset="0.4916" style="stop-color:#E4B186"/>
					<stop  offset="1" style="stop-color:#F0C499"/>
				</linearGradient>
				<path class="st58" d="M306.9,192.8c-3.4-2.7-13.6-4.1-18.3-3.9c-14.5,0.8-22.3,3.8-23.8,9.5c-0.8,3-3.2,11.4-1.3,13.5
					c4,4.4,20.4,5.2,30.7,4.4c13.8-1.1,20.3-7.3,20.4-8.9C315.1,201.9,313,197.6,306.9,192.8z"/>
				<linearGradient id="SVGID_49_" gradientUnits="userSpaceOnUse" x1="307.0334" y1="209.7673" x2="274.3709" y2="201.8834">
					<stop  offset="0" style="stop-color:#ECE7E7"/>
					<stop  offset="0.2266" style="stop-color:#F6F4F4"/>
					<stop  offset="0.5333" style="stop-color:#FDFCFC"/>
					<stop  offset="1" style="stop-color:#FFFFFF"/>
				</linearGradient>
				<path class="st59" d="M278.4,194.7c-5.4,0.7-8.2,3.4-9.6,6.6c-1.8,4.1-1.4,8.7-1.4,8.7c-0.1,1.1,2.8,3.6,5.4,4.1
					c6.1,1.2,10.6,3.3,24.8,0.5c4.4-0.8,8-3.5,9.2-5.4c1.2-1.9,1.4-3.5,1.4-3.5C299.2,195.4,300.6,192,278.4,194.7z"/>
				<path class="st52" d="M297.4,196c-6.5,0.7-19.7-0.6-28.6,5.2c5,0.2,22.2-2.1,38.1,7.8c0.8-1.2,1.2-2.7,1.3-3.3
					C308.2,205.8,305.7,195.1,297.4,196z"/>
				<linearGradient id="SVGID_50_" gradientUnits="userSpaceOnUse" x1="299.8555" y1="205.4874" x2="264.6223" y2="206.8967">
					<stop  offset="0" style="stop-color:#94958D"/>
					<stop  offset="1" style="stop-color:#C5C6C0"/>
				</linearGradient>
				<path class="st60" d="M287.4,196c-8.6-0.4-13.6,5.2-13.2,12.7c0.2,2.8,1.7,5.9,2,6.2c1.2,0.4,5.9,1.3,11,1.1
					c3.8,0.1,9.1-1,10.4-1.4c1.7-2,1.9-3.9,2.1-5.5C300.6,202,294.6,196.4,287.4,196z"/>
				<linearGradient id="SVGID_51_" gradientUnits="userSpaceOnUse" x1="279.5235" y1="196.3037" x2="322.2195" y2="218.0579">
					<stop  offset="0" style="stop-color:#94958D"/>
					<stop  offset="1" style="stop-color:#C5C6C0"/>
				</linearGradient>
				<path class="st61" d="M287.9,195c-7.8-0.6-11.9,6.1-11.9,6.1c14.9,0,23.5,4.2,23.5,4.2C299.1,202.3,295.7,195.7,287.9,195z"/>
				
					<radialGradient id="SVGID_52_" cx="384.0235" cy="328.1749" r="20.9402" gradientTransform="matrix(1.0666 0 0 1.08 -115.6173 -143.8833)" gradientUnits="userSpaceOnUse">
					<stop  offset="0" style="stop-color:#2A3A3B"/>
					<stop  offset="1" style="stop-color:#1C2727"/>
				</radialGradient>
				<path class="st62" d="M287.2,198.1c-4.3-0.1-7.8,3.3-7.9,7.5c-0.1,4.2,3.4,7.7,7.7,7.8c4.3,0.1,7.8-3.3,7.9-7.6
					C294.9,201.6,291.5,198.1,287.2,198.1z"/>
				<linearGradient id="SVGID_53_" gradientUnits="userSpaceOnUse" x1="268.797" y1="199.3553" x2="308.206" y2="199.3553">
					<stop  offset="0" style="stop-color:#3C2A25"/>
					<stop  offset="8.267516e-02" style="stop-color:#392823"/>
					<stop  offset="0.5542" style="stop-color:#2C1E1B"/>
					<stop  offset="1" style="stop-color:#281B18"/>
				</linearGradient>
				<path class="st63" d="M301.1,195.6c-7.8-3.2-20-4-27.8,0.4c-3,1.7-4.5,5.3-4.5,5.3s9.2-3.7,22.3-1.9c13.1,1.8,17.1,6.4,17.1,6.4
					S308.7,198.8,301.1,195.6z"/>
				<g>
					<path class="st57" d="M293.5,206c-1.8,0.2-3.2,2-2.9,3.8c0.2,1.9,1.9,3.2,3.7,3c1.8-0.2,3.2-1.9,2.9-3.8
						C297,207.1,295.4,205.8,293.5,206z"/>
					<path class="st57" d="M286.2,202.8c-1.5,0.2-2.5,1.5-2.3,3c0.2,1.5,1.5,2.6,2.9,2.4c1.4-0.2,2.5-1.5,2.3-3
						C289,203.7,287.7,202.7,286.2,202.8z"/>
				</g>
			</g>
		</g>
		<linearGradient id="SVGID_54_" gradientUnits="userSpaceOnUse" x1="265.2439" y1="177.5635" x2="314.8009" y2="177.5635">
			<stop  offset="0" style="stop-color:#281B18"/>
			<stop  offset="0.4458" style="stop-color:#2C1E1B"/>
			<stop  offset="0.9173" style="stop-color:#392823"/>
			<stop  offset="1" style="stop-color:#3C2A25"/>
		</linearGradient>
		<path class="st64" d="M305.7,175c-15.9-5.6-25.8-5.5-37.6-5c-1.2,2-0.7,4.4,0,6.7c-1.4-2.1-2-4.1-1.6-6.5c-3,1.4,0.1,9.8,0.1,9.8
			c5.5,0.3,19.9-0.7,30.5,1.3c12.5,2.3,17.6,4.1,17.6,4.1S313.6,177.7,305.7,175z"/>
		<linearGradient id="SVGID_55_" gradientUnits="userSpaceOnUse" x1="173.9784" y1="177.5635" x2="223.5357" y2="177.5635">
			<stop  offset="0" style="stop-color:#281B18"/>
			<stop  offset="0.4458" style="stop-color:#2C1E1B"/>
			<stop  offset="0.9173" style="stop-color:#392823"/>
			<stop  offset="1" style="stop-color:#3C2A25"/>
		</linearGradient>
		<path class="st65" d="M222.2,170.2c0.4,2.4-0.3,4.4-1.6,6.5c0.7-2.3,1.2-4.7,0-6.7c-11.8-0.5-21.7-0.6-37.6,5
			c-7.9,2.8-9.1,10.4-9.1,10.4s5.1-1.8,17.6-4.1c10.6-2,25-1,30.5-1.3C222.1,180,225.2,171.6,222.2,170.2z"/>
		<linearGradient id="SVGID_56_" gradientUnits="userSpaceOnUse" x1="236.9022" y1="81.9208" x2="247.8516" y2="213.6789">
			<stop  offset="0" style="stop-color:#F7D4AB"/>
			<stop  offset="0.4477" style="stop-color:#F3CBA1"/>
			<stop  offset="1" style="stop-color:#F0C499"/>
		</linearGradient>
		<path class="st66" d="M312.6,107c-34.9-24.8-128.3-0.4-137.9-0.2c-9.6,0.2-17.8,122.8-17.8,122.8s9.3-37.9,17.8-50.2
			c23.2-33.6-3.3-53.1,17.4-57.9c11.9-2.7,28.2,12.2,46.3,5c36.4-14.4,48.2,6.3,63-13.4c13.3,10.2-4.1,35.8,20.7,70.4
			c5.5,7.8,12.7,40.9,12.7,40.9S347.5,131.8,312.6,107z"/>
		<linearGradient id="SVGID_57_" gradientUnits="userSpaceOnUse" x1="323.3764" y1="454.4677" x2="315.9718" y2="242.5008">
			<stop  offset="0" style="stop-color:#DBA379"/>
			<stop  offset="0.4916" style="stop-color:#E4B186"/>
			<stop  offset="1" style="stop-color:#F0C499"/>
		</linearGradient>
		<path class="st67" d="M303.8,262.4c0,0,6.3,18.4,10.9,19.9c4.6,1.5,14.3-8,14.1-43.2C328.7,239.1,323,297.1,303.8,262.4z"/>
		<linearGradient id="SVGID_58_" gradientUnits="userSpaceOnUse" x1="185.3178" y1="440.64" x2="178.49" y2="245.1877">
			<stop  offset="0" style="stop-color:#DBA379"/>
			<stop  offset="0.4916" style="stop-color:#E4B186"/>
			<stop  offset="1" style="stop-color:#F0C499"/>
		</linearGradient>
		<path class="st68" d="M178.8,271.5c-6.2-3.5-12.5-28.6-12.5-28.6s1.5,31.8,11,38c9.5,6.2,14-18.5,14-18.5S185,275,178.8,271.5z"/>
		<path class="st69" d="M330.5,183.2c-2.4,55.9,0.5,93.8-15.3,94c-3.4,0.1-9.4-15-16.7-20.3c-1.5-1.1-6.9-2.6-14.3-3.8l-14.2-3.8
			l-10-1.7l-7.3,2.6c-1.7,0-3.4,0-5.1,0c-2.3,0-4.7,0.1-7,0.2l-5.8-2h-10.8l-26.5,7.8c-0.4,0.1-0.8,0.2-1,0.3
			c-6,2.1-10.6,20.9-15.2,20.8c-16.2-0.4-16.5-47.2-18.3-94c-0.6-14.6-6.2,46.4-6.2,46.4c1.7,51.1,5.2,42.8,14.9,60.8
			c6.8,12.6,18.3,22.3,37,39.2c7.8,7.1,15.3,15.8,41.1,16.4c17.7,0.4,30-8.4,30-8.4c23.8-30.1,38.2-33.3,45.6-53
			c12.2-32.7,10.8-67.6,10.8-67.6L330.5,183.2z M298.4,282.1c-1.8,11.6-17.5,27.7-26.7,33.8c-7.5,5-10.7-13.4-24-13.4
			c-13.6,0-17,19.3-25.7,13c-6-4.3-22.1-18.9-24.4-31.4c-1.4-8.1-2.1-17-2.1-22.1c0,0,70.4,2.7,104.1-0.7
			C299.7,261.5,300.1,271,298.4,282.1z"/>
		<linearGradient id="SVGID_59_" gradientUnits="userSpaceOnUse" x1="135.4454" y1="148.236" x2="199.1223" y2="338.7618">
			<stop  offset="0" style="stop-color:#867569"/>
			<stop  offset="1" style="stop-color:#A89383"/>
		</linearGradient>
		<path class="st70" d="M156.9,229.6c0,0,0.1,33.1,6.2,48.7c6,15.6,17,26.5,23.4,33.4c6.5,6.9,26.9,22.1,26.9,22.1
			s-17.5-24.6-21.8-29.7C187.2,299.1,162.3,285.5,156.9,229.6z"/>
		<linearGradient id="SVGID_60_" gradientUnits="userSpaceOnUse" x1="348.2546" y1="154.4932" x2="296.7321" y2="338.863">
			<stop  offset="0" style="stop-color:#867569"/>
			<stop  offset="1" style="stop-color:#A89383"/>
		</linearGradient>
		<path class="st71" d="M301.8,308c-4.3,5.1-21.8,29.7-21.8,29.7s21.7-18.8,28.1-25.7c6.5-6.9,15.7-15.4,21.8-31
			c6-15.6,6.2-49.2,6.2-49.2C330.6,287.5,306.1,302.9,301.8,308z"/>
		<linearGradient id="SVGID_61_" gradientUnits="userSpaceOnUse" x1="247.1499" y1="340.8348" x2="250.4454" y2="281.881">
			<stop  offset="0" style="stop-color:#A89383"/>
			<stop  offset="1" style="stop-color:#C0AFA2"/>
		</linearGradient>
		<path class="st72" d="M231.4,322.1c-10.6,10.4,6,13.5,15.5,14.4c9.5,0.9,28.2-1.4,17.5-13.8C253.8,310.3,234.8,318.8,231.4,322.1z
			"/>
		<linearGradient id="SVGID_62_" gradientUnits="userSpaceOnUse" x1="245.0527" y1="238.0082" x2="245.8483" y2="257.6986">
			<stop  offset="0" style="stop-color:#867569"/>
			<stop  offset="1" style="stop-color:#A89383"/>
		</linearGradient>
		<polygon class="st73" points="264.2,245.9 247.7,252.3 234.4,247.4 224.1,248.4 197.6,256.2 293.9,255.2 270.1,249.3 		"/>
		<g>
			<linearGradient id="SVGID_63_" gradientUnits="userSpaceOnUse" x1="245.1718" y1="160.433" x2="247.1415" y2="242.8378">
				<stop  offset="0" style="stop-color:#FFD9B3"/>
				<stop  offset="0.1957" style="stop-color:#FDD8B1"/>
				<stop  offset="1" style="stop-color:#F7D4AB"/>
			</linearGradient>
			<path class="st74" d="M254.1,215.1c0.9-18.1-5.4-20.7-10-20.5c-4.5,0.2-7,6.4-6.1,20.2c0.9,13.8-1.8,19-1.1,25.5
				c0.3,2.9,1.6,4.9,9,4.9c8.1,0.1,10.9-1.9,11.2-4.6C258,233.1,253.5,228.2,254.1,215.1z"/>
			<path class="st75" d="M255,250.3c10.9-2.7,15.2-1.1,15.2-1.1C263.9,243.6,255,250.3,255,250.3z"/>
			<path class="st75" d="M224.1,248.4c0,0,5.7-0.9,14.2,2C238.4,250.4,230,244,224.1,248.4z"/>
			<linearGradient id="SVGID_64_" gradientUnits="userSpaceOnUse" x1="245.9554" y1="215.8661" x2="246.6857" y2="241.4247">
				<stop  offset="0" style="stop-color:#F7D4AB"/>
				<stop  offset="0.517" style="stop-color:#F6D2A8"/>
				<stop  offset="0.8546" style="stop-color:#F3CAA0"/>
				<stop  offset="1" style="stop-color:#F0C499"/>
			</linearGradient>
			<path class="st76" d="M263.5,231.9c-0.1,4.5,1,7.6-0.4,10.1c-3,5.7-10.9,8-16.1,7.6c-4,0.5-13.3-1.5-17.2-7.6
				c-1.6-2.5-0.6-4.7-1.3-9.5c0,0-10.8,13.2-4.3,15.7c0,0,1.9-1.4,7.1-1c5.2,0.5,4.1,6.3,16.1,6.4c10.4,0.1,7.1-5,13.7-5.9
				c6.6-1,7.5,0.8,9,1.4C273.4,249.3,271,238.2,263.5,231.9z"/>
			<linearGradient id="SVGID_65_" gradientUnits="userSpaceOnUse" x1="245.0535" y1="246.9869" x2="247.8401" y2="226.4384">
				<stop  offset="0" style="stop-color:#FFD9B3"/>
				<stop  offset="0.2826" style="stop-color:#FBD7AF"/>
				<stop  offset="1" style="stop-color:#F7D4AB"/>
			</linearGradient>
			<path class="st77" d="M235.8,239.7c-0.5,3,3.6,6.1,11,6.2c8.1,0.1,9.9-3.2,9.2-5.9C252,223.9,237.5,228.7,235.8,239.7z"/>
		</g>
		<linearGradient id="SVGID_66_" gradientUnits="userSpaceOnUse" x1="248.1118" y1="294.7371" x2="248.8048" y2="311.8885">
			<stop  offset="0" style="stop-color:#867569"/>
			<stop  offset="1" style="stop-color:#A89383"/>
		</linearGradient>
		<path class="st78" d="M248.1,302.3c-7.8,0.3-12.4,6.3-12.4,6.3s6.8-2,12.1-1.9c8.2,0.2,13.9,4.2,13.9,4.2S255.5,302,248.1,302.3z"
			/>
		<linearGradient id="SVGID_67_" gradientUnits="userSpaceOnUse" x1="247.1446" y1="324.5245" x2="245.8701" y2="354.0922">
			<stop  offset="0" style="stop-color:#867569"/>
			<stop  offset="1" style="stop-color:#A89383"/>
		</linearGradient>
		<path class="st79" d="M213.4,333.9c0,0,13.5,17.3,35.3,16.5c21.9-0.8,31.2-12.7,31.2-12.7s-14.3,6.7-32.3,6.9
			C228.4,344.8,213.4,333.9,213.4,333.9z"/>
		<linearGradient id="SVGID_68_" gradientUnits="userSpaceOnUse" x1="247.8118" y1="57.7454" x2="239.5826" y2="207.3002">
			<stop  offset="0" style="stop-color:#3C2A25"/>
			<stop  offset="0.1566" style="stop-color:#352521"/>
			<stop  offset="0.535" style="stop-color:#2B1D1A"/>
			<stop  offset="1" style="stop-color:#281B18"/>
		</linearGradient>
		<path class="st80" d="M333.5,92.3c-3.3-2.8-10.2-7-14.2-7.6c-0.8-0.1-1.3-0.2-1.5-0.3c2-3.4,5.1-12.8-13.5-22.2
			c0,0,1.7,3.8,3.8,8.4c-20.3-15.2-24.6-17.6-67.5-10.2c-17.9,3.1-54.5,7.3-66.6,20.1c-16.7,17.8-25.7,22.7-35.9,21.6
			c6.1,3.8,13.1,5.9,20.2,3.8c-8.2,5.3-13.3,13-16.7,22c-4,10.8-0.8,22.1,2.1,32.9c0.7,2.7,1.5,5.3,2.3,7.9c1.1,3.5,0.7,6.3,0.5,10
			c-0.3,4.6,0.6,17.2,0.6,17.2s9.3,8.7,9.6,21.3c0.1,2.1,0.3,8.4,0.3,12.4c0.9-4.7,1.8-9.4,2.6-14.1c1.6-8.9,0.7-19.2,4.3-27.5
			c3.1-7.1,6-14.3,9.4-21.3c1.4-2.9,2.4-4.8,2.9-8c1-6.9,0.3-14.5,0-21.5c-0.4-8.4,1.1-19.2,9-23.3c7.7-4,12,0,20.5,1.2
			c9.7,1.4,19.7,3.5,29.2-0.3c-1.7,3.2-2.7,6.8-3,10.4c7.6-12.9,23.7-12.6,36.8-13c10.9-0.3,26.7,2.6,34.7-7c7.9,9,8,19.3,9.3,30.6
			c1.3,11.8,4,23.3,9.6,33.8c2.5,4.6,6.3,8.4,7.3,13.4c1.1,5.6,2.2,11.2,3.2,16.9c1,5.6,2.5,24.5,3.4,30.1c0.7-6,1-27.7,5.2-32.5
			c0.8-0.9,3.6-2.2,3.6-2.2s1-12.4,1-14.5c0-6-0.3-7.5,0.9-13.4c3.5-17,5.3-32.7,2.9-46.3C347.6,110.1,342.7,100.3,333.5,92.3z"/>
		<linearGradient id="SVGID_69_" gradientUnits="userSpaceOnUse" x1="156.2006" y1="162.2388" x2="336.9784" y2="162.2388">
			<stop  offset="0" style="stop-color:#3C2A25"/>
			<stop  offset="0.1566" style="stop-color:#352521"/>
			<stop  offset="0.535" style="stop-color:#2B1D1A"/>
			<stop  offset="1" style="stop-color:#281B18"/>
		</linearGradient>
		<path class="st81" d="M306,94.3c-7.4,9.8-81.6,16-99.4,12.8c-25.4-4.7-33.9,0.6-37.3,9.6c-4,10.8-0.2,24.3-1.6,38.3
			c-1.5,14-10.9,24.5-11.5,56.2c0.7,6.4,0.7,15.5,0.7,18.6c0.9-4.7,1.8-9.4,2.6-14.1c1.6-8.9,0.7-19.2,4.3-27.5
			c3.1-7.1,6-14.3,9.4-21.3c1.4-2.9,2.4-4.8,2.9-8c1-6.9,0.3-14.5,0-21.5c-0.4-8.4,0.1-17,7.9-21.1c7.7-4,12.9-0.1,21.4,1.1
			c9.7,1.4,19.9,1.4,29.4-2.4c-1.7,3.2-2.7,6.8-3,10.4c7.6-10.9,23.7-12.6,36.8-13c10.9-0.3,26.7,2.6,34.7-7c7.9,9,8,19.3,9.3,30.6
			c1.3,11.8,4,23.3,9.6,33.8c2.5,4.6,6.3,8.4,7.3,13.4c1.1,5.6,2.2,11.2,3.2,16.9c1,5.6,2.4,16.4,3.4,30.1c5-65.2-13-58.8-12.5-93.3
			C323.9,107.4,311.5,100,306,94.3z"/>
		<g>
			<linearGradient id="SVGID_70_" gradientUnits="userSpaceOnUse" x1="241.5992" y1="60.0854" x2="232.1257" y2="119.1124">
				<stop  offset="0" style="stop-color:#3C2A25"/>
				<stop  offset="0.1566" style="stop-color:#352521"/>
				<stop  offset="0.535" style="stop-color:#2B1D1A"/>
				<stop  offset="1" style="stop-color:#281B18"/>
			</linearGradient>
			<path class="st82" d="M265.2,72.6c-10.8,4.9-18.3,14.8-27.7,21.7c-19.8,14.6-39.9,5-59.8-4c15.7,20.3,39.8,35.9,64.8,21.3
				c11-6.4,17.6-16.7,26.4-25.5c7.9-7.9,18.5-11.4,29.4-11.4C288.7,68.1,275.7,67.9,265.2,72.6z"/>
		</g>
		<g>
			<linearGradient id="SVGID_71_" gradientUnits="userSpaceOnUse" x1="285.4837" y1="66.2316" x2="266.1461" y2="116.2176">
				<stop  offset="0" style="stop-color:#3C2A25"/>
				<stop  offset="0.1566" style="stop-color:#352521"/>
				<stop  offset="0.535" style="stop-color:#2B1D1A"/>
				<stop  offset="1" style="stop-color:#281B18"/>
			</linearGradient>
			<path class="st83" d="M288.9,103.4c-8,3.2-14.9,1.5-22.9,0c-8.7-1.7-18.2-1.1-25.7,4.2c-4.9,3.5-11.5,11.2-8.5,17.7
				c3.8-9.2,18.4-8.5,26-6.7c8.8,2.1,16.6,5.2,25.8,2.9c15.3-3.8,27.2-19.9,22.5-36C302.9,93.5,296.9,100.3,288.9,103.4z"/>
		</g>
		<linearGradient id="SVGID_72_" gradientUnits="userSpaceOnUse" x1="311.3491" y1="8.6611" x2="215.9865" y2="104.7461">
			<stop  offset="0" style="stop-color:#4C3633"/>
			<stop  offset="0.4968" style="stop-color:#412D29"/>
			<stop  offset="1" style="stop-color:#3C2A25"/>
		</linearGradient>
		<path class="st84" d="M226.6,88.7c-17.9,17.2-49,1.7-49,1.7c51.4,33.1,79.5-13.1,87.6-17.7c17.8-10.1,33.1,2.2,33.1,2.2
			C274.9,51,244.6,71.5,226.6,88.7z"/>
		<linearGradient id="SVGID_73_" gradientUnits="userSpaceOnUse" x1="324.0703" y1="39.5773" x2="328.4514" y2="111.3774">
			<stop  offset="0" style="stop-color:#4C3633"/>
			<stop  offset="0.4968" style="stop-color:#412D29"/>
			<stop  offset="1" style="stop-color:#3C2A25"/>
		</linearGradient>
		<path class="st85" d="M317.7,84.5c0,0,8.8-11.4-13.5-22.2c0,0,11.5,9.2,7.3,25.3c0,0,38.2,10.3,39,53.4c0,0,2.6-19.5-6.4-36
			C339.3,96.2,330.8,85.8,317.7,84.5z"/>
		<linearGradient id="SVGID_74_" gradientUnits="userSpaceOnUse" x1="137.7206" y1="150.2024" x2="155.2271" y2="104.734">
			<stop  offset="0" style="stop-color:#4C3633"/>
			<stop  offset="0.4968" style="stop-color:#412D29"/>
			<stop  offset="1" style="stop-color:#3C2A25"/>
		</linearGradient>
		<path class="st86" d="M142,154.7c0,0-3.2-33.1,16.2-48.7C158.2,106,131.4,116.2,142,154.7z"/>
		<g>
			<linearGradient id="SVGID_75_" gradientUnits="userSpaceOnUse" x1="314.9836" y1="44.886" x2="170.1138" y2="96.1438">
				<stop  offset="0" style="stop-color:#4C3633"/>
				<stop  offset="0.4968" style="stop-color:#412D29"/>
				<stop  offset="1" style="stop-color:#3C2A25"/>
			</linearGradient>
			<path class="st87" d="M210.5,61.5c-17.5,4.6-34.1,4.4-44.2,19.2c-8,11.8-16.1,21.4-28.2,21.6c17.1,5.3,25.2-8.9,35.9-18.2
				c10.1-8.8,25.4-0.2,44-6.6c15.9-5.5,28.7-21.6,53.6-19.5c16.2,1.4,25.7,6.5,36.5,12.8C277.6,44.1,247.7,51.6,210.5,61.5z"/>
		</g>
		<linearGradient id="SVGID_76_" gradientUnits="userSpaceOnUse" x1="427.2356" y1="414.5074" x2="427.208" y2="403.7501">
			<stop  offset="0" style="stop-color:#4C7194"/>
			<stop  offset="0.2774" style="stop-color:#5981A3"/>
			<stop  offset="1" style="stop-color:#78A7C8"/>
		</linearGradient>
		<path class="st88" d="M428.8,407.9c-1,1.2-2.1,2.4-3.1,3.6c0,0,0,0,0,0C426.7,410.4,427.8,409.2,428.8,407.9L428.8,407.9z"/>
		<linearGradient id="SVGID_77_" gradientUnits="userSpaceOnUse" x1="428.6336" y1="425.8313" x2="428.5002" y2="373.8512">
			<stop  offset="0" style="stop-color:#4C7194"/>
			<stop  offset="0.2774" style="stop-color:#5981A3"/>
			<stop  offset="1" style="stop-color:#78A7C8"/>
		</linearGradient>
		<path class="st89" d="M425.7,411.6c1.1-1.2,2.1-2.4,3.1-3.6c1.7-8.6,2.7-13.8,2.7-13.8S428.9,402,425.7,411.6z"/>
		<linearGradient id="SVGID_78_" gradientUnits="userSpaceOnUse" x1="65.5717" y1="421.4224" x2="65.5368" y2="407.8363">
			<stop  offset="0" style="stop-color:#4C7194"/>
			<stop  offset="0.2774" style="stop-color:#5981A3"/>
			<stop  offset="1" style="stop-color:#78A7C8"/>
		</linearGradient>
		<path class="st90" d="M63.5,413.1c1.4,1.5,2.8,3,4.2,4.5C66.2,416.2,64.8,414.6,63.5,413.1L63.5,413.1z"/>
		<linearGradient id="SVGID_79_" gradientUnits="userSpaceOnUse" x1="67.6539" y1="417.6584" x2="67.6539" y2="417.6524">
			<stop  offset="0" style="stop-color:#4C7194"/>
			<stop  offset="0.2774" style="stop-color:#5981A3"/>
			<stop  offset="1" style="stop-color:#78A7C8"/>
		</linearGradient>
		<polygon class="st91" points="67.7,417.7 67.7,417.7 67.7,417.7 		"/>
		<linearGradient id="SVGID_80_" gradientUnits="userSpaceOnUse" x1="63.765" y1="437.2147" x2="63.5838" y2="366.6256">
			<stop  offset="0" style="stop-color:#4C7194"/>
			<stop  offset="0.2774" style="stop-color:#5981A3"/>
			<stop  offset="1" style="stop-color:#78A7C8"/>
		</linearGradient>
		<path class="st92" d="M63.5,413.1c1.4,1.5,2.8,3,4.2,4.5c0,0,0,0,0,0c-4.1-12.1-7.9-23.7-7.9-23.7S61.2,401.4,63.5,413.1z"/>
	</g>
</g>
</svg>
