<svg width="496" height="496" viewBox="0 0 496 496" fill="none" xmlns="http://www.w3.org/2000/svg">
<path fill-rule="evenodd" clip-rule="evenodd" d="M2.455 2.455L0 4.909V248V491.091L2.455 493.545L4.909 496H248H491.091L493.545 493.545C495.98 491.111 496 490.936 496 472C496 453.064 495.98 452.889 493.545 450.455L491.091 448H269.545H48V429.744V411.488L79.825 379.675L111.651 347.861L117.794 349.931C125.545 352.542 130.455 352.542 138.208 349.93L144.353 347.86L162.247 365.753L180.14 383.647L177.961 390.074C172.865 405.107 178.993 420.405 193.175 428.052C198.956 431.169 200.231 431.463 208 431.463C215.763 431.463 217.047 431.168 222.801 428.065C229.808 424.286 232.914 421.077 236.598 413.807C240.257 406.585 240.77 398.131 238.038 390.072L235.859 383.644L277.751 341.751L319.644 299.859L325.791 301.929C333.545 304.542 338.454 304.542 346.208 301.93L352.354 299.86L374.247 321.753L396.14 343.646L393.964 350.073C388.769 365.411 395.7 381.729 410.5 389.006C414.652 391.048 416.942 391.458 424 391.424C434.035 391.376 440.047 389.001 446.524 382.524C453.001 376.047 455.376 370.035 455.424 360C455.458 352.942 455.048 350.652 453.006 346.5C445.729 331.7 429.411 324.769 414.073 329.964L407.646 332.14L385.753 310.247L363.86 288.354L366.038 281.927C371.295 266.422 364.251 250.219 349.031 242.808C342.353 239.556 329.436 239.663 322.5 243.027C307.736 250.189 300.767 266.583 305.964 281.928L308.141 288.356L266.249 330.249L224.356 372.141L218.209 370.071C210.455 367.458 205.546 367.458 197.792 370.07L191.647 372.14L173.753 354.247L155.86 336.353L158.039 329.926C163.295 314.422 156.251 298.219 141.031 290.808C134.353 287.556 121.436 287.663 114.5 291.027C99.736 298.188 92.767 314.583 97.964 329.927L100.141 336.355L74.07 362.425L48 388.495V311.992V235.488L79.825 203.675L111.651 171.861L117.794 173.931C125.545 176.542 130.455 176.542 138.208 173.93L144.353 171.86L162.247 189.753L180.14 207.647L177.961 214.074C172.865 229.107 178.993 244.405 193.175 252.052C198.956 255.169 200.231 255.463 208 255.463C215.763 255.463 217.047 255.168 222.801 252.065C229.808 248.286 232.914 245.077 236.598 237.807C240.257 230.586 240.77 222.131 238.039 214.074L235.86 207.647L253.753 189.753L271.647 171.86L278.074 174.039C293.363 179.222 309.96 172.157 316.923 157.5C319.442 152.197 320.299 141.605 318.709 135.423L317.917 132.346L365.209 118.812L412.5 105.277L416.814 109.723C423.191 116.295 430.697 119.433 440 119.415C449.02 119.398 454.702 117.16 461.405 110.981C474.567 98.848 475.041 78.409 462.457 65.611C456.297 59.345 449.045 56.488 439.5 56.564C433.184 56.615 430.448 57.136 426.5 59.04C416.536 63.847 409.38 73.916 408.268 84.696L407.717 90.026L402.109 91.657C399.024 92.554 376.561 98.983 352.191 105.944L307.882 118.601L301.725 115.55C296.347 112.886 294.551 112.508 287.534 112.564C281.181 112.615 278.454 113.133 274.5 115.04C259.751 122.155 252.766 138.58 257.964 153.926L260.14 160.353L242.247 178.247L224.353 196.14L218.208 194.07C214.828 192.932 210.235 192 208 192C205.765 192 201.172 192.932 197.792 194.07L191.647 196.14L173.753 178.247L155.86 160.353L158.039 153.926C163.295 138.422 156.251 122.219 141.031 114.808C134.353 111.556 121.436 111.663 114.5 115.027C99.736 122.188 92.767 138.583 97.964 153.927L100.141 160.355L74.07 186.425L48 212.495V108.702V4.909L45.545 2.455C43.111 0.02 42.936 0 24 0C5.064 0 4.889 0.02 2.455 2.455ZM32 237.545V459.091L34.455 461.545L36.909 464H258.455H480V472V480H248H16V248V16H24H32V237.545ZM446.329 73.364C456.682 77.69 459.091 90.909 451 99C444.385 105.615 435.428 105.663 428.882 99.118C416.516 86.751 430.161 66.609 446.329 73.364ZM134.329 129.364C144.682 133.69 147.091 146.909 139 155C132.385 161.615 123.428 161.663 116.882 155.118C104.516 142.751 118.161 122.609 134.329 129.364ZM294.329 129.364C304.682 133.69 307.091 146.909 299 155C292.385 161.615 283.428 161.663 276.882 155.118C264.516 142.751 278.161 122.609 294.329 129.364ZM214.329 209.364C224.603 213.657 227.108 227.127 219.118 235.118C212.631 241.604 203.369 241.604 196.882 235.118C184.516 222.751 198.161 202.609 214.329 209.364ZM342.329 257.364C352.682 261.69 355.091 274.909 347 283C340.385 289.615 331.428 289.663 324.882 283.118C312.516 270.751 326.161 250.609 342.329 257.364ZM134.329 305.364C144.682 309.69 147.091 322.909 139 331C132.385 337.615 123.428 337.663 116.882 331.118C104.516 318.751 118.161 298.609 134.329 305.364ZM430.329 345.364C440.603 349.657 443.108 363.127 435.118 371.118C423.883 382.353 405.472 372.29 408.428 356.529C410.195 347.115 421.151 341.529 430.329 345.364ZM214.329 385.364C224.603 389.657 227.108 403.127 219.118 411.118C212.631 417.604 203.369 417.604 196.882 411.118C184.516 398.751 198.161 378.609 214.329 385.364Z" fill="url(#paint0_linear_114_61)"/>
<defs>
<linearGradient id="paint0_linear_114_61" x1="0" y1="495.839" x2="496.501" y2="495.839" gradientUnits="userSpaceOnUse">
<stop stop-color="#3652E2"/>
<stop offset="1" stop-color="#B5289B"/>
</linearGradient>
</defs>
</svg>
