<svg width="477" height="512" viewBox="0 0 477 512" fill="none" xmlns="http://www.w3.org/2000/svg">
<path fill-rule="evenodd" clip-rule="evenodd" d="M375.397 2.342C371.953 5.304 371.718 10.153 374.865 13.306C376.871 15.315 378.31 15.542 391.91 16L406.765 16.5L377.489 44.193L348.213 71.886L342.86 69.838C327.986 64.149 309.591 73.098 305.057 88.229C303.409 93.732 303.582 103.044 305.414 107.43L306.926 111.047L290.717 126.766C281.802 135.412 269.698 147.161 263.818 152.875L253.129 163.266L248.828 161.545C246.23 160.505 241.825 159.824 237.708 159.824C221.664 159.824 209.008 172.546 209.008 188.673V193.99L190.258 203.321C163.833 216.471 166.364 215.777 160.13 211.582C154.086 207.515 149.419 206.013 142.796 206.006C129.749 205.99 116.867 216.573 114.487 229.262C114.09 231.377 113.101 233.134 112.153 233.41C111.248 233.673 97.0077 236.627 80.5077 239.976C64.0077 243.324 49.0567 246.711 47.2837 247.503C41.6837 250.004 41.6747 257.838 47.2697 260.969C49.8337 262.404 52.0807 262.077 83.1987 255.737L116.393 248.975L120.724 253.925C132.614 267.517 152.203 268.052 164.304 255.114C169.558 249.498 171.988 243.544 172.286 235.557L172.508 229.614L194.044 219.231L215.581 208.848L220.867 212.405C227.542 216.897 232.898 218.351 240.537 217.744C251.134 216.903 259.121 211.464 263.95 201.8C267.47 194.757 268.063 186.241 265.533 179.071L264.058 174.89L280.283 159.211C289.207 150.588 301.309 138.861 307.178 133.153L317.848 122.773L322.678 124.631C341.553 131.892 362.125 117.461 361.964 97.072C361.94 94.007 361.278 89.7 360.492 87.5L359.065 83.5L371.781 71.5C378.775 64.9 392.15 52.237 401.503 43.361L418.508 27.222L419.008 40.7C419.5 53.959 419.553 54.217 422.314 56.589C425.897 59.668 429.445 59.653 432.553 56.545L435.008 54.091V29.118V4.145L432.373 2.073C429.862 0.097 428.525 0 403.929 0C378.306 0 378.1 0.017 375.397 2.342ZM339.102 85.549C348.533 90.426 348.134 104.34 338.429 109.038C329.182 113.515 319.686 107.237 319.831 96.745C319.962 87.219 330.497 81.099 339.102 85.549ZM16.6777 90.623C13.5577 91.582 10.3067 93.649 7.49371 96.461C-0.535292 104.491 0.00770809 92.51 0.00770809 261.523C0.00770809 424.069 -0.229291 416.89 5.37471 424.237C6.81771 426.129 10.3637 428.988 13.2537 430.589L18.5077 433.5L90.7577 433.781L163.008 434.063V446.531C163.008 456.185 162.71 459 161.69 459C157.859 459 149.898 462.403 146.078 465.672C139.183 471.574 137.029 477.38 137.018 490.102C137.007 501.72 138.198 504.863 144.331 509.408C147.147 511.495 147.39 511.5 238.008 511.5C328.626 511.5 328.869 511.495 331.685 509.408C337.818 504.863 339.009 501.72 338.998 490.102C338.987 477.38 336.833 471.574 329.938 465.672C326.118 462.403 318.157 459 314.326 459C313.306 459 313.008 456.185 313.008 446.531V434.063L385.258 433.781L457.508 433.5L462.856 430.538C468.738 427.279 473.147 421.764 474.892 415.481C475.676 412.656 475.998 367.911 476.002 261.432C476.009 92.546 476.549 104.489 468.534 96.474C461.662 89.601 458.34 89 427.25 89H400.854L397.931 91.923C394.538 95.317 394.195 98.773 396.918 102.139C398.824 104.496 398.875 104.501 427.006 105L455.185 105.5L457.596 108.306L460.008 111.112V229.556V348H413.508H367.008V262.455V176.909L364.553 174.455L362.099 172H333.188C305.454 172 304.17 172.084 301.643 174.073L299.008 176.145V262.073V348H285.508H272.008V304.174V260.349L269.694 258.174C267.425 256.043 266.791 256 237.868 256H208.357L206.182 258.314C204.018 260.618 204.008 260.838 204.008 304.314V348H190.508H177.008V320.073V292.145L174.373 290.073C171.846 288.084 170.562 288 142.828 288H113.917L111.463 290.455L109.008 292.909V320.455V348H62.5077H16.0077V229.556V111.112L18.4207 108.306L20.8337 105.5L145.51 105L270.185 104.5L272.097 102.139C274.821 98.774 274.479 95.317 271.085 91.923L268.162 89L144.835 89.07C38.7807 89.13 20.8317 89.347 16.6777 90.623ZM247.126 179.882C250.459 183.215 251.006 184.383 250.993 188.132C250.975 193.676 249.362 196.845 245.096 199.72C236.496 205.515 225.022 199.194 225.012 188.654C225.004 181.001 230.222 176.071 238.376 176.027C242.713 176.003 243.666 176.423 247.126 179.882ZM351.008 268V348H333.008H315.008V268V188H333.008H351.008V268ZM149.704 223.956C154.035 226.597 156.121 230.068 156.185 234.745C156.416 251.449 132.151 253.32 130.282 236.742C129.046 225.77 140.409 218.289 149.704 223.956ZM256.008 310V348H238.008H220.008V310V272H238.008H256.008V310ZM161.008 326V348H143.008H125.008V326V304H143.008H161.008V326ZM459.808 388.474C459.515 412.416 459.458 412.998 457.23 415.224L454.952 417.5H238.008H21.0637L18.7857 415.224C16.5577 412.998 16.5007 412.416 16.2077 388.474L15.9087 364H238.008H460.107L459.808 388.474ZM228.266 378.696C224.951 379.348 220.173 384.605 219.465 388.377C217.288 399.981 232.426 407.812 240.205 399.106C243.751 395.137 244.556 391.773 243.114 386.96C241.36 381.106 234.741 377.422 228.266 378.696ZM297.008 446.5V459H238.008H179.008V446.5V434H238.008H297.008V446.5ZM320.09 478.766C322.724 481.713 323.008 482.712 323.008 489.016V496H238.008H153.008V489.135C153.008 481.777 154.943 477.79 159.396 475.971C160.558 475.496 196.533 475.196 239.34 475.304L317.173 475.5L320.09 478.766Z" fill="url(#paint0_linear_112_46)"/>
<defs>
<linearGradient id="paint0_linear_112_46" x1="0" y1="511.334" x2="476.492" y2="511.334" gradientUnits="userSpaceOnUse">
<stop stop-color="#3652E2"/>
<stop offset="1" stop-color="#B5289B"/>
</linearGradient>
</defs>
</svg>
