<svg width="512" height="513" viewBox="0 0 512 513" fill="none" xmlns="http://www.w3.org/2000/svg">
<path fill-rule="evenodd" clip-rule="evenodd" d="M15.9902 1.301C11.0772 2.858 2.71017 11.526 1.20617 16.616C0.269167 19.789 -0.0078326 67.652 0.000167398 225.616L0.0101674 430.5L2.37317 435.5C5.21417 441.509 8.94717 445.184 14.9902 447.919C19.2452 449.845 21.4392 449.957 55.2852 449.978L91.0812 450L93.5352 447.545C96.9762 444.104 96.8942 438.856 93.3552 436.073C90.8042 434.066 89.6142 434 55.8102 434H20.8992L18.4452 431.545L15.9902 429.091V225V20.909L18.4452 18.455L20.8992 16H131.887H242.876L243.183 44.25C243.484 71.912 243.541 72.604 245.943 77.484C249.308 84.324 255.887 90.444 262.557 92.939C267.568 94.814 270.272 95 292.528 95H316.99V112.577V130.154L320.03 133.194C322.574 135.738 323.594 136.133 326.28 135.614C328.046 135.273 330.305 134.012 331.301 132.811C332.962 130.808 333.086 128.556 332.801 105.564C332.505 81.747 332.38 80.326 330.289 77C326.136 70.396 263.695 4.757 259.49 2.576C255.513 0.512 254.82 0.499 137.49 0.346C53.4392 0.236 18.4832 0.511 15.9902 1.301ZM358.241 1.537C357.035 2.382 355.603 4.744 355.06 6.787C352.972 14.644 347.99 39.444 347.99 41.984C347.99 47.784 356.188 51.132 360.887 47.25C362.934 45.559 363.865 42.21 367.985 21.709L369.149 15.919L376.785 16.209L384.421 16.5L387.455 30.742C389.621 40.905 391.063 45.525 392.49 46.87C393.59 47.908 397.865 49.747 401.99 50.958C406.115 52.169 413.253 55.149 417.853 57.58C422.452 60.011 427.178 62 428.354 62C429.529 62 436.032 58.4 442.804 54C449.576 49.6 455.443 46 455.841 46C456.741 46 465.99 55.323 465.99 56.23C465.99 56.594 462.39 62.396 457.99 69.123C453.59 75.851 449.99 82.35 449.99 83.565C449.99 84.78 451.979 89.538 454.41 94.137C456.841 98.737 459.821 105.875 461.032 110C462.243 114.125 464.082 118.4 465.12 119.5C466.465 120.927 471.085 122.369 481.248 124.535L495.49 127.569L495.782 135.285C495.943 139.528 495.712 143 495.269 143C492.443 143 466.5 149.162 465.367 150.102C464.602 150.737 462.856 154.928 461.488 159.415C460.119 163.902 456.972 171.513 454.494 176.328C452.017 181.142 449.99 186.11 449.99 187.367C449.99 193.007 458.709 196.368 463.089 192.417C465.594 190.156 472.987 175.699 475.397 168.348L477.086 163.195L483.788 161.709C487.474 160.891 494.312 159.408 498.983 158.414C511.98 155.647 511.99 155.63 511.99 136.093C511.99 119.838 511.26 115.767 508.105 114.421C507.217 114.043 500.013 112.33 492.096 110.616C482.79 108.602 477.43 106.97 476.934 106C476.511 105.175 474.74 100.9 472.997 96.5C471.254 92.1 469.355 87.365 468.776 85.978C467.834 83.72 468.589 82.12 476.024 70.63C481.696 61.863 484.323 56.86 484.323 54.823C484.323 52.348 482.277 49.797 472.235 39.755C462.15 29.67 459.649 27.667 457.143 27.667C455.078 27.667 450.133 30.257 441.315 35.957C429.85 43.369 428.225 44.137 425.99 43.195C424.615 42.616 419.215 40.376 413.99 38.218L404.49 34.294L401.768 21.397C398.024 3.655 398.221 4.293 395.789 2.028C393.784 0.16 392.306 0 377.024 0C363.721 0 360 0.304 358.241 1.537ZM283.42 55L305.044 78.5L287.4 78.774C267.994 79.074 266.018 78.608 261.595 72.68C259.64 70.061 259.468 68.383 259.189 49.18C258.924 31.068 259.068 28.686 260.342 30C261.142 30.825 271.527 42.075 283.42 55ZM371.24 72.204C369.03 74.586 368.384 78.257 369.611 81.455C370.567 83.945 375.415 86 380.335 86C395.519 86 413.279 97.885 420.908 113.151C426.74 124.822 427.492 139.98 422.9 153.316C420.752 159.555 420.68 160.357 422.053 162.803C423.938 166.161 428.055 167.715 431.687 166.438C441.038 163.149 445.164 132.463 438.716 114.165C435.119 103.956 430.591 96.776 422.903 89.087C411.318 77.503 397.474 71.131 381.99 70.258C373.974 69.806 373.362 69.917 371.24 72.204ZM46.2602 71.653C43.4402 72.261 39.9902 76.579 39.9902 79.5C39.9902 80.727 40.9232 82.916 42.0632 84.365C43.9412 86.754 44.7762 87 50.9902 87C57.2042 87 58.0392 86.754 59.9172 84.365C65.8342 76.844 57.6242 69.202 46.2602 71.653ZM90.2602 71.688C87.4532 72.249 83.9902 76.564 83.9902 79.5C83.9902 80.727 84.9232 82.916 86.0632 84.365L88.1352 87H147.452C202.474 87 206.921 86.873 208.876 85.25C212.291 82.415 212.625 77.85 209.669 74.413L207.164 71.5L149.827 71.371C118.292 71.299 91.4862 71.442 90.2602 71.688ZM42.4452 110.455C39.1422 113.757 39.3062 117.47 42.9132 121.077C45.3012 123.465 46.6822 124 50.4632 124C55.5452 124 60.4012 121.976 61.3692 119.455C62.6162 116.204 61.9342 112.853 59.5352 110.455C57.4672 108.386 56.1242 108 50.9902 108C45.8562 108 44.5132 108.386 42.4452 110.455ZM87.1042 109.75C85.9452 110.713 84.7172 112.944 84.3762 114.71C83.8572 117.396 84.2522 118.416 86.7962 120.96L89.8362 124H147.99H206.144L209.184 120.96C211.728 118.416 212.123 117.396 211.604 114.71C210.244 107.67 213.376 108 147.99 108C93.4802 108 89.0582 108.127 87.1042 109.75ZM43.9032 145.282C39.4832 148.675 39.1622 155.607 43.2922 158.499C44.6022 159.416 47.6982 160 51.2582 160C56.1072 160 57.4912 159.589 59.5352 157.545C61.0832 155.998 61.9902 153.948 61.9902 152C61.9902 150.052 61.0832 148.002 59.5352 146.455C57.4842 144.403 56.1302 144.005 51.2852 144.032C48.0982 144.049 44.7762 144.612 43.9032 145.282ZM88.3112 145.189C85.6152 146.492 83.5832 151.141 84.4772 153.96C84.8452 155.119 86.0962 156.952 87.2572 158.034C89.2652 159.905 90.9352 160 121.724 160H154.081L156.535 157.545C158.083 155.998 158.99 153.948 158.99 152C158.99 150.052 158.083 148.002 156.535 146.455L154.081 144L122.285 144.068C102.201 144.11 89.6872 144.523 88.3112 145.189ZM235.562 154.018C229.321 156.454 223.424 162.079 220.38 168.5C218.103 173.302 218.009 174.399 218 196.217L217.99 218.934L178.24 219.217L138.49 219.5L132.842 222.148C123.817 226.379 116.668 234.777 113.84 244.472C113.349 246.151 112.966 300.153 112.979 365.729L113.003 483.959L115.159 489.729C116.726 493.923 118.999 497.185 123.478 501.668C128.75 506.944 130.643 508.14 136.566 509.934L143.49 512.032L314.511 511.766L485.533 511.5L492.154 508.24C499.859 504.447 505.148 499.025 508.855 491.12L511.49 485.5V365.5V245.5L508.83 239.825C505.272 232.235 499.003 225.645 492.132 222.27L486.49 219.5L446.806 219.207L407.122 218.914L406.806 195.707L406.49 172.5L403.522 167.141C401.889 164.194 398.759 160.246 396.566 158.369C389.014 151.905 390.229 151.995 311.558 152.047C243.859 152.091 240.256 152.185 235.562 154.018ZM387.221 171.768L390.49 175.035V196.768V218.5H381.99H373.49L373.216 201.75L372.942 185H311.966H250.99V202V219H242.49H233.99V197.95C233.99 181.118 234.293 176.315 235.503 173.976C238.689 167.814 235.641 168.037 313.221 168.279L383.952 168.5L387.221 171.768ZM356.99 210.01V219.021L312.24 218.76L267.49 218.5L267.201 209.75L266.912 201H311.951H356.99V210.01ZM485.74 237.121C488.378 238.398 491.19 240.856 492.806 243.296L495.49 247.349L495.782 277.132C496.058 305.354 495.968 307.123 494.055 310.874C491.878 315.139 488.275 318.147 482.401 320.602C480.363 321.453 451.875 327.283 419.093 333.557C386.311 339.831 358.252 345.233 356.74 345.562L353.99 346.159V331.395C353.99 318.608 353.72 316.087 351.975 312.566C347.937 304.415 348.49 304.535 313.49 304.23C278.816 303.927 277.804 304.095 273.26 310.898C271.137 314.075 270.99 315.329 270.99 330.215C270.99 344.906 270.855 346.095 269.24 345.62C268.278 345.336 257.59 343.253 245.49 340.99C170.873 327.035 144.309 321.69 140.369 319.838C135.601 317.597 130.338 312.239 129.46 308.732C129.153 307.504 129.034 292.964 129.196 276.42L129.49 246.34L132.294 242.667C133.836 240.646 136.761 238.114 138.794 237.041C142.417 235.127 145.848 235.088 311.924 235.044L481.359 235L485.74 237.121ZM337.791 352.25C337.448 388.983 337.468 388.888 328.542 396.745C315.481 408.242 295.411 403.218 288.521 386.728C287.256 383.701 286.99 377.582 286.99 351.532V320H312.541H338.093L337.791 352.25ZM201.863 348.986C235.758 355.435 265.134 361.014 267.143 361.383L270.795 362.054L271.162 375.277C271.508 387.709 271.719 388.889 274.693 395C285.053 416.292 309.607 424.918 330.484 414.601C346.349 406.759 353.99 392.844 353.99 371.79C353.99 366.405 354.352 362 354.795 362C355.977 362 463.784 341.377 475.387 338.931C480.831 337.783 487.694 335.779 490.637 334.477L495.99 332.11L495.968 406.305C495.947 476.126 495.838 480.738 494.11 484.541C491.883 489.444 487.185 493.575 482.195 495.018C479.608 495.766 427.612 496 309.917 495.794L141.344 495.5L137.187 492.749C134.9 491.236 132.121 488.216 131.01 486.039C129.037 482.171 128.99 480.351 128.99 407.095V332.111L134.613 334.685C138.813 336.608 155.833 340.227 201.863 348.986ZM306.445 371.05C305.404 372.2 304.59 374.591 304.59 376.5C304.59 381.175 307.37 384 311.971 384C319.082 384 322.691 375.886 317.676 371.174C314.633 368.316 308.976 368.253 306.445 371.05Z" fill="#00B9EE"/>
</svg>
