<?xml version="1.0" encoding="utf-8"?>
<!-- Generator: Adobe Illustrator 23.1.0, SVG Export Plug-In . SVG Version: 6.00 Build 0)  -->
<svg version="1.1" id="Isolation_Mode" xmlns="http://www.w3.org/2000/svg" xmlns:xlink="http://www.w3.org/1999/xlink" x="0px"
	 y="0px" viewBox="0 0 338 286" style="enable-background:new 0 0 338 286;" xml:space="preserve">
<style type="text/css">
	.st0{fill:#767B7F;}
</style>
<g>
	<path class="st0" d="M156,247c0,21.5-17.5,39-39,39H39c-21.5,0-39-17.5-39-39V104C0,46.7,46.7,0,104,0h13c7.1,0,13,5.9,13,13v26
		c0,7.1-5.9,13-13,13h-13c-28.6,0-52,23.4-52,52v6.5c0,10.8,8.7,19.5,19.5,19.5H117c21.5,0,39,17.5,39,39V247z M338,247
		c0,21.5-17.5,39-39,39h-78c-21.5,0-39-17.5-39-39V104C182,46.7,228.7,0,286,0h13c7.1,0,13,5.9,13,13v26c0,7.1-5.9,13-13,13h-13
		c-28.6,0-52,23.4-52,52v6.5c0,10.8,8.7,19.5,19.5,19.5H299c21.5,0,39,17.5,39,39V247z"/>
</g>
</svg>
