<svg width="496" height="496" viewBox="0 0 496 496" fill="none" xmlns="http://www.w3.org/2000/svg">
<path fill-rule="evenodd" clip-rule="evenodd" d="M34.455 2.455C32.09 4.819 32 5.406 32 18.455V32H18.455C5.406 32 4.819 32.09 2.455 34.455L0 36.909V264V491.091L2.455 493.545L4.909 496H176H347.091L349.545 493.545C351.91 491.181 352 490.594 352 477.545V464H365.545C378.594 464 379.181 463.91 381.545 461.545C383.986 459.105 384 458.978 384 439.313V419.535L422.28 457.767C457.77 493.214 460.81 496 463.992 496C467.074 496 468.879 494.545 481.712 481.712C494.548 468.876 496 467.075 496 463.99C496 460.804 493.087 457.635 455.596 420.028C416.41 380.722 415.207 379.401 415.713 376.224C416.199 373.17 415.552 372.254 406.136 362.686L396.037 352.424L399.477 344.462C409.357 321.596 410.555 295.727 402.832 272C399.952 263.15 393.097 249.655 388.114 243.027L384 237.554V121.231V4.909L381.545 2.455L379.091 0H208H36.909L34.455 2.455ZM368 119.008V222.015L362.25 218.122C317.066 187.524 256.838 196.532 222.733 238.989C204.985 261.083 196.625 292.523 201.335 319.466C202.197 324.397 202.783 328.551 202.637 328.696C202.492 328.841 196.251 324.807 188.768 319.73L175.163 310.5L175.715 306.264C177.414 293.24 165.553 280 152.188 280C145.709 280 140.692 282.24 135.466 287.466C127.59 295.342 125.966 304.089 130.551 313.938L133.082 319.376L125.698 331.438C121.637 338.072 112.731 352.607 105.907 363.738L93.5 383.976L89.116 383.988C81.683 384.009 76.895 386.038 71.466 391.466C61.349 401.583 61.349 414.417 71.466 424.534C81.583 434.651 94.417 434.651 104.534 424.534C112.41 416.658 114.034 407.911 109.449 398.062L106.918 392.624L114.302 380.562C118.363 373.928 127.256 359.434 134.065 348.352L146.444 328.205L152.472 327.812C155.787 327.596 160.032 326.65 161.904 325.709C163.776 324.769 165.66 324 166.091 324C167.318 324 213.343 355.967 214.804 357.834C215.521 358.75 217.895 361.975 220.08 365C239.373 391.715 271.308 408.014 304.322 407.996C318.301 407.988 336.616 403.808 347.906 398.048L352.274 395.819L360.137 403.636L368 411.453V429.727V448H208H48V232V16H208H368V119.008ZM224.215 33.257C219.562 34.748 212.596 41.206 210.22 46.23L208.201 50.5L179.351 61.263L150.5 72.026L125.705 72.013L100.909 72L98.455 74.455C97.105 75.805 96 77.553 96 78.341C96 79.281 94.382 80.016 91.293 80.479C80.987 82.024 71.713 88.902 66.994 98.5C64.952 102.652 64.542 104.942 64.576 112C64.62 121.316 66.381 126.367 71.932 133.101C75.534 137.472 84.967 142.598 91.063 143.497C94.933 144.069 95.797 144.623 96.75 147.149C97.451 149.007 99.025 150.561 100.937 151.282L104 152.438V177.765V203.091L106.455 205.545C108.889 207.98 109.064 208 128 208C146.936 208 147.111 207.98 149.545 205.545L152 203.091V178.045C152 164.27 152.3 153 152.667 153C153.033 153 165.678 157.613 180.767 163.25L208.2 173.5L210.22 177.77C211.331 180.119 214.184 183.752 216.561 185.844C226.281 194.401 239.751 193.929 248.784 184.715C256.187 177.165 256 179.051 256 112.052C256 44.84 256.168 46.523 248.715 39.216C242.099 32.729 232.868 30.484 224.215 33.257ZM32 253.545V459.091L34.455 461.545L36.909 464H186.455H336V472V480H176H16V264V48H24H32V253.545ZM237.545 50.455L240 52.909V112V171.091L237.545 173.545C235.998 175.093 233.948 176 232 176C230.052 176 228.002 175.093 226.455 173.545L224 171.091V112V52.909L226.455 50.455C228.002 48.907 230.052 48 232 48C233.948 48 235.998 48.907 237.545 50.455ZM304 56V64H328H352V56V48H328H304V56ZM208 112.107C208 146.95 207.737 156.126 206.75 155.795C206.063 155.564 195.262 151.582 182.75 146.945L160 138.515V111.986V85.457L183.25 76.779C196.037 72.006 206.838 68.078 207.25 68.05C207.662 68.023 208 87.848 208 112.107ZM272 88V96H312H352V88V80H312H272V88ZM144 112V136H128H112V112V88H128H144V112ZM96 112C96 129.653 96.137 129.337 89.671 126.636C77.228 121.437 77.087 102.792 89.45 97.407C96.103 94.509 96 94.281 96 112ZM288 120V128H320H352V120V112H320H288V120ZM272 152V160H312H352V152V144H312H272V152ZM136 172V192H128H120V172V152H128H136V172ZM325.5 218.79C358.044 227.702 380.88 250.791 389.586 283.584C392.325 293.903 392.172 314.809 389.279 325.5C380.629 357.461 357.461 380.629 325.5 389.279C314.809 392.172 293.903 392.325 283.584 389.586C244.959 379.332 218.817 348.048 216.291 309.058C214.684 284.263 223.961 260.12 242.04 242.04C255.214 228.866 270.195 220.918 288.5 217.392C297.882 215.584 316.34 216.282 325.5 218.79ZM290 233.447C274.498 236.779 264.427 242.343 252.98 253.899C246.329 260.614 243.532 264.364 240.227 271C234.004 283.497 232.506 290.18 232.607 305C232.68 315.654 233.081 318.682 235.321 325.5C239.086 336.961 244.344 345.35 253.497 354.5C262.762 363.761 269.505 368.012 281.739 372.304C289.67 375.086 291.684 375.382 303 375.428C317.794 375.487 324.59 373.963 336.823 367.84C361.929 355.274 377.67 327.31 375.651 298.863C374.396 281.18 367.593 266.587 354.503 253.497C340.571 239.565 326.172 233.186 307 232.452C300.287 232.195 294.156 232.553 290 233.447ZM321.072 250.937C337.359 255.976 351.394 269.926 357.162 286.81C359.887 294.784 360.353 310.44 358.106 318.5C352.905 337.162 337.162 352.905 318.5 358.106C310.406 360.362 294.785 359.887 286.743 357.14C282.285 355.617 280.217 354.435 280.667 353.666C281.042 353.025 283.046 349.972 285.121 346.883L288.894 341.266L294.197 342.701C302.169 344.86 312.581 343.853 320.473 340.159C329.453 335.957 335.296 330.203 339.765 321.16C343.29 314.028 343.5 313.067 343.5 304.052C343.5 295.402 343.201 293.869 340.335 287.82C335.931 278.524 330.262 272.733 321.161 268.235C314.021 264.706 313.076 264.5 304.004 264.5C294.933 264.5 293.986 264.706 286.843 268.235C277.738 272.733 272.07 278.521 267.665 287.82C264.799 293.869 264.501 295.397 264.51 304C264.519 312.28 264.878 314.265 267.3 319.458C268.829 322.735 271.187 326.867 272.54 328.641C273.893 330.415 275 332.146 275 332.488C275 332.83 273.155 335.826 270.9 339.147L266.801 345.183L263.765 342.342C255.52 334.626 249.638 321.351 248.455 307.792C246.078 280.552 266.836 253.97 294.341 249.031C301.643 247.72 313.376 248.557 321.072 250.937ZM311.384 281.216C319.978 283.755 328 294.755 328 304C328 316.391 316.391 328 304 328C297.71 328 292.645 325.713 287.466 320.534C277.349 310.417 277.349 297.594 287.466 287.455C294.481 280.425 302.037 278.454 311.384 281.216ZM157.545 298.455C162.506 303.415 158.991 312 152 312C147.889 312 144 308.111 144 304C144 299.889 147.889 296 152 296C153.948 296 155.998 296.907 157.545 298.455ZM392.018 371.518L396.452 376.036L386.229 386.258L376.007 396.481L371.431 391.905L366.856 387.329L376.678 377.284C382.08 371.759 386.744 367.185 387.042 367.119C387.34 367.054 389.579 369.033 392.018 371.518ZM440.498 427.998L476.485 463.995L470.238 470.242L463.992 476.488L427.762 440.259L391.533 404.03L397.485 398.015C400.759 394.707 403.679 392 403.974 392C404.269 392 420.705 408.199 440.498 427.998ZM93.545 402.455C98.506 407.415 94.991 416 88 416C83.889 416 80 412.111 80 408C80 403.889 83.889 400 88 400C89.948 400 91.998 400.907 93.545 402.455Z" fill="url(#paint0_linear_112_41)"/>
<defs>
<linearGradient id="paint0_linear_112_41" x1="0" y1="495.839" x2="496.501" y2="495.839" gradientUnits="userSpaceOnUse">
<stop stop-color="#3652E2"/>
<stop offset="1" stop-color="#B5289B"/>
</linearGradient>
</defs>
</svg>
