<svg width="495" height="496" viewBox="0 0 495 496" fill="none" xmlns="http://www.w3.org/2000/svg">
<path fill-rule="evenodd" clip-rule="evenodd" d="M30.118 0.778052C23.905 2.24505 14.83 7.58905 10.412 12.3821C8.167 14.8181 4.905 19.8181 3.165 23.4911L0 30.1711V191.723V353.275L3.735 360.831C8.233 369.933 14.023 375.602 23.32 380.006L30 383.171L111.691 383.449L193.383 383.727L194.044 385.81C195.034 388.93 201.123 395.272 204.451 396.651L207.38 397.864L207.69 431.573L208 465.282L211.735 472.835C216.233 481.933 222.026 487.603 231.32 492.006C237.361 494.868 238.909 495.171 247.5 495.171C256.091 495.171 257.639 494.868 263.68 492.006C272.974 487.603 278.767 481.933 283.265 472.835L287 465.282L287.31 431.573L287.62 397.864L290.549 396.651C293.877 395.272 299.966 388.93 300.956 385.81L301.617 383.727L383.361 383.449L465.106 383.171L472.661 379.436C481.762 374.938 487.431 369.147 491.835 359.851L495 353.171V191.671V30.1711L491.835 23.4911C487.431 14.1951 481.762 8.40405 472.661 3.90605L465.104 0.171052L249.552 0.0160522C121.729 -0.0759478 32.42 0.234052 30.118 0.778052ZM462.884 16.8871C468.377 18.51 476.661 26.7941 478.284 32.2871C478.978 34.6361 479.5 42.2551 479.5 50.0371V63.6711H247.5H15.5V50.0371C15.5 42.2551 16.022 34.6361 16.716 32.2871C18.221 27.1931 26.592 18.5251 31.5 16.9781C36.794 15.3101 457.244 15.2211 462.884 16.8871ZM31.5 39.6711V47.6711H119.5H207.5V39.6711V31.6711H119.5H31.5V39.6711ZM223.5 39.6711V47.6711H247.5H271.5V39.6711V31.6711H247.5H223.5V39.6711ZM287.5 39.6711V47.6711H311.5H335.5V39.6711V31.6711H311.5H287.5V39.6711ZM479.5 213.305C479.5 315.303 479.212 347.913 478.284 351.055C476.661 356.548 468.377 364.832 462.884 366.455C459.807 367.364 439.164 367.671 381.134 367.671H303.5V361.266V354.861L311.706 350.05C325.991 341.676 341.687 327.692 350.034 315.902L353 311.714L376.677 311.692L400.353 311.671L402.797 317.007C405.923 323.836 411.352 329.239 418.414 332.551C426.367 336.281 437.75 336.226 445.107 332.422C452.636 328.53 455.78 325.494 459.551 318.472C462.575 312.841 462.938 311.321 462.967 304.171C462.994 297.585 462.537 295.184 460.38 290.585C457.068 283.523 451.665 278.094 444.836 274.968L439.5 272.524V239.671V206.818L444.836 204.374C451.666 201.248 457.069 195.819 460.379 188.757C462.534 184.162 462.993 181.752 462.969 175.171C462.935 165.585 460.441 159.566 453.72 152.841C447.205 146.322 441.73 144.191 431.5 144.191C421.261 144.191 415.797 146.321 409.251 152.867C402.304 159.815 399.991 165.546 400.048 175.671C400.089 182.897 400.501 184.953 402.798 189.388C406.354 196.254 411.599 201.369 418.164 204.374L423.5 206.818V239.671V272.524L418.25 274.96C411.565 278.063 405.892 283.736 402.789 290.421L400.353 295.671H381.505H362.657L366.187 286.921C372.46 271.375 374.855 258.541 374.911 240.171C374.964 222.6 373.628 213.954 368.466 198.46C354.261 155.82 318.018 123.944 272.5 114.058C260.596 111.472 234.404 111.472 222.5 114.058C196.056 119.802 174.15 131.954 155.688 151.121C150.222 156.796 144.922 162.842 143.909 164.555L142.069 167.671H118.358H94.647L92.203 162.335C89.077 155.506 83.648 150.103 76.586 146.791C71.987 144.634 69.586 144.177 63 144.204C55.85 144.233 54.33 144.596 48.699 147.62C41.677 151.391 38.641 154.535 34.749 162.064C30.945 169.421 30.89 180.804 34.62 188.757C37.932 195.819 43.335 201.248 50.164 204.374L55.5 206.818V239.671V272.524L50.164 274.968C43.599 277.973 38.354 283.088 34.798 289.954C32.501 294.389 32.089 296.445 32.048 303.671C31.991 313.796 34.304 319.527 41.251 326.475C47.797 333.021 53.261 335.151 63.5 335.151C73.73 335.151 79.205 333.02 85.72 326.501C92.441 319.776 94.935 313.757 94.969 304.171C94.993 297.59 94.534 295.18 92.379 290.585C89.069 283.523 83.666 278.094 76.836 274.968L71.5 272.524V239.671V206.818L76.75 204.382C83.435 201.279 89.108 195.606 92.211 188.921L94.647 183.671H113.495H132.343L128.99 191.988C113.091 231.415 117.679 275.548 141.373 311.118C151.061 325.661 169.352 342.457 185.084 351.255L191.5 354.843V361.257V367.671H113.866C55.836 367.671 35.193 367.364 32.116 366.455C26.623 364.832 18.339 356.548 16.716 351.055C15.788 347.913 15.5 315.303 15.5 213.305V79.6711H247.5H479.5V213.305ZM264.5 129.126C320.714 137.662 362.112 188.155 359.187 244.615C357.104 284.829 334.661 320.242 299.729 338.431C283.649 346.804 270.262 350.43 251.927 351.378C225.965 352.721 198.419 343.668 177.476 326.912C125.552 285.368 121.371 207.825 168.512 160.683C193.923 135.273 229.013 123.736 264.5 129.126ZM232.528 144.741C210.841 148.614 191.985 158.8 177.368 174.536C166.125 186.639 158.834 200.002 154.353 216.718C151.405 227.711 151.125 250.341 153.804 261.034C158.481 279.701 166.646 293.981 180.471 307.671C193.786 320.856 207.901 328.798 226.147 333.369C236.83 336.046 259.465 335.764 270.453 332.818C289.191 327.795 301.364 320.78 314.987 307.158C328.587 293.557 335.565 281.46 340.674 262.624C343.861 250.875 343.89 229.079 340.735 216.983C336.038 198.975 328.079 185.016 315.117 172.054C302.287 159.224 288.091 151.082 270.646 146.549C261.725 144.231 240.913 143.244 232.528 144.741ZM69.829 161.035C80.103 165.328 82.608 178.798 74.618 186.789C68.131 193.275 58.869 193.275 52.382 186.789C40.016 174.422 53.661 154.28 69.829 161.035ZM259.808 160.784C302.662 167.415 332.799 208.003 326.559 250.683C318.219 307.715 254.666 337.772 205.913 307.741C164.333 282.128 155.049 226.402 186.063 188.594C203.621 167.19 232.013 156.483 259.808 160.784ZM437.829 161.035C448.103 165.328 450.608 178.798 442.618 186.789C436.131 193.275 426.869 193.275 420.382 186.789C408.016 174.422 421.661 154.28 437.829 161.035ZM69.829 289.035C80.182 293.361 82.591 306.58 74.5 314.671C67.885 321.286 58.928 321.334 52.382 314.789C40.016 302.422 53.661 282.28 69.829 289.035ZM437.829 289.035C448.182 293.361 450.591 306.58 442.5 314.671C435.885 321.286 426.928 321.334 420.382 314.789C408.016 302.422 421.661 282.28 437.829 289.035ZM214.5 363.203C223.381 365.637 238.353 367.659 247.5 367.659C256.647 367.659 271.619 365.637 280.5 363.203C283.525 362.373 286.337 361.689 286.75 361.683C287.163 361.676 287.5 365.516 287.5 370.216C287.5 377.956 287.269 378.993 285.045 381.216L282.591 383.671H247.5H212.409L209.955 381.216C207.731 378.993 207.5 377.956 207.5 370.216C207.5 365.516 207.838 361.676 208.25 361.683C208.662 361.689 211.475 362.373 214.5 363.203ZM271.5 429.305C271.5 449.649 271.119 460.229 270.284 463.055C267.745 471.649 256.745 479.671 247.5 479.671C238.255 479.671 227.255 471.649 224.716 463.055C223.881 460.229 223.5 449.649 223.5 429.305V399.671H247.5H271.5V429.305Z" fill="url(#paint0_linear_114_56)"/>
<defs>
<linearGradient id="paint0_linear_114_56" x1="0" y1="495.011" x2="495.5" y2="495.011" gradientUnits="userSpaceOnUse">
<stop stop-color="#3652E2"/>
<stop offset="1" stop-color="#B5289B"/>
</linearGradient>
</defs>
</svg>
