<svg width="497" height="432" viewBox="0 0 497 432" fill="none" xmlns="http://www.w3.org/2000/svg">
<path fill-rule="evenodd" clip-rule="evenodd" d="M94.783 0.777945C88.565 2.25094 79.493 7.59394 75.077 12.3849C68.508 19.5119 65 28.1719 64.396 38.7499L63.888 47.6739H54.392C49.17 47.6739 43.045 48.221 40.781 48.8899C35.288 50.513 27.004 58.7969 25.381 64.2899C24.451 67.4369 24.165 101.761 24.165 210.04V351.674H14.62C5.734 351.674 4.899 351.849 2.537 354.211L0 356.749L0.332 379.017L0.665 401.286L4.4 408.839C8.898 417.936 14.692 423.607 23.985 428.009L30.665 431.174H248.217H465.769L473.325 427.439C482.427 422.941 488.096 417.151 492.5 407.854L495.665 401.174L495.998 378.961L496.33 356.749L493.793 354.211C491.431 351.849 490.596 351.674 481.71 351.674H472.165V210.04C472.165 103.513 471.87 67.4229 470.976 64.4379C470.322 62.2559 467.842 58.3069 465.464 55.6619C459.808 49.3709 454.85 47.6739 442.126 47.6739H432.442L431.934 38.7499C431.013 22.6109 423.388 10.8589 409.326 3.90895L401.769 0.173944L250.217 0.0159435C160.914 -0.0760565 97.07 0.236945 94.783 0.777945ZM399.549 16.8899C405.042 18.5129 413.326 26.7969 414.949 32.2899C416.71 38.2499 416.71 297.098 414.949 303.058C413.326 308.551 405.042 316.835 399.549 318.458C393.582 320.221 102.748 320.221 96.781 318.458C91.288 316.835 83.004 308.551 81.381 303.058C79.62 297.098 79.62 38.2499 81.381 32.2899C82.886 27.1959 91.257 18.5279 96.165 16.9809C101.445 15.3169 393.928 15.2289 399.549 16.8899ZM96.165 39.6739V47.6739H104.165H112.165V39.6739V31.6739H104.165H96.165V39.6739ZM384.165 39.6739V47.6739H392.165H400.165V39.6739V31.6739H392.165H384.165V39.6739ZM120.165 111.674V167.674H110.62C101.818 167.674 100.883 167.865 98.62 170.129C96.185 172.563 96.165 172.738 96.165 191.674C96.165 210.61 96.185 210.785 98.62 213.219C100.883 215.483 101.818 215.674 110.62 215.674H120.165V247.674V279.674H128.165H136.165V247.674V215.674H145.71C154.512 215.674 155.447 215.483 157.71 213.219C160.145 210.785 160.165 210.61 160.165 191.674C160.165 172.738 160.145 172.563 157.71 170.129C155.447 167.865 154.512 167.674 145.71 167.674H136.165V111.674V55.6739H128.165H120.165V111.674ZM200.165 75.6739V95.6739H190.62C181.818 95.6739 180.883 95.8649 178.62 98.1289C176.185 100.563 176.165 100.738 176.165 119.674C176.165 138.61 176.185 138.785 178.62 141.219C180.883 143.483 181.818 143.674 190.62 143.674H200.165V211.674V279.674H208.165H216.165V211.674V143.674H225.71C234.512 143.674 235.447 143.483 237.71 141.219C240.145 138.785 240.165 138.61 240.165 119.674C240.165 100.738 240.145 100.563 237.71 98.1289C235.447 95.8649 234.512 95.6739 225.71 95.6739H216.165V75.6739V55.6739H208.165H200.165V75.6739ZM280.165 127.674V199.674H270.62C261.818 199.674 260.883 199.865 258.62 202.129C256.185 204.563 256.165 204.738 256.165 223.674C256.165 242.61 256.185 242.785 258.62 245.219C260.883 247.483 261.818 247.674 270.62 247.674H280.165V263.674V279.674H288.165H296.165V263.674V247.674H305.71C314.512 247.674 315.447 247.483 317.71 245.219C320.145 242.785 320.165 242.61 320.165 223.674C320.165 204.738 320.145 204.563 317.71 202.129C315.447 199.865 314.512 199.674 305.71 199.674H296.165V127.674V55.6739H288.165H280.165V127.674ZM360.165 95.6739V135.674H350.62C341.818 135.674 340.883 135.865 338.62 138.129C336.185 140.563 336.165 140.738 336.165 159.674C336.165 178.61 336.185 178.785 338.62 181.219C340.883 183.483 341.818 183.674 350.62 183.674H360.165V231.674V279.674H368.165H376.165V231.674V183.674H385.71C394.512 183.674 395.447 183.483 397.71 181.219C400.145 178.785 400.165 178.61 400.165 159.674C400.165 140.738 400.145 140.563 397.71 138.129C395.447 135.865 394.512 135.674 385.71 135.674H376.165V95.6739V55.6739H368.165H360.165V95.6739ZM64.395 184.476L64.665 305.279L68.4 312.835C72.898 321.936 78.689 327.605 87.985 332.009L94.665 335.174H248.217H401.769L409.325 331.439C418.427 326.941 424.096 321.151 428.5 311.854L431.665 305.174L431.935 184.424L432.204 63.6739H441.73C450.511 63.6739 451.448 63.8659 453.71 66.1289L456.165 68.5829V210.129V351.674H248.165H40.165V210.129V68.5829L42.62 66.1289C44.882 63.8659 45.819 63.6739 54.6 63.6739H64.126L64.395 184.476ZM224.165 119.674V127.674H208.165H192.165V119.674V111.674H208.165H224.165V119.674ZM384.165 159.674V167.674H368.165H352.165V159.674V151.674H368.165H384.165V159.674ZM144.165 191.674V199.674H128.165H112.165V191.674V183.674H128.165H144.165V191.674ZM304.165 223.674V231.674H288.165H272.165V223.674V215.674H288.165H304.165V223.674ZM96.165 295.674V303.674H104.165H112.165V295.674V287.674H104.165H96.165V295.674ZM384.165 295.674V303.674H392.165H400.165V295.674V287.674H392.165H384.165V295.674ZM160.165 373.308C160.165 376.407 160.712 380.794 161.381 383.058C163.004 388.551 171.288 396.835 176.781 398.458C182.676 400.2 313.654 400.2 319.549 398.458C325.042 396.835 333.326 388.551 334.949 383.058C335.618 380.794 336.165 376.407 336.165 373.308V367.674H408.165H480.165V381.308C480.165 389.09 479.643 396.709 478.949 399.058C477.326 404.551 469.042 412.835 463.549 414.458C457.564 416.226 38.766 416.226 32.781 414.458C27.288 412.835 19.004 404.551 17.381 399.058C16.687 396.709 16.165 389.09 16.165 381.308V367.674H88.165H160.165V373.308ZM320.165 373.219C320.165 377.774 319.726 379.204 317.71 381.219L315.256 383.674H248.165H181.074L178.62 381.219C176.604 379.204 176.165 377.774 176.165 373.219V367.674H248.165H320.165V373.219Z" fill="url(#paint0_linear_107_21)"/>
<defs>
<linearGradient id="paint0_linear_107_21" x1="0" y1="431.034" x2="496.831" y2="431.034" gradientUnits="userSpaceOnUse">
<stop stop-color="#3652E2"/>
<stop offset="1" stop-color="#B5289B"/>
</linearGradient>
</defs>
</svg>
