<svg width="496" height="496" viewBox="0 0 496 496" fill="none" xmlns="http://www.w3.org/2000/svg">
<path fill-rule="evenodd" clip-rule="evenodd" d="M265 0.998534C257.528 2.94453 251.604 5.88053 245.733 10.5475C238.862 16.0085 234.263 22.3715 230.344 31.8385L227.166 39.5165L201.083 39.8455C175.694 40.1665 174.867 40.2405 170 42.6435C163.63 45.7895 157.635 51.7805 154.476 58.1605L152 63.1605L151.732 167.376L151.464 271.591L87.232 271.876L23 272.161L18 274.637C11.625 277.794 5.633 283.786 2.476 290.161L0 295.161V383.661V472.161L2.257 476.692C5.807 483.817 9.843 488.027 16.675 491.732L23 495.161H167.5H312L318.301 491.744C325.3 487.949 328.314 484.835 332.305 477.268L335 472.161L335.283 403.911L335.566 335.661H413.078H490.591L493.045 333.206L495.5 330.752V211.661V92.5695L493.045 90.1155C491.03 88.0995 489.6 87.6605 485.045 87.6605H479.5V66.1155C479.5 44.5725 479.5 44.5695 477.045 42.1155L474.591 39.6605H416.695H358.799L328.819 22.2955C312.33 12.7455 296.175 3.93353 292.919 2.71553C285.577 -0.0324662 272.133 -0.859466 265 0.998534ZM285 16.7545C287.2 17.3505 315.973 33.4355 348.939 52.4985L408.879 87.1605L318.528 87.4155C268.835 87.5565 227.97 87.4635 227.717 87.2105C227.116 86.6095 244.104 39.5335 247.055 33.6205C249.336 29.0505 256.162 21.9865 260.606 19.5985C267.55 15.8655 277.452 14.7115 285 16.7545ZM217.354 66.9105C215.106 73.0985 212.559 80.2985 211.693 82.9105L210.118 87.6605H195.277C178.731 87.6605 175.545 86.8795 171.243 81.7675C166.401 76.0125 166.399 67.3105 171.24 61.5575C175.769 56.1745 177.945 55.7425 200.72 55.6995L221.44 55.6605L217.354 66.9105ZM463.5 71.6605V87.6605H452.58H441.659L414.992 72.2395C400.325 63.7575 388.064 56.5575 387.746 56.2395C387.427 55.9215 404.342 55.6605 425.333 55.6605H463.5V71.6605ZM175.409 102.281C179.075 103.429 205.065 103.661 329.659 103.661H479.5V135.605V167.548L442.75 167.855L406 168.161L399.32 171.326C390.023 175.73 384.233 181.399 379.735 190.501C376.21 197.633 376 198.594 376 207.609C376 216.259 376.299 217.792 379.165 223.841C383.568 233.135 389.238 238.928 398.336 243.426L405.89 247.161L442.695 247.467L479.5 247.774V283.717V319.661H407.621H335.741L335.324 307.411C334.929 295.787 334.735 294.838 331.524 288.836C327.876 282.014 323.679 277.979 316.531 274.418L312 272.161L239.75 271.88L167.5 271.598V185.523C167.5 103.936 167.591 99.4845 169.25 100.174C170.213 100.574 172.984 101.522 175.409 102.281ZM479.5 207.661V231.661H445.866C422.382 231.661 410.99 231.294 408.116 230.445C402.623 228.822 394.339 220.538 392.716 215.045C389.947 205.672 391.899 198.199 398.966 191.116C401.735 188.342 405.575 185.575 407.5 184.968C409.738 184.263 423.349 183.828 445.25 183.763L479.5 183.661V207.661ZM312.115 290.223C315.962 293.095 318.366 296.595 319.113 300.411L319.75 303.661H167.625C36.137 303.661 15.5 303.466 15.5 302.226C15.5 299.737 17.551 295.25 19.817 292.784C24.692 287.475 17.396 287.712 168.677 287.945C309.032 288.161 309.36 288.166 312.115 290.223ZM319.5 331.661V343.661H167.5H15.5V331.661V319.661H167.5H319.5V331.661ZM319.275 414.588C319.006 468.286 318.954 469.578 316.938 472.277C315.804 473.795 313.634 475.965 312.115 477.099C309.356 479.159 309.211 479.161 167.5 479.161C25.789 479.161 25.644 479.159 22.885 477.099C21.366 475.965 19.196 473.795 18.062 472.277C16.046 469.578 15.994 468.286 15.725 414.588L15.45 359.661H167.5H319.55L319.275 414.588ZM31.5 383.661V391.661H43.5H55.5V383.661V375.661H43.5H31.5V383.661ZM71.5 383.661V391.661H83.5H95.5V383.661V375.661H83.5H71.5V383.661ZM111.5 383.661V391.661H123.5H135.5V383.661V375.661H123.5H111.5V383.661ZM151.5 383.661V391.661H163.5H175.5V383.661V375.661H163.5H151.5V383.661ZM241.955 402.116L239.5 404.57V431.661V458.752L241.955 461.206L244.409 463.661H271.5H298.591L301.045 461.206L303.5 458.752V431.661V404.57L301.045 402.116L298.591 399.661H271.5H244.409L241.955 402.116ZM33.955 418.116C31.52 420.549 31.5 420.725 31.5 439.661C31.5 458.597 31.52 458.772 33.955 461.206L36.409 463.661H63.5H90.591L93.045 461.206C95.48 458.772 95.5 458.597 95.5 439.661C95.5 420.725 95.48 420.549 93.045 418.116L90.591 415.661H63.5H36.409L33.955 418.116ZM113.955 418.116C111.52 420.549 111.5 420.725 111.5 439.661C111.5 458.597 111.52 458.772 113.955 461.206L116.409 463.661H143.5H170.591L173.045 461.206C175.48 458.772 175.5 458.597 175.5 439.661C175.5 420.725 175.48 420.549 173.045 418.116L170.591 415.661H143.5H116.409L113.955 418.116ZM287.5 431.661V447.661H271.5H255.5V431.661V415.661H271.5H287.5V431.661ZM79.5 439.661V447.661H63.5H47.5V439.661V431.661H63.5H79.5V439.661ZM159.5 439.661V447.661H143.5H127.5V439.661V431.661H143.5H159.5V439.661Z" fill="url(#paint0_linear_114_66)"/>
<defs>
<linearGradient id="paint0_linear_114_66" x1="0" y1="495" x2="496" y2="495" gradientUnits="userSpaceOnUse">
<stop stop-color="#3652E2"/>
<stop offset="1" stop-color="#B5289B"/>
</linearGradient>
</defs>
</svg>
